<svg xmlns="http://www.w3.org/2000/svg" xmlns:xlink="http://www.w3.org/1999/xlink" width="408.5" height="429.528" viewBox="0 0 408.5 429.528">
  <defs>
    <clipPath id="clip-path">
      <rect id="Rectangle_21" data-name="Rectangle 21" width="241" height="251.358" fill="none"/>
    </clipPath>
    <clipPath id="clip-path-2">
      <rect id="Rectangle_28" data-name="Rectangle 28" width="45.5" height="45.492" fill="none"/>
    </clipPath>
    <clipPath id="clip-path-3">
      <rect id="Rectangle_28-2" data-name="Rectangle 28" width="26.871" height="26.866" fill="none"/>
    </clipPath>
    <clipPath id="clip-path-5">
      <rect id="Rectangle_29" data-name="Rectangle 29" width="52.913" height="48.952" fill="none"/>
    </clipPath>
    <clipPath id="clip-path-6">
      <rect id="Rectangle_29-2" data-name="Rectangle 29" width="37.143" height="34.363" fill="none"/>
    </clipPath>
  </defs>
  <g id="Vectors" transform="translate(101 100.816)">
    <g id="Group_1312" data-name="Group 1312" clip-path="url(#clip-path)">
      <path id="Path_1212" data-name="Path 1212" d="M134.407,240.64c-1.247.642-2.816-.143-3.974.9H110.8c-2.659-1.1-5.54-.878-8.3-1.375-44.378-7.982-76.228-32.384-93.2-74.112C-6.544,127.108-1.819,89.425,21,54.075c2.331.8,3.617,2.891,5.31,4.432,3.7,3.362,7.663,6.454,10.889,10.316-2.279-.05-4.566-.9-6.833.076-4.373,1.2-6.623,4.33-7.216,8.571-.567,4.058,1.5,7.132,4.412,9.791,3.475,3.17,7.208,6.077,10.2,9.751a11.062,11.062,0,0,0-7.386-.579c-6.962,1.653-10.293,11.292-3.86,17.354,3.2,3.012,6.5,5.907,9.71,8.907.437.409,1.456.629.967,1.64a12.1,12.1,0,0,0-6.8-.341c-5.991,1.98-8.776,7.807-6.509,13.572a10.376,10.376,0,0,0,2.652,3.758q6.836,6.454,13.669,12.91c0,6.211-.064,12.42.009,18.63.136,11.533,9.285,18.025,17.544,17.737,6.852-.239,13.723-.007,20.586.015,3.81,5.986,8.978,10.67,14.384,15.152,7.884,6.537,17.506,9.922,26.351,14.716,1.086.839,2.165,1.687,3.259,2.516,5.985,4.539,10.667,9.968,12.067,17.642" transform="translate(0 9.823)" fill="#e0e0e0"/>
      <path id="Path_1213" data-name="Path 1213" d="M72.18,200.436c-6.862-.022-13.732-.254-20.584-.014-8.259.288-17.408-6.2-17.544-17.738-.073-6.208-.011-12.419-.011-18.629a21.612,21.612,0,0,1,2.075,1.653,11.785,11.785,0,0,0,8.646,3.762c0,4.006.214,8.026-.039,12.016-.321,5.081,2.556,8.555,8.482,8.467,13.728-.2,27.46-.222,41.191-.266,11.937-.039,23.875.014,35.813-.02,4.736-.013,7.183-2.524,7.27-7.279.006-.327,0-.653,0-.981V19.021c0-.572.027-1.146-.013-1.716-.288-4.039-2.759-6.431-6.806-6.486q-5.764-.078-11.528.007a3.882,3.882,0,0,0-4.192,3.587c-.626,3.873-1.908,5.03-5.826,5.021q-18.393-.041-36.785-.154c-2.854-.015-4.516-1.491-4.97-4.3-.521-3.234-1.692-4.3-5-4.36q-5.027-.085-10.056,0a7.471,7.471,0,0,0-5.048,1.487,7.482,7.482,0,0,0-2.5,6.075q.021,36.3-.041,72.607A133.427,133.427,0,0,1,33.935,80.631q.005-7.14.013-14.278-.005-8.558-.011-17.114.011-3.657.022-7.313c.03-8,.039-16.005.093-24.008.06-8.808,5.232-15.39,13.684-17.556A12.427,12.427,0,0,1,50.891.13C76.864.121,102.839.356,128.807,0c9.6-.131,17.928,5.442,19.289,15.767.012,5.475.012,10.948.035,16.423q.055,12.25.134,24.5c-.041,1.712-.119,3.427-.121,5.141q-.046,59.568-.079,119.134a25.142,25.142,0,0,1-.52,6.325,16.88,16.88,0,0,1-16.783,13.044q-29.292.085-58.583.1" transform="translate(6.164 0)" fill="#0a0a08"/>
      <path id="Path_1214" data-name="Path 1214" d="M130.717,54.267q-.069-12.25-.135-24.5c-.024-5.475-.024-10.948-.034-16.423a117.6,117.6,0,0,1,44,23.608c1.309,1.1,2.552,2.276,3.826,3.416-.229.334-.449.675-.69,1-5.306,7.175-9.031,14.91-8.6,24.13.242,5.152,2.226,9.814,4.118,14.492,5.974,14.779,12.86,29.259,14.808,45.352a100.3,100.3,0,0,1,.417,19.006c-.384,5.6-1.65,11.074-1.8,16.727-.285,11,9.8,18.349,18.86,19.159a117.042,117.042,0,0,1-24.621,34.421c-.593-.256-.749-.846-.945-1.359-2.646-6.9-5.215-13.823-7.924-20.694-1.628-4.129-2.817-8.439-4.971-12.358-.691-2.84-1.732-5.567-2.005-8.54-.62-6.742.658-13.333,1.36-19.958a83.013,83.013,0,0,0-.58-24.359c-1.51-7.994-5.229-15.08-8.618-22.306-4.574-9.749-7.352-19.838-6.894-30.729.236-5.628.125-11.276.031-16.913a9.956,9.956,0,0,0-12.989-9.63c-3.29,1.014-5.192,3.508-6.623,6.457" transform="translate(23.714 2.424)" fill="#e0e0e0"/>
      <path id="Path_1215" data-name="Path 1215" d="M199.577,176.08c-9.064-.809-19.146-8.156-18.86-19.159.148-5.653,1.413-11.123,1.8-16.727a100.4,100.4,0,0,0-.416-19.006c-1.95-16.093-8.834-30.573-14.81-45.352-1.891-4.678-3.875-9.34-4.118-14.492-.436-9.22,3.292-16.956,8.6-24.13.241-.325.461-.665.69-1a108.658,108.658,0,0,1,20.666,24.7,116.371,116.371,0,0,1,16.986,46.206,119.568,119.568,0,0,1-9.76,67.753,10.143,10.143,0,0,1-.77,1.21" transform="translate(29.634 6.578)" fill="#d6d6d6"/>
      <path id="Path_1216" data-name="Path 1216" d="M172.443,154.589c2.154,3.918,3.342,8.228,4.971,12.358,2.71,6.87,5.277,13.8,7.923,20.694.2.513.352,1.1.947,1.359a105.987,105.987,0,0,1-21.94,17.116,117.53,117.53,0,0,1-47.273,16.3,6.22,6.22,0,0,1-.97-.034c-1.4-7.675-6.082-13.1-12.067-17.642-1.094-.83-2.173-1.677-3.259-2.516,3.452.468,6.889,1.158,10.355,1.362a56.239,56.239,0,0,0,25.985-4.447c14.369-6.232,24.805-16.441,31.077-30.9,1.918-4.423,2.927-9.075,4.252-13.654" transform="translate(18.306 28.081)" fill="#fa9a58"/>
      <path id="Path_1217" data-name="Path 1217" d="M37.283,59.316q-.007,7.14-.014,14.278a5.576,5.576,0,0,1-2.4-1.413l-.525-.592.019.021c-3.225-3.863-7.192-6.954-10.888-10.317-1.694-1.541-2.98-3.637-5.31-4.431.1-1-.636-1.631-1.063-2.393a11.332,11.332,0,0,1,4.5-15.731c.156,3.592,1.014,7.038,3.605,9.587,3.878,3.813,8.035,7.342,12.074,10.992" transform="translate(2.829 7.037)" fill="#fa9a58"/>
      <path id="Path_1218" data-name="Path 1218" d="M36.356,59.549c-4.039-3.65-8.2-7.179-12.074-10.992-2.591-2.549-3.449-5.995-3.605-9.587,3.89-2.415,7.8-1.556,11.714-.071a25.1,25.1,0,0,0,3.955,3.537q.005,8.556.011,17.113" transform="translate(3.756 6.804)" fill="#ffbe98"/>
      <path id="Path_1219" data-name="Path 1219" d="M34.545,42.8A25.147,25.147,0,0,1,30.59,39.26l3.977-3.779q-.012,3.658-.022,7.314" transform="translate(5.557 6.445)" fill="#ce6b1a"/>
      <path id="Path_1220" data-name="Path 1220" d="M178.705,175.02c-1.325,4.579-2.334,9.231-4.252,13.654-6.272,14.456-16.709,24.666-31.077,30.9a56.239,56.239,0,0,1-25.985,4.447c-3.466-.2-6.9-.894-10.355-1.362-8.845-4.794-18.467-8.181-26.351-14.716-5.406-4.482-10.575-9.166-14.384-15.154q29.29-.046,58.582-.1a16.876,16.876,0,0,0,16.782-13.044,25.075,25.075,0,0,0,.521-6.324q.041-59.568.079-119.134c0-1.715.079-3.429.121-5.143,1.432-2.947,3.335-5.44,6.623-6.454A9.954,9.954,0,0,1,162,52.216c.1,5.636.206,11.284-.031,16.913-.457,10.891,2.322,20.98,6.894,30.729,3.39,7.226,7.109,14.312,8.618,22.306a83.012,83.012,0,0,1,.581,24.359c-.7,6.626-1.98,13.216-1.361,19.957.273,2.974,1.315,5.7,2.006,8.541" transform="translate(12.044 7.65)" fill="#ffbe98"/>
      <path id="Path_1221" data-name="Path 1221" d="M33.648,117.823c.489-1.011-.529-1.231-.967-1.64-3.208-3-6.514-5.9-9.711-8.907-6.432-6.063-3.1-15.7,3.86-17.355a11.836,11.836,0,0,0,4.321,11.338c4.481,3.8,8.762,7.817,12.943,11.944,3.354,3.311,7.064,5.829,12.133,5.037q-.14.6-.282,1.195c-1.692,3.677-4.811,5.378-8.573,6.186l-5.345-.965c-3.131-1.863-5.153-5.086-8.38-6.832" transform="translate(3.548 16.334)" fill="#fa9a58"/>
      <path id="Path_1222" data-name="Path 1222" d="M47.376,148.9a11.785,11.785,0,0,1-8.646-3.762,21.759,21.759,0,0,0-2.075-1.653q-6.833-6.455-13.669-12.91a10.4,10.4,0,0,1-2.65-3.759c-2.268-5.765.519-11.592,6.509-13.572a12.031,12.031,0,0,0,4.488,11.5c4.382,3.774,8.659,7.691,12.748,11.78,3.424,3.424,7.15,5.634,12.154,4.955-.087,1.455-1,2.509-1.763,3.636a11.813,11.813,0,0,1-7.095,3.781" transform="translate(3.551 20.571)" fill="#fa9a58"/>
      <path id="Path_1223" data-name="Path 1223" d="M34.221,94.733c-3-3.674-6.731-6.581-10.2-9.751-2.913-2.658-4.979-5.733-4.412-9.791.593-4.241,2.843-7.372,7.216-8.571-.444,4,.226,7.651,3.41,10.435,4.4,3.849,8.679,7.828,12.884,11.893,3.644,3.525,7.358,7.045,13.119,6.039-.1,1.263-.951,2.19-1.464,3.267a12.7,12.7,0,0,1-7.4,4.007l-5.328-.87q-3.91-3.329-7.818-6.66" transform="translate(3.544 12.102)" fill="#fa9a58"/>
      <path id="Path_1224" data-name="Path 1224" d="M55.128,95.059c-5.761,1.006-9.474-2.515-13.119-6.039-4.2-4.065-8.48-8.045-12.884-11.893-3.185-2.783-3.855-6.439-3.41-10.435,2.268-.97,4.554-.124,6.832-.074l-.019-.021.526.592a5.562,5.562,0,0,0,2.4,1.413A133.427,133.427,0,0,0,46.228,78.758c.624.619,1.251,1.236,1.873,1.859,2.536,2.543,5.638,4.594,7.066,8.1.475,2.115.86,4.23-.039,6.337" transform="translate(4.649 12.03)" fill="#ffbe98"/>
      <path id="Path_1225" data-name="Path 1225" d="M33.118,90.559q3.908,3.33,7.818,6.66l5.287,4.846,7.441,7.134c1.693,2.84,2.741,5.783,1.465,9.1-5.07.793-8.781-1.725-12.134-5.037-4.18-4.128-8.462-8.145-12.943-11.943a11.832,11.832,0,0,1-4.32-11.338,11.063,11.063,0,0,1,7.386.579" transform="translate(4.647 16.275)" fill="#ffbe98"/>
      <path id="Path_1226" data-name="Path 1226" d="M55.136,141.534c-5,.679-8.731-1.531-12.154-4.955-4.089-4.09-8.366-8.006-12.749-11.781a12.033,12.033,0,0,1-4.488-11.5,12.113,12.113,0,0,1,6.8.343c3.226,1.746,5.249,4.969,8.379,6.832l5.287,4.877q3.731,3.589,7.461,7.177c1.715,2.805,2.706,5.726,1.463,9.011" transform="translate(4.65 20.521)" fill="#ffbe98"/>
      <path id="Path_1227" data-name="Path 1227" d="M50.5,151.418l-7.461-7.179q.03-1.955.059-3.911c3.762-.807,6.88-2.509,8.571-6.182A7.176,7.176,0,0,0,56.34,135.9c21.992-.034,43.985.018,65.977.04,4.137,0,5.789-1.615,5.8-5.771q.035-13.122,0-26.243c-.006-4.618-1.739-6.356-6.321-6.351q-32.007.027-64.015.033A9.681,9.681,0,0,0,52,99.125c-1.429-3.509-4.529-5.561-7.066-8.1-.62-.622-1.248-1.238-1.872-1.858q.03-36.3.04-72.605a7.484,7.484,0,0,1,2.5-6.076,7.466,7.466,0,0,1,5.047-1.487q5.027-.087,10.057,0c3.312.057,4.483,1.126,5,4.361.454,2.812,2.116,4.288,4.971,4.3q18.391.1,36.784.154c3.918.009,5.2-1.147,5.826-5.021A3.883,3.883,0,0,1,117.479,9.2q5.762-.083,11.528-.007c4.048.056,6.518,2.447,6.806,6.486.04.57.013,1.144.013,1.716q0,81.194,0,162.387c0,.327,0,.653,0,.981-.086,4.755-2.533,7.266-7.27,7.279-11.937.034-23.875-.018-35.813.02-13.731.044-27.462.063-41.191.267-5.926.087-8.8-3.387-8.482-8.468.253-3.99.044-8.01.04-12.016a11.819,11.819,0,0,0,7.092-3.777c.575.9.357,1.9.4,2.87.13,3.1-.215,6.2.253,9.3.631,4.174,1.832,5.309,6.056,5.315q32.622.046,65.244.06c4.431,0,5.963-1.575,5.97-6.108q.021-12.755,0-25.509c0-5.02-1.754-6.773-6.767-6.771q-31.885.021-63.771.053c-5.007,0-6.758,1.676-6.988,6.672-.022.489-.061.978-.092,1.468m38.8-61.192v.08q16.431,0,32.864,0c4.2,0,5.938-1.725,5.948-5.945q.032-13,0-26c0-4.878-1.575-6.442-6.442-6.436Q89.307,51.96,56.933,52c-4.2,0-6.159,1.516-6.252,5.746q-.294,13.361,0,26.73c.093,4.235,2.044,5.744,6.252,5.744H89.306m-.053-50.085v.144c7.927,0,15.853.022,23.778-.011,3.709-.015,5.816-2.05,5.794-5.45-.021-3.318-2.282-5.476-5.855-5.47q-23.776.046-47.551.119a4.527,4.527,0,0,0-3.4,1.1c-1.578,1.568-2.581,3.406-1.8,5.7.8,2.36,2.3,3.886,5.014,3.879,8.006-.022,16.013-.008,24.018-.008" transform="translate(7.819 1.626)" fill="#4396d2"/>
      <path id="Path_1228" data-name="Path 1228" d="M31.989,67.131l-.525-.592.525.592" transform="translate(5.715 12.087)" fill="#ce6b1a"/>
      <path id="Path_1229" data-name="Path 1229" d="M50.852,85.5a9.69,9.69,0,0,1,5.789-1.518c21.338.032,42.676-.015,64.015-.033,4.581,0,6.315,1.735,6.321,6.351q.016,13.122,0,26.244c-.011,4.156-1.663,5.775-5.8,5.771-21.993-.024-43.986-.076-65.977-.041a7.181,7.181,0,0,1-4.668-1.754c.1-.4.19-.8.285-1.2,1.277-3.317.229-6.26-1.465-9.1q0-7.56,0-15.117c.513-1.078,1.365-2,1.464-3.267.9-2.107.515-4.222.039-6.337m25.226,7.1v-.037c-3.105,0-6.211-.038-9.315.012-2.822.045-4.533,1.511-4.5,3.735C62.3,98.442,63.969,99.979,66.6,100q9.314.08,18.63-.041c2.6-.037,4.235-1.692,4.132-3.853-.1-2.089-1.653-3.437-4.216-3.489-3.021-.06-6.045-.014-9.069-.014" transform="translate(8.964 15.25)" fill="#e3eaf7"/>
      <path id="Path_1230" data-name="Path 1230" d="M43.914,120.281q-.028,1.955-.058,3.911l-5.287-4.877,5.345.965" transform="translate(7.006 21.674)" fill="#0a0a08"/>
      <path id="Path_1231" data-name="Path 1231" d="M49.4,130.776c.031-.489.07-.977.092-1.466.232-5,1.982-6.668,6.989-6.672q31.885-.027,63.771-.053c5.014,0,6.764,1.75,6.767,6.771q.009,12.755,0,25.508c-.007,4.534-1.539,6.11-5.97,6.109q-32.621-.014-65.242-.06c-4.226-.006-5.425-1.143-6.056-5.315-.469-3.1-.124-6.2-.253-9.3-.041-.968.177-1.973-.4-2.871.765-1.131,1.678-2.185,1.765-3.639,1.243-3.285.252-6.206-1.463-9.011m26.4.555v-.022c-3.107,0-6.214-.037-9.321.011-2.528.039-4.091,1.41-4.17,3.52a3.784,3.784,0,0,0,3.922,3.851q9.688.122,19.378-.026a3.709,3.709,0,0,0,3.806-3.7c.007-2.133-1.546-3.577-4.048-3.618-3.188-.053-6.377-.013-9.567-.013" transform="translate(8.919 22.268)" fill="#e3eaf7"/>
      <path id="Path_1232" data-name="Path 1232" d="M50.493,93.392q0,7.558,0,15.117l-7.44-7.134q.02-1.989.04-3.976a12.7,12.7,0,0,0,7.4-4.007" transform="translate(7.82 16.965)" fill="#4396d2"/>
      <path id="Path_1233" data-name="Path 1233" d="M43.9,96.917q-.021,1.989-.041,3.976l-5.287-4.845,5.328.869" transform="translate(7.007 17.447)" fill="#0a0a08"/>
      <path id="Path_1234" data-name="Path 1234" d="M88.154,83.62q-16.186,0-32.373,0c-4.208,0-6.159-1.51-6.252-5.745q-.3-13.359,0-26.729c.092-4.23,2.049-5.742,6.252-5.748q32.374-.039,64.746-.078c4.867,0,6.438,1.559,6.442,6.436q.014,13,0,26c-.011,4.218-1.748,5.94-5.948,5.944q-16.433.014-32.864,0V83.62M75.877,61.247v-.02c3.107,0,6.213.043,9.318-.013,2.554-.046,4.084-1.4,4.159-3.522a3.706,3.706,0,0,0-3.929-3.808q-9.563-.144-19.127-.031a3.81,3.81,0,0,0-4.045,3.729c0,2.1,1.585,3.595,4.06,3.649,3.186.069,6.375.017,9.563.017" transform="translate(8.97 8.232)" fill="#e3eaf7"/>
      <path id="Path_1235" data-name="Path 1235" d="M86.653,37c-8.006,0-16.013-.014-24.018.008-2.712.007-4.213-1.52-5.014-3.879-.779-2.295.225-4.132,1.8-5.7a4.527,4.527,0,0,1,3.4-1.1Q86.6,26.3,110.37,26.218c3.573-.006,5.834,2.152,5.855,5.47.022,3.4-2.084,5.434-5.794,5.45-7.925.033-15.852.011-23.778.011V37" transform="translate(10.418 4.763)" fill="#e3eaf7"/>
      <path id="Path_1236" data-name="Path 1236" d="M74.093,91.281c3.024,0,6.048-.046,9.069.014,2.563.052,4.118,1.4,4.216,3.489.1,2.161-1.533,3.817-4.132,3.853q-9.314.131-18.63.041c-2.633-.022-4.306-1.56-4.338-3.688-.033-2.224,1.678-3.69,4.5-3.735,3.1-.05,6.21-.012,9.315-.012v.037" transform="translate(10.949 16.572)" fill="#0a0a08"/>
      <path id="Path_1237" data-name="Path 1237" d="M73.77,129.993c3.189,0,6.379-.04,9.567.013,2.5.041,4.055,1.485,4.048,3.618a3.709,3.709,0,0,1-3.806,3.7q-9.687.154-19.378.026a3.784,3.784,0,0,1-3.922-3.851c.079-2.11,1.642-3.481,4.17-3.52,3.107-.047,6.214-.011,9.321-.011v.022" transform="translate(10.949 23.607)" fill="#0a0a08"/>
      <path id="Path_1238" data-name="Path 1238" d="M73.9,59.943c-3.188,0-6.377.052-9.563-.017-2.476-.054-4.059-1.552-4.06-3.649a3.81,3.81,0,0,1,4.045-3.729q9.563-.1,19.127.031a3.706,3.706,0,0,1,3.929,3.808c-.076,2.122-1.606,3.476-4.159,3.522-3.105.056-6.212.013-9.318.013v.02" transform="translate(10.949 9.537)" fill="#0a0a08"/>
    </g>
    <rect id="Rectangle_8" data-name="Rectangle 8" width="143" height="12" rx="6" transform="translate(49 286.64)" fill="#989898" opacity="0.741"/>
    <g id="Group_1315" data-name="Group 1315" transform="translate(-239 -440.36)">
      <line id="Line_9" data-name="Line 9" x2="22.389" y2="9.795" transform="translate(257.152 347.216)" fill="none" stroke="#f3cca9" stroke-width="6"/>
      <line id="Line_22" data-name="Line 22" x2="22.389" y2="9.795" transform="translate(217.152 657.216)" fill="none" stroke="#f3cca9" stroke-width="6" opacity="0.414"/>
      <line id="Line_18" data-name="Line 18" x2="22.389" y2="9.795" transform="translate(437.152 397.216)" fill="none" stroke="#f3cca9" stroke-width="6" opacity="0.448"/>
      <line id="Line_20" data-name="Line 20" x2="18.333" y2="8.021" transform="translate(177.152 576.076)" fill="none" stroke="#f3cca9" stroke-width="6"/>
      <line id="Line_10" data-name="Line 10" x1="11.195" y2="21.69" transform="translate(262.051 340.919)" fill="none" stroke="#f3cca9" stroke-width="6"/>
      <line id="Line_23" data-name="Line 23" x1="11.195" y2="21.69" transform="translate(222.051 650.919)" fill="none" stroke="#f3cca9" stroke-width="6" opacity="0.414"/>
      <line id="Line_19" data-name="Line 19" x1="11.195" y2="21.69" transform="translate(442.051 390.919)" fill="none" stroke="#f3cca9" stroke-width="6" opacity="0.448"/>
      <line id="Line_21" data-name="Line 21" x1="9.167" y2="17.761" transform="translate(181.163 570.919)" fill="none" stroke="#f3cca9" stroke-width="6"/>
    </g>
    <g id="Group_1330" data-name="Group 1330" transform="translate(257 -55.36)">
      <g id="Group_1329" data-name="Group 1329" transform="translate(0 0)" clip-path="url(#clip-path-2)">
        <path id="Path_1345" data-name="Path 1345" d="M31.613,36.422A16.3,16.3,0,0,1,9.079,13.86a8.6,8.6,0,0,1-3.184.453A8.183,8.183,0,0,1,.171,11.428a.55.55,0,0,1,.046-.836,3.228,3.228,0,0,1,1.9-.93A2.311,2.311,0,0,0,4.441,7.373a3.319,3.319,0,0,1,2.938-2.93A2.3,2.3,0,0,0,9.654,2.169a3.256,3.256,0,0,1,.79-1.792c.442-.491.675-.5,1.148-.045a8.015,8.015,0,0,1,2.316,8.624c7.572-3.953,14.62-3.418,20.8,2.8a16.22,16.22,0,0,1,1.724,19.891,8.4,8.4,0,0,1,4.01-.353A8.305,8.305,0,0,1,45.3,34.044a.565.565,0,0,1-.025.878,3.245,3.245,0,0,1-1.906.923,2.294,2.294,0,0,0-2.307,2.3,3.354,3.354,0,0,1-2.9,2.917A2.3,2.3,0,0,0,35.843,43.4a3.3,3.3,0,0,1-.863,1.819.611.611,0,0,1-1,.025,7.952,7.952,0,0,1-2.368-8.653.843.843,0,0,0,0-.17M22.726,7.656a15.1,15.1,0,1,0,15.126,15.07A15.065,15.065,0,0,0,22.726,7.656M13.147,6.8a7.021,7.021,0,0,0-1.4-4.576c-.2-.253-.39-.707-.684-.617-.251.077-.238.575-.285.9A3.352,3.352,0,0,1,7.71,5.555,2.262,2.262,0,0,0,5.552,7.748,3.479,3.479,0,0,1,4.536,9.841a3.71,3.71,0,0,1-2.233.977c-.256.034-.65,0-.718.274-.055.22.287.393.486.543a6.611,6.611,0,0,0,7.268.816A6.393,6.393,0,0,0,13.147,6.8m19.2,32.014a6.959,6.959,0,0,0,1.311,4.341c.22.3.434.818.784.738.267-.06.249-.636.3-1a3.367,3.367,0,0,1,2.94-2.934,2.284,2.284,0,0,0,2.284-2.314,3.35,3.35,0,0,1,1.005-1.982,3.557,3.557,0,0,1,2.125-.954c.289-.036.743,0,.818-.3.061-.243-.34-.435-.571-.606a6.6,6.6,0,0,0-7.18-.748,6.472,6.472,0,0,0-3.817,5.756" transform="translate(0 0)" fill="#e58c3e" stroke="#e68c3d" stroke-width="2"/>
        <path id="Path_1346" data-name="Path 1346" d="M26.071,39.173a9.872,9.872,0,0,1-9.209-7.091c-.129-.445-.1-.8.364-.933s.635.218.759.6a8.555,8.555,0,0,0,6.61,6.075,5.729,5.729,0,0,0,1.481.166c.434-.015.8.1.782.62-.017.5-.392.561-.788.56" transform="translate(-3.551 -6.581)" fill="#e58c3e" stroke="#e68c3d" stroke-width="2"/>
        <path id="Path_1347" data-name="Path 1347" d="M20.3,20.418a.635.635,0,0,1-.255.513,8.593,8.593,0,0,0-2.2,4.012c-.1.411-.309.7-.768.567-.42-.119-.461-.429-.364-.834a9.921,9.921,0,0,1,2.512-4.584.641.641,0,0,1,.741-.211.5.5,0,0,1,.33.537" transform="translate(-3.525 -4.194)" fill="#e58c3e" stroke="#e68c3d" stroke-width="2"/>
      </g>
    </g>
    <g id="Group_1336" data-name="Group 1336" transform="translate(280.629 127.266)">
      <g id="Group_1329-2" data-name="Group 1329" transform="translate(0 0)" clip-path="url(#clip-path-3)">
        <path id="Path_1345-2" data-name="Path 1345" d="M18.67,21.51A9.629,9.629,0,0,1,5.362,8.186a5.081,5.081,0,0,1-1.88.268A4.832,4.832,0,0,1,.1,6.749a.325.325,0,0,1,.027-.494,1.906,1.906,0,0,1,1.124-.55A1.365,1.365,0,0,0,2.623,4.354,1.96,1.96,0,0,1,4.358,2.624,1.357,1.357,0,0,0,5.7,1.281,1.923,1.923,0,0,1,6.168.223c.261-.29.4-.294.678-.027A4.734,4.734,0,0,1,8.214,5.289C12.686,2.955,16.848,3.27,20.5,6.942a9.579,9.579,0,0,1,1.018,11.747,4.96,4.96,0,0,1,2.368-.209,4.9,4.9,0,0,1,2.871,1.625.334.334,0,0,1-.015.518,1.917,1.917,0,0,1-1.126.545,1.355,1.355,0,0,0-1.363,1.357,1.981,1.981,0,0,1-1.711,1.723,1.359,1.359,0,0,0-1.372,1.383,1.951,1.951,0,0,1-.51,1.074.361.361,0,0,1-.59.015,4.7,4.7,0,0,1-1.4-5.111.5.5,0,0,0,0-.1M13.421,4.522a8.916,8.916,0,1,0,8.933,8.9,8.9,8.9,0,0,0-8.933-8.9M7.764,4.013a4.146,4.146,0,0,0-.829-2.7C6.82,1.162,6.7.894,6.531.947c-.148.046-.141.339-.169.53a1.979,1.979,0,0,1-1.809,1.8,1.336,1.336,0,0,0-1.275,1.3,2.055,2.055,0,0,1-.6,1.236,2.191,2.191,0,0,1-1.319.577c-.151.02-.384,0-.424.162-.033.13.17.232.287.32a3.9,3.9,0,0,0,4.292.482,3.775,3.775,0,0,0,2.25-3.34M19.1,22.92a4.11,4.11,0,0,0,.774,2.564c.13.176.256.483.463.436.157-.035.147-.376.178-.588A1.988,1.988,0,0,1,22.254,23.6,1.349,1.349,0,0,0,23.6,22.232a1.978,1.978,0,0,1,.594-1.17,2.1,2.1,0,0,1,1.255-.563c.171-.021.439,0,.483-.178.036-.143-.2-.257-.337-.358a3.9,3.9,0,0,0-4.24-.442,3.822,3.822,0,0,0-2.254,3.4" transform="translate(0 0)" fill="#e58c3e" stroke="#e58c3e" stroke-width="1"/>
        <path id="Path_1346-2" data-name="Path 1346" d="M22.273,35.877a5.83,5.83,0,0,1-5.438-4.187c-.076-.263-.062-.474.215-.551s.375.129.448.356a5.053,5.053,0,0,0,3.9,3.588,3.383,3.383,0,0,0,.875.1c.257-.009.473.057.462.366-.01.292-.231.331-.465.331" transform="translate(-8.974 -16.629)" fill="#e58c3e" stroke="#e58c3e" stroke-width="1"/>
        <path id="Path_1347-2" data-name="Path 1347" d="M18.812,20.179a.375.375,0,0,1-.15.3,5.075,5.075,0,0,0-1.3,2.369c-.059.243-.183.411-.454.335-.248-.07-.272-.253-.215-.493a5.859,5.859,0,0,1,1.484-2.707.378.378,0,0,1,.438-.124.3.3,0,0,1,.195.317" transform="translate(-8.907 -10.598)" fill="#e58c3e" stroke="#e58c3e" stroke-width="1"/>
      </g>
    </g>
    <g id="Group_1331" data-name="Group 1331" transform="translate(-101 48.64)">
      <g id="Group_1329-3" data-name="Group 1329" transform="translate(0 0)" clip-path="url(#clip-path-2)">
        <path id="Path_1345-3" data-name="Path 1345" d="M13.886,36.422A16.3,16.3,0,0,0,36.42,13.86a8.6,8.6,0,0,0,3.184.453,8.183,8.183,0,0,0,5.724-2.885.55.55,0,0,0-.046-.836,3.228,3.228,0,0,0-1.9-.93,2.311,2.311,0,0,1-2.321-2.289,3.319,3.319,0,0,0-2.938-2.93,2.3,2.3,0,0,1-2.275-2.274,3.256,3.256,0,0,0-.79-1.792c-.442-.491-.675-.5-1.148-.045a8.015,8.015,0,0,0-2.316,8.624c-7.572-3.953-14.62-3.418-20.8,2.8A16.22,16.22,0,0,0,9.067,31.646a8.4,8.4,0,0,0-4.01-.353A8.305,8.305,0,0,0,.2,34.044a.565.565,0,0,0,.025.878,3.245,3.245,0,0,0,1.906.923,2.294,2.294,0,0,1,2.307,2.3,3.354,3.354,0,0,0,2.9,2.917A2.3,2.3,0,0,1,9.657,43.4a3.3,3.3,0,0,0,.863,1.819.611.611,0,0,0,1,.025,7.952,7.952,0,0,0,2.368-8.653.843.843,0,0,1,0-.17M22.774,7.656A15.1,15.1,0,1,1,7.648,22.726,15.065,15.065,0,0,1,22.774,7.656m9.578-.86a7.021,7.021,0,0,1,1.4-4.576c.2-.253.39-.707.684-.617.251.077.238.575.285.9a3.352,3.352,0,0,0,3.063,3.054,2.262,2.262,0,0,1,2.158,2.193,3.479,3.479,0,0,0,1.016,2.093,3.71,3.71,0,0,0,2.233.977c.256.034.65,0,.718.274.055.22-.287.393-.486.543a6.611,6.611,0,0,1-7.268.816A6.393,6.393,0,0,1,32.352,6.8M13.154,38.81a6.959,6.959,0,0,1-1.311,4.341c-.22.3-.434.818-.784.738-.267-.06-.249-.636-.3-1a3.367,3.367,0,0,0-2.94-2.934,2.284,2.284,0,0,1-2.284-2.314,3.35,3.35,0,0,0-1.005-1.982A3.557,3.557,0,0,0,2.4,34.709c-.289-.036-.743,0-.818-.3-.061-.243.34-.435.571-.606a6.6,6.6,0,0,1,7.18-.748,6.472,6.472,0,0,1,3.817,5.756" transform="translate(0.001 0)" fill="#e58c3e" stroke="#e58c3d" stroke-width="1"/>
        <path id="Path_1346-3" data-name="Path 1346" d="M17.583,39.173a9.872,9.872,0,0,0,9.209-7.091c.129-.445.1-.8-.364-.933s-.635.218-.759.6a8.555,8.555,0,0,1-6.61,6.075,5.729,5.729,0,0,1-1.481.166c-.434-.015-.8.1-.782.62.017.5.392.561.788.56" transform="translate(5.398 -6.581)" fill="#e58c3e" stroke="#e58c3d" stroke-width="1"/>
        <path id="Path_1347-3" data-name="Path 1347" d="M16.673,20.418a.635.635,0,0,0,.255.513,8.593,8.593,0,0,1,2.2,4.012c.1.411.309.7.768.567.42-.119.461-.429.364-.834a9.921,9.921,0,0,0-2.512-4.584A.641.641,0,0,0,17,19.881a.5.5,0,0,0-.33.537" transform="translate(12.056 -4.194)" fill="#e58c3e" stroke="#e58c3d" stroke-width="1"/>
      </g>
    </g>
    <g id="Group_1333" data-name="Group 1333" transform="translate(78 -80.359)">
      <g id="Group_1332" data-name="Group 1332" transform="translate(0 0)" opacity="0.716" clip-path="url(#clip-path-5)">
        <path id="Path_1348" data-name="Path 1348" d="M41.766,30.517a15.358,15.358,0,0,1,10.763,5.221c.528.572.507.9-.038,1.442q-3.2,3.207-6.406,6.407c-.583.582-.881.579-1.463,0-.336-.333-.689-.651-1-1.008-.23-.265-.364-.223-.593.009q-2.9,2.927-5.823,5.832c-.719.719-1.047.718-1.673-.068a14.878,14.878,0,0,1-3.474-9.569c0-.326-.03-.411-.4-.367-4.578.531-8.517-1.024-12.083-3.759a16.714,16.714,0,0,1-1.906-1.71c-.245-.257-.471-.521-.323-.913a.741.741,0,0,1,.845-.531c.311.042.217-.195.228-.312.1-1.067.194-2.136.283-3.2q.371-4.428.738-8.856c.178-2.156.347-4.312.533-6.466.039-.451-.21-.268-.391-.2a8.233,8.233,0,0,0-4.906,4.655,8.041,8.041,0,0,0-.691,2.946,1.012,1.012,0,0,1-.345.879.721.721,0,0,1-.771.076.759.759,0,0,1-.449-.8c.036-.488.1-.975.17-1.46.033-.244,0-.34-.3-.338A15.378,15.378,0,0,1,.365,13.188c-.5-.545-.488-.87.036-1.4q3.22-3.226,6.446-6.445c.556-.555.865-.552,1.424,0,.338.331.691.65,1,1.007.242.281.385.238.629-.008Q12.8,3.415,15.722.511c.705-.7,1.038-.692,1.67.1a14.926,14.926,0,0,1,3.455,9.524c0,.343.114.393.408.354,4.739-.627,8.791,1.013,12.394,3.91a18.455,18.455,0,0,1,6.5,9.88,13.164,13.164,0,0,1,.234,5.884c-.073.377.029.383.329.355.325-.03.654-.007,1.054-.007m-18.615-18.6c-.254,0-.509-.005-.763,0-.8.02-.8.022-.87.816-.022.235-.062.469-.08.7q-.347,4.292-.69,8.586-.428,5.243-.873,10.485a.623.623,0,0,0,.233.613,18.226,18.226,0,0,0,4.234,2.637c.381.169.455.079.479-.293.072-1.143.166-2.284.261-3.425q.3-3.667.616-7.333c.167-1.973.34-3.947.5-5.92.166-1.993.313-3.986.494-5.976.032-.364-.112-.468-.415-.535a11.774,11.774,0,0,0-3.127-.359M30.007,37a2.81,2.81,0,0,0,1.3-.152c.366-.221.161-.877.2-1.339.22-2.424.417-4.852.621-7.277q.251-2.988.5-5.976c.162-1.956.318-3.912.487-5.867a.723.723,0,0,0-.3-.695,18.023,18.023,0,0,0-4.2-2.587c-.315-.138-.41-.142-.437.255-.131,1.885-.3,3.768-.456,5.651-.239,2.824-.489,5.648-.726,8.473-.24,2.861-.458,5.724-.716,8.583-.031.344.067.445.351.515a15.01,15.01,0,0,0,3.37.415m2.983-.5a7.805,7.805,0,0,0,4.11-2.683,9.57,9.57,0,0,0,1.863-7.385A15.725,15.725,0,0,0,35.54,18.5a4.812,4.812,0,0,0-.965-1.059c-.532,6.4-1.057,12.718-1.585,19.054M11.669,16.893a9.972,9.972,0,0,1,1.044-.042c.335.019.468-.13.585-.416a8.494,8.494,0,0,1,1.23-2.1c.175-.219.2-.346-.015-.565Q11.168,10.44,7.852,7.087c-.248-.251-.368-.217-.6.013q-2.55,2.577-5.129,5.126c-.222.22-.28.336-.014.586a14.053,14.053,0,0,0,9.556,4.08M41.324,32.105c-.345,0-.692.021-1.035-.006a.553.553,0,0,0-.637.42,7.764,7.764,0,0,1-1.278,2.138c-.18.216-.162.34.032.533q3.341,3.332,6.663,6.683c.2.2.321.257.554.021q2.587-2.619,5.205-5.209c.2-.2.213-.307,0-.507a13.758,13.758,0,0,0-9.5-4.072M36.406,46.983a.564.564,0,0,0,.126-.06q2.742-2.737,5.488-5.47c.206-.2.145-.306-.024-.474q-2.343-2.325-4.668-4.669c-.221-.224-.357-.2-.577-.02a8.851,8.851,0,0,1-2.735,1.534.471.471,0,0,0-.383.486,13.368,13.368,0,0,0,2.774,8.674M16.473,1.925c-1.889,1.89-3.746,3.753-5.613,5.607-.2.2-.08.3.054.429,1.567,1.566,3.137,3.131,4.694,4.708.19.192.3.173.487.02a9.316,9.316,0,0,1,2.861-1.634.412.412,0,0,0,.316-.429,13.424,13.424,0,0,0-2.8-8.7" transform="translate(0 0)" fill="#e68b3d" stroke="#e68b3d" stroke-width="1"/>
        <path id="Path_1349" data-name="Path 1349" d="M18.674,35.692a.755.755,0,0,1-.718-.487,13.95,13.95,0,0,1-.818-1.945.787.787,0,0,1,.4-1.053.767.767,0,0,1,1.035.521c.235.627.5,1.238.77,1.85a.742.742,0,0,1-.671,1.114" transform="translate(-3.867 -7.28)" fill="#e68b3d" stroke="#e68b3d" stroke-width="1"/>
      </g>
    </g>
    <g id="Group_1334" data-name="Group 1334" transform="translate(-39.23 -24.36)">
      <g id="Group_1332-2" data-name="Group 1332" transform="translate(0 0)" clip-path="url(#clip-path-6)">
        <path id="Path_1348-2" data-name="Path 1348" d="M7.825,21.422A10.781,10.781,0,0,0,.27,25.087c-.37.4-.356.629.027,1.012q2.246,2.251,4.5,4.5c.409.408.618.406,1.027,0,.236-.233.484-.457.7-.708.161-.186.255-.156.416.006q2.035,2.055,4.088,4.094c.5.5.735.5,1.175-.048a10.444,10.444,0,0,0,2.439-6.717c0-.229.021-.288.283-.258A11.408,11.408,0,0,0,23.4,24.329a11.733,11.733,0,0,0,1.338-1.2c.172-.18.331-.366.227-.641a.52.52,0,0,0-.593-.373c-.218.029-.152-.137-.16-.219-.073-.749-.136-1.5-.2-2.249q-.261-3.108-.518-6.216c-.125-1.513-.243-3.027-.374-4.539-.027-.317.147-.188.275-.142a5.779,5.779,0,0,1,3.444,3.268,5.644,5.644,0,0,1,.485,2.068.711.711,0,0,0,.242.617.506.506,0,0,0,.541.053.533.533,0,0,0,.315-.562c-.026-.343-.073-.684-.119-1.025-.023-.171,0-.238.21-.237a10.8,10.8,0,0,0,8.372-3.673c.349-.382.343-.611-.026-.98Q34.6,6.013,32.336,3.753c-.39-.389-.607-.387-1,0-.237.232-.485.456-.7.707-.17.2-.27.167-.441-.005Q28.16,2.4,26.107.359c-.5-.495-.729-.485-1.172.073A10.478,10.478,0,0,0,22.51,7.118c0,.241-.08.276-.286.249a11.161,11.161,0,0,0-8.7,2.745A12.955,12.955,0,0,0,8.96,17.047,9.241,9.241,0,0,0,8.8,21.177c.052.265-.02.269-.231.249-.228-.021-.459,0-.74,0M20.892,8.364c.179,0,.357,0,.536,0,.56.014.559.015.611.573.015.165.043.329.056.495q.244,3.013.484,6.027.3,3.681.613,7.36a.437.437,0,0,1-.163.43A12.794,12.794,0,0,1,20.057,25.1c-.268.118-.319.055-.336-.206-.051-.8-.117-1.6-.183-2.4q-.213-2.574-.432-5.148c-.117-1.385-.239-2.77-.354-4.156s-.219-2.8-.346-4.2c-.023-.255.079-.329.292-.376a8.265,8.265,0,0,1,2.2-.252M16.079,25.971a1.973,1.973,0,0,1-.915-.107c-.257-.155-.113-.616-.143-.94-.155-1.7-.293-3.406-.436-5.109q-.176-2.1-.351-4.195c-.114-1.373-.223-2.746-.342-4.119a.508.508,0,0,1,.21-.488A12.652,12.652,0,0,1,17.052,9.2c.221-.1.288-.1.307.179.092,1.323.207,2.645.32,3.967.168,1.982.343,3.964.509,5.947.168,2.009.321,4.018.5,6.025.022.242-.047.312-.247.362a10.537,10.537,0,0,1-2.365.292m-2.094-.35A5.479,5.479,0,0,1,11.1,23.737a6.718,6.718,0,0,1-1.308-5.184,11.039,11.039,0,0,1,2.4-5.564,3.378,3.378,0,0,1,.677-.743c.374,4.49.742,8.927,1.113,13.375M28.952,11.858a7,7,0,0,0-.733-.029c-.235.014-.329-.091-.411-.292a5.963,5.963,0,0,0-.863-1.477c-.123-.154-.143-.243.011-.4Q29.3,7.329,31.631,4.975c.174-.176.258-.152.418.009q1.79,1.809,3.6,3.6c.156.154.2.236.01.411a9.865,9.865,0,0,1-6.708,2.864M8.135,22.537c.242,0,.485.015.727,0a.388.388,0,0,1,.447.295,5.45,5.45,0,0,0,.9,1.5c.127.151.113.239-.022.374q-2.345,2.339-4.677,4.691c-.142.144-.225.18-.389.015Q3.3,27.569,1.464,25.751c-.14-.138-.149-.216,0-.356a9.658,9.658,0,0,1,6.671-2.858m3.452,10.444a.4.4,0,0,1-.089-.042Q9.574,31.017,7.647,29.1c-.144-.143-.1-.215.017-.333q1.644-1.632,3.277-3.278c.155-.157.251-.141.405-.014a6.213,6.213,0,0,0,1.92,1.077.33.33,0,0,1,.269.341,9.384,9.384,0,0,1-1.947,6.089M25.58,1.351c1.326,1.327,2.63,2.635,3.94,3.936.143.142.056.208-.038.3-1.1,1.1-2.2,2.2-3.295,3.3-.133.135-.214.122-.342.014A6.54,6.54,0,0,0,23.837,7.76a.289.289,0,0,1-.222-.3A9.423,9.423,0,0,1,25.58,1.351" transform="translate(0 0)" fill="#e68b3d"/>
        <path id="Path_1349-2" data-name="Path 1349" d="M17.61,34.636a.53.53,0,0,0,.5-.342,9.792,9.792,0,0,0,.574-1.366.552.552,0,0,0-.282-.739.538.538,0,0,0-.727.365c-.165.44-.352.869-.54,1.3a.521.521,0,0,0,.471.782" transform="translate(9.139 -14.692)" fill="#e68b3d"/>
      </g>
    </g>
    <g id="Group_1335" data-name="Group 1335" transform="translate(250.77 27.64)">
      <g id="Group_1332-3" data-name="Group 1332" transform="translate(0 0)" opacity="0.548" clip-path="url(#clip-path-6)">
        <path id="Path_1348-3" data-name="Path 1348" d="M7.825,21.422A10.781,10.781,0,0,0,.27,25.087c-.37.4-.356.629.027,1.012q2.246,2.251,4.5,4.5c.409.408.618.406,1.027,0,.236-.233.484-.457.7-.708.161-.186.255-.156.416.006q2.035,2.055,4.088,4.094c.5.5.735.5,1.175-.048a10.444,10.444,0,0,0,2.439-6.717c0-.229.021-.288.283-.258A11.408,11.408,0,0,0,23.4,24.329a11.733,11.733,0,0,0,1.338-1.2c.172-.18.331-.366.227-.641a.52.52,0,0,0-.593-.373c-.218.029-.152-.137-.16-.219-.073-.749-.136-1.5-.2-2.249q-.261-3.108-.518-6.216c-.125-1.513-.243-3.027-.374-4.539-.027-.317.147-.188.275-.142a5.779,5.779,0,0,1,3.444,3.268,5.644,5.644,0,0,1,.485,2.068.711.711,0,0,0,.242.617.506.506,0,0,0,.541.053.533.533,0,0,0,.315-.562c-.026-.343-.073-.684-.119-1.025-.023-.171,0-.238.21-.237a10.8,10.8,0,0,0,8.372-3.673c.349-.382.343-.611-.026-.98Q34.6,6.013,32.336,3.753c-.39-.389-.607-.387-1,0-.237.232-.485.456-.7.707-.17.2-.27.167-.441-.005Q28.16,2.4,26.107.359c-.5-.495-.729-.485-1.172.073A10.478,10.478,0,0,0,22.51,7.118c0,.241-.08.276-.286.249a11.161,11.161,0,0,0-8.7,2.745A12.955,12.955,0,0,0,8.96,17.047,9.241,9.241,0,0,0,8.8,21.177c.052.265-.02.269-.231.249-.228-.021-.459,0-.74,0M20.892,8.364c.179,0,.357,0,.536,0,.56.014.559.015.611.573.015.165.043.329.056.495q.244,3.013.484,6.027.3,3.681.613,7.36a.437.437,0,0,1-.163.43A12.794,12.794,0,0,1,20.057,25.1c-.268.118-.319.055-.336-.206-.051-.8-.117-1.6-.183-2.4q-.213-2.574-.432-5.148c-.117-1.385-.239-2.77-.354-4.156s-.219-2.8-.346-4.2c-.023-.255.079-.329.292-.376a8.265,8.265,0,0,1,2.2-.252M16.079,25.971a1.973,1.973,0,0,1-.915-.107c-.257-.155-.113-.616-.143-.94-.155-1.7-.293-3.406-.436-5.109q-.176-2.1-.351-4.195c-.114-1.373-.223-2.746-.342-4.119a.508.508,0,0,1,.21-.488A12.652,12.652,0,0,1,17.052,9.2c.221-.1.288-.1.307.179.092,1.323.207,2.645.32,3.967.168,1.982.343,3.964.509,5.947.168,2.009.321,4.018.5,6.025.022.242-.047.312-.247.362a10.537,10.537,0,0,1-2.365.292m-2.094-.35A5.479,5.479,0,0,1,11.1,23.737a6.718,6.718,0,0,1-1.308-5.184,11.039,11.039,0,0,1,2.4-5.564,3.378,3.378,0,0,1,.677-.743c.374,4.49.742,8.927,1.113,13.375M28.952,11.858a7,7,0,0,0-.733-.029c-.235.014-.329-.091-.411-.292a5.963,5.963,0,0,0-.863-1.477c-.123-.154-.143-.243.011-.4Q29.3,7.329,31.631,4.975c.174-.176.258-.152.418.009q1.79,1.809,3.6,3.6c.156.154.2.236.01.411a9.865,9.865,0,0,1-6.708,2.864M8.135,22.537c.242,0,.485.015.727,0a.388.388,0,0,1,.447.295,5.45,5.45,0,0,0,.9,1.5c.127.151.113.239-.022.374q-2.345,2.339-4.677,4.691c-.142.144-.225.18-.389.015Q3.3,27.569,1.464,25.751c-.14-.138-.149-.216,0-.356a9.658,9.658,0,0,1,6.671-2.858m3.452,10.444a.4.4,0,0,1-.089-.042Q9.574,31.017,7.647,29.1c-.144-.143-.1-.215.017-.333q1.644-1.632,3.277-3.278c.155-.157.251-.141.405-.014a6.213,6.213,0,0,0,1.92,1.077.33.33,0,0,1,.269.341,9.384,9.384,0,0,1-1.947,6.089M25.58,1.351c1.326,1.327,2.63,2.635,3.94,3.936.143.142.056.208-.038.3-1.1,1.1-2.2,2.2-3.295,3.3-.133.135-.214.122-.342.014A6.54,6.54,0,0,0,23.837,7.76a.289.289,0,0,1-.222-.3A9.423,9.423,0,0,1,25.58,1.351" transform="translate(0 0)" fill="#e68b3d" stroke="#e58a3d" stroke-width="1"/>
        <path id="Path_1349-3" data-name="Path 1349" d="M17.61,34.636a.53.53,0,0,0,.5-.342,9.792,9.792,0,0,0,.574-1.366.552.552,0,0,0-.282-.739.538.538,0,0,0-.727.365c-.165.44-.352.869-.54,1.3a.521.521,0,0,0,.471.782" transform="translate(9.139 -14.692)" fill="#e68b3d" stroke="#e58a3d" stroke-width="1"/>
      </g>
    </g>
  </g>
</svg>
