<svg xmlns="http://www.w3.org/2000/svg" xmlns:xlink="http://www.w3.org/1999/xlink" width="420.325" height="399.528" viewBox="0 0 420.325 399.528">
  <defs>
    <clipPath id="clip-path">
      <rect id="Rectangle_24" data-name="Rectangle 24" width="246.701" height="246.108" fill="none"/>
    </clipPath>
    <clipPath id="clip-path-2">
      <rect id="Rectangle_30" data-name="Rectangle 30" width="47" height="47.146" fill="#e79f54"/>
    </clipPath>
    <clipPath id="clip-path-3">
      <rect id="Rectangle_31" data-name="Rectangle 31" width="47.612" height="47.594" fill="#e79f54"/>
    </clipPath>
    <clipPath id="clip-path-4">
      <rect id="Rectangle_32" data-name="Rectangle 32" width="50.275" height="50.283" fill="#e79f54"/>
    </clipPath>
    <clipPath id="clip-path-5">
      <rect id="Rectangle_33" data-name="Rectangle 33" width="40.983" height="39.504" fill="#d4653b"/>
    </clipPath>
    <clipPath id="clip-path-6">
      <rect id="Rectangle_34" data-name="Rectangle 34" width="38" height="37.993" fill="#d4653b"/>
    </clipPath>
  </defs>
  <g id="Vectors" transform="translate(123.05 100.816)">
    <ellipse id="Ellipse_22" data-name="Ellipse 22" cx="93" cy="93.5" rx="93" ry="93.5" transform="translate(16 11.64)" fill="#d6d6d6"/>
    <g id="Group_1319" data-name="Group 1319" transform="translate(-2.584 -4.863)">
      <g id="Group_1318" data-name="Group 1318" transform="translate(-5 -6)" clip-path="url(#clip-path)">
        <path id="Path_1253" data-name="Path 1253" d="M166.941,174.266a90,90,0,0,1-32.822,17.907c-46.467,13.494-95.693-15.779-105.906-63.051A84.757,84.757,0,0,1,89.947,28.685c46.92-12.106,95.14,18.541,103.948,66.185,4.793,25.924-1.416,49.141-17.78,69.719-.508.64-.986,1.3-1.478,1.957q-3.847,3.861-7.7,7.72M184.1,110.725a73.293,73.293,0,1,0-146.585.073c0,40.426,33.005,73.449,73.348,73.392A73.444,73.444,0,0,0,184.1,110.725" transform="translate(5.729 5.684)" fill="#0b0a09"/>
        <path id="Path_1257" data-name="Path 1257" d="M189.077,168.609c.027-3.928.038-7.856.084-11.782.044-3.657,2.332-6.236,5.485-6.234,3.169,0,5.456,2.56,5.48,6.24.052,7.764.061,15.53.087,23.294-.029,4.565-.029,9.13-.1,13.694-.058,4.014-2.089,6.035-6.079,6.1-4.377.077-8.756.118-13.135.175-7.731-.032-15.464-.052-23.2-.1a12.56,12.56,0,0,1-3.244-.289,5.379,5.379,0,0,1-3.683-5.459,5.214,5.214,0,0,1,4.586-5c2.6-.3,5.261-.166,7.895-.222l6.268-.138c6.017.459,12.045.063,18.066.221,1.455.039,1.592-.729,1.583-1.874-.056-6.208-.071-12.418-.1-18.627" transform="translate(32.913 32.875)" fill="#dc7a27"/>
        <path id="Path_1258" data-name="Path 1258" d="M188.03,167.635c.029,6.208.044,12.418.1,18.627.01,1.145-.128,1.913-1.583,1.874-6.021-.157-12.049.239-18.066-.221-2.488-2.539-4.859-5.206-7.486-7.59-5.068-4.6-6.55-10.081-4.61-16.574a16.729,16.729,0,0,1,7.669-7.722c6.494-2.229,11.922-.564,16.569,4.368,2.365,2.51,4.932,4.831,7.407,7.238" transform="translate(33.96 33.849)" fill="#0b0a09"/>
        <path id="Path_1259" data-name="Path 1259" d="M175.5,194.809c4.379-.057,8.757-.1,13.135-.175,3.99-.069,6.021-2.091,6.079-6.106.067-4.564.067-9.129.1-13.692,3.3,3.258,6.736,6.394,9.874,9.8A13.908,13.908,0,0,1,184.8,204.064c-3.174-3.007-6.2-6.166-9.3-9.255" transform="translate(38.313 38.167)" fill="#0b0a09"/>
        <path id="Path_1260" data-name="Path 1260" d="M167.074,159.018a16.729,16.729,0,0,0-7.669,7.722L141.73,149.088l7.7-7.72,17.647,17.65" transform="translate(30.94 30.861)" fill="#d4653b"/>
        <path id="Path_1261" data-name="Path 1261" d="M182.077,108.7a73.444,73.444,0,0,1-73.237,73.465c-40.343.057-73.345-32.966-73.348-73.392a73.293,73.293,0,1,1,146.585-.073m-10.782.011a62.445,62.445,0,1,0-62.4,62.513,62.658,62.658,0,0,0,62.4-62.513" transform="translate(7.748 7.708)" fill="#d4653b"/>
        <path id="Path_1262" data-name="Path 1262" d="M169.339,106.753A62.445,62.445,0,1,1,106.9,44.279a62.648,62.648,0,0,1,62.442,62.474M70.868,130.573a1.376,1.376,0,0,0,1.473-.157c11-5.186,22.013-5.231,32.988,0a3.681,3.681,0,0,0,3.561-.252,36.482,36.482,0,0,1,26.911-1.948c2.3.7,4.509,1.695,6.952,2.627,0-14.324-.023-28.391.033-42.459.006-1.617-1.078-1.974-2.125-2.441a37,37,0,0,0-31.776.093,4.2,4.2,0,0,1-4,.027c-10.541-4.842-21.15-4.835-31.785-.171a3.205,3.205,0,0,0-2.279,3.462c.122,8.314.052,16.63.052,24.946Zm91.585-32.549a4.72,4.72,0,0,0,0-.82,56.1,56.1,0,0,0-19.925-34.089,4.911,4.911,0,0,0-4.6-1.1,5.339,5.339,0,0,0-4.079,3.967,5.393,5.393,0,0,0,2.018,5.813A45.829,45.829,0,0,1,149.5,91.22a52.336,52.336,0,0,1,2.094,7.873,5.392,5.392,0,0,0,6.111,4.594,5.323,5.323,0,0,0,4.743-5.664m-32.22-38.86a5.145,5.145,0,0,0-3.389-5.1,44.912,44.912,0,0,0-8.869-2.591,5.5,5.5,0,0,0-2.513,10.655c2.58.854,5.2,1.625,7.834,2.284a5.392,5.392,0,0,0,6.938-5.247" transform="translate(9.703 9.666)" fill="#fffefe"/>
        <path id="Path_1263" data-name="Path 1263" d="M66.145,123.741V107.469c0-8.316.069-16.632-.052-24.946a3.205,3.205,0,0,1,2.279-3.462c10.636-4.665,21.244-4.671,31.784.171a4.2,4.2,0,0,0,4-.026,37,37,0,0,1,31.776-.094c1.048.469,2.131.825,2.125,2.443-.056,14.068-.032,28.135-.032,42.458-2.443-.932-4.653-1.927-6.953-2.627a36.48,36.48,0,0,0-26.91,1.948,3.68,3.68,0,0,1-3.562.252c-10.973-5.233-21.992-5.189-32.988,0a1.374,1.374,0,0,1-1.472.156M129.17,87.869c1.714-.041,2.739-.837,2.948-2.4a2.619,2.619,0,0,0-2.139-3.03,34.426,34.426,0,0,0-19.613-.029c-1.672.487-2.779,1.572-2.232,3.428a2.676,2.676,0,0,0,3.673,1.88,32.013,32.013,0,0,1,11.068-1.043,47.31,47.31,0,0,1,6.295,1.194m-35.727,0A2.652,2.652,0,0,0,96.2,85.457c.222-1.723-.871-2.645-2.448-3.088a34.413,34.413,0,0,0-19.082-.029c-1.881.532-2.956,1.589-2.444,3.536.53,2.011,2.148,2.322,3.92,1.773a29.666,29.666,0,0,1,11.886-.853c1.793.18,3.554.7,5.407,1.075m-.2,18a2.741,2.741,0,0,0,2.928-2.221,2.529,2.529,0,0,0-1.925-3.157,33.032,33.032,0,0,0-20.132,0,2.53,2.53,0,0,0-1.863,3.4,2.609,2.609,0,0,0,3.432,1.852c1.416-.322,2.833-.636,4.256-.92,4.494-.9,8.867-.162,13.305,1.045m27-15.805a29.518,29.518,0,0,0-9.448,1.178c-1.747.448-3.141,1.379-2.711,3.42.434,2.06,2.081,2.433,3.857,1.957a30.466,30.466,0,0,1,16.2-.024c1.724.468,3.4.227,3.895-1.881.485-2.071-.836-3.018-2.6-3.467a29.094,29.094,0,0,0-9.191-1.182m8.817,15.782a2.7,2.7,0,0,0,3-2.186,2.539,2.539,0,0,0-1.894-3.163,32.561,32.561,0,0,0-20.12.018c-1.548.5-2.467,1.65-1.873,3.371a2.621,2.621,0,0,0,3.436,1.846c1.41-.341,2.834-.626,4.257-.91,4.493-.894,8.866-.188,13.2,1.023m-44.824,2.189a32.969,32.969,0,0,0-9.324,1.167c-1.952.541-3.235,1.538-2.667,3.668.551,2.066,2.262,2.166,3.992,1.7a29.579,29.579,0,0,1,15.932.029c1.793.5,3.423.124,3.952-1.849.539-2.015-.786-2.978-2.565-3.493a30.715,30.715,0,0,0-9.321-1.221m44.731,6.72c1.808.048,2.861-.66,3.092-2.277.251-1.762-.726-2.736-2.328-3.169a35.543,35.543,0,0,0-18.629-.151c-1.879.493-3.467,1.288-3.006,3.433.495,2.3,2.364,2.516,4.343,1.909a30.691,30.691,0,0,1,9.751-.941,39.329,39.329,0,0,1,6.776,1.2M92.761,96.705c2.094.157,3.161-.632,3.437-2.169.314-1.76-.809-2.733-2.353-3.17A34.536,34.536,0,0,0,75.49,91.1c-2.022.521-3.9,1.238-3.235,3.766.637,2.431,2.691,2.085,4.506,1.594a29.65,29.65,0,0,1,14.071-.228c.8.169,1.586.392,1.927.478" transform="translate(14.428 16.498)" fill="#215da9"/>
        <path id="Path_1264" data-name="Path 1264" d="M146.472,94.878a5.324,5.324,0,0,1-4.744,5.664,5.392,5.392,0,0,1-6.111-4.593,52.17,52.17,0,0,0-2.094-7.874,45.834,45.834,0,0,0-13.645-19.423,5.516,5.516,0,0,1,2.06-9.779,4.912,4.912,0,0,1,4.6,1.1,56.1,56.1,0,0,1,19.924,34.089,4.72,4.72,0,0,1,.006.82" transform="translate(25.685 12.811)" fill="#0b0a09"/>
        <path id="Path_1265" data-name="Path 1265" d="M118.186,57.894a5.389,5.389,0,0,1-6.936,5.246c-2.636-.66-5.252-1.43-7.832-2.286A5.494,5.494,0,0,1,105.93,50.2a44.838,44.838,0,0,1,8.87,2.59,5.14,5.14,0,0,1,3.386,5.1" transform="translate(21.747 10.938)" fill="#0b0a09"/>
        <path id="Path_1266" data-name="Path 1266" d="M121.66,86.9a47.429,47.429,0,0,0-6.295-1.2A32.016,32.016,0,0,0,104.3,86.746a2.675,2.675,0,0,1-3.672-1.88c-.547-1.857.559-2.941,2.232-3.428a34.433,34.433,0,0,1,19.612.028,2.62,2.62,0,0,1,2.139,3.031c-.21,1.563-1.234,2.359-2.948,2.4" transform="translate(21.936 17.47)" fill="#f2f7fc"/>
        <path id="Path_1267" data-name="Path 1267" d="M92.366,86.9c-1.853-.379-3.613-.894-5.407-1.075a29.671,29.671,0,0,0-11.887.853c-1.771.548-3.389.239-3.919-1.773-.512-1.947.563-3,2.443-3.536a34.428,34.428,0,0,1,19.083.028c1.576.445,2.669,1.367,2.448,3.088A2.653,2.653,0,0,1,92.366,86.9" transform="translate(15.505 17.471)" fill="#f2f7fc"/>
        <path id="Path_1268" data-name="Path 1268" d="M92.166,101.686c-4.438-1.206-8.811-1.941-13.305-1.045-1.423.284-2.84.6-4.256.92a2.609,2.609,0,0,1-3.432-1.851,2.529,2.529,0,0,1,1.863-3.4,33.014,33.014,0,0,1,20.132,0,2.528,2.528,0,0,1,1.925,3.157,2.74,2.74,0,0,1-2.928,2.22" transform="translate(15.504 20.681)" fill="#f2f7fc"/>
        <path id="Path_1269" data-name="Path 1269" d="M112.735,87.477a29.081,29.081,0,0,1,9.19,1.182c1.768.45,3.087,1.4,2.6,3.467-.493,2.108-2.171,2.35-3.895,1.881a30.466,30.466,0,0,0-16.2.024c-1.778.478-3.423.1-3.857-1.955-.43-2.041.964-2.971,2.711-3.421a29.548,29.548,0,0,1,9.448-1.178" transform="translate(21.939 19.086)" fill="#f2f7fc"/>
        <path id="Path_1270" data-name="Path 1270" d="M121.555,101.665c-4.331-1.212-8.7-1.919-13.2-1.025-1.423.284-2.847.569-4.257.91a2.619,2.619,0,0,1-3.436-1.846c-.595-1.721.324-2.875,1.873-3.37a32.543,32.543,0,0,1,20.12-.018,2.537,2.537,0,0,1,1.894,3.161,2.7,2.7,0,0,1-3,2.187" transform="translate(21.936 20.68)" fill="#f2f7fc"/>
        <path id="Path_1271" data-name="Path 1271" d="M83.16,102.221a30.753,30.753,0,0,1,9.321,1.221c1.78.517,3.1,1.478,2.565,3.494-.528,1.972-2.159,2.345-3.952,1.849a29.579,29.579,0,0,0-15.932-.03c-1.73.469-3.442.368-3.992-1.7-.568-2.131.715-3.126,2.667-3.667a32.969,32.969,0,0,1,9.324-1.168" transform="translate(15.507 22.313)" fill="#f2f7fc"/>
        <path id="Path_1272" data-name="Path 1272" d="M121.457,108.947a39.35,39.35,0,0,0-6.776-1.2,30.655,30.655,0,0,0-9.751.939c-1.98.608-3.849.4-4.343-1.908-.462-2.145,1.127-2.941,3.006-3.433a35.543,35.543,0,0,1,18.629.151c1.6.433,2.579,1.406,2.327,3.168-.23,1.617-1.283,2.326-3.091,2.278" transform="translate(21.941 22.306)" fill="#f2f7fc"/>
        <path id="Path_1273" data-name="Path 1273" d="M91.681,94.123c-.341-.085-1.128-.308-1.927-.478a29.65,29.65,0,0,0-14.071.228c-1.815.491-3.869.837-4.507-1.594-.664-2.528,1.212-3.244,3.235-3.766a34.536,34.536,0,0,1,18.355.27c1.544.437,2.667,1.41,2.353,3.17-.275,1.536-1.343,2.326-3.437,2.169" transform="translate(15.508 19.08)" fill="#f2f7fc"/>
      </g>
    </g>
    <rect id="Rectangle_8" data-name="Rectangle 8" width="143" height="12" rx="6" transform="translate(49 256.64)" fill="#989898" opacity="0.725"/>
    <g id="Group_1315" data-name="Group 1315" transform="translate(-239 -440.36)">
      <line id="Line_9" data-name="Line 9" x2="22.389" y2="9.795" transform="translate(257.152 347.216)" fill="none" stroke="#f3cca9" stroke-width="6"/>
      <line id="Line_22" data-name="Line 22" x2="22.389" y2="9.795" transform="translate(117.152 657.216)" fill="none" stroke="#f3cca9" stroke-width="6"/>
      <line id="Line_18" data-name="Line 18" x2="22.389" y2="9.795" transform="translate(437.152 397.216)" fill="none" stroke="#f3cca9" stroke-width="6"/>
      <line id="Line_20" data-name="Line 20" x2="18.333" y2="8.021" transform="translate(177.152 576.076)" fill="none" stroke="#f3cca9" stroke-width="6" opacity="0.415"/>
      <line id="Line_10" data-name="Line 10" x1="11.195" y2="21.69" transform="translate(262.051 340.919)" fill="none" stroke="#f3cca9" stroke-width="6"/>
      <line id="Line_23" data-name="Line 23" x1="11.195" y2="21.69" transform="translate(122.051 650.919)" fill="none" stroke="#f3cca9" stroke-width="6"/>
      <line id="Line_19" data-name="Line 19" x1="11.195" y2="21.69" transform="translate(442.051 390.919)" fill="none" stroke="#f3cca9" stroke-width="6"/>
      <line id="Line_21" data-name="Line 21" x1="9.167" y2="17.761" transform="translate(181.163 570.919)" fill="none" stroke="#f3cca9" stroke-width="6" opacity="0.415"/>
    </g>
    <g id="Group_1338" data-name="Group 1338" transform="translate(130 -46.195)">
      <g id="Group_1337" data-name="Group 1337" transform="translate(0 0)" clip-path="url(#clip-path-2)">
        <path id="Path_1350" data-name="Path 1350" d="M23.974,47.146a1.643,1.643,0,0,1-1.531-2.131q1.475-6.5,2.964-13Q27.96,20.8,30.51,9.576q.934-4.105,1.883-8.206a1.668,1.668,0,1,1,3.263.686c-.7,3.183-1.436,6.36-2.161,9.539q-2.547,11.168-5.1,22.335-1.332,5.839-2.66,11.679a1.713,1.713,0,0,1-1.764,1.538" transform="translate(-5.449 0)" fill="#e79f54"/>
        <path id="Path_1351" data-name="Path 1351" d="M4.458,30.507c1.885,1.481,3.729,2.929,5.571,4.378q2.518,1.979,5.035,3.96a1.652,1.652,0,0,1,.7,1.6,1.56,1.56,0,0,1-1.142,1.371,1.964,1.964,0,0,1-1.774-.517Q8.5,37.913,4.154,34.515,2.5,33.221.844,31.927a1.716,1.716,0,0,1-.013-2.948q5.98-4.716,11.965-9.424a1.724,1.724,0,0,1,2.338-.058,1.693,1.693,0,0,1,.33,2.147,3.087,3.087,0,0,1-.785.766l-10.22,8.1" transform="translate(0 -4.641)" fill="#e79f54"/>
        <path id="Path_1352" data-name="Path 1352" d="M41.873,37.257a1.887,1.887,0,0,1,.782-1.7q4.768-3.742,9.534-7.488c.531-.417.531-.412-.008-.838q-4.7-3.708-9.389-7.419a1.7,1.7,0,1,1,2.085-2.663q5.67,4.463,11.335,8.931c1.3,1.029,1.3,2.125,0,3.142q-5.768,4.506-11.542,9a1.631,1.631,0,0,1-1.846.3,1.594,1.594,0,0,1-.954-1.27" transform="translate(-10.191 -4.057)" fill="#e79f54"/>
      </g>
    </g>
    <g id="Group_1340" data-name="Group 1340" transform="translate(-9 -40.36)">
      <g id="Group_1339" data-name="Group 1339" transform="translate(0 0)" clip-path="url(#clip-path-3)">
        <path id="Path_1353" data-name="Path 1353" d="M27.068,0A4.3,4.3,0,0,1,29.28,1.319a3.555,3.555,0,0,1,.844,2.207c.022,1.5.015,3.005.006,4.508a.922.922,0,0,1-.9.981.883.883,0,0,1-.943-.923c-.013-.379-.242-.279-.433-.28q-6.972,0-13.944,0c-3.858,0-7.715.007-11.573-.011-.4,0-.471.107-.47.483q.016,15.035,0,30.07c0,.411.1.5.5.5q9.436-.022,18.871-.01h.528L20.24,36.193c-.3-.525-.3-.524-.858-.232a5.35,5.35,0,0,1-7.875-3.487,5.272,5.272,0,0,1,2.28-5.607c1.4-.877,2.847-1.676,4.28-2.5a2.537,2.537,0,0,0,.763-.656q5.075-6.493,10.16-12.979c.643-.822,1.337-.785,1.854.11q1.553,2.686,3.1,5.379a.406.406,0,0,0,.534.244,4.17,4.17,0,0,1,4.014,6.85.469.469,0,0,0-.073.664c1.032,1.757,2.047,3.524,3.065,5.289.545.946.277,1.54-.794,1.7-3.012.439-6.026.861-9.039,1.293a5.466,5.466,0,0,1-.961.141c-.534-.022-.561.248-.559.679.016,3.532.011,7.064.009,10.6a3.67,3.67,0,0,1-3.916,3.918q-11.154,0-22.309,0A3.656,3.656,0,0,1,.017,43.7Q.016,23.858,0,4.013A3.844,3.844,0,0,1,2.728.123C2.8.1,2.886.1,2.9,0Zm-12,40.713c-4.244,0-8.488.006-12.732-.011-.4,0-.484.1-.47.482.031.851.005,1.7.011,2.555a1.834,1.834,0,0,0,2,1.992q11.2,0,22.4,0a1.835,1.835,0,0,0,1.995-2c.006-.852-.022-1.705.012-2.555.016-.395-.1-.476-.481-.474-4.245.015-8.488.009-12.732.009M27.043,16.329a.953.953,0,0,0-.124.1q-3.252,4.147-6.507,8.291c-.145.184-.072.294.015.444q1.739,3.006,3.467,6.019a.406.406,0,0,0,.484.224c3.484-.5,6.967-1,10.5-1.511L27.043,16.329M15.066,5.949h2.6c3.392,0,6.783-.005,10.175.008.335,0,.464-.058.437-.423-.036-.493-.008-.99-.008-1.486,0-1.5-.681-2.186-2.18-2.186H9.55c-1.89,0-3.779,0-5.669,0a1.838,1.838,0,0,0-2,1.988c0,.542.025,1.086-.009,1.626-.025.378.07.485.468.484,4.243-.017,8.487-.011,12.731-.011m1.654,28.82a2.807,2.807,0,0,0,1.471-.335c1.294-.718,2.575-1.459,3.865-2.184.179-.1.186-.182.087-.353q-1.6-2.76-3.186-5.532c-.122-.215-.222-.224-.422-.106-1.157.678-2.333,1.325-3.481,2.018a3.458,3.458,0,0,0,1.666,6.492m13.065-22c-.456.579-.873,1.13-1.316,1.661a.406.406,0,0,0-.036.558c.73,1.235,1.44,2.482,2.157,3.724q3.03,5.25,6.052,10.5a.575.575,0,0,0,.688.346c.637-.111,1.279-.195,1.977-.3l-9.523-16.5M25.064,33.2c.754,1.3,1.473,2.544,2.186,3.786a1.649,1.649,0,0,1,.358.98c-.035.379-.307.606-.655.875.409,0,.715-.017,1.019,0,.259.019.306-.092.3-.322-.011-.866,0-1.733,0-2.6V32.749l-3.207.455m-1.326,5.288c.5-.29.96-.572,1.433-.828.169-.091.216-.161.114-.337q-.979-1.675-1.942-3.358c-.093-.161-.177-.21-.35-.1-.407.249-.818.491-1.238.717-.195.1-.166.2-.074.358.683,1.169,1.357,2.342,2.057,3.553M37.227,21.9a2.26,2.26,0,0,0-.032-2.751,2.041,2.041,0,0,0-2.037-.824L37.227,21.9" transform="translate(0 0)" fill="#e79f54"/>
        <path id="Path_1354" data-name="Path 1354" d="M59.737,18.175a1.872,1.872,0,0,1-.79.745c-1.367.776-2.726,1.57-4.091,2.352a.948.948,0,0,1-1.236-.048.907.907,0,0,1-.031-1.32,2.164,2.164,0,0,1,.446-.327q2.021-1.173,4.048-2.335c.77-.443,1.158-.353,1.654.375Z" transform="translate(-12.125 -3.86)" fill="#e79f54"/>
        <path id="Path_1355" data-name="Path 1355" d="M12.351,15.475c-2.075,0-4.15,0-6.225,0-.669,0-1.061-.338-1.082-.889a.943.943,0,0,1,1.047-.98c.79-.01,1.579,0,2.369,0q5.041,0,10.081,0a1.067,1.067,0,0,1,1.089.551.907.907,0,0,1-.823,1.311c-.943.03-1.888.013-2.833.015H12.351" transform="translate(-1.147 -3.093)" fill="#e79f54"/>
        <path id="Path_1356" data-name="Path 1356" d="M10.454,21.25c-1.454,0-2.909.008-4.363,0-.731-.005-1.131-.457-1.023-1.107a.951.951,0,0,1,1.058-.761c1.764,0,3.528,0,5.291,0,1.145,0,2.29-.007,3.434,0a.943.943,0,0,1,1,.725.924.924,0,0,1-.533,1.067,1.544,1.544,0,0,1-.638.077q-2.111,0-4.224,0" transform="translate(-1.148 -4.406)" fill="#e79f54"/>
        <path id="Path_1357" data-name="Path 1357" d="M14.081,27.015c-1.177,0-2.355.005-3.532,0a.92.92,0,0,1-.6-1.591.975.975,0,0,1,.72-.268c2.292,0,4.585-.007,6.878,0a.954.954,0,0,1,1.015.93.936.936,0,0,1-1,.934c-1.162.015-2.324,0-3.486,0v-.009" transform="translate(-2.194 -5.72)" fill="#e79f54"/>
        <path id="Path_1358" data-name="Path 1358" d="M55.959,27.1c.67.175,1.446.375,2.219.585a3.664,3.664,0,0,1,.7.241.888.888,0,0,1,.43,1.1.922.922,0,0,1-1.023.62c-.9-.219-1.792-.455-2.678-.722a.894.894,0,0,1-.655-1.036.983.983,0,0,1,1.012-.792" transform="translate(-12.492 -6.162)" fill="#e79f54"/>
        <path id="Path_1359" data-name="Path 1359" d="M49.626,12.273c.722,0,1.172.45,1.084.987a18.728,18.728,0,0,1-.722,2.76.917.917,0,0,1-1.755-.5c.2-.868.43-1.728.676-2.584a.836.836,0,0,1,.717-.661" transform="translate(-10.963 -2.791)" fill="#e79f54"/>
        <path id="Path_1360" data-name="Path 1360" d="M5.973,27.019a.925.925,0,0,1-.946-.929.948.948,0,0,1,1.9.007.917.917,0,0,1-.951.922" transform="translate(-1.143 -5.721)" fill="#e79f54"/>
        <path id="Path_1361" data-name="Path 1361" d="M22.555,21.244a.927.927,0,0,1-.916-.913.957.957,0,0,1,.939-.949.989.989,0,0,1,.929.927.959.959,0,0,1-.952.935" transform="translate(-4.921 -4.408)" fill="#e79f54"/>
        <path id="Path_1362" data-name="Path 1362" d="M32.441,42.844l3.207-.455v3.178c0,.866-.006,1.733,0,2.6,0,.23-.044.341-.3.322-.3-.022-.61-.005-1.019-.005.348-.269.62-.5.656-.875a1.664,1.664,0,0,0-.358-.98c-.714-1.242-1.433-2.48-2.187-3.785" transform="translate(-7.377 -9.64)" fill="#e79f54"/>
        <path id="Path_1363" data-name="Path 1363" d="M19.232,54.6a.927.927,0,0,1,.935.892.929.929,0,1,1-1.857.01.921.921,0,0,1,.922-.9" transform="translate(-4.164 -12.417)" fill="#e79f54"/>
        <path id="Path_1364" data-name="Path 1364" d="M18.25,5.712c-1.068,0-2.136,0-3.2,0-.651,0-1.055-.352-1.065-.906-.011-.575.4-.951,1.069-.953q3.2-.006,6.409,0a.952.952,0,0,1,1.069.91c.013.565-.411.946-1.073.949-1.068.005-2.136,0-3.2,0" transform="translate(-3.179 -0.876)" fill="#e79f54"/>
      </g>
    </g>
    <g id="Group_1342" data-name="Group 1342" transform="translate(247 45.64)">
      <g id="Group_1341" data-name="Group 1341" transform="translate(0 0)" clip-path="url(#clip-path-4)">
        <path id="Path_1365" data-name="Path 1365" d="M50.275,14.814a11.02,11.02,0,0,0-.391,2.226c-.123.691-.193,1.391-.305,2.083a.878.878,0,0,1-1.053.776c-.987-.133-1.973-.272-2.956-.434a.858.858,0,0,0-.872,1.427q.859,1.132,1.708,2.273c.484.651.434,1.053-.2,1.534q-1.8,1.358-3.61,2.7a.925.925,0,0,1-1.536-.211c-.561-.743-1.123-1.487-1.678-2.235a.918.918,0,0,0-.981-.488c-.5.119-.621.531-.684.97-.134.937-.263,1.874-.4,2.811a.875.875,0,0,1-1.125.833q-2.254-.322-4.51-.63c-.8-.109-1.077-.468-.962-1.261.137-.937.268-1.874.4-2.812a.9.9,0,0,0-.378-.987.847.847,0,0,0-1.038.128q-1.134.857-2.276,1.7c-.667.5-1.065.443-1.573-.228q-1.359-1.8-2.706-3.608c-.459-.616-.395-1.021.233-1.5.729-.553,1.463-1.1,2.2-1.644.343-.255.644-.547.528-1.016s-.506-.618-.965-.672c-.907-.108-1.81-.254-2.715-.382-.731-.1-1.012-.42-.92-1.162q.29-2.307.647-4.607c.119-.768.486-.99,1.29-.873.937.135,1.875.26,2.811.406a.839.839,0,0,0,.933-.37.823.823,0,0,0-.1-1c-.551-.731-1.1-1.461-1.647-2.2a1.3,1.3,0,0,1-.4-.864c.015-.215-.147-.165-.273-.161A13.77,13.77,0,0,0,14.713,9.924a13.61,13.61,0,0,0-3.7,9.777,13.866,13.866,0,0,0,4.525,10.124,23.2,23.2,0,0,0,2.332,1.787,5.4,5.4,0,0,1,2.36,4.4c.029,1.08.03,2.161.009,3.24a1.764,1.764,0,0,0,1.914,1.909c2.078-.046,4.157-.009,6.235-.014a1.689,1.689,0,0,0,1.865-1.885,27.046,27.046,0,0,1,.1-4.017,5.54,5.54,0,0,1,2.243-3.607,20.285,20.285,0,0,0,1.839-1.385c.228-.214.375-.175.526.063a.987.987,0,0,0,.1.112c.8.916.8.919-.184,1.662-.352.265-.714.519-1.08.765a4.119,4.119,0,0,0-1.868,3.577c-.014,1.047,0,2.094-.008,3.141a3.144,3.144,0,0,1-1.345,2.594.691.691,0,0,0-.321.642c.013,1.326-.033,2.652.015,3.976a3.415,3.415,0,0,1-3.6,3.577c-.98-.04-1.964,0-2.945-.008a3.356,3.356,0,0,1-3.481-3.5q-.011-2.037,0-4.075a.64.64,0,0,0-.293-.6A3.221,3.221,0,0,1,18.566,39.5c-.014-.746,0-1.492,0-2.369-.435.444-.779.805-1.133,1.156a.892.892,0,0,1-1.381.138q-.894-.6-1.773-1.226c-.246-.174-.38-.263-.447.162-.12.755-.3,1.5-.475,2.247a.834.834,0,0,1-.939.737q-1.571.008-3.142,0a.824.824,0,0,1-.925-.751q-.263-1.143-.486-2.295c-.054-.275-.122-.328-.366-.151-.609.439-1.231.861-1.855,1.281A.884.884,0,0,1,4.3,38.315Q3.142,37.177,2,36.024a.859.859,0,0,1-.119-1.269c.478-.717.972-1.422,1.5-2.187-.8-.167-1.546-.328-2.293-.478C.175,31.906,0,31.7,0,30.785s0-1.866,0-2.8a.86.86,0,0,1,.78-1c.73-.169,1.459-.35,2.2-.467.427-.068.332-.2.159-.448-.4-.56-.783-1.127-1.17-1.692-.448-.655-.425-.951.119-1.5q1.073-1.08,2.152-2.152a.908.908,0,0,1,1.417-.138c.689.465,1.372.938,2.112,1.444.165-.757.336-1.466.471-2.181.119-.621.229-1.218,1.058-1.21.188,0,.122-.159.129-.256a15.353,15.353,0,0,1,1.31-5.286A15.667,15.667,0,0,1,20.316,4.42a13.973,13.973,0,0,1,5.836-.72,1.5,1.5,0,0,0,1.209-.35c.6-.5,1.244-.955,1.879-1.416a.866.866,0,0,1,1.391.2Q31.524,3.3,32.4,4.489a.873.873,0,0,0,.956.431.838.838,0,0,0,.641-.821c.117-.874.268-1.742.375-2.617C34.5.46,34.8.22,35.814.366q2.157.311,4.315.6c.7.1.983.4.909,1.118-.086.844-.238,1.681-.344,2.523-.061.49-.254,1.034.288,1.386s.95-.027,1.355-.33c.68-.51,1.355-1.026,2.04-1.529a.885.885,0,0,1,1.462.207Q47.25,6.2,48.635,8.072a.858.858,0,0,1-.2,1.388q-1.147.88-2.315,1.734a.92.92,0,0,0-.456,1.043c.124.445.5.561.907.616.954.13,1.907.271,2.862.4a1.181,1.181,0,0,1,.842.584Zm-5.581,8.9c-.482-.645-.957-1.268-1.418-1.9a2.432,2.432,0,0,1-.507-1.931,2.553,2.553,0,0,1,3.082-2.089c.547.089,1.1.155,1.643.263.37.074.552,0,.6-.416.088-.827.2-1.652.341-2.473.045-.274-.015-.343-.287-.378-.76-.1-1.519-.209-2.269-.362a2.325,2.325,0,0,1-1.868-1.8,2.331,2.331,0,0,1,.794-2.513c.586-.5,1.212-.944,1.83-1.4.18-.133.223-.219.069-.417q-.83-1.063-1.617-2.158c-.168-.234-.285-.217-.495-.052-.593.462-1.185.928-1.814,1.337a2.335,2.335,0,0,1-2.716-.006,2.408,2.408,0,0,1-1.108-2.49c.1-.712.2-1.422.305-2.133.021-.143.038-.237-.164-.263-.922-.119-1.843-.253-2.763-.39-.237-.035-.363.019-.39.285-.054.519-.144,1.035-.2,1.554a2.679,2.679,0,0,1-1.894,2.58,2.594,2.594,0,0,1-2.936-1.24c-.335-.443-.68-.88-1-1.335-.146-.209-.24-.278-.477-.091q-1.036.822-2.115,1.591c-.238.17-.229.283-.066.5.469.608.951,1.209,1.363,1.855a2.339,2.339,0,0,1-.022,2.675,2.455,2.455,0,0,1-2.535,1.124c-.664-.08-1.33-.159-1.986-.289-.307-.06-.366.055-.4.3-.121.889-.243,1.779-.38,2.666-.033.217.029.285.242.311.664.083,1.325.186,1.987.284a2.514,2.514,0,0,1,1.22,4.577c-.509.384-1.007.785-1.535,1.139-.3.2-.274.35-.074.6.515.654,1.017,1.321,1.5,2,.192.271.329.259.571.066.563-.447,1.133-.889,1.73-1.288a2.369,2.369,0,0,1,2.638-.093A2.311,2.311,0,0,1,32.8,24.242c-.065.731-.192,1.456-.279,2.184-.022.187-.147.424.22.47.891.111,1.778.249,2.666.382.227.034.355,0,.383-.274.065-.616.176-1.228.249-1.844a2.586,2.586,0,0,1,1.927-2.332,2.526,2.526,0,0,1,2.7,1.044q.609.8,1.2,1.608c.115.156.194.208.379.064.8-.619,1.616-1.219,2.439-1.835M9.583,21.887c-.057.161-.1.264-.129.371a1.683,1.683,0,0,1-2.805,1.059c-.434-.292-.871-.579-1.288-.893a.3.3,0,0,0-.484.046c-.333.36-.68.709-1.042,1.04a.326.326,0,0,0-.054.524c.358.486.708.98,1.023,1.495a1.648,1.648,0,0,1-1.04,2.537c-.584.148-1.174.277-1.767.381-.239.041-.341.108-.331.364.018.457.018.916,0,1.373-.01.256.088.325.33.361.466.069.925.192,1.388.285,1.664.334,2.173,1.57,1.218,2.964-.323.47-.907.952-.891,1.411.018.5.749.835,1.129,1.28.184.215.322.243.56.061.467-.355.953-.689,1.451-1A1.661,1.661,0,0,1,9.423,36.6c.15.6.277,1.207.383,1.816.038.212.118.269.316.265.474-.01.949-.013,1.423,0,.223.007.307-.071.348-.3q.159-.889.378-1.768a1.651,1.651,0,0,1,2.592-1.057,14.614,14.614,0,0,1,1.366.951c.287.229.451.175.677-.075.383-.424.792-.828,1.215-1.213a.433.433,0,0,0,.108-.584c-.57-1.384-1.888-1.947-2.956-2.805A5.023,5.023,0,0,1,5.8,29.483a4.9,4.9,0,0,1,1.063-3.037,5.016,5.016,0,0,1,3.346-1.929c-.131-.453-.268-.871-.37-1.3s-.165-.849-.257-1.333m-2.04,7.6a3.265,3.265,0,0,0,2.651,3.245,3.317,3.317,0,0,0,3.6-1.753.487.487,0,0,0-.105-.667,13.732,13.732,0,0,1-2.568-3.677.671.671,0,0,0-.885-.409,3.289,3.289,0,0,0-2.7,3.262M25.244,46.2c-1,0-1.993,0-2.989,0-.148,0-.31-.058-.351.208a1.832,1.832,0,0,0,1.9,2.27c.9.006,1.8,0,2.7,0,1.478,0,2.107-.655,2.082-2.132-.005-.271-.067-.36-.35-.355-1,.018-1.992.007-2.989.007m.008-1.714c.72,0,1.439,0,2.158,0,.372,0,.875.123,1.084-.067.249-.227.04-.74.086-1.125.039-.336-.063-.44-.417-.436-1.668.021-3.336.009-5,.009-1.287,0-1.278,0-1.257,1.269,0,.277.078.361.357.357,1-.015,1.995-.006,2.992-.006" transform="translate(0 -0.086)" fill="#e79f54"/>
        <path id="Path_1366" data-name="Path 1366" d="M14.357,0q.825,3.186,1.653,6.37c.059.228.025.367-.249.406-.431.06-.91.416-1.254.236-.324-.17-.271-.755-.377-1.158-.442-1.682-.864-3.368-1.31-5.049-.08-.3-.009-.433.294-.505a2.29,2.29,0,0,0,.948-.3Z" transform="translate(-3.359 0)" fill="#e79f54"/>
        <path id="Path_1367" data-name="Path 1367" d="M18.39,22.833a11.652,11.652,0,0,1,5.2-9.743c.22-.153.313-.125.436.094.207.369.614.719.62,1.083.008.4-.576.532-.889.795a9.617,9.617,0,0,0-3.663,7.89,9.688,9.688,0,0,0,5.765,8.913,10.979,10.979,0,0,1,2.8,1.663,7.05,7.05,0,0,1,2.255,4.89c.01.156,0,.258-.187.246-.049,0-.1,0-.147,0a3.18,3.18,0,0,1-1.212-.036c-.4-.184-.166-.726-.262-1.1a5.127,5.127,0,0,0-2.929-3.64,13.518,13.518,0,0,1-4.643-3.1A11.472,11.472,0,0,1,18.472,24.1c-.023-.211-.066-.42-.08-.631s0-.425,0-.638" transform="translate(-4.828 -3.412)" fill="#e79f54"/>
        <path id="Path_1368" data-name="Path 1368" d="M4.1,6.219c.055.036.125.077.19.125,1.779,1.271,3.554,2.546,5.339,3.808.2.145.253.238.083.446-.279.339-.468.9-.8,1-.358.107-.721-.406-1.076-.656C6.336,9.892,4.858,8.817,3.362,7.768c-.262-.183-.308-.308-.1-.557s.4-.555.607-.828c.051-.068.074-.192.225-.164" transform="translate(-0.822 -1.632)" fill="#e79f54"/>
        <path id="Path_1369" data-name="Path 1369" d="M8.254,18.887c.02.135-.179.086-.3.117q-2.675.679-5.351,1.352c-1.038.259-1.013.245-1.3-.774-.131-.473-.076-.667.45-.786,1.919-.437,3.829-.92,5.736-1.412.3-.077.408-.029.467.256.08.383.18.761.3,1.248" transform="translate(-0.327 -4.556)" fill="#e79f54"/>
        <path id="Path_1370" data-name="Path 1370" d="M54.944,48.044c.116.088.2.145.271.207,1.5,1.254,3,2.512,4.514,3.756.222.182.226.3.036.5a7.467,7.467,0,0,0-.658.788c-.159.222-.273.187-.46.03q-2.248-1.889-4.511-3.759c-.187-.155-.249-.26-.06-.461.257-.273.485-.573.723-.862.052-.062.1-.13.145-.2" transform="translate(-14.17 -12.616)" fill="#e79f54"/>
        <path id="Path_1371" data-name="Path 1371" d="M58.6,43.833c-.849,0-1.7-.01-2.548.005-.274.005-.361-.075-.371-.357-.044-1.372-.053-1.372,1.313-1.372,1.389,0,2.777.01,4.166-.007.327,0,.428.089.4.41-.034.42.13.971-.081,1.231-.223.276-.795.074-1.214.086-.555.015-1.111,0-1.667,0" transform="translate(-14.618 -11.056)" fill="#e79f54"/>
        <path id="Path_1372" data-name="Path 1372" d="M50.608,54.133c0,.849-.011,1.7.006,2.548.006.278-.078.372-.357.354-.437-.029-1.011.136-1.277-.083s-.083-.827-.087-1.263c-.011-1.372,0-2.744-.01-4.116,0-.313.073-.42.407-.422,1.318-.008,1.318-.021,1.318,1.316v1.667" transform="translate(-12.822 -13.432)" fill="#e79f54"/>
        <path id="Path_1373" data-name="Path 1373" d="M33.062,51.221c.041-.328-.182-.877.084-1.094.249-.2.778-.041,1.18-.08.361-.035.483.071.459.448-.035.584-.02,1.172,0,1.759.007.26-.087.361-.338.329a.369.369,0,0,0-.049,0c-1.331.038-1.331.038-1.331-1.361" transform="translate(-8.669 -13.136)" fill="#e79f54"/>
        <path id="Path_1374" data-name="Path 1374" d="M52.938,17.459A6.685,6.685,0,1,1,46.3,10.773a6.684,6.684,0,0,1,6.642,6.686m-1.692.026a4.983,4.983,0,1,0-5.014,4.962,5.015,5.015,0,0,0,5.014-4.962" transform="translate(-10.39 -2.829)" fill="#e79f54"/>
      </g>
    </g>
    <g id="Group_1344" data-name="Group 1344" transform="translate(-78.394 52.64)">
      <g id="Group_1343" data-name="Group 1343" transform="translate(0 0)" clip-path="url(#clip-path-5)">
        <path id="Path_1375" data-name="Path 1375" d="M38.071,10.982a5.3,5.3,0,0,1-.138,1.277,3.451,3.451,0,0,0,.987,3.22,6.68,6.68,0,0,1,1.67,2.3,5.225,5.225,0,0,1-.874,5.409,3.156,3.156,0,0,1-.414.448,4.046,4.046,0,0,0-1.325,4.142,5.264,5.264,0,0,1-4.443,6.167,10.283,10.283,0,0,0-1.194.234,3.352,3.352,0,0,0-2.081,1.77,6.786,6.786,0,0,1-1.521,2.176,5.217,5.217,0,0,1-5.639.949,8.777,8.777,0,0,1-.886-.423,3.494,3.494,0,0,0-3.448,0,6.053,6.053,0,0,1-2.935.847,5.232,5.232,0,0,1-4.594-2.6,4.19,4.19,0,0,1-.32-.572,3.871,3.871,0,0,0-3.325-2.379,5.269,5.269,0,0,1-4.608-6.21,5.579,5.579,0,0,0,.07-1.913,4.158,4.158,0,0,0-1.34-2.15A5.411,5.411,0,0,1,.071,20.581a5.176,5.176,0,0,1,1.175-4.24c.266-.327.576-.618.869-.923a3.409,3.409,0,0,0,.928-3.15,5.5,5.5,0,0,1,1.514-5.3A5.707,5.707,0,0,1,7.923,5.481a3.515,3.515,0,0,0,2.871-2.063A5.851,5.851,0,0,1,12.962.832,5.186,5.186,0,0,1,17.935.468c.3.127.6.261.889.414A3.38,3.38,0,0,0,22.1.912a6.487,6.487,0,0,1,3.113-.9,5.244,5.244,0,0,1,4.468,2.5A3.652,3.652,0,0,1,30,3.081a4.029,4.029,0,0,0,3.455,2.5,5.2,5.2,0,0,1,4.556,4.395,6.557,6.557,0,0,1,.063,1.01M4.841,28.612a6.675,6.675,0,0,0,.091.784,3.4,3.4,0,0,0,3.123,2.667A5.472,5.472,0,0,1,12.525,35.2a7.236,7.236,0,0,0,.383.7,3.31,3.31,0,0,0,2.876,1.642,4.7,4.7,0,0,0,2.251-.7,5.293,5.293,0,0,1,3.778-.437,10.223,10.223,0,0,1,1.845.787,3.364,3.364,0,0,0,4.508-1.456c.183-.327.341-.668.531-.99a5.237,5.237,0,0,1,2.995-2.413A14.523,14.523,0,0,1,33.246,32a3.369,3.369,0,0,0,2.793-4.147,5.484,5.484,0,0,1,.986-4.612c.288-.369.632-.693.954-1.036A3.356,3.356,0,0,0,38,17.333c-.234-.252-.484-.491-.712-.749a5.188,5.188,0,0,1-1.318-4.378,4.945,4.945,0,0,0-.01-2.415,3.457,3.457,0,0,0-3.09-2.359,5.458,5.458,0,0,1-4.451-3.17,6.807,6.807,0,0,0-.411-.735,3.261,3.261,0,0,0-2.822-1.566,3.979,3.979,0,0,0-1.954.562,5.579,5.579,0,0,1-3.523.687,7.193,7.193,0,0,1-2.227-.818,3.448,3.448,0,0,0-4.9,1.79A5.575,5.575,0,0,1,8,7.455,3.376,3.376,0,0,0,4.945,11.7a5.523,5.523,0,0,1-1.62,5.269,8.453,8.453,0,0,0-.579.616,3.329,3.329,0,0,0,.007,4.342c.285.333.605.634.9.96A5.2,5.2,0,0,1,5,27.3c-.064.432-.106.868-.159,1.312" transform="translate(0 0)" fill="#d4653b"/>
        <path id="Path_1376" data-name="Path 1376" d="M18.253,32.2a.983.983,0,0,1-.81-.5.922.922,0,0,1,.042-1.017,2.332,2.332,0,0,1,.316-.346q6.775-6.777,13.55-13.555a1.211,1.211,0,0,1,.924-.478.97.97,0,0,1,.758,1.515,2.451,2.451,0,0,1-.316.345Q25.942,24.94,19.166,31.717a1.323,1.323,0,0,1-.913.485" transform="translate(-4.774 -4.495)" fill="#d4653b"/>
        <path id="Path_1377" data-name="Path 1377" d="M17.24,16.529a4.093,4.093,0,1,1,8.184.1,4.093,4.093,0,0,1-8.184-.1m6.226.031a2.143,2.143,0,1,0-2.13,2.134,2.115,2.115,0,0,0,2.13-2.134" transform="translate(-4.754 -3.44)" fill="#d4653b"/>
        <path id="Path_1378" data-name="Path 1378" d="M32.119,38.969a4.093,4.093,0,1,1,4.1-4.056,4.084,4.084,0,0,1-4.1,4.056m-2.126-4.1a2.143,2.143,0,1,0,2.134-2.129,2.106,2.106,0,0,0-2.134,2.129" transform="translate(-7.731 -8.489)" fill="#d4653b"/>
      </g>
    </g>
    <g id="Group_1346" data-name="Group 1346" transform="translate(-17 201.641)">
      <g id="Group_1345" data-name="Group 1345" transform="translate(0 0)" clip-path="url(#clip-path-6)">
        <path id="Path_1379" data-name="Path 1379" d="M31.66,24.921c0,1.624-.026,3.248.011,4.871a1.862,1.862,0,0,1-1,1.747,6.719,6.719,0,0,1-2.684.854,12.64,12.64,0,0,1-5.552-.369,4.868,4.868,0,0,1-1.04-.466,1.864,1.864,0,0,1-1-1.744q.04-4.871,0-9.743a1.878,1.878,0,0,1,1.036-1.766,7.087,7.087,0,0,1,2.773-.845,13.3,13.3,0,0,1,4.446.144,5.81,5.81,0,0,1,2.224.869,1.735,1.735,0,0,1,.8,1.536c-.027,1.637-.009,3.274-.009,4.911m-1.3,3.407a12.476,12.476,0,0,1-8.652.01v.992c0,.974.022,1.007.941,1.373.061.024.122.044.184.064a11.122,11.122,0,0,0,5.39.247,4.815,4.815,0,0,0,1.878-.672.529.529,0,0,0,.263-.491c-.012-.5,0-1,0-1.522m-4.379-3.973a9.993,9.993,0,0,0,3.564-.569c.569-.23.957-.543.818-1.229a2.421,2.421,0,0,1,0-.277c-.021-.258.12-.608-.06-.747-.158-.122-.44.138-.677.205a12,12,0,0,1-7.675-.188c-.21-.078-.248-.047-.241.16a5.836,5.836,0,0,1-.005.989c-.08.57.219.836.69,1.036a9.134,9.134,0,0,0,3.591.62m4.379.553a12.465,12.465,0,0,1-8.652.012v.958c0,.984.037,1.038.968,1.4.074.028.149.052.224.075a11.523,11.523,0,0,0,4.933.3A5.46,5.46,0,0,0,30,26.967a.641.641,0,0,0,.364-.639c-.024-.461-.007-.924-.007-1.421m-4.345-6.254a9.658,9.658,0,0,0-3.632.625c-.271.118-.668.232-.666.533,0,.272.387.389.653.5a10.059,10.059,0,0,0,4.732.58,7.245,7.245,0,0,0,2.522-.578c.262-.12.649-.226.65-.5,0-.3-.395-.417-.666-.534a9.621,9.621,0,0,0-3.592-.624" transform="translate(-6.974 -5.932)" fill="#d4653b"/>
        <path id="Path_1380" data-name="Path 1380" d="M20.724,1.477a44.055,44.055,0,0,1,5,2.707c.018-.075.034-.1.027-.115-.274-.5-.274-.5.241-.773.174-.093.348-.185.525-.272.243-.12.6-.436.7-.33a3.622,3.622,0,0,1,.57,1.02c.073.151-.095.158-.173.2-.4.222-.809.436-1.234.664.721.521,1.43,1.021,2.126,1.54a47.214,47.214,0,0,1,4.674,4.031c.193.188.232.3.007.487-.243.2-.445.566-.7.6-.195.024-.444-.353-.661-.561a41.275,41.275,0,0,0-9.11-6.711,26.445,26.445,0,0,0-3.63-1.605c.109.51.205.976.309,1.44.109.493.113.492-.376.588-.811.161-.815.161-.991-.636-.161-.732-.314-1.465-.466-2.2a.648.648,0,0,1,.51-.842C19.11.465,20.154.253,21.195.029c.158-.034.274-.035.3.185a3.561,3.561,0,0,0,.163.77c.088.259-.028.314-.241.348-.232.036-.461.095-.69.144" transform="translate(-6.001 -0.004)" fill="#d4653b"/>
        <path id="Path_1381" data-name="Path 1381" d="M49.425,17.715c-.57.16-1.077.288-1.574.449-.234.075-.334.069-.413-.206-.277-.974-.291-.97.662-1.241.631-.18,1.261-.365,1.893-.541.6-.169.885-.016,1.063.588.278.945.543,1.893.822,2.837.063.213.055.335-.208.381-.318.056-.678.294-.93.2s-.191-.558-.317-.843a.992.992,0,0,1-.041-.155c-.1.015-.106.1-.129.166a36.708,36.708,0,0,1-6.662,10.842c-.61.711-1.261,1.386-1.883,2.086-.135.153-.222.182-.369.02-.23-.254-.657-.478-.672-.734s.384-.52.616-.767a39.614,39.614,0,0,0,6.7-9.485,24.35,24.35,0,0,0,1.44-3.6" transform="translate(-13.911 -5.511)" fill="#d4653b"/>
        <path id="Path_1382" data-name="Path 1382" d="M31.649,49.392c-.17-.6-.313-1.125-.474-1.65-.055-.178-.029-.244.163-.306,1.023-.33,1.02-.337,1.313.691.184.643.374,1.286.551,1.932A.668.668,0,0,1,32.71,51c-.993.3-1.993.576-2.988.868-.188.055-.288.027-.331-.189-.065-.32-.3-.68-.213-.938.1-.283.572-.21.863-.346.044-.021.092-.033.192-.067-.924-.4-1.819-.734-2.678-1.155a41.135,41.135,0,0,1-10.122-7.169c-.538-.507-.539-.5-.028-1.03a1.389,1.389,0,0,0,.164-.171c.161-.232.294-.2.491-.015a43.619,43.619,0,0,0,6.021,4.873,30.2,30.2,0,0,0,7.274,3.647c.073.024.149.041.293.08" transform="translate(-5.824 -13.903)" fill="#d4653b"/>
        <path id="Path_1383" data-name="Path 1383" d="M2.371,30.5c.578-.126,1.09-.228,1.6-.353.258-.063.36.02.416.272.213.958.219.952-.749,1.152-.669.139-1.336.289-2,.436a.7.7,0,0,1-.942-.581c-.218-.989-.423-1.98-.638-2.969-.045-.206-.043-.349.228-.378.325-.036.72-.25.949-.13s.183.59.261.905c0,0,.02,0,.035.008.114-.024.111-.138.143-.214A38.242,38.242,0,0,1,8.125,18.624c.666-.766,1.384-1.489,2.063-2.244.182-.2.293-.184.456.007.2.24.579.441.61.693s-.368.467-.583.693a41.281,41.281,0,0,0-6.687,9.079A25.875,25.875,0,0,0,2.371,30.5" transform="translate(-0.01 -5.554)" fill="#d4653b"/>
        <path id="Path_1384" data-name="Path 1384" d="M52.432,41.71a8.2,8.2,0,0,1-1.161,4.469,6.577,6.577,0,0,1-4.641,2.974,11.706,11.706,0,0,1-3.705.014c-.2-.027-.249-.088-.211-.27a4.915,4.915,0,0,0,.13-.738c.014-.257.074-.322.354-.285a9.277,9.277,0,0,0,4.074-.224,5.125,5.125,0,0,0,3.667-4.194,13.231,13.231,0,0,0-.82-6.861c-.177-.522-.386-1.034-.6-1.54-.1-.224-.055-.318.17-.4.307-.106.65-.4.89-.329.259.079.3.546.417.848a19.164,19.164,0,0,1,1.44,6.531" transform="translate(-14.607 -11.74)" fill="#d4653b"/>
        <path id="Path_1385" data-name="Path 1385" d="M41.433,1.644a17.422,17.422,0,0,0-6.173,1.53c-.36.153-.482.089-.619-.249-.324-.8-.34-.792.476-1.12A18,18,0,0,1,41.7.334a7.608,7.608,0,0,1,5.5,1.888,6.8,6.8,0,0,1,2.01,3.893,11.666,11.666,0,0,1,.013,3.7c-.027.2-.1.249-.27.216-.026-.005-.054,0-.079-.009-.314-.093-.766.014-.925-.218-.136-.2.039-.6.059-.913a7.647,7.647,0,0,0-.926-4.761,5.233,5.233,0,0,0-3.6-2.33,9.074,9.074,0,0,0-2.044-.159" transform="translate(-11.779 -0.114)" fill="#d4653b"/>
        <path id="Path_1386" data-name="Path 1386" d="M7.469,51c1.024.01,1.015.01,1.053,1.005.009.228-.051.3-.27.307a8.694,8.694,0,0,1-5.219-1.2,6.552,6.552,0,0,1-2.91-4.677,13.217,13.217,0,0,1,.008-3.625c.034-.313.13-.456.463-.314a1.934,1.934,0,0,0,.387.07c.532.105.518.1.443.646a7.854,7.854,0,0,0,.7,5.067,5.3,5.3,0,0,0,4.133,2.633A6.242,6.242,0,0,0,7.469,51" transform="translate(0 -14.517)" fill="#d4653b"/>
        <path id="Path_1387" data-name="Path 1387" d="M8,.007A12.257,12.257,0,0,1,9.961.147c.239.034.283.13.228.33-.007.025-.012.051-.02.076-.08.289.006.686-.206.853s-.582-.015-.88-.045a8.25,8.25,0,0,0-4.261.522A5.178,5.178,0,0,0,1.805,5.862a8.4,8.4,0,0,0-.147,2.281c.017.232-.066.276-.272.307C.358,8.6.294,8.556.32,7.525a8.506,8.506,0,0,1,1.1-4.3A6.5,6.5,0,0,1,5.871.177,8.535,8.535,0,0,1,8,.007" transform="translate(-0.108 0)" fill="#d4653b"/>
        <path id="Path_1388" data-name="Path 1388" d="M19.9,13.375a1.1,1.1,0,0,0-.194.114c-.482.429-.965.856-1.435,1.3-.14.132-.224.126-.345-.011-.226-.257-.622-.484-.654-.757s.427-.468.663-.7c.28-.278.6-.521.87-.8.182-.187.281-.155.419.038.153.213.338.4.508.6.043.049.08.1.167.22" transform="translate(-5.908 -4.237)" fill="#d4653b"/>
        <path id="Path_1389" data-name="Path 1389" d="M4.416,22.451c.107-.017.12.092.158.168.295.586.583,1.175.884,1.758.066.128.068.19-.063.282-.93.645-.938.649-1.456-.353-.193-.372-.359-.759-.557-1.127-.094-.175-.057-.249.114-.32.3-.124.6-.264.919-.408" transform="translate(-1.14 -7.679)" fill="#d4653b"/>
        <path id="Path_1390" data-name="Path 1390" d="M33.255,47c0,.1-.087.13-.146.173-.552.407-1.111.8-1.659,1.217-.129.1-.2.086-.275-.045a.221.221,0,0,0-.023-.032c-.66-.853-.659-.853.214-1.489.309-.225.622-.446.922-.683.146-.114.238-.115.348.043.167.237.354.46.531.69.032.041.06.087.088.128" transform="translate(-10.495 -15.756)" fill="#d4653b"/>
        <path id="Path_1391" data-name="Path 1391" d="M48.772,24.895c-.3.206-.6.411-.9.622-.116.083-.189.086-.281-.044-.386-.547-.782-1.088-1.178-1.628-.082-.111-.093-.175.026-.288.829-.78.825-.784,1.484.13l.807,1.119a.821.821,0,0,1,.046.088" transform="translate(-15.854 -7.863)" fill="#d4653b"/>
        <path id="Path_1392" data-name="Path 1392" d="M10.512,32.382c0,.12-.085.149-.141.2-.82.732-.82.731-1.458-.154-.238-.332-.468-.67-.72-.99-.123-.155-.108-.249.053-.34l.068-.04c.278-.167.54-.543.812-.482.236.053.393.457.582.709.229.305.453.615.679.922.046.063.09.126.125.175" transform="translate(-2.775 -10.457)" fill="#d4653b"/>
        <path id="Path_1393" data-name="Path 1393" d="M14.333,38.95c-.05-.045-.1-.082-.141-.128-.465-.5-.924-1.013-1.4-1.511-.143-.151-.084-.229.041-.346.766-.718.764-.72,1.473.056.258.282.511.57.78.841.136.136.18.229.006.372-.213.176-.4.379-.6.57-.047.045-.1.089-.159.146" transform="translate(-4.349 -12.462)" fill="#d4653b"/>
        <path id="Path_1394" data-name="Path 1394" d="M23.681,10.277a1.147,1.147,0,0,0-.106-.167c-.745-.826-.745-.825.153-1.478.33-.239.663-.476.989-.72.134-.1.224-.133.33.048.178.3.549.6.529.881-.016.226-.488.42-.761.623-.3.22-.6.434-.895.649-.063.045-.128.088-.239.164" transform="translate(-7.879 -2.678)" fill="#d4653b"/>
        <path id="Path_1395" data-name="Path 1395" d="M43.144,19.87a1.606,1.606,0,0,0-.132-.2c-.422-.468-.839-.941-1.275-1.4-.164-.171-.132-.269.03-.406.251-.211.469-.592.731-.62s.445.412.667.64c.284.291.541.609.826.9.146.15.192.25-.009.394s-.4.338-.6.508c-.059.05-.125.092-.238.175" transform="translate(-14.24 -5.901)" fill="#d4653b"/>
        <path id="Path_1396" data-name="Path 1396" d="M23.151,53.321c-.144.045-.185.006-.211-.065-.018-.049-.046-.095-.066-.143-.129-.3-.411-.641-.343-.888s.535-.308.822-.461c.324-.172.659-.324.976-.506.188-.108.311-.147.409.1.124.314.5.621.4.895-.083.231-.525.341-.815.49-.409.209-.824.4-1.176.576" transform="translate(-7.704 -17.505)" fill="#d4653b"/>
        <path id="Path_1397" data-name="Path 1397" d="M38.967,42.164a1.891,1.891,0,0,1-.13.147c-.5.463-1.009.921-1.508,1.389-.122.114-.213.136-.313-.011a.276.276,0,0,0-.027-.029c-.734-.752-.734-.752.034-1.46.289-.268.585-.529.868-.8.118-.115.2-.18.337-.015.193.232.416.439.625.657.036.038.07.078.114.126" transform="translate(-12.466 -14.121)" fill="#d4653b"/>
        <path id="Path_1398" data-name="Path 1398" d="M1.79,18.47c-.253.057-.262-.076-.289-.166-.162-.54-.317-1.083-.472-1.625-.043-.148-.012-.215.166-.268,1.037-.311,1.034-.32,1.313.683a2.16,2.16,0,0,1,.066.226c.044.267.328.622.168.759a2.943,2.943,0,0,1-.953.391" transform="translate(-0.346 -5.55)" fill="#d4653b"/>
        <path id="Path_1399" data-name="Path 1399" d="M18,54.1c.1-.019.149.008.177.078.014.036.017.078.032.114.4,1.013.4,1.014-.64,1.316-.289.084-.583.154-.873.235-.157.044-.213.006-.264-.166-.3-1.024-.312-1.02.686-1.309.3-.087.6-.182.882-.266" transform="translate(-5.558 -18.505)" fill="#d4653b"/>
        <path id="Path_1400" data-name="Path 1400" d="M51.661,31.972c-.111.016-.122-.087-.155-.147-.232-.426-.448-.861-.687-1.282-.088-.155-.066-.239.089-.3.024-.011.043-.03.066-.043.286-.158.6-.476.849-.428.261.051.341.517.5.8s.47.585.373.818-.512.311-.788.458c-.081.043-.163.083-.245.124" transform="translate(-17.366 -10.181)" fill="#d4653b"/>
      </g>
    </g>
  </g>
</svg>
