<svg xmlns="http://www.w3.org/2000/svg" xmlns:xlink="http://www.w3.org/1999/xlink" width="397" height="429.528" viewBox="0 0 397 429.528">
  <defs>
    <clipPath id="clip-path">
      <rect id="Rectangle_35" data-name="Rectangle 35" width="175.768" height="216.462" fill="none"/>
    </clipPath>
  </defs>
  <g id="Vectors" transform="translate(94 100.816)">
    <g id="Group_1321" data-name="Group 1321" transform="translate(18.122 11.504)">
      <ellipse id="Ellipse_34" data-name="Ellipse 34" cx="127.5" cy="128.5" rx="127.5" ry="128.5" transform="translate(-25.122 -8.864)" fill="#e0e0e0"/>
      <g id="Group_1348" data-name="Group 1348" transform="translate(17.878 8.136)">
        <g id="Group_1347" data-name="Group 1347" clip-path="url(#clip-path)">
          <path id="Path_1401" data-name="Path 1401" d="M112.375,165.093c0,1.757-.11,3.526.039,5.271a2.3,2.3,0,0,1-1.725,2.77h-5.073c-.6-.711-1.414-.333-2.137-.409a59.647,59.647,0,0,1-22.092-5.216,3.5,3.5,0,0,1-.765-.691c7.786.074,15.555-.742,23.343-.442,2.888.112,5.744.048,8.409-1.283" transform="translate(21.159 43.328)" fill="#fef4b1"/>
          <g id="Rectangle_36" data-name="Rectangle 36" transform="translate(32 15)" fill="#fff" stroke="#707070" stroke-width="1">
            <rect width="108" height="184" rx="16" stroke="none"/>
            <rect x="0.5" y="0.5" width="107" height="183" rx="15.5" fill="none"/>
          </g>
          <path id="Path_1402" data-name="Path 1402" d="M98.728,171.145c.725.076,1.535-.3,2.137.409H98.752c0-.136-.01-.273-.024-.409" transform="translate(25.911 44.908)" fill="#fcf5c0"/>
          <path id="Path_1403" data-name="Path 1403" d="M136.69,94.672c-.039.841-.114,1.68-.114,2.521q-.009,42.88,0,85.759a18.071,18.071,0,0,1-2,8.934c-3.238,5.079-7.85,7.442-13.887,7.388-10.25-.093-20.5-.024-30.752-.009-.761,0-1.524.114-2.286.174-.84-.043-1.679-.121-2.519-.122-15.4-.008-30.809-.1-46.212.047-5.62.056-10.333-1.509-14.052-5.786a19.517,19.517,0,0,1-3.07-11.391c.064-23.6.033-47.192.028-70.788,0-.773-.053-1.544-.082-2.317.043-.841.124-1.68.124-2.521q.009-40.256.009-80.514c0-9.99,6.21-16.2,16.164-16.235,4.574-.018,9.149-.066,13.723-.1,5.051.033,10.1.1,15.153.076,1.656-.008,2.888.42,3.372,2.146-.371,1.785-1.572,2.226-3.248,2.221-4.536-.015-9.072.078-13.608.13a126.01,126.01,0,0,0-18.755.134c-4.143.433-7.733,4.309-8.283,8.437a25.438,25.438,0,0,0-.207,3.368q-.015,78.406-.006,156.81c0,6.156,2.654,10.055,7.77,11.588a13.555,13.555,0,0,0,3.974.328c27.539.011,55.078-.1,82.615.09,6.589.047,11.819-4.461,11.787-11.811-.129-30.29-.053-60.581-.053-90.872,0-.7-.006-1.41.021-2.113a2.067,2.067,0,0,1,2.03-2.256c1.463-.072,2.163.924,2.266,2.257.115,1.469.073,2.952.1,4.429" transform="translate(5.706 2.549)" fill="#131210" stroke="#131210" stroke-width="3"/>
          <path id="Path_1404" data-name="Path 1404" d="M104.094,1.721a74.1,74.1,0,0,1,10.15,2.69,28.185,28.185,0,0,1,17.114,16.4c2.341,5.718.769,11.15-2.022,16.34-3.85,7.161-9.371,13.1-14.259,19.5-.039-9.345-.165-18.689-.09-28.034.062-7.732-3.122-13.2-10.453-16.031-.158-3.621.375-7.268-.439-10.862" transform="translate(27.319 0.452)" fill="#fcf5c0"/>
          <path id="Path_1405" data-name="Path 1405" d="M47.838,73.081A16.278,16.278,0,1,1,64.253,56.745,16.481,16.481,0,0,1,47.838,73.081m.049-25.775c-4.91.015-8.509,5.187-6.409,9.617a4.569,4.569,0,0,1-.05,4.749c-1.13,2.107-.558,4.17.968,4.5,2.158.461,2.539-1.155,2.887-2.741a2.7,2.7,0,0,1,5.275.207,8.238,8.238,0,0,0,.265,1.02,1.964,1.964,0,0,0,2.389,1.558,2.058,2.058,0,0,0,1.722-2.323,6.334,6.334,0,0,0-.793-2.805,3.062,3.062,0,0,1-.021-3.6c2.5-4.527-1.054-10.2-6.231-10.183" transform="translate(8.274 10.636)" fill="#e868a4"/>
          <path id="Path_1406" data-name="Path 1406" d="M47.99,135.844a16.293,16.293,0,1,1,16.182-16.267A16.32,16.32,0,0,1,47.99,135.844m-.128-25.731a7.052,7.052,0,0,0-7.01,7.167c.072,1.733,1.385,3.151,1.654,4.632.24,1.315-1.593,2.8-1.637,4.549-.034,1.245.362,2.262,1.735,2.478a1.923,1.923,0,0,0,2.421-1.723,5.515,5.515,0,0,1,.465-1.608,2.582,2.582,0,0,1,2.83-1.371c1.588.24,2.178,1.372,2.4,2.791s1.045,2.163,2.479,1.9c1.467-.268,1.828-1.375,1.658-2.705a5.21,5.21,0,0,0-1.033-2.938c-.823-.9-.656-1.534-.025-2.5a6.505,6.505,0,0,0,.141-7.164,6.8,6.8,0,0,0-6.08-3.508" transform="translate(8.288 27.1)" fill="#1a6040"/>
          <path id="Path_1407" data-name="Path 1407" d="M63.989,88.357a15.879,15.879,0,0,1-16.245,16.109A16.236,16.236,0,0,1,31.666,87.881,16.538,16.538,0,0,1,48.11,71.911c8.28.077,16.485,7.519,15.879,16.446M46.668,78.713c-3.478-.175-6.173,4.213-5.862,7.685.141,1.564,1.521,2.856,1.669,4.175.139,1.233-1.456,2.555-1.659,4.133-.191,1.472.338,2.588,1.769,2.911,1.394.314,2.2-.473,2.444-1.91a4.34,4.34,0,0,1,.8-1.909,2.4,2.4,0,0,1,2.617-.943,2.854,2.854,0,0,1,2.14,2.567c.229,1.428.966,2.67,2.678,2.159,1.618-.485,2.072-1.772,1.488-3.367a9.315,9.315,0,0,0-1.033-2.5,1.469,1.469,0,0,1,0-2.149,6.388,6.388,0,0,0,.364-7.137c-1.3-2.433-3.419-3.617-7.413-3.715" transform="translate(8.311 18.873)" fill="#8ea0d1"/>
          <path id="Path_1408" data-name="Path 1408" d="M46.844,13.822c4.536-.05,9.072-.145,13.607-.13,1.678.005,2.878-.436,3.25-2.221h9.736c.273,1.89,1.563,2.208,3.2,2.212,7.264.016,14.53.087,21.794.138-.7,2.277-1.381,4.561-2.108,6.831-.817,2.548-1.985,3.517-4.576,3.525q-19.109.049-38.218,0c-2.592-.006-3.756-.973-4.574-3.525-.728-2.269-1.408-4.552-2.11-6.83" transform="translate(12.327 4.011)" fill="#e27b15"/>
          <path id="Path_1409" data-name="Path 1409" d="M73.876,11.464H64.14c-.484-1.366-1.716-1.7-3.372-1.7-5.051.019-10.1-.035-15.154-.06-.208-1.82.425-3.682-.447-5.469,4.667-1.214,9.549-1.565,14.354-2.207C67.931.9,76.44.5,84.939.066c2.655-.135,5.33-.023,8-.024q.006,4.831.011,9.663c-5.243.026-10.487.071-15.73.068-1.62,0-2.921.266-3.339,1.691" transform="translate(11.854 0)" fill="#fff1a4"/>
          <path id="Path_1410" data-name="Path 1410" d="M24.345,155.354c3.718,4.278,8.432,5.841,14.052,5.787,15.4-.152,30.808-.054,46.212-.047.84,0,1.679.078,2.519.121,1.443,3.3,4.29,5.352,6.813,7.692-19.555.009-39.109.048-58.663.009-6.149-.013-11.737-5.888-11.539-11.923.02-.606-.169-1.307.606-1.64" transform="translate(6.229 40.772)" fill="#cbc8c8"/>
          <path id="Path_1411" data-name="Path 1411" d="M67.908,11.934c.418-1.8,1.719-2.137,3.339-2.136,5.243,0,10.487-.053,15.73-.086,6.869.034,13.738.092,20.607.09a30.849,30.849,0,0,1,6.446.684c7.331,2.834,10.515,8.3,10.453,16.031-.076,9.343.05,18.689.09,28.034q-.034,9.921-.073,19.843a5.5,5.5,0,0,1-.241,2.285A1.951,1.951,0,0,1,122.3,78a1.914,1.914,0,0,1-2-1.558,13.658,13.658,0,0,1-.145-2.308q-.011-24.18-.013-48.359c-.005-5.686-2.543-9.5-7.3-11.067a7.335,7.335,0,0,0-1.834-.4A167.735,167.735,0,0,0,92.9,14.283c-7.264-.05-14.53-.121-21.794-.138-1.637,0-2.928-.322-3.2-2.212" transform="translate(17.822 2.549)" fill="#131210" stroke="#121210" stroke-width="3"/>
          <path id="Path_1412" data-name="Path 1412" d="M80.761,169.259c-2.524-2.341-5.369-4.395-6.813-7.692.763-.059,1.525-.172,2.286-.173,10.251-.015,20.5-.085,30.752.009,6.036.054,10.649-2.309,13.886-7.388.054,5.773-1.49,10.775-6.747,13.985-2.665,1.331-5.519,1.4-8.409,1.283-7.788-.3-15.557.516-23.343.443l-1.612-.467" transform="translate(19.408 40.421)" fill="#ded59c"/>
          <path id="Path_1413" data-name="Path 1413" d="M110.067,11.461a35.009,35.009,0,0,0-6.445-.6c-6.869,0-13.738-.048-20.607-.078Q83.01,5.413,83,.047A128.689,128.689,0,0,1,107.536,1.8a17.4,17.4,0,0,0,2.092.107c.814,3.161.282,6.368.439,9.552" transform="translate(21.784 0.003)" fill="#fef4b1"/>
          <path id="Path_1414" data-name="Path 1414" d="M88.64,88.277q10.656,0,21.311,0c.975,0,2-.128,2.731.763a2.016,2.016,0,0,1-.923,3.242,8.156,8.156,0,0,1-2.3.2q-20.889.015-41.779.008c-.351,0-.7,0-1.055,0-1.42.008-2.627-.462-2.663-2.044-.038-1.721,1.213-2.174,2.728-2.171q10.972.015,21.945,0" transform="translate(16.788 23.167)" fill="#af121d"/>
          <path id="Path_1415" data-name="Path 1415" d="M88.422,123.841c-7.108,0-14.214-.016-21.321.013-1.61.006-3.181-.159-3.12-2.171.057-1.8,1.536-2.084,3.078-2.083q21.533.021,43.065,0c1.543,0,2.981.289,3,2.139.016,1.867-1.387,2.123-2.957,2.116-7.248-.035-14.5-.015-21.743-.015" transform="translate(16.791 31.389)" fill="#af121d"/>
          <path id="Path_1416" data-name="Path 1416" d="M72.513,143.3c7.176,0,14.352.01,21.526-.009,1.446,0,2.814.13,2.876,1.961.062,1.886-1.261,2.3-2.833,2.3H50.607c-1.48,0-2.738-.389-2.769-2.149-.033-1.817,1.226-2.111,2.726-2.107,7.317.02,14.633.009,21.949.009" transform="translate(12.555 37.605)" fill="#e27b15"/>
          <path id="Path_1417" data-name="Path 1417" d="M88.646,56.906c7.249,0,14.5.019,21.747-.014,1.549-.008,2.75.43,2.731,2.136s-1.293,2.123-2.793,2.123q-21.747-.013-43.493,0c-1.512,0-2.814-.444-2.858-2.093-.049-1.829,1.326-2.262,2.919-2.16.422.028.845.005,1.267.005H88.646" transform="translate(16.791 14.93)" fill="#af121d"/>
          <path id="Path_1418" data-name="Path 1418" d="M92.156,36.078c-5,0-9.994-.02-14.99.013-1.611.01-3.181-.164-3.137-2.169.04-1.8,1.48-2.1,3.046-2.1q15.2.038,30.4,0c1.567,0,2.992.3,3.029,2.108s-1.336,2.18-2.938,2.165c-5.138-.045-10.275-.016-15.413-.016" transform="translate(19.428 8.351)" fill="#e27b15"/>
          <path id="Path_1419" data-name="Path 1419" d="M129.747,60.985a2.135,2.135,0,0,1,1.757.648c1.553,1.523,3.109,3.045,4.6,4.624a2.022,2.022,0,0,1-.043,3.021c-1.445,1.53-2.943,3.015-4.462,4.472a2.154,2.154,0,0,1-3.342-.059q-2.178-2.14-4.316-4.319c-.823-.845-1.159-1.911-.316-2.83,1.655-1.807,3.436-3.5,5.206-5.2a2.168,2.168,0,0,1,.91-.36m.405,8.177c.333-.549,1.293-.744,1.1-1.538-.145-.608-.7-1.36-1.459-1.183-.525.121-1.208.659-1.139,1.317.072.687.684,1.122,1.493,1.4" transform="translate(32.318 16.004)" fill="#1a6040"/>
          <path id="Path_1420" data-name="Path 1420" d="M13.517,104.676a2.059,2.059,0,0,1-1.842,2.048c-1.655.232-2.7,1-2.857,2.8a1.9,1.9,0,0,1-2.15,1.847,1.95,1.95,0,0,1-2.038-1.981,2.667,2.667,0,0,0-2.553-2.608C.793,106.6-.041,105.96,0,104.6s.987-1.953,2.218-2.1a2.51,2.51,0,0,0,2.4-2.483A2.056,2.056,0,0,1,6.8,97.924a2.019,2.019,0,0,1,2.044,2.015,2.588,2.588,0,0,0,2.539,2.582,2.2,2.2,0,0,1,2.131,2.155" transform="translate(0 25.7)" fill="#1a6040"/>
          <path id="Path_1421" data-name="Path 1421" d="M131.356,50.124c.052,1.569-.468,2.447-1.586,2.556a3.1,3.1,0,0,0-3.046,2.916,1.9,1.9,0,0,1-1.991,1.783,1.947,1.947,0,0,1-2.1-1.711,3,3,0,0,0-2.928-2.976,1.91,1.91,0,0,1-1.751-2.048,2,2,0,0,1,1.789-2.053,2.869,2.869,0,0,0,2.872-2.769,2.043,2.043,0,0,1,2.159-1.915c1.257.039,1.8.843,2,2.035a2.8,2.8,0,0,0,2.8,2.627,1.785,1.785,0,0,1,1.776,1.553" transform="translate(30.956 11.524)" fill="#e868a4"/>
          <path id="Path_1422" data-name="Path 1422" d="M40,16.023c.911,0,1.824-.009,2.736,0,2.728.021,3.3.562,3.305,3.118.008,2.521-.689,3.229-3.237,3.244-2.175.014-4.35.019-6.526-.005-2.207-.024-2.546-1.44-2.539-3.28.006-1.77.341-3.092,2.472-3.075,1.262.009,2.526,0,3.789,0" transform="translate(8.854 4.204)" fill="#e4c217"/>
          <path id="Path_1423" data-name="Path 1423" d="M72.836,135.014c.05.918-2.579,4.023-3.853,4.537-1.445.582-2.212-.475-3.053-1.3a22.775,22.775,0,0,1-1.877-2,1.778,1.778,0,0,1,.157-2.495c.74-.805,1.762-1.214,2.6-.374,1.125,1.122,1.867.744,2.96-.056a2.047,2.047,0,0,1,3.061,1.683" transform="translate(16.695 34.885)" fill="#af121d"/>
          <path id="Path_1424" data-name="Path 1424" d="M98.9,115.21c-.052,1.25-.535,2.52-2.24,2.472-1.871-.054-2.118-1.515-2.107-3.024.01-1.433.553-2.609,2.11-2.609,1.817,0,2.245,1.368,2.237,3.161" transform="translate(24.815 29.407)" fill="#e4c217"/>
          <path id="Path_1425" data-name="Path 1425" d="M98.893,51.513c.013,2.035-.425,3.344-2.1,3.41s-2.242-1.156-2.246-2.681.317-2.962,2.18-2.958a2.071,2.071,0,0,1,2.164,2.229" transform="translate(24.814 12.935)" fill="#e4c217"/>
          <path id="Path_1426" data-name="Path 1426" d="M69,51.984c.037-1.5.564-2.743,2.247-2.7,1.885.049,2.079,1.536,2.078,3.037,0,1.446-.552,2.623-2.1,2.611-1.79-.015-2.257-1.368-2.228-2.948" transform="translate(18.108 12.934)" fill="#e4c217"/>
          <path id="Path_1427" data-name="Path 1427" d="M93.747,52.663a2.019,2.019,0,0,1-2.2,2.26c-1.659-.052-2.126-1.324-2.122-2.827s.457-2.769,2.135-2.809c1.891-.045,2.182,1.4,2.188,3.376" transform="translate(23.469 12.935)" fill="#e4c217"/>
          <path id="Path_1428" data-name="Path 1428" d="M93.739,114.85c0,1.451-.318,2.813-2.062,2.83-1.817.018-2.26-1.321-2.251-2.894.008-1.515.537-2.75,2.2-2.733,1.689.015,2.152,1.3,2.111,2.8" transform="translate(23.47 29.408)" fill="#e4c217"/>
          <path id="Path_1429" data-name="Path 1429" d="M73.319,114.752c-.005,1.517-.283,2.96-2.176,2.924-1.687-.033-2.135-1.3-2.14-2.794s.425-2.77,2.108-2.824c1.7-.056,2.216,1.18,2.208,2.694" transform="translate(18.11 29.409)" fill="#e4c217"/>
          <path id="Path_1430" data-name="Path 1430" d="M73.324,83.4c-.011,1.52-.323,2.83-2.1,2.847-1.882.018-2.236-1.334-2.219-2.876.015-1.487.475-2.7,2.214-2.674,1.776.027,2.087,1.324,2.1,2.7" transform="translate(18.111 21.179)" fill="#e4c217"/>
          <path id="Path_1431" data-name="Path 1431" d="M93.747,83.379c-.011,1.533-.316,2.847-2.089,2.87-1.881.023-2.242-1.326-2.227-2.868.014-1.486.466-2.7,2.207-2.683,1.775.021,2.093,1.317,2.11,2.681" transform="translate(23.471 21.179)" fill="#e4c217"/>
          <path id="Path_1432" data-name="Path 1432" d="M92.379,19.049c-.134-1.516.385-2.731,2.067-2.755s2.178,1.18,2.178,2.719c0,1.586-.407,2.914-2.232,2.886-1.732-.025-2.108-1.333-2.012-2.851" transform="translate(24.24 4.276)" fill="#e4c217"/>
          <path id="Path_1433" data-name="Path 1433" d="M88.585,52.082c.139,1.583-.405,2.814-2.062,2.83-1.637.018-2.185-1.177-2.18-2.733.006-1.588.405-2.93,2.227-2.887,1.683.039,2.147,1.309,2.015,2.79" transform="translate(22.136 12.936)" fill="#e4c217"/>
          <path id="Path_1434" data-name="Path 1434" d="M68.169,52.176c.1,1.636-.533,2.8-2.184,2.736s-2.086-1.328-2.065-2.851.456-2.772,2.136-2.771c1.843,0,2.233,1.37,2.113,2.886" transform="translate(16.775 12.936)" fill="#e4c217"/>
          <path id="Path_1435" data-name="Path 1435" d="M79.3,114.731c-.1-1.588.518-2.729,2.2-2.66s2.072,1.353,2.054,2.849c-.018,1.511-.478,2.75-2.164,2.753-1.9,0-2.173-1.414-2.086-2.943" transform="translate(20.808 29.412)" fill="#e4c217"/>
          <path id="Path_1436" data-name="Path 1436" d="M98.911,83.374c-.061,1.611-.461,2.864-2.2,2.876-1.761.011-2.15-1.267-2.156-2.721-.006-1.528.35-2.9,2.251-2.824,1.75.066,2.024,1.406,2.1,2.669" transform="translate(24.817 21.18)" fill="#e4c217"/>
          <path id="Path_1437" data-name="Path 1437" d="M103.966,114.777c.03,1.588-.418,2.858-2.11,2.9-1.895.042-2.147-1.353-2.158-2.906s.481-2.736,2.171-2.7,2.155,1.294,2.1,2.707" transform="translate(26.166 29.412)" fill="#e4c217"/>
          <path id="Path_1438" data-name="Path 1438" d="M88.592,83.52c.066,1.5-.332,2.723-2.1,2.724s-2.139-1.208-2.145-2.712c-.006-1.577.35-2.882,2.237-2.829,1.78.05,2.074,1.35,2.007,2.817" transform="translate(22.137 21.18)" fill="#e4c217"/>
          <path id="Path_1439" data-name="Path 1439" d="M68.167,83.416c.071,1.586-.312,2.818-2.082,2.83-1.752.011-2.152-1.189-2.159-2.7-.008-1.57.331-2.887,2.222-2.844,1.779.04,2.1,1.321,2.019,2.712" transform="translate(16.777 21.18)" fill="#e4c217"/>
          <path id="Path_1440" data-name="Path 1440" d="M103.964,52.182c.073,1.461-.471,2.717-2.116,2.732-1.822.016-2.171-1.358-2.15-2.941.02-1.533.451-2.756,2.174-2.685,1.674.068,2.141,1.328,2.092,2.895" transform="translate(26.165 12.935)" fill="#e4c217"/>
          <path id="Path_1441" data-name="Path 1441" d="M79.3,52.061c-.081-1.6.405-2.83,2.131-2.774,1.67.057,2.11,1.3,2.121,2.81s-.463,2.791-2.108,2.815c-1.813.028-2.276-1.321-2.144-2.852" transform="translate(20.806 12.935)" fill="#e4c217"/>
          <path id="Path_1442" data-name="Path 1442" d="M101.668,19.088c.081,1.589-.361,2.853-2.1,2.813-1.829-.043-2.168-1.416-2.15-2.974s.595-2.712,2.266-2.63c1.7.083,2.11,1.363,1.98,2.791" transform="translate(25.568 4.276)" fill="#e4c217"/>
          <path id="Path_1443" data-name="Path 1443" d="M88.59,114.9c.095,1.582-.415,2.809-2.117,2.774-1.836-.039-2.139-1.427-2.128-2.983.01-1.461.519-2.6,2.063-2.621,1.82-.027,2.313,1.264,2.183,2.83" transform="translate(22.136 29.412)" fill="#e4c217"/>
          <path id="Path_1444" data-name="Path 1444" d="M68.168,114.9c.091,1.593-.432,2.813-2.132,2.767-1.836-.048-2.127-1.443-2.113-3,.011-1.462.53-2.592,2.074-2.607,1.824-.018,2.3,1.281,2.171,2.835" transform="translate(16.776 29.412)" fill="#e4c217"/>
          <path id="Path_1445" data-name="Path 1445" d="M99.717,83.313c-.059-1.535.444-2.688,2.2-2.608s2.055,1.368,2.049,2.824c-.008,1.482-.4,2.723-2.155,2.716-1.934-.009-2.161-1.4-2.089-2.931" transform="translate(26.168 21.18)" fill="#e4c217"/>
          <path id="Path_1446" data-name="Path 1446" d="M83.548,83.384c-.011,1.535-.338,2.817-2.1,2.861s-2.165-1.136-2.166-2.659c0-1.541.22-2.907,2.149-2.882,1.761.023,2.1,1.3,2.12,2.68" transform="translate(20.807 21.181)" fill="#e4c217"/>
          <path id="Path_1447" data-name="Path 1447" d="M135.279,151.464a2.209,2.209,0,0,1-2.072-1.988,2.719,2.719,0,0,0-2.676-2.69,2.046,2.046,0,0,1-1.969-2.1,1.946,1.946,0,0,1,1.9-2.1,2.873,2.873,0,0,0,2.775-2.881,1.844,1.844,0,0,1,2.009-1.75,1.905,1.905,0,0,1,2.139,1.851,2.844,2.844,0,0,0,2.852,2.8,1.993,1.993,0,0,1,1.783,2.009,1.925,1.925,0,0,1-1.7,2.1,3.111,3.111,0,0,0-3.008,3.14,2.064,2.064,0,0,1-2.027,1.621" transform="translate(33.741 36.205)" fill="#e27b15"/>
          <path id="Path_1448" data-name="Path 1448" d="M14.147,58.185c3.994,4.479,4.536,3.452-.477,8.8a20.033,20.033,0,0,1-1.736,1.53c-1.144.8-2.275.994-3.38-.179-1.3-1.384-2.692-2.685-4.021-4.044A2.374,2.374,0,0,1,4.6,60.462c1.22-1.169,2.4-2.383,3.592-3.578,1.824-1.823,2.639-1.813,4.551.038.452.437.937.842,1.406,1.262M9.169,62.305a1.516,1.516,0,0,0,1.222,1.27,1.243,1.243,0,0,0,1.256-1.165,1.212,1.212,0,0,0-1.154-1.255c-.691-.066-1.039.562-1.324,1.15" transform="translate(0.944 14.573)" fill="#e27b15"/>
          <path id="Path_1449" data-name="Path 1449" d="M45.54,54.749a2.925,2.925,0,0,1-3.281-2.69,3,3,0,0,1,2.853-2.8,2.833,2.833,0,0,1,2.751,2.859,2.629,2.629,0,0,1-2.323,2.63" transform="translate(11.091 12.928)" fill="#e868a4"/>
          <path id="Path_1450" data-name="Path 1450" d="M45.017,112.08a2.711,2.711,0,0,1,2.83,2.731,2.787,2.787,0,0,1-2.819,2.785,2.732,2.732,0,0,1-2.726-2.671,2.694,2.694,0,0,1,2.714-2.844" transform="translate(11.099 29.415)" fill="#1a6040"/>
          <path id="Path_1451" data-name="Path 1451" d="M47.68,83.54a2.473,2.473,0,0,1-2.627,2.625,2.77,2.77,0,0,1-2.74-2.853,2.668,2.668,0,0,1,2.746-2.6A2.51,2.51,0,0,1,47.68,83.54" transform="translate(11.101 21.183)" fill="#8ea0d1"/>
        </g>
      </g>
    </g>
    <rect id="Rectangle_8" data-name="Rectangle 8" width="143" height="12" rx="6" transform="translate(49 286.64)" fill="#989898" opacity="0.737"/>
    <g id="Group_1314" data-name="Group 1314" transform="translate(-239 -440.36)">
      <g id="Ellipse_23" data-name="Ellipse 23" transform="translate(145 497)" fill="none" stroke="#e79f54" stroke-width="6">
        <circle cx="16" cy="16" r="16" stroke="none"/>
        <circle cx="16" cy="16" r="13" fill="none"/>
      </g>
      <g id="Ellipse_24" data-name="Ellipse 24" transform="translate(205 424)" fill="none" stroke="#e79f54" stroke-width="4" opacity="0.305">
        <circle cx="12" cy="12" r="12" stroke="none"/>
        <circle cx="12" cy="12" r="10" fill="none"/>
      </g>
      <g id="Ellipse_28" data-name="Ellipse 28" transform="translate(523 572)" fill="none" stroke="#e79f54" stroke-width="4">
        <circle cx="9.5" cy="9.5" r="9.5" stroke="none"/>
        <circle cx="9.5" cy="9.5" r="7.5" fill="none"/>
      </g>
      <g id="Ellipse_25" data-name="Ellipse 25" transform="translate(325 364)" fill="none" stroke="#e79f54" stroke-width="6">
        <circle cx="17.5" cy="17.5" r="17.5" stroke="none"/>
        <circle cx="17.5" cy="17.5" r="14.5" fill="none"/>
      </g>
      <g id="Ellipse_27" data-name="Ellipse 27" transform="translate(498 385)" fill="none" stroke="#e79f54" stroke-width="7">
        <circle cx="22" cy="22" r="22" stroke="none"/>
        <circle cx="22" cy="22" r="18.5" fill="none"/>
      </g>
      <g id="Ellipse_26" data-name="Ellipse 26" transform="translate(495 474)" fill="none" stroke="#e79f54" stroke-width="4" opacity="0.216">
        <circle cx="11.5" cy="11.5" r="11.5" stroke="none"/>
        <circle cx="11.5" cy="11.5" r="9.5" fill="none"/>
      </g>
    </g>
    <g id="Group_1315" data-name="Group 1315" transform="translate(-239 -440.36)">
      <line id="Line_9" data-name="Line 9" x2="22.389" y2="9.795" transform="translate(257.152 347.216)" fill="none" stroke="#f3cca9" stroke-width="6"/>
      <line id="Line_22" data-name="Line 22" x2="22.389" y2="9.795" transform="translate(217.152 657.216)" fill="none" stroke="#f3cca9" stroke-width="6" opacity="0.345"/>
      <line id="Line_18" data-name="Line 18" x2="22.389" y2="9.795" transform="translate(437.152 397.216)" fill="none" stroke="#f3cca9" stroke-width="6" opacity="0.349"/>
      <line id="Line_20" data-name="Line 20" x2="18.333" y2="8.021" transform="translate(177.152 576.076)" fill="none" stroke="#f3cca9" stroke-width="6"/>
      <line id="Line_10" data-name="Line 10" x1="11.195" y2="21.69" transform="translate(262.051 340.919)" fill="none" stroke="#f3cca9" stroke-width="6"/>
      <line id="Line_23" data-name="Line 23" x1="11.195" y2="21.69" transform="translate(222.051 650.919)" fill="none" stroke="#f3cca9" stroke-width="6" opacity="0.345"/>
      <line id="Line_19" data-name="Line 19" x1="11.195" y2="21.69" transform="translate(442.051 390.919)" fill="none" stroke="#f3cca9" stroke-width="6" opacity="0.349"/>
      <line id="Line_21" data-name="Line 21" x1="9.167" y2="17.761" transform="translate(181.163 570.919)" fill="none" stroke="#f3cca9" stroke-width="6"/>
    </g>
  </g>
</svg>
