<svg xmlns="http://www.w3.org/2000/svg" xmlns:xlink="http://www.w3.org/1999/xlink" width="397" height="429.528" viewBox="0 0 397 429.528">
  <defs>
    <clipPath id="clip-path">
      <rect id="Rectangle_26" data-name="Rectangle 26" width="201.85" height="140.259" fill="none"/>
    </clipPath>
  </defs>
  <g id="Vectors" transform="translate(94 100.816)">
    <ellipse id="Ellipse_22" data-name="Ellipse 22" cx="127.5" cy="128.5" rx="127.5" ry="128.5" transform="translate(-7 2.64)" fill="#e3e3e3"/>
    <g id="Group_1323" data-name="Group 1323" transform="translate(22 57.64)">
      <g id="Group_1322" data-name="Group 1322" clip-path="url(#clip-path)">
        <path id="Path_1312" data-name="Path 1312" d="M7.994,136.6c-.17-.423-.612-.335-.922-.441A10.154,10.154,0,0,1,0,126.563c0-.162,0-.324,0-.486Q0,74.338,0,22.6A10.118,10.118,0,0,1,7.148,12.462a9.705,9.705,0,0,1,2.986-.436q26.076.012,52.155.01A10.053,10.053,0,0,1,72.409,21.87c.013.324.01.648.01.973q0,51.5,0,102.993c0,5.1-2.721,8.981-7.184,10.37-.428.133-.978-.094-1.3.39ZM68.416,74.442q0-25.72,0-51.44a8.9,8.9,0,0,0-.24-2.649c-.86-2.8-3.161-4.42-6.365-4.421-16.94,0-33.881.049-50.821-.041-3.832-.02-7.109,2.4-7.022,6.977.145,7.659.04,15.322.04,22.983,0,26.673.037,53.345-.037,80.018a6.52,6.52,0,0,0,6.885,6.862c16.9-.072,33.8-.034,50.7-.026a8.3,8.3,0,0,0,2.747-.38c2.7-.928,4.114-3.132,4.115-6.444q.005-25.72,0-51.44" transform="translate(0 -1.409)" fill="#111010"/>
        <path id="Path_1313" data-name="Path 1313" d="M68.942,74.955q0,25.72,0,51.44c0,3.312-1.42,5.516-4.115,6.444a8.329,8.329,0,0,1-2.747.381c-16.9-.008-33.8-.046-50.7.026a6.52,6.52,0,0,1-6.885-6.862c.074-26.672.037-53.345.037-80.018,0-7.661.105-15.324-.04-22.983-.087-4.579,3.191-7,7.022-6.977,16.939.089,33.88.036,50.821.041,3.2,0,5.505,1.619,6.365,4.421a8.873,8.873,0,0,1,.24,2.649q.005,25.72,0,51.44M36.764,97.291A22.463,22.463,0,1,0,14.277,75.007,22.415,22.415,0,0,0,36.764,97.291m-7.326,25.455a7.3,7.3,0,1,0,7.285-7.237,7.319,7.319,0,0,0-7.285,7.237M36.807,21.759c-2.8,0-5.59-.007-8.385,0-1.56.006-2.385.69-2.388,1.938,0,1.263.833,1.976,2.365,1.978q8.324.009,16.649,0c1.532,0,2.383-.71,2.391-1.956s-.819-1.954-2.368-1.96c-2.755-.011-5.509,0-8.264,0" transform="translate(-0.526 -1.922)" fill="#e0e1e3"/>
        <path id="Path_1314" data-name="Path 1314" d="M38.063,102.062a22.463,22.463,0,1,1,22.41-22.585,22.46,22.46,0,0,1-22.41,22.585m-.08-40.969A18.507,18.507,0,1,0,56.535,79.55,18.481,18.481,0,0,0,37.983,61.093" transform="translate(-1.825 -6.693)" fill="#0c0c0c"/>
        <path id="Path_1315" data-name="Path 1315" d="M32.747,135.9a7.3,7.3,0,1,1,7.3,7.455,7.335,7.335,0,0,1-7.3-7.455m7.224,3.449a3.335,3.335,0,1,0-3.32-3.315,3.393,3.393,0,0,0,3.32,3.315" transform="translate(-3.836 -15.072)" fill="#0c0c0c"/>
        <path id="Path_1316" data-name="Path 1316" d="M39.665,22.469c2.755,0,5.509-.008,8.264,0,1.549.006,2.376.706,2.368,1.96s-.859,1.954-2.391,1.956q-8.324.007-16.649,0c-1.533,0-2.37-.714-2.365-1.978,0-1.248.828-1.932,2.388-1.938,2.8-.01,5.59,0,8.385,0" transform="translate(-3.385 -2.632)" fill="#0c0c0c"/>
        <path id="Path_1317" data-name="Path 1317" d="M38.507,61.618a18.507,18.507,0,1,1-18.45,18.313,18.462,18.462,0,0,1,18.45-18.313m-7.02,18.476c0,3.162.118,6.328-.041,9.482-.109,2.166,1.676,3.133,3.562,2.006,5.371-3.209,10.821-6.287,16.237-9.423,2.08-1.2,2.107-2.836.054-4.028-5.483-3.184-11-6.309-16.449-9.546-1.587-.943-3.5-.184-3.4,2.027.143,3.154.036,6.32.036,9.482" transform="translate(-2.35 -7.218)" fill="#fefefe"/>
        <path id="Path_1318" data-name="Path 1318" d="M40.488,139.878a3.337,3.337,0,1,1,3.47-3.3,3.371,3.371,0,0,1-3.47,3.3" transform="translate(-4.354 -15.604)" fill="#fefefe"/>
        <path id="Path_1319" data-name="Path 1319" d="M33,80.965c0-3.162.108-6.327-.036-9.483-.1-2.211,1.812-2.969,3.4-2.026C41.812,72.693,47.329,75.819,52.811,79c2.054,1.193,2.025,2.824-.054,4.028-5.415,3.136-10.866,6.213-16.237,9.423-1.887,1.127-3.671.16-3.562-2.006.159-3.154.041-6.32.041-9.482M48.386,81,36.974,74.412V87.59L48.386,81" transform="translate(-3.86 -8.09)" fill="#0c0c0c"/>
        <path id="Path_1320" data-name="Path 1320" d="M48.92,81.705,37.508,88.3V75.122L48.92,81.705" transform="translate(-4.394 -8.8)" fill="#fefefe"/>
        <path id="Path_1322" data-name="Path 1322" d="M150.835.03A52.239,52.239,0,0,1,156.908,1.7,23.786,23.786,0,0,1,152.3,47.16a23.265,23.265,0,0,1-20.141-5.7c-.6-.527-.916-.584-1.552-.057-2.564,2.122-5.174,4.189-7.8,6.237-.617.482-.629.75-.079,1.337a30.4,30.4,0,0,1,8.34,24.548,24.546,24.546,0,0,1-1.424,6.373c-.321.863-.084,1.17.656,1.539,2.642,1.318,5.261,2.686,7.864,4.081.683.365,1.023.388,1.458-.39,5.913-10.587,14.829-17.159,26.779-19.2a37.268,37.268,0,0,1,40.806,22.641c.719,1.726.223,2.843-1.6,3.936-2.057.217-2.838-.273-3.752-2.349a31.5,31.5,0,0,0-35.043-18.634c-11.865,2.266-20.125,9.251-24.2,20.587-4.095,11.393-1.978,21.963,5.63,31.4a3.484,3.484,0,0,0,1.306,1.2,16.293,16.293,0,0,1,10.684-10.048c-7.917-8.714-5.552-19.635.48-25.123a17.52,17.52,0,0,1,23.1-.6c6.283,5.339,9.447,16.524,1.1,25.751a16.385,16.385,0,0,1,6.573,3.747,17.407,17.407,0,0,1,4.2,6.429c.465-.514.807-.871,1.126-1.247a32.381,32.381,0,0,0,5.614-9.476c.742-1.95,1.6-2.448,3.654-2.272,1.94,1.134,2.356,2.182,1.475,4.3-5.731,13.759-15.9,21.978-30.743,23.812a37.337,37.337,0,0,1-40.14-47.77c.285-.93.073-1.246-.72-1.638q-4.031-1.994-7.988-4.141c-.778-.422-1.157-.422-1.7.395a30.376,30.376,0,0,1-22.6,13.922C88.765,102.559,73.957,92.1,70.6,77.458,66.718,60.479,76.687,44.234,93.616,40.21a29.443,29.443,0,0,1,22.834,3.708,1.726,1.726,0,0,0,2.429-.18c2.725-2.286,5.524-4.483,8.323-6.679.513-.4.685-.666.313-1.3A23.738,23.738,0,0,1,144.52.269c.106-.016.193-.157.29-.239ZM125.684,70.179a25.221,25.221,0,1,0-25.326,25.18,25.141,25.141,0,0,0,25.326-25.18m22.309-28.143a18.264,18.264,0,1,0-18.247-18.344,18.2,18.2,0,0,0,18.247,18.344m24.382,72.056a11.871,11.871,0,1,0-11.66-12.371,11.823,11.823,0,0,0,11.66,12.371m.273,5.6v.025c-3.1,0-6.209-.113-9.305.027-4.231.193-8.309,4.089-8.98,8.28a1.331,1.331,0,0,0,.684,1.541c10.114,6.919,24.816,6.927,35.043.03a1.453,1.453,0,0,0,.7-1.707,10.314,10.314,0,0,0-9.379-8.175c-2.915-.118-5.839-.022-8.759-.022" transform="translate(-8.173 -0.004)" fill="#0a0a09"/>
        <path id="Path_1323" data-name="Path 1323" d="M224.927,112.6c1.36-.1,2.144.816,2.949,1.689v2.191c-.78.8-1.493,1.712-2.775,1.685-1.771-.358-2.665-1.249-2.7-2.7-.038-1.48.718-2.338,2.529-2.869" transform="translate(-26.052 -13.189)" fill="#0a0a09"/>
        <path id="Path_1324" data-name="Path 1324" d="M216.441,108.822c-1.811.531-2.566,1.39-2.529,2.869.037,1.447.931,2.339,2.7,2.7a46.809,46.809,0,0,1-1.139,6.894c-2.052-.177-2.913.321-3.654,2.272a32.381,32.381,0,0,1-5.614,9.476c-.319.376-.66.734-1.126,1.248a17.4,17.4,0,0,0-4.2-6.429,16.376,16.376,0,0,0-6.573-3.748c8.347-9.227,5.182-20.413-1.1-25.751a17.519,17.519,0,0,0-23.1.6c-6.033,5.489-8.4,16.41-.48,25.123a16.3,16.3,0,0,0-10.685,10.048,3.484,3.484,0,0,1-1.306-1.2c-7.607-9.438-9.724-20.008-5.629-31.4,4.074-11.336,12.333-18.321,24.2-20.586a31.5,31.5,0,0,1,35.044,18.634c.914,2.076,1.7,2.566,3.751,2.348a25.361,25.361,0,0,1,1.443,6.911" transform="translate(-17.566 -9.412)" fill="#e77448"/>
        <path id="Path_1325" data-name="Path 1325" d="M126.411,76.137A25.221,25.221,0,1,1,101.281,50.9a25.144,25.144,0,0,1,25.13,25.238m-25.2,17.374A17.4,17.4,0,1,0,83.858,76.1a17.534,17.534,0,0,0,17.355,17.413" transform="translate(-8.899 -5.962)" fill="#ffeb8c"/>
        <path id="Path_1326" data-name="Path 1326" d="M155.952,42.763A18.264,18.264,0,1,1,174.216,24.6a18.251,18.251,0,0,1-18.265,18.166" transform="translate(-16.131 -0.731)" fill="#c3e7f1"/>
        <path id="Path_1327" data-name="Path 1327" d="M184.442,126.077a11.871,11.871,0,1,1,.882-23.721,11.87,11.87,0,0,1-.882,23.721" transform="translate(-20.239 -11.989)" fill="#f9d1ca"/>
        <path id="Path_1328" data-name="Path 1328" d="M183.868,135.564c2.92,0,5.844-.1,8.759.022a10.314,10.314,0,0,1,9.379,8.175,1.453,1.453,0,0,1-.7,1.707c-10.227,6.9-24.929,6.889-35.043-.03a1.331,1.331,0,0,1-.684-1.541c.671-4.191,4.75-8.087,8.98-8.28,3.1-.14,6.2-.027,9.305-.027v-.025" transform="translate(-19.393 -15.876)" fill="#c3e7f1"/>
        <path id="Path_1329" data-name="Path 1329" d="M102.26,94.546A17.4,17.4,0,1,1,119.69,77.151,17.385,17.385,0,0,1,102.26,94.546m0-5.533a11.869,11.869,0,1,0,.022-23.737,11.869,11.869,0,0,0-.022,23.737" transform="translate(-9.946 -6.998)" fill="#0a0a09"/>
        <path id="Path_1330" data-name="Path 1330" d="M102.986,89.747a11.869,11.869,0,1,1,11.926-11.859,11.8,11.8,0,0,1-11.926,11.859" transform="translate(-10.675 -7.733)" fill="#ffeb8c"/>
      </g>
    </g>
    <rect id="Rectangle_8" data-name="Rectangle 8" width="143" height="12" rx="6" transform="translate(49 286.64)" fill="#989898" opacity="0.712"/>
    <g id="Group_1314" data-name="Group 1314" transform="translate(-239 -440.36)">
      <g id="Ellipse_23" data-name="Ellipse 23" transform="translate(145 497)" fill="none" stroke="#e79f54" stroke-width="6">
        <circle cx="16" cy="16" r="16" stroke="none"/>
        <circle cx="16" cy="16" r="13" fill="none"/>
      </g>
      <g id="Ellipse_24" data-name="Ellipse 24" transform="translate(205 424)" fill="none" stroke="#e79f54" stroke-width="4" opacity="0.281">
        <circle cx="12" cy="12" r="12" stroke="none"/>
        <circle cx="12" cy="12" r="10" fill="none"/>
      </g>
      <g id="Ellipse_28" data-name="Ellipse 28" transform="translate(523 572)" fill="none" stroke="#e79f54" stroke-width="4">
        <circle cx="9.5" cy="9.5" r="9.5" stroke="none"/>
        <circle cx="9.5" cy="9.5" r="7.5" fill="none"/>
      </g>
      <g id="Ellipse_25" data-name="Ellipse 25" transform="translate(325 364)" fill="none" stroke="#e79f54" stroke-width="6">
        <circle cx="17.5" cy="17.5" r="17.5" stroke="none"/>
        <circle cx="17.5" cy="17.5" r="14.5" fill="none"/>
      </g>
      <g id="Ellipse_27" data-name="Ellipse 27" transform="translate(498 385)" fill="none" stroke="#e79f54" stroke-width="7">
        <circle cx="22" cy="22" r="22" stroke="none"/>
        <circle cx="22" cy="22" r="18.5" fill="none"/>
      </g>
      <g id="Ellipse_26" data-name="Ellipse 26" transform="translate(495 474)" fill="none" stroke="#e79f54" stroke-width="4" opacity="0.218">
        <circle cx="11.5" cy="11.5" r="11.5" stroke="none"/>
        <circle cx="11.5" cy="11.5" r="9.5" fill="none"/>
      </g>
    </g>
    <g id="Group_1315" data-name="Group 1315" transform="translate(-239 -440.36)">
      <line id="Line_9" data-name="Line 9" x2="22.389" y2="9.795" transform="translate(257.152 347.216)" fill="none" stroke="#f3cca9" stroke-width="6"/>
      <line id="Line_22" data-name="Line 22" x2="22.389" y2="9.795" transform="translate(217.152 657.216)" fill="none" stroke="#f3cca9" stroke-width="6" opacity="0.466"/>
      <line id="Line_18" data-name="Line 18" x2="22.389" y2="9.795" transform="translate(437.152 397.216)" fill="none" stroke="#f3cca9" stroke-width="6" opacity="0.335"/>
      <line id="Line_20" data-name="Line 20" x2="18.333" y2="8.021" transform="translate(177.152 576.076)" fill="none" stroke="#f3cca9" stroke-width="6"/>
      <line id="Line_10" data-name="Line 10" x1="11.195" y2="21.69" transform="translate(262.051 340.919)" fill="none" stroke="#f3cca9" stroke-width="6"/>
      <line id="Line_23" data-name="Line 23" x1="11.195" y2="21.69" transform="translate(222.051 650.919)" fill="none" stroke="#f3cca9" stroke-width="6" opacity="0.466"/>
      <line id="Line_19" data-name="Line 19" x1="11.195" y2="21.69" transform="translate(442.051 390.919)" fill="none" stroke="#f3cca9" stroke-width="6" opacity="0.335"/>
      <line id="Line_21" data-name="Line 21" x1="9.167" y2="17.761" transform="translate(181.163 570.919)" fill="none" stroke="#f3cca9" stroke-width="6"/>
    </g>
  </g>
</svg>
