<?xml version="1.0" encoding="UTF-8"?>
<svg width="98px" height="72px" viewBox="0 0 98 72" version="1.1" xmlns="http://www.w3.org/2000/svg" xmlns:xlink="http://www.w3.org/1999/xlink">
    <!-- Generator: Sketch 51.1 (57501) - http://www.bohemiancoding.com/sketch -->
    <title>home</title>
    <desc>Created with Sketch.</desc>
    <defs></defs>
    <g id="Page-2" stroke="none" stroke-width="1" fill="none" fill-rule="evenodd">
        <g id="Dashboard" transform="translate(-28.000000, -1296.000000)">
            <g id="Footer-Nav" transform="translate(-1.000000, 1276.000000)">
                <g id="home" transform="translate(29.000000, 20.000000)">
                    <rect id="Rectangle-5" fill="#FFFFFF" x="0" y="0" width="98" height="72" rx="36"></rect>
                    <path d="M63.8771429,37.5811429 C63.088,37.5811429 62.4485714,38.2207619 62.4485714,39.0097143 L62.4485714,53.5066667 L33.4540952,53.5066667 L33.4540952,39.0097143 C33.4540952,38.2207619 32.8146667,37.5811429 32.0255238,37.5811429 C31.236381,37.5811429 30.5969524,38.2207619 30.5969524,39.0097143 L30.5969524,54.9352381 C30.5969524,55.7241905 31.236381,56.3638095 32.0255238,56.3638095 L63.8771429,56.3638095 C64.6662857,56.3638095 65.3057143,55.7241905 65.3057143,54.9352381 L65.3057143,39.0097143 C65.3057143,38.2207619 64.6660952,37.5811429 63.8771429,37.5811429 Z" id="Shape" fill="#666666" fill-rule="nonzero"></path>
                    <path d="M71.4822857,37.999619 L48.9590476,15.4790476 C48.4013333,14.9211429 47.4967619,14.9213333 46.9388571,15.4790476 L24.4184762,37.999619 C23.8605714,38.5575238 23.8605714,39.4620952 24.4184762,40.0198095 C24.6975238,40.2986667 25.0632381,40.4382857 25.4287619,40.4382857 C25.7944762,40.4382857 26.16,40.2988571 26.4390476,40.0198095 L47.9493333,18.5093333 L69.4622857,40.0198095 C70.02,40.5777143 70.9245714,40.5775238 71.4826667,40.019619 C72.0401905,39.4619048 72.0401905,38.5573333 71.4822857,37.999619 Z" id="Shape" fill="#666666" fill-rule="nonzero"></path>
                </g>
            </g>
        </g>
    </g>
</svg>