<svg xmlns="http://www.w3.org/2000/svg" xmlns:xlink="http://www.w3.org/1999/xlink" width="34.269" height="34.266" viewBox="0 0 34.269 34.266">
  <defs>
    <clipPath id="clip-path">
      <rect id="Rectangle_208" data-name="Rectangle 208" width="34.269" height="34.266" transform="translate(0 0)" fill="none"/>
    </clipPath>
  </defs>
  <g id="Categories" transform="translate(0 0)">
    <g id="Group_1571" data-name="Group 1571" clip-path="url(#clip-path)">
      <path id="Path_2100" data-name="Path 2100" d="M26.817,14.448c-1.464,0-2.93-.041-4.392.012A2.707,2.707,0,0,1,19.6,11.627c.025-2.927,0-5.855.008-8.783A2.641,2.641,0,0,1,22.453,0q4.415,0,8.828,0a2.641,2.641,0,0,1,2.8,2.763q.012,4.457,0,8.914a2.619,2.619,0,0,1-2.74,2.767c-1.507.013-3.015,0-4.522,0m4.611-7.189c0-1.419-.009-2.838.007-4.257,0-.307-.087-.384-.388-.383q-4.214.017-8.429,0c-.269,0-.372.05-.37.351q.018,4.258,0,8.515c0,.3.094.349.364.348q4.238-.013,8.473,0c.294,0,.353-.089.35-.363-.013-1.4-.006-2.809-.006-4.214" fill="#0b0b0a"/>
      <path id="Path_2101" data-name="Path 2101" d="M14.447,26.84c0,1.479-.042,2.958.012,4.435a2.7,2.7,0,0,1-2.807,2.806c-2.942-.019-5.885,0-8.827-.006A2.651,2.651,0,0,1,0,31.25q0-4.413,0-8.826a2.63,2.63,0,0,1,2.784-2.818c2.957-.015,5.914.007,8.871-.008a2.692,2.692,0,0,1,2.8,2.808c-.058,1.476-.013,2.956-.013,4.434m-2.617,0c0-1.42-.006-2.839.006-4.258,0-.257-.046-.344-.327-.342q-4.258.018-8.518,0c-.315,0-.376.1-.375.392q.017,4.193,0,8.386c0,.324.075.412.4.41q4.215-.021,8.431,0c.353,0,.388-.121.385-.417-.014-1.391-.006-2.781-.006-4.172" fill="#0b0b0a"/>
      <path id="Path_2102" data-name="Path 2102" d="M14.446,7.213c0,1.493.005,2.986,0,4.479a2.577,2.577,0,0,1-2.736,2.752q-4.479.016-8.957,0A2.606,2.606,0,0,1,0,11.654q0-4.436,0-8.87A2.627,2.627,0,0,1,2.769,0q4.458,0,8.914,0a2.6,2.6,0,0,1,2.761,2.734c.009,1.493,0,2.986,0,4.478m-2.616,0c0-1.42-.007-2.84.006-4.261,0-.269-.072-.337-.34-.336q-4.26.015-8.522,0c-.292,0-.359.089-.358.368q.015,4.239,0,8.478c0,.32.1.372.393.371q4.239-.015,8.478,0c.292,0,.354-.084.351-.36-.013-1.421-.006-2.841-.006-4.261" fill="#060707"/>
      <path id="Path_2103" data-name="Path 2103" d="M33.23,25.965a7.032,7.032,0,0,1-.987,3.983c-.136.22-.122.328.058.5.505.477.993.974,1.48,1.47a1.323,1.323,0,1,1-1.861,1.86c-.494-.489-.994-.974-1.471-1.48-.173-.183-.281-.185-.5-.056a6.8,6.8,0,1,1-4.792-12.5c4.243-.756,8.075,2.41,8.071,6.226m-10.973.472a4.187,4.187,0,0,0,4.161,4.176,4.23,4.23,0,0,0,4.2-4.2,4.186,4.186,0,0,0-4.181-4.157,4.143,4.143,0,0,0-4.179,4.183" fill="#0b0b0a"/>
    </g>
  </g>
</svg>
