<svg id="Group_1739" data-name="Group 1739" xmlns="http://www.w3.org/2000/svg" xmlns:xlink="http://www.w3.org/1999/xlink" width="39.389" height="39.38" viewBox="0 0 39.389 39.38">
  <defs>
    <clipPath id="clip-path">
      <rect id="Rectangle_276" data-name="Rectangle 276" width="39.389" height="39.38" fill="none"/>
    </clipPath>
  </defs>
  <g id="Group_1738" data-name="Group 1738" clip-path="url(#clip-path)">
    <path id="Path_3257" data-name="Path 3257" d="M0,22.324c0-4.8-.012-9.6,0-14.4A7.822,7.822,0,0,1,6.242.169,7.046,7.046,0,0,1,7.8.007c7.924,0,15.847-.021,23.77.008a7.781,7.781,0,0,1,7.644,6.193,7.962,7.962,0,0,1,.174,1.786c0,5.169.01,10.338,0,15.507a7.833,7.833,0,0,1-6.425,7.876,8.522,8.522,0,0,1-1.7.137c-6.231,0-12.462.006-18.693-.009a4.339,4.339,0,0,0-3.257,1.352C7.4,34.8,5.46,36.71,3.539,38.64a2.144,2.144,0,0,1-1.624.739,1.912,1.912,0,0,1-1.9-1.825c-.032-1-.015-2-.015-3q0-6.115,0-12.23M3.929,32.545c.157.026.2-.075.258-.135.774-.77,1.556-1.534,2.316-2.317a8.134,8.134,0,0,1,6.115-2.533q9.276.019,18.553,0a5.207,5.207,0,0,0,1.1-.069,3.953,3.953,0,0,0,3.185-4.064q.008-7.661,0-15.321A3.965,3.965,0,0,0,31.252,3.93q-11.561,0-23.122,0a4.882,4.882,0,0,0-1.144.114A3.962,3.962,0,0,0,3.93,8.115q0,12.044,0,24.089Z" transform="translate(0 0)" fill="#010101"/>
    <path id="Path_3258" data-name="Path 3258" d="M51.045,41.57c0,1,.019,2-.005,3a1.931,1.931,0,0,1-1.779,1.9,1.966,1.966,0,0,1-2.061-1.42,1.648,1.648,0,0,1-.068-.452c0-2.028-.016-4.057,0-6.085a1.924,1.924,0,0,1,1.617-1.859,1.992,1.992,0,0,1,2.143,1.162,2.3,2.3,0,0,1,.155.946q0,1.406,0,2.812h0" transform="translate(-29.391 -22.84)" fill="#010101"/>
    <path id="Path_3259" data-name="Path 3259" d="M51.052,22.916a1.96,1.96,0,1,1-1.935-1.983,1.969,1.969,0,0,1,1.935,1.983" transform="translate(-29.397 -13.057)" fill="#010101"/>
  </g>
</svg>
