<svg xmlns="http://www.w3.org/2000/svg" xmlns:xlink="http://www.w3.org/1999/xlink" width="26.992" height="29.717" viewBox="0 0 26.992 29.717">
  <defs>
    <clipPath id="clip-path">
      <rect id="Rectangle_264" data-name="Rectangle 264" width="26.992" height="29.717" transform="translate(0 0)" fill="none"/>
    </clipPath>
  </defs>
  <g id="Group_1719" data-name="Group 1719" transform="translate(0 0)">
    <g id="Group_1718" data-name="Group 1718" clip-path="url(#clip-path)">
      <path id="Path_3244" data-name="Path 3244" d="M13.19,29.709c-1.313-.025-2.942.051-4.57-.032a5.161,5.161,0,0,1-4.679-4.251c-.163-1.173-.228-2.359-.331-3.539-.127-1.46-.247-2.921-.369-4.381C3.128,16.153,3,14.8,2.912,13.446c-.019-.285-.115-.314-.359-.317A2.3,2.3,0,0,1,.1,11.147C-.051,9.734-.171,8.27.817,7.03a3.73,3.73,0,0,1,2.977-1.5c.582-.009,1.165-.012,1.747.005.2,0,.272-.069.316-.251.188-.783.4-1.559.581-2.344A3.778,3.778,0,0,1,10.036.01C12.345,0,14.653,0,16.962.007a3.8,3.8,0,0,1,3.663,3.067c.167.732.366,1.457.53,2.191.051.225.151.269.367.272a14.707,14.707,0,0,1,2.356.058,3.781,3.781,0,0,1,3.1,3.691,12.39,12.39,0,0,1-.033,1.809,2.375,2.375,0,0,1-2.484,2.033c-.261,0-.327.061-.348.328-.173,2.2-.371,4.4-.555,6.6q-.208,2.481-.4,4.962a5.263,5.263,0,0,1-4.216,4.593,7.208,7.208,0,0,1-1.191.093c-1.413,0-2.826,0-4.555,0m.336-16.552q-4.127,0-8.254,0c-.231,0-.308.025-.272.3.08.6.106,1.2.155,1.8q.172,2.127.346,4.254c.142,1.707.313,3.413.424,5.123A3.126,3.126,0,0,0,8.99,27.61q4.515.018,9.031,0a3.114,3.114,0,0,0,3.066-2.91c.082-1.15.177-2.3.272-3.449.213-2.589.42-5.178.655-7.764.03-.331-.079-.334-.331-.334q-4.078.01-8.157,0m-.02-2.116H24.38c.439,0,.523-.086.524-.531,0-.356,0-.712,0-1.068A1.751,1.751,0,0,0,23.054,7.6c-.809,0-1.618,0-2.427,0a1.1,1.1,0,0,1-1.281-.993q-.389-1.563-.781-3.125A1.7,1.7,0,0,0,16.8,2.1q-3.285,0-6.57,0A1.7,1.7,0,0,0,8.456,3.476c-.275,1.094-.546,2.188-.83,3.279A1.014,1.014,0,0,1,6.532,7.6c-.885,0-1.769-.007-2.654,0A1.7,1.7,0,0,0,2.155,9.049,8.583,8.583,0,0,0,2.119,10.5c-.009.459.081.54.546.54H13.506" fill="#080909"/>
      <path id="Path_3245" data-name="Path 3245" d="M9.7,19.708c0-.669,0-1.337,0-2.006a1.058,1.058,0,0,1,1.035-1.128,1.036,1.036,0,0,1,1.055,1.1q.017,2.005,0,4.012a1.059,1.059,0,0,1-1.045,1.119A1.081,1.081,0,0,1,9.7,21.649c0-.647,0-1.294,0-1.941" fill="#080909"/>
      <path id="Path_3246" data-name="Path 3246" d="M15.229,19.673c0-.647,0-1.294,0-1.941a1.052,1.052,0,0,1,1.032-1.159,1.072,1.072,0,0,1,1.061,1.171c0,1.326,0,2.653,0,3.979a1.051,1.051,0,0,1-.736,1.027,1.032,1.032,0,0,1-1.148-.374,1.128,1.128,0,0,1-.208-.73V19.673" fill="#080909"/>
    </g>
  </g>
</svg>
