<svg xmlns="http://www.w3.org/2000/svg" xmlns:xlink="http://www.w3.org/1999/xlink" width="61.218" height="61.192" viewBox="0 0 61.218 61.192">
  <defs>
    <clipPath id="clip-path">
      <rect id="Rectangle_41" data-name="Rectangle 41" width="61.218" height="61.192" fill="none"/>
    </clipPath>
  </defs>
  <g id="Group_1357" data-name="Group 1357" transform="translate(0 0)">
    <g id="Group_1356" data-name="Group 1356" transform="translate(0 0)" clip-path="url(#clip-path)">
      <path id="Path_1519" data-name="Path 1519" d="M12.832,8.373c-.444-.657-.443-.9.065-1.469a20.31,20.31,0,0,1,34.032,5.7c.149.371.356.432.709.448A13.907,13.907,0,0,1,60.3,24.287c.053.312-.007.665.228.937V28.57a15.452,15.452,0,0,0-.478,1.98,13.838,13.838,0,0,1-3.15,5.664c-.518.561-.768.589-1.453.2a1.03,1.03,0,0,1,.131-1.435c3.328-3.918,4.164-8.32,2.056-13.023-2.044-4.56-5.763-6.881-10.754-7.115a1.387,1.387,0,0,1-1.372-.929c-.1-.238-.178-.483-.281-.719A17.9,17.9,0,0,0,38.1,4.785l-.17-.109.007,0a.235.235,0,0,0-.241-.13l0,0a1.43,1.43,0,0,0-.214-.187A18.487,18.487,0,0,0,14.368,7.981c-.627.69-.8.723-1.536.393" transform="translate(0.691 0)" fill="#080909"/>
      <path id="Path_1520" data-name="Path 1520" d="M28.364,58.475c-.092-.192-.3-.157-.454-.227a3.192,3.192,0,0,1-2.048-2.885,3.117,3.117,0,0,1,1.9-3.152.693.693,0,0,0,.488-.783,12.358,12.358,0,0,1,0-1.312.9.9,0,0,1,.891-.924.914.914,0,0,1,.9.92,2.154,2.154,0,0,1,0,.3,1.842,1.842,0,0,0,1.02,2.166,2.8,2.8,0,0,1,1.322,3.2,3.1,3.1,0,0,1-2.461,2.6c-.046.012-.08.071-.12.107Zm2.132-2.75A1.45,1.45,0,0,0,28.6,53.833a1.474,1.474,0,0,0-.945,1.541,1.541,1.541,0,0,0,1.3,1.3,1.48,1.48,0,0,0,1.541-.944" transform="translate(1.428 2.716)" fill="#080909"/>
      <path id="Path_1521" data-name="Path 1521" d="M38.62,4.611a17.9,17.9,0,0,1,7.123,8.408c.1.236.184.481.281.72a1.39,1.39,0,0,0,1.372.929c4.991.233,8.71,2.556,10.754,7.114,2.108,4.7,1.273,9.105-2.056,13.023a1.03,1.03,0,0,0-.131,1.435l-1.889,1.477a1.03,1.03,0,0,0-1.458-.279,9.8,9.8,0,0,1-4.433,1.219q-18.712.019-37.425-.019a8.5,8.5,0,0,1-7.183-3.418,1.714,1.714,0,0,0-.1-.582,9.807,9.807,0,0,1,2.275-9.215,9.439,9.439,0,0,1,5.3-3.014.671.671,0,0,0,.633-.771,9.622,9.622,0,0,1,.1-1.485A18.871,18.871,0,0,1,18.594,7.685,19.108,19.108,0,0,1,35.475,3.629c.934.193,1.791.647,2.746.751l0,0c.031.134.131.141.241.13l-.007,0a.157.157,0,0,0,.17.109" transform="translate(0.175 0.174)" fill="#258fd0"/>
      <path id="Path_1522" data-name="Path 1522" d="M3.749,34.859a8.5,8.5,0,0,0,7.183,3.418q18.712.025,37.425.019a9.787,9.787,0,0,0,4.433-1.218,1.031,1.031,0,0,1,1.458.278c.136.807.038,1.008-.691,1.371a12.621,12.621,0,0,1-6.566,1.368c-.515-.035-.617.133-.6.617.038,1.234.008,2.468.015,3.7,0,.754.3,1.051,1.034,1.066a1.122,1.122,0,0,1,.119,0,1.371,1.371,0,0,0,1.654-.853,3.135,3.135,0,0,1,3.768-1.4,3.31,3.31,0,0,1-.455,6.4,3.251,3.251,0,0,1-3.53-1.86.723.723,0,0,0-.834-.514,6.03,6.03,0,0,1-1.6-.05A2.5,2.5,0,0,1,44.608,44.7c0-1.374-.008-2.748.006-4.122,0-.328-.023-.491-.433-.484-1.593.028-3.187.023-4.779,0-.353,0-.418.114-.417.438.011,3.544,0,7.089.009,10.633a.876.876,0,0,0,.974,1.006c.06,0,.12-.006.179,0A1.371,1.371,0,0,0,41.8,51.32a3.134,3.134,0,0,1,3.768-1.395,3.31,3.31,0,0,1-.455,6.4,3.254,3.254,0,0,1-3.531-1.861.721.721,0,0,0-.834-.513,5.988,5.988,0,0,1-1.6-.051A2.5,2.5,0,0,1,37.2,51.389c0-3.585-.011-7.169.012-10.754,0-.459-.123-.552-.558-.543q-2.358.041-4.719,0c-.407-.007-.481.123-.479.5.016,2.37.008,4.74.008,7.11,0,.9-.3,1.339-.912,1.327-.591-.012-.881-.439-.881-1.3,0-2.37-.011-4.74.009-7.11,0-.4-.075-.538-.51-.53-1.592.028-3.187.021-4.779,0-.358,0-.49.069-.465.453.036.6.018,1.194.006,1.792a.9.9,0,1,1-1.788.005c-.012-.636-.015-1.275,0-1.911.007-.263-.076-.337-.337-.336-1.652.009-3.306.013-4.958-.005-.338,0-.33.161-.329.4q.009,2.121,0,4.242a2.512,2.512,0,0,1-2.568,2.544,3.128,3.128,0,0,1-.359,0,1.43,1.43,0,0,0-1.7.884A3.116,3.116,0,0,1,8.121,49.5a3.307,3.307,0,0,1,.471-6.383,3.231,3.231,0,0,1,3.536,1.84.781.781,0,0,0,.886.528c1.639-.02,1.72-.088,1.72-1.7,0-1.055-.03-2.111.014-3.166.02-.474-.141-.537-.565-.54A40.517,40.517,0,0,1,9.53,40,10.184,10.184,0,0,1,.663,32.962,10.711,10.711,0,0,1,7.994,18.929a.657.657,0,0,0,.581-.7,20.041,20.041,0,0,1,2.243-7.836c.357-.682.657-.819,1.39-.631a1.07,1.07,0,0,1,.229,1.483,18.617,18.617,0,0,0-2.118,7.986,1.233,1.233,0,0,1-1.1,1.27,10.022,10.022,0,0,0-1.984.607A9,9,0,0,0,3.749,34.859M44.013,51.713a1.476,1.476,0,0,0-.945,1.54,1.542,1.542,0,0,0,1.3,1.3,1.482,1.482,0,0,0,1.541-.944,1.45,1.45,0,0,0-1.891-1.892m9.3-4.8a1.45,1.45,0,0,0-1.891-1.892,1.478,1.478,0,0,0-.945,1.541,1.541,1.541,0,0,0,1.3,1.3,1.48,1.48,0,0,0,1.541-.944M8.642,45.021A1.477,1.477,0,0,0,7.7,46.562a1.539,1.539,0,0,0,1.295,1.3,1.48,1.48,0,0,0,1.541-.944,1.3,1.3,0,0,0-.316-1.575,1.293,1.293,0,0,0-1.575-.317" transform="translate(0 0.535)" fill="#080909"/>
      <path id="Path_1523" data-name="Path 1523" d="M3.653,35.3A9,9,0,0,1,7.137,21.545a9.931,9.931,0,0,1,1.984-.607,1.234,1.234,0,0,0,1.1-1.27,18.626,18.626,0,0,1,2.118-7.987,1.07,1.07,0,0,0-.229-1.483l1.314-1.919c.741.33.91.3,1.536-.393A18.49,18.49,0,0,1,38.086,4.272a1.431,1.431,0,0,1,.214.188c-.955-.1-1.812-.558-2.747-.751a19.106,19.106,0,0,0-16.88,4.056,18.871,18.871,0,0,0-6.805,12.468,9.622,9.622,0,0,0-.1,1.485.671.671,0,0,1-.633.771A9.438,9.438,0,0,0,5.83,25.5a9.809,9.809,0,0,0-2.275,9.216,1.714,1.714,0,0,1,.1.582" transform="translate(0.096 0.095)" fill="#004794"/>
      <path id="Path_1524" data-name="Path 1524" d="M23.241,47.23c0,.776.007,1.552,0,2.328a2.54,2.54,0,0,1-2.549,2.526,2.349,2.349,0,0,1-.3,0,1.512,1.512,0,0,0-1.8.915,3.1,3.1,0,0,1-3.734,1.326,3.308,3.308,0,0,1,.42-6.387,3.236,3.236,0,0,1,3.553,1.807.827.827,0,0,0,.925.561c1.647-.034,1.694-.06,1.694-1.722,0-1.255,0-2.508,0-3.762,0-.643.343-1.048.876-1.062.552-.015.912.406.915,1.082,0,.8,0,1.592,0,2.389m-5.994,4.494a1.45,1.45,0,0,0-1.891-1.892,1.476,1.476,0,0,0-.945,1.541,1.541,1.541,0,0,0,1.3,1.3,1.48,1.48,0,0,0,1.541-.944" transform="translate(0.696 2.416)" fill="#080909"/>
      <path id="Path_1525" data-name="Path 1525" d="M36.624,4.442c-.11.012-.21.005-.241-.13a.235.235,0,0,1,.241.13" transform="translate(2.009 0.238)" fill="#004794"/>
      <path id="Path_1526" data-name="Path 1526" d="M36.774,4.54a.157.157,0,0,1-.17-.109l.17.109" transform="translate(2.021 0.245)" fill="#004794"/>
      <path id="Path_1527" data-name="Path 1527" d="M30.4,55.482a1.48,1.48,0,0,1-1.541.944,1.541,1.541,0,0,1-1.3-1.3,1.474,1.474,0,0,1,.945-1.541A2.29,2.29,0,0,0,30.4,55.482" transform="translate(1.521 2.959)" fill="#fbaf3a"/>
      <path id="Path_1528" data-name="Path 1528" d="M30.352,55.49A2.29,2.29,0,0,1,28.461,53.6a1.45,1.45,0,0,1,1.891,1.892" transform="translate(1.571 2.952)" fill="#fdbe4d"/>
      <path id="Path_1529" data-name="Path 1529" d="M10.132,45.064a1.48,1.48,0,0,1-1.541.944,1.541,1.541,0,0,1-1.3-1.3,1.476,1.476,0,0,1,.945-1.541,2.29,2.29,0,0,0,1.891,1.892" transform="translate(0.402 2.384)" fill="#fbaf3a"/>
      <path id="Path_1530" data-name="Path 1530" d="M50.672,45.064a1.48,1.48,0,0,1-1.541.944,1.541,1.541,0,0,1-1.3-1.3,1.476,1.476,0,0,1,.945-1.541,2.29,2.29,0,0,0,1.891,1.892" transform="translate(2.64 2.384)" fill="#fbaf3a"/>
      <path id="Path_1531" data-name="Path 1531" d="M43.651,51.406a1.481,1.481,0,0,1-1.542.944,1.541,1.541,0,0,1-1.295-1.3,1.476,1.476,0,0,1,.945-1.541,2.29,2.29,0,0,0,1.891,1.892" transform="translate(2.253 2.734)" fill="#fbaf3a"/>
      <path id="Path_1532" data-name="Path 1532" d="M10.082,45.072A2.29,2.29,0,0,1,8.191,43.18a1.292,1.292,0,0,1,1.574.317,1.293,1.293,0,0,1,.317,1.575" transform="translate(0.452 2.377)" fill="#fdbe4d"/>
      <path id="Path_1533" data-name="Path 1533" d="M50.622,45.072a2.29,2.29,0,0,1-1.891-1.892,1.45,1.45,0,0,1,1.891,1.892" transform="translate(2.691 2.377)" fill="#fdbe4d"/>
      <path id="Path_1534" data-name="Path 1534" d="M43.6,51.414a2.29,2.29,0,0,1-1.891-1.892A1.45,1.45,0,0,1,43.6,51.414" transform="translate(2.303 2.727)" fill="#fdbe4d"/>
      <path id="Path_1535" data-name="Path 1535" d="M17.153,51.406a1.48,1.48,0,0,1-1.541.944,1.541,1.541,0,0,1-1.3-1.3,1.476,1.476,0,0,1,.945-1.541,2.29,2.29,0,0,0,1.891,1.892" transform="translate(0.79 2.734)" fill="#fbaf3a"/>
      <path id="Path_1536" data-name="Path 1536" d="M17.1,51.414a2.29,2.29,0,0,1-1.891-1.892A1.45,1.45,0,0,1,17.1,51.414" transform="translate(0.84 2.727)" fill="#fdbe4d"/>
    </g>
  </g>
</svg>
