<svg id="Group_1355" data-name="Group 1355" xmlns="http://www.w3.org/2000/svg" xmlns:xlink="http://www.w3.org/1999/xlink" width="68.089" height="57.973" viewBox="0 0 68.089 57.973">
  <defs>
    <clipPath id="clip-path">
      <rect id="Rectangle_40" data-name="Rectangle 40" width="68.089" height="57.973" fill="none"/>
    </clipPath>
  </defs>
  <g id="Group_1354" data-name="Group 1354" clip-path="url(#clip-path)">
    <path id="Path_1482" data-name="Path 1482" d="M61.661,17.549c.169-.775.459-1.037,1.2-1.045.864-.01,1.728-.016,2.591,0a2.589,2.589,0,0,1,2.61,2.676q.008,5.247,0,10.494a2.588,2.588,0,0,1-2.8,2.82c-2.657.022-5.315.007-7.972.007-.6,0-1.2.023-1.793-.008-.422-.021-.6.087-.572.548a23.235,23.235,0,0,1,0,2.39c-.027.5.116.628.619.625,3.167-.026,6.335.036,9.5-.033a2.833,2.833,0,0,1,3.042,3.029q-.132,5.011,0,10.029a2.8,2.8,0,0,1-3.014,2.988c-3.055-.047-6.112-.012-9.168-.012-.947,0-.947,0-.969.925A4.9,4.9,0,0,1,51,57.887a5.221,5.221,0,0,1-1.189.077q-16.807,0-33.616,0c-.892,0-1.121-.168-1.329-.954.162-.834.439-1.046,1.388-1.046q16.779,0,33.559,0a2.918,2.918,0,0,0,3.116-3.1c.017-.638-.1-.848-.81-.847q-16.215.042-32.429.018c-2,0-2.973-.977-2.975-2.969,0-3.322.058-6.646-.022-9.966a2.828,2.828,0,0,1,3.071-3.067c8,.041,15.993.019,23.99.019,2.835,0,5.67-.011,8.506.01.491,0,.71-.082.668-.637a12.985,12.985,0,0,1,0-2.124c.059-.666-.141-.836-.822-.835-10.788.025-21.575-.006-32.362.039a2.814,2.814,0,0,1-3.054-3.065q.124-4.947,0-9.9a2.837,2.837,0,0,1,3.084-3.054c10.765.039,21.531.02,32.3.02a4.5,4.5,0,0,1,.465,0c.286.028.388-.081.382-.374-.026-1.172-.032-2.344-.045-3.516-.231-.2-.506-.093-.757-.093q-23.194-.009-46.389-.005c-1.041,0-2.083.039-3.123,0-.516-.018-.63.155-.618.641.034,1.283.015,2.569.01,3.853,0,.832-.219,1.088-1.037,1.259A1.22,1.22,0,0,1,0,17.554V3.864c.23-.12.195-.37.263-.563A4.848,4.848,0,0,1,4.849.006Q27.4,0,49.947.006a4.837,4.837,0,0,1,4.987,5.111c.017,3.542.025,7.084-.014,10.625-.008.668.19.821.808.772.7-.056,1.416-.02,2.124-.011.745.011,1.042.279,1.193,1.045-.227.824-.436.964-1.462.964q-17.458,0-34.916,0c-.286,0-.572.03-.858.045-.794-.015-1.589-.045-2.383-.039a.622.622,0,0,0-.7.7q.007,5.274,0,10.549c0,.464.208.7.677.7l2.386-.03c.265.011.53.031.8.031h25.98q8.272,0,16.545,0c.814,0,.954-.13.955-.9,0-3.388-.006-6.776.007-10.165,0-.626-.28-.889-.88-.884-.753.005-1.507-.02-2.259.006a1.09,1.09,0,0,1-1.274-.969M21.8,49.984a2.621,2.621,0,0,0,.264.026q21.559,0,43.12,0c.751,0,.881-.139.881-.908q0-4.883,0-9.765c0-1.2-.073-1.276-1.275-1.276q-21.127,0-42.256,0c-.242,0-.485.025-.727.038-.8-.014-1.591-.042-2.386-.036a.623.623,0,0,0-.7.7q.007,5.28,0,10.56a.6.6,0,0,0,.688.691c.8-.007,1.592-.018,2.388-.028M28.95,10.523q11.658,0,23.317.01c.491,0,.681-.083.665-.633-.042-1.549-.083-3.1,0-4.648a3.094,3.094,0,0,0-3.3-3.274q-21.092.067-42.182-.01a2,2,0,0,0-2.08,1.408A3.746,3.746,0,0,0,5.047,4.92c.009,1.638.038,3.277-.015,4.914-.021.618.183.7.734.7q11.592-.027,23.184-.012" transform="translate(0 0)" fill="#090a08"/>
    <path id="Path_1483" data-name="Path 1483" d="M12.249,57.012a1.058,1.058,0,0,1-1.2.961c-2.008-.017-4.016,0-6.023-.008A4.868,4.868,0,0,1,.2,54.479c-.044-.127.015-.332-.2-.374v-.266c.213-.17.131-.408.131-.618q0-15.3,0-30.592c0-.232.089-.493-.129-.688v-.4a1.531,1.531,0,0,1,.973-.671C1.837,21.115,2,21.325,2,22.224Q2,37.141,2,52.057c0,.355-.012.71,0,1.063a2.921,2.921,0,0,0,2.92,2.845c.442.006.885-.012,1.327-.019q2.373.01,4.746.022c.8.005,1.069.239,1.25,1.044" transform="translate(0 0)" fill="#060706"/>
    <path id="Path_1484" data-name="Path 1484" d="M0,21.94c.218.2.129.456.129.688q.008,15.3,0,30.592c0,.21.083.449-.13.618Z" transform="translate(0 0)" fill="#151414"/>
    <path id="Path_1485" data-name="Path 1485" d="M.973,20.87A1.526,1.526,0,0,0,0,21.541V17.554a1.221,1.221,0,0,0,.963.717q0,1.3.01,2.6" transform="translate(0 0)" fill="#fdfdfd"/>
    <path id="Path_1486" data-name="Path 1486" d="M12.249,57.012c-.181-.806-.455-1.039-1.25-1.044-1.582-.011-3.164-.016-4.746-.023a4.71,4.71,0,0,1-1.217-3.324q.038-19.563.016-39.127c0-.863,0-.864.852-.864h46.11c.288,0,.575-.009.863-.014.013,1.172.019,2.344.045,3.516.007.294-.1.4-.381.374-.154-.015-.31,0-.465,0-10.766,0-21.531.019-32.3-.021a2.839,2.839,0,0,0-3.085,3.054q.121,4.947,0,9.9A2.815,2.815,0,0,0,19.747,32.5c10.787-.045,21.575-.015,32.362-.04.682,0,.881.169.822.836a13.085,13.085,0,0,0,0,2.123c.043.555-.176.641-.668.637-2.835-.021-5.67-.01-8.506-.01-8,0-15.993.022-23.989-.018A2.827,2.827,0,0,0,16.695,39.1c.081,3.321.019,6.644.022,9.966,0,1.992.975,2.969,2.975,2.969q16.215,0,32.429-.017c.706,0,.827.208.811.847a2.919,2.919,0,0,1-3.117,3.1q-16.779,0-33.559,0c-.948,0-1.225.211-1.388,1.046H12.249m-4.5-12.483c.353,0,.707.021,1.058-.005a1.024,1.024,0,0,0,.983-1.042.972.972,0,0,0-1-.944c-.661-.021-1.324-.02-1.985,0a.938.938,0,0,0-1,.926.991.991,0,0,0,.945,1.061c.329.027.662.005.993.006m.03,4.784c.353,0,.708.023,1.058-.005a1.028,1.028,0,0,0,.957-1,.977.977,0,0,0-.963-.979c-.683-.026-1.368-.024-2.052,0a.937.937,0,0,0-.97.954.992.992,0,0,0,.977,1.033c.33.022.662,0,.993,0m0-14.358c.353,0,.709.027,1.058-.006a1.031,1.031,0,0,0,.953-1.009.968.968,0,0,0-.966-.972c-.683-.027-1.368-.027-2.051,0a.931.931,0,0,0-.967.956.991.991,0,0,0,.915,1.027c.35.035.705.006,1.058.007m.014,2.792c-.331,0-.662-.012-.993,0a.939.939,0,0,0-.992.93.969.969,0,0,0,.885,1.048,18.47,18.47,0,0,0,2.182,0,1,1,0,0,0,.911-1.04.979.979,0,0,0-1-.939c-.331-.016-.662,0-.993,0m.021-9.573v0c-.331,0-.662-.012-.992,0a.954.954,0,0,0-1.017.977.976.976,0,0,0,.933,1.007,19.149,19.149,0,0,0,2.116,0,1.008,1.008,0,0,0,.933-1.023.971.971,0,0,0-.981-.957c-.329-.02-.661,0-.992,0m-.031-4.787c-.331,0-.663-.014-.993,0a.935.935,0,0,0-.982.94A.966.966,0,0,0,6.7,25.369a17.082,17.082,0,0,0,2.182,0,1,1,0,0,0,.9-1.05.973.973,0,0,0-1.009-.927c-.33-.016-.662,0-.992,0M7.814,18.6c-.331,0-.662-.011-.992,0a.94.94,0,0,0-1.014.908.96.96,0,0,0,.862,1.066,15.6,15.6,0,0,0,2.247,0A.968.968,0,0,0,9.775,19.5a.934.934,0,0,0-.969-.894c-.33-.008-.661,0-.992,0" transform="translate(0 0)" fill="#e8c859"/>
    <path id="Path_1487" data-name="Path 1487" d="M61.662,17.549a1.089,1.089,0,0,0,1.273.969c.752-.026,1.506,0,2.259-.007.6,0,.883.258.88.885-.012,3.388,0,6.776-.007,10.165,0,.772-.14.9-.954.9q-8.272,0-16.545,0H22.587c-.264,0-.529-.021-.794-.031a2.086,2.086,0,0,1-.117-.844q0-5.061,0-10.121a2.41,2.41,0,0,1,.136-.908c.286-.016.571-.045.857-.045q17.458,0,34.916,0c1.026,0,1.235-.14,1.462-.964h2.617m-10.951,8.36q-3.151,0-6.3,0c-.821,0-1.225.319-1.244.954-.019.654.434,1.047,1.24,1.048q6.3,0,12.607,0c.772,0,1.209-.378,1.214-1.008s-.426-.991-1.21-.993c-2.1,0-4.2,0-6.3,0M37.357,21.124c-2.08,0-4.161,0-6.242,0a.979.979,0,0,0-1.1.744c-.186.707.326,1.26,1.195,1.261q6.043.009,12.087,0c.827,0,1.267-.369,1.26-1.028s-.4-.973-1.288-.974q-2.955,0-5.911,0m21.208,0c-1,0-1.994-.009-2.99,0-.688.009-1.083.383-1.081.984a.987.987,0,0,0,1.075,1.012q2.991.023,5.981,0a.986.986,0,0,0,1.079-1.007c0-.614-.379-.979-1.073-.988-1-.013-1.994,0-2.991,0m-20.021,6.79h1.727c.045,0,.089,0,.133,0a1.051,1.051,0,0,0,1.056-1.054,1,1,0,0,0-1.072-.946q-1.827-.02-3.655,0a1.013,1.013,0,0,0-1.091,1,1.043,1.043,0,0,0,1.108,1c.6.017,1.2,0,1.794,0m11.161-4.786c.6,0,1.194.011,1.79,0,.716-.016,1.141-.4,1.147-1.006s-.4-.988-1.135-.994q-1.757-.012-3.512,0c-.7.006-1.095.351-1.116.946a1.018,1.018,0,0,0,1.1,1.052c.573.017,1.148,0,1.722,0m-24.841-2c-.353,0-.707-.016-1.059,0a.9.9,0,0,0-.944.907A.936.936,0,0,0,23.72,23.1a14.178,14.178,0,0,0,2.248-.007.94.94,0,0,0,.868-1.005.975.975,0,0,0-.978-.96c-.33-.019-.662,0-.994,0m-.006,4.785c-.353,0-.707-.017-1.059,0a.909.909,0,0,0-.938.914.885.885,0,0,0,.8,1.038,12.066,12.066,0,0,0,2.312.011.936.936,0,0,0,.861-1.01.982.982,0,0,0-.984-.955c-.331-.018-.663,0-.994,0m6.967,0c-.354,0-.707-.009-1.06,0a.99.99,0,0,0-.115,1.972,16.077,16.077,0,0,0,2.249,0,.939.939,0,0,0,.863-1.061.914.914,0,0,0-.944-.91c-.33-.02-.662,0-.993,0m29.79,0a1.01,1.01,0,0,0-.981,1.032,1.057,1.057,0,0,0,1,.964,1.006,1.006,0,0,0,.992-1.022.95.95,0,0,0-1.015-.974" transform="translate(0 0)" fill="#d39916"/>
    <path id="Path_1488" data-name="Path 1488" d="M21.81,38.1c.242-.014.485-.038.727-.038q21.128,0,42.256,0c1.2,0,1.275.074,1.275,1.276q0,4.882,0,9.765c0,.769-.13.907-.881.908q-21.559,0-43.12,0a2.621,2.621,0,0,1-.264-.026,1.474,1.474,0,0,1-.134-.837q0-4.87,0-9.742a3.824,3.824,0,0,1,.145-1.3m11.028,2.227a1.018,1.018,0,0,0-.812-1.053.949.949,0,0,0-1.152.658c-.322.819-.61,1.651-.91,2.478-.607,1.675-1.207,3.352-1.822,5.025a1,1,0,0,0,1.624,1.116,1.766,1.766,0,0,0,.387-.759q1.26-3.439,2.505-6.884c.075-.205.13-.418.18-.581m5.3,3.472a1.289,1.289,0,0,0-.376-.756c-.766-.767-1.523-1.543-2.3-2.3a1.03,1.03,0,0,0-1.481-.1.977.977,0,0,0,.049,1.516c.441.466.891.925,1.362,1.36.256.236.263.393,0,.632-.471.435-.919.9-1.363,1.359a1,1,0,1,0,1.416,1.4c.776-.756,1.533-1.532,2.3-2.295a1.221,1.221,0,0,0,.387-.818M26.466,40.391a.95.95,0,0,0-.774.305c-.794.8-1.6,1.585-2.387,2.394a.959.959,0,0,0-.009,1.47q1.167,1.224,2.388,2.394a.958.958,0,0,0,1.466.026,1.034,1.034,0,0,0-.08-1.479,11.55,11.55,0,0,0-1.178-1.164c-.506-.4-.413-.675.023-1.047a15.409,15.409,0,0,0,1.265-1.265.956.956,0,0,0,.136-1.112.867.867,0,0,0-.85-.522" transform="translate(0 0)" fill="#ffa600"/>
    <path id="Path_1489" data-name="Path 1489" d="M28.95,10.524q-11.592,0-23.184.012c-.551,0-.755-.084-.735-.7.054-1.636.025-3.276.016-4.914a3.749,3.749,0,0,1,.322-1.544,2,2,0,0,1,2.08-1.407q21.09.08,42.182.01a3.094,3.094,0,0,1,3.3,3.273c-.086,1.545-.045,3.1,0,4.648.016.55-.174.635-.665.634q-11.659-.023-23.317-.01m.622-3.232H40.926q1.559,0,1.578-1.007c.012-.678-.5-1.014-1.553-1.014H18.243a4.726,4.726,0,0,0-.663.027.933.933,0,0,0-.845,1.126c.075.587.5.866,1.35.866q5.744,0,11.487,0m17.433,0c.64,0,1.281.014,1.922,0a1.083,1.083,0,0,0,1.165-1.015,1.044,1.044,0,0,0-1.163-1q-1.889-.022-3.778,0c-.728.009-1.152.4-1.15.995s.429.993,1.148,1.015c.618.02,1.237,0,1.856,0M11.167,6.279a.982.982,0,0,0-1.007-1,1,1,0,0,0-.988.953,1.033,1.033,0,0,0,.978,1.047,1.019,1.019,0,0,0,1.017-1M7.8,6.256a1,1,0,0,0-1.04-.969.95.95,0,0,0-.955.968,1.01,1.01,0,0,0,.987,1.026A1.054,1.054,0,0,0,7.8,6.256m5.729-.969a.992.992,0,0,0-.98,1.025,1.049,1.049,0,0,0,.994.969,1.022,1.022,0,0,0,1-1.016.963.963,0,0,0-1.016-.978" transform="translate(0 0)" fill="#87cbda"/>
    <path id="Path_1490" data-name="Path 1490" d="M52.877,12.616c-.288.005-.575.014-.863.014H5.9c-.852,0-.853,0-.853.864q0,19.563-.015,39.126a4.71,4.71,0,0,0,1.217,3.324c-.442.008-.885.026-1.327.02A2.92,2.92,0,0,1,2.007,53.12c-.017-.354,0-.709,0-1.063Q2,37.141,2,22.224c0-.9-.164-1.109-1.027-1.353q-.006-1.3-.01-2.6C1.781,18.1,2,17.845,2,17.013c.005-1.285.023-2.57-.01-3.854-.013-.485.1-.659.618-.64,1.039.038,2.081,0,3.123,0q23.194,0,46.389.005c.25,0,.526-.106.756.093" transform="translate(0 0)" fill="#d29918"/>
    <path id="Path_1491" data-name="Path 1491" d="M21.81,38.1a3.855,3.855,0,0,0-.146,1.3q.008,4.871,0,9.742a1.461,1.461,0,0,0,.134.836c-.8.01-1.592.021-2.389.028a.6.6,0,0,1-.687-.691q0-5.28,0-10.56a.624.624,0,0,1,.7-.7c.8-.006,1.59.022,2.386.036" transform="translate(0 0)" fill="#e38810"/>
    <path id="Path_1492" data-name="Path 1492" d="M21.809,18.559a2.389,2.389,0,0,0-.135.908q0,5.06,0,10.121a2.1,2.1,0,0,0,.117.844l-2.386.029c-.47.006-.678-.232-.677-.7q.006-5.276,0-10.55a.623.623,0,0,1,.7-.695c.794-.006,1.589.024,2.383.039" transform="translate(0 0)" fill="#1383ba"/>
    <path id="Path_1493" data-name="Path 1493" d="M7.744,44.528c-.331,0-.664.022-.992-.005a.992.992,0,0,1-.946-1.062.937.937,0,0,1,1-.925c.661-.018,1.324-.02,1.985,0a.972.972,0,0,1,.995.944A1.024,1.024,0,0,1,8.8,44.524c-.352.025-.706,0-1.059,0" transform="translate(0 0)" fill="#0b0b08"/>
    <path id="Path_1494" data-name="Path 1494" d="M7.774,49.314c-.331,0-.663.019-.993,0A.992.992,0,0,1,5.8,48.278a.938.938,0,0,1,.971-.954c.683-.022,1.368-.024,2.051,0a.976.976,0,0,1,.963.979,1.028,1.028,0,0,1-.956,1c-.351.028-.706.005-1.059.006" transform="translate(0 0)" fill="#0b0b08"/>
    <path id="Path_1495" data-name="Path 1495" d="M7.778,34.955c-.353,0-.709.028-1.058-.007A.99.99,0,0,1,5.8,33.922a.932.932,0,0,1,.967-.956c.683-.025,1.369-.025,2.051,0a.966.966,0,0,1,.966.972,1.029,1.029,0,0,1-.952,1.009c-.35.033-.705.007-1.058.006" transform="translate(0 0)" fill="#0b0b08"/>
    <path id="Path_1496" data-name="Path 1496" d="M7.792,37.747c.331,0,.662-.013.993,0a.979.979,0,0,1,1,.939,1,1,0,0,1-.911,1.04,18.259,18.259,0,0,1-2.182,0,.969.969,0,0,1-.886-1.048.94.94,0,0,1,.993-.93c.331-.015.662,0,.993,0" transform="translate(0 0)" fill="#0b0b08"/>
    <path id="Path_1497" data-name="Path 1497" d="M7.813,28.174c.331,0,.663-.016.992,0a.971.971,0,0,1,.981.957,1.009,1.009,0,0,1-.933,1.023,19.4,19.4,0,0,1-2.116,0A.975.975,0,0,1,5.8,29.151a.956.956,0,0,1,1.017-.977c.33-.014.661,0,.992,0v0" transform="translate(0 0)" fill="#0b0b08"/>
    <path id="Path_1498" data-name="Path 1498" d="M7.781,23.387c.331,0,.662-.013.992,0a.974.974,0,0,1,1.01.927,1,1,0,0,1-.9,1.051,17.252,17.252,0,0,1-2.181,0,.967.967,0,0,1-.9-1.039.936.936,0,0,1,.983-.94c.33-.017.661,0,.992,0" transform="translate(0 0)" fill="#0b0b08"/>
    <path id="Path_1499" data-name="Path 1499" d="M7.814,18.6c.331,0,.662-.006.992,0a.935.935,0,0,1,.969.894.968.968,0,0,1-.858,1.075,15.6,15.6,0,0,1-2.247,0,.959.959,0,0,1-.862-1.066A.939.939,0,0,1,6.822,18.6c.33-.013.661,0,.992,0" transform="translate(0 0)" fill="#0b0b08"/>
    <path id="Path_1500" data-name="Path 1500" d="M50.711,25.909c2.1,0,4.2,0,6.3,0,.784,0,1.215.365,1.211.992s-.443,1.008-1.214,1.009q-6.3.006-12.607,0c-.807,0-1.259-.394-1.24-1.048.019-.635.422-.952,1.244-.954q3.151-.006,6.3,0" transform="translate(0 0)" fill="#090907"/>
    <path id="Path_1501" data-name="Path 1501" d="M37.357,21.124q2.955,0,5.911,0c.885,0,1.28.3,1.287.974s-.433,1.028-1.26,1.028q-6.043.006-12.086,0c-.87,0-1.381-.554-1.195-1.261a.978.978,0,0,1,1.1-.744c2.081.007,4.162,0,6.243,0" transform="translate(0 0)" fill="#090907"/>
    <path id="Path_1502" data-name="Path 1502" d="M58.565,21.125c1,0,1.994-.01,2.991,0,.694.009,1.074.375,1.073.989a.985.985,0,0,1-1.079,1.006q-2.991.024-5.981,0a.986.986,0,0,1-1.075-1.011.957.957,0,0,1,1.08-.984c1-.012,1.994,0,2.991,0" transform="translate(0 0)" fill="#090907"/>
    <path id="Path_1503" data-name="Path 1503" d="M38.544,27.914c-.6,0-1.2.014-1.794,0a1.042,1.042,0,0,1-1.108-1,1.013,1.013,0,0,1,1.091-1q1.827-.018,3.655,0a1,1,0,0,1,1.072.946A1.049,1.049,0,0,1,40.4,27.913c-.044,0-.088,0-.133,0H38.544" transform="translate(0 0)" fill="#0c0b07"/>
    <path id="Path_1504" data-name="Path 1504" d="M49.705,23.129c-.574,0-1.149.013-1.723,0a1.017,1.017,0,0,1-1.1-1.051c.02-.595.413-.941,1.115-.946q1.757-.015,3.513,0c.732.006,1.141.375,1.134.994s-.43.99-1.147,1c-.6.013-1.193,0-1.789,0" transform="translate(0 0)" fill="#090907"/>
    <path id="Path_1505" data-name="Path 1505" d="M24.864,21.128c.331,0,.663-.015.993,0a.975.975,0,0,1,.978.961.939.939,0,0,1-.867,1.005,14.19,14.19,0,0,1-2.249.006.936.936,0,0,1-.859-1.065.9.9,0,0,1,.944-.906c.353-.019.707,0,1.06,0" transform="translate(0 0)" fill="#0c0b07"/>
    <path id="Path_1506" data-name="Path 1506" d="M24.858,25.913c.331,0,.663-.015.993,0a.981.981,0,0,1,.984.955.935.935,0,0,1-.86,1.01,12.066,12.066,0,0,1-2.312-.011.885.885,0,0,1-.8-1.038.908.908,0,0,1,.938-.914c.351-.022.706,0,1.059,0" transform="translate(0 0)" fill="#0c0b07"/>
    <path id="Path_1507" data-name="Path 1507" d="M31.824,25.913c.331,0,.663-.016.993,0a.915.915,0,0,1,.945.91.942.942,0,0,1-.864,1.062,16.231,16.231,0,0,1-2.249,0,.99.99,0,0,1,.115-1.971c.353-.011.707,0,1.06,0" transform="translate(0 0)" fill="#0c0b07"/>
    <path id="Path_1508" data-name="Path 1508" d="M61.615,25.914a.95.95,0,0,1,1.015.974,1.006,1.006,0,0,1-.992,1.022,1.057,1.057,0,0,1-1-.964,1.01,1.01,0,0,1,.981-1.032" transform="translate(0 0)" fill="#0e0c07"/>
    <path id="Path_1509" data-name="Path 1509" d="M32.838,40.328c-.05.163-.106.376-.18.582q-1.248,3.443-2.505,6.883a1.777,1.777,0,0,1-.387.759,1,1,0,0,1-1.624-1.116c.615-1.672,1.215-3.35,1.822-5.025.3-.827.587-1.659.91-2.478a.948.948,0,0,1,1.151-.658,1.018,1.018,0,0,1,.813,1.053" transform="translate(0 0)" fill="#0e0c07"/>
    <path id="Path_1510" data-name="Path 1510" d="M38.141,43.8a1.223,1.223,0,0,1-.387.818c-.769.763-1.527,1.539-2.3,2.3a1,1,0,1,1-1.416-1.4c.444-.463.892-.923,1.363-1.358.259-.24.252-.4,0-.633-.471-.435-.921-.894-1.362-1.36a.976.976,0,0,1-.049-1.515,1.029,1.029,0,0,1,1.481.1c.778.755,1.535,1.531,2.3,2.3a1.28,1.28,0,0,1,.376.757" transform="translate(0 0)" fill="#0e0c07"/>
    <path id="Path_1511" data-name="Path 1511" d="M26.465,40.391a.871.871,0,0,1,.851.523.956.956,0,0,1-.136,1.112,15.729,15.729,0,0,1-1.265,1.265c-.436.371-.529.647-.024,1.047A11.441,11.441,0,0,1,27.069,45.5a1.036,1.036,0,0,1,.081,1.48.959.959,0,0,1-1.467-.026q-1.219-1.17-2.387-2.394a.958.958,0,0,1,.009-1.47c.784-.81,1.592-1.6,2.387-2.4a.956.956,0,0,1,.773-.305" transform="translate(0 0)" fill="#0e0c07"/>
    <path id="Path_1512" data-name="Path 1512" d="M29.572,7.292q-5.744,0-11.487,0c-.85,0-1.275-.279-1.35-.867A.933.933,0,0,1,17.581,5.3a4.705,4.705,0,0,1,.662-.027H40.951c1.053,0,1.565.336,1.553,1.014s-.539,1.007-1.578,1.007H29.572" transform="translate(0 0)" fill="#0b0e0f"/>
    <path id="Path_1513" data-name="Path 1513" d="M47.005,7.291c-.619,0-1.238.015-1.855,0C44.43,7.264,44,6.872,44,6.272s.422-.987,1.151-1q1.888-.022,3.777,0a1.043,1.043,0,0,1,1.163,1,1.081,1.081,0,0,1-1.165,1.014c-.64.018-1.281,0-1.922,0" transform="translate(0 0)" fill="#0b0e0f"/>
    <path id="Path_1514" data-name="Path 1514" d="M11.167,6.278a1.02,1.02,0,0,1-1.016,1.005,1.032,1.032,0,0,1-.978-1.048,1,1,0,0,1,.987-.953.982.982,0,0,1,1.007,1" transform="translate(0 0)" fill="#0b0e0f"/>
    <path id="Path_1515" data-name="Path 1515" d="M7.8,6.256A1.056,1.056,0,0,1,6.792,7.281,1.01,1.01,0,0,1,5.8,6.255a.948.948,0,0,1,.955-.968,1,1,0,0,1,1.04.969" transform="translate(0 0)" fill="#0b0e0f"/>
    <path id="Path_1516" data-name="Path 1516" d="M13.529,5.287a.963.963,0,0,1,1.016.978,1.022,1.022,0,0,1-1,1.016,1.049,1.049,0,0,1-.994-.969.992.992,0,0,1,.98-1.025" transform="translate(0 0)" fill="#0b0e0f"/>
  </g>
</svg>
