<svg id="Group_1367" data-name="Group 1367" xmlns="http://www.w3.org/2000/svg" xmlns:xlink="http://www.w3.org/1999/xlink" width="58.585" height="61.223" viewBox="0 0 58.585 61.223">
  <defs>
    <clipPath id="clip-path">
      <rect id="Rectangle_46" data-name="Rectangle 46" width="58.585" height="61.223" transform="translate(0 0)" fill="none"/>
    </clipPath>
  </defs>
  <g id="Group_1366" data-name="Group 1366" clip-path="url(#clip-path)">
    <path id="Path_1622" data-name="Path 1622" d="M8.044,11.722c.008-3.356.031-6.713.013-10.069A1.765,1.765,0,0,1,8.833,0H35.012a1.716,1.716,0,0,1,.8,1.694c-.025.57.018,1.142.031,1.714a2.014,2.014,0,0,0-.052.769q-.007,11.477-.009,22.953a2.212,2.212,0,0,0-1.7-.481q0-4.177-.01-8.355-.007-5.163-.017-10.324A16.478,16.478,0,0,0,34.1,5.178c-.009-.445-.284-.653-.751-.649-1.491.014-2.983,0-4.474.005l-16.464.01c-.652-.008-1.3-.009-1.955-.026a.64.64,0,0,0-.733.67A15.974,15.974,0,0,0,9.769,7.9a.065.065,0,0,0,.014.088c-.009.218-.025.436-.025.654q0,10.174,0,20.348c0,.219.014.437.022.655a1.023,1.023,0,0,0-.08.637q-.006,3.784,0,7.568,0,1.281,0,2.563c0,.524.228.91.777.925a13.191,13.191,0,0,0,2.257-.037c.217.009.434.025.652.025q7.014,0,14.027,0c.376,0,.7.01.886.412a1.881,1.881,0,0,0,.408.431l5.251,5.292c-.9.1-.971.185-.98,1.1,0,.138-.014.276-.021.413l-23.12,0c-1.429,0-1.75-.324-1.75-1.763q0-17.387,0-34.772c0-.237-.026-.474-.04-.711M21.936,46.877a2.165,2.165,0,1,0-2.223-2.154,2.149,2.149,0,0,0,2.223,2.154m1.3-43.763h3.1c.945,0,1.274-.225,1.266-.866-.007-.608-.408-.895-1.277-.913h-.119q-2.923,0-5.848,0a3.527,3.527,0,0,0-.532.046.88.88,0,0,0-.818.935c0,.461.443.793,1,.8,1.074,0,2.148,0,3.222,0m-5.18-.869A.849.849,0,0,0,17.1,1.3a.932.932,0,0,0-.97.962.947.947,0,0,0,.981.965.929.929,0,0,0,.948-.984" fill="#08090a"/>
    <path id="Path_1623" data-name="Path 1623" d="M8.044,11.722c.014.237.04.474.04.711q0,17.387,0,34.772c0,1.439.321,1.763,1.749,1.763l23.121,0c0,.975.027,1.951.011,2.925-.009.563.26.8.787.812.139,0,.278.011.417.017l.018,8.089a31.249,31.249,0,0,1-6,.384A29.383,29.383,0,0,1,3.013,44.884,28.324,28.324,0,0,1,.206,35.391,28.937,28.937,0,0,1,5.866,14.33c.67-.911,1.449-1.741,2.178-2.608" fill="#ddd"/>
    <path id="Path_1624" data-name="Path 1624" d="M35.784,27.13q0-11.476.01-22.953a2.017,2.017,0,0,1,.052-.769,26.355,26.355,0,0,1,6.937,2.516l-2.633.037c-.656-.008-1.312-.028-1.968-.021a.591.591,0,0,0-.669.657q.008,3.495,0,6.99a.571.571,0,0,0,.664.647c.657-.01,1.313-.014,1.97-.021.2.006.4.017.6.017q5.969.014,11.938.023l.91,1.407c-.239.009-.477.026-.715.026l-12.718,0c-.636-.007-1.271-.017-1.906-.02a.643.643,0,0,0-.74.72q0,6.111,0,12.221c0,.473.219.694.689.687.655-.01,1.311-.012,1.966-.018l14.684.014c.928,0,1.056-.13,1.059-1.069q.012-4.148.026-8.3A21.451,21.451,0,0,1,57.7,24.847a27.678,27.678,0,0,1,.836,8.629,29.089,29.089,0,0,1-6.486,16.853,27.05,27.05,0,0,1-5.912,5.51l-.042-.139c.009-.855.028-1.711.02-2.565,0-.3.04-.455.408-.47.678-.028.8-.2.8-.9,0-1,0-1.99,0-2.985,0-1.112,0-1.112-1.048-1.307,0-.378,0-.757,0-1.135q0-5.5,0-11a1.776,1.776,0,0,0-2.14-1.864,2.023,2.023,0,0,0-1.316.957,1.925,1.925,0,0,0-1.657-.979,2.007,2.007,0,0,0-1.692.992,1.831,1.831,0,0,0-1.458-.984,2.064,2.064,0,0,0-1.689.682c0-1.847-.011-3.6.007-5.351a2.492,2.492,0,0,0-.543-1.662" fill="#bfbebe"/>
    <path id="Path_1625" data-name="Path 1625" d="M55.937,19.928q-.012,4.148-.026,8.3c0,.939-.13,1.07-1.059,1.069l-14.684-.014a1.075,1.075,0,0,1-.262-.879q.006-5.79,0-11.58a1.848,1.848,0,0,1,.255-1.131l12.718,0c.238,0,.477-.017.715-.026.5.01.994.017,1.491.03.619.017.815.209.824.834.016,1.135.021,2.269.03,3.4M43.714,22.5h0c0,.915-.017,1.831.005,2.746.016.661.42.908,1,.585q2.391-1.339,4.748-2.738c.6-.355.592-.842-.007-1.2q-2.333-1.383-4.695-2.712c-.641-.361-1.03-.117-1.045.63-.017.9,0,1.791,0,2.686" fill="#e62639"/>
    <path id="Path_1626" data-name="Path 1626" d="M40.15,5.961l2.633-.038,7.03.034c.636,0,1.272,0,1.908,0a2.7,2.7,0,0,0,.915,2.83A2.8,2.8,0,0,0,55.9,9.1c0,1.406.007,2.813,0,4.219,0,.735-.18.907-.908.913l-2.317.022L40.744,14.23c-.2,0-.4-.011-.6-.017a2.228,2.228,0,0,1-.112-1.906c.338.005.676.013,1.014.013q5.188,0,10.379,0a.926.926,0,0,0,1.026-.839,1.088,1.088,0,0,0-.987-.949c-.158-.014-.318,0-.477,0h-9.6a4.952,4.952,0,0,0-1.476.127c.057-.367-.125-.76.128-1.1l8.894.014a.831.831,0,0,0,.894-.773.9.9,0,0,0-.8-1.009,2.372,2.372,0,0,0-.358-.009c-2.646,0-5.293,0-7.94-.005a3,3,0,0,0-.818.129c.078-.646-.2-1.336.238-1.938" fill="#fe9b00"/>
    <path id="Path_1627" data-name="Path 1627" d="M46.093,55.7c.014.047.028.093.041.14a27.46,27.46,0,0,1-8.123,4.047c-.471.15-.957.253-1.437.378q0-3.772-.007-7.544c.1-.128.242-.117.381-.117,2.867,0,5.733.006,8.6-.006.378,0,.462.147.471.494a14.384,14.384,0,0,0,.074,2.608" fill="#e56c14"/>
    <path id="Path_1628" data-name="Path 1628" d="M55.9,9.1a2.8,2.8,0,0,1-3.268-.308,2.7,2.7,0,0,1-.915-2.831,2.783,2.783,0,0,1,2.546-2.1,2.664,2.664,0,0,1,2.574,1.317c.838,1.312.471,2.8-.937,3.921M55.13,6.686h-.013c0-.357.023-.716-.007-1.07a.491.491,0,0,0-.519-.474c-.345,0-.738-.12-.973.265a.494.494,0,0,0,.04.659.928.928,0,0,1,.272.852,4.961,4.961,0,0,0,.028.772.588.588,0,0,0,1.168-.051c.02-.317,0-.635,0-.953" fill="#a70d22"/>
    <path id="Path_1629" data-name="Path 1629" d="M36.566,52.721q0,3.771.008,7.543a12.844,12.844,0,0,1-2.386.551l-.018-8.089,1.445-.01.951.005" fill="#d45c1b"/>
    <path id="Path_1630" data-name="Path 1630" d="M34.062,7.97l.018,10.324q.006,4.177.009,8.355A2.024,2.024,0,0,0,32.632,28.7c0,.354-.005.709-.007,1.063H13.08c-.159,0-.319.009-.478,0-.3-.021-.43.091-.429.409q.009,5.23,0,10.461a.53.53,0,0,0,.505.613.057.057,0,0,0,.053.056,13.2,13.2,0,0,1-2.258.037c-.549-.015-.776-.4-.777-.925q0-1.282,0-2.563,0-3.783,0-7.568a1.03,1.03,0,0,1,.08-.637c.653,0,1.307-.012,1.96.006.338.009.454-.124.443-.453-.017-.494,0-.99,0-1.485a2.416,2.416,0,0,0,.932.153q8.807-.006,17.611,0c1.1,0,1.513-.415,1.516-1.519q.006-2.538,0-5.075c0-1.182-.39-1.568-1.575-1.569q-8.745,0-17.491,0c-.277,0-.555.036-.832.056-.262-.191-.161-.473-.162-.717q-.009-5.514-.005-11.029c.237-.012.474-.033.711-.034l21.174-.01m-12.1,10.344a4.447,4.447,0,1,0-4.5-4.448,4.45,4.45,0,0,0,4.5,4.448" fill="#b3d5f0"/>
    <path id="Path_1631" data-name="Path 1631" d="M32.625,29.765c0-.354.009-.708.007-1.063a2.025,2.025,0,0,1,1.457-2.053,2.216,2.216,0,0,1,1.7.481,2.485,2.485,0,0,1,.542,1.662c-.018,1.752-.006,3.5-.006,5.351a2.062,2.062,0,0,1,1.688-.682,1.832,1.832,0,0,1,1.459.983,2.009,2.009,0,0,1,1.692-.992,1.932,1.932,0,0,1,1.657.979,2.02,2.02,0,0,1,1.315-.956,1.775,1.775,0,0,1,2.14,1.864q.009,5.5,0,10.995V47.47q-4.289.013-8.576.026c-.5,0-.991-.032-1.486-.049-.014-.275-.243-.4-.406-.563-1.641-1.648-3.292-3.286-4.928-4.937a1.77,1.77,0,0,1,.21-2.857c.621.253.892.93,1.536,1.282Z" fill="#ffdaa9"/>
    <path id="Path_1632" data-name="Path 1632" d="M34.062,7.97l-21.173.01c-.238,0-.475.023-.712.034l.007-.058c0-.884.009-1.768-.011-2.651a1.142,1.142,0,0,1,.243-.76L28.88,4.534c1.491,0,2.983.009,4.474-.005.468,0,.743.2.752.649a16.581,16.581,0,0,1-.044,2.792" fill="#f77f12"/>
    <path id="Path_1633" data-name="Path 1633" d="M12.177,8.014q0,5.514.006,11.029c0,.244-.1.526.161.717a1.519,1.519,0,0,0-.739,1.455c.016,1.69.013,3.38,0,5.069a1.707,1.707,0,0,0,.577,1.431c0,.495-.017.99,0,1.485.011.329-.1.462-.443.453-.653-.018-1.306-.006-1.959-.006-.008-.218-.023-.437-.023-.655q0-10.175,0-20.348c0-.218.016-.436.025-.654L9.9,7.981a15.619,15.619,0,0,0,2.279-.025Z" fill="#9cb4de"/>
    <path id="Path_1634" data-name="Path 1634" d="M31.089,39.09a1.771,1.771,0,0,0-.211,2.857c1.637,1.651,3.288,3.289,4.929,4.937.162.164.392.288.406.563L35.6,47.5l-1.645-.039q-2.625-2.646-5.251-5.293a1.881,1.881,0,0,1-.408-.431c-.191-.4-.51-.412-.886-.412q-7.014.013-14.027,0c-.218,0-.435-.017-.652-.026a.057.057,0,0,1-.052-.056h7.092c2.563,0,5.126,0,7.689,0,.358,0,.563-.018.428-.486a1.46,1.46,0,0,1,.306-1.178c.765-1.194,2.27-1.37,2.894-.5" fill="#eeb373"/>
    <path id="Path_1635" data-name="Path 1635" d="M21.936,46.877a2.165,2.165,0,1,1,2.2-2.172,2.165,2.165,0,0,1-2.2,2.172" fill="#112250"/>
    <path id="Path_1636" data-name="Path 1636" d="M23.235,3.114c-1.074,0-2.148,0-3.222,0-.561,0-1.007-.334-1-.795a.88.88,0,0,1,.818-.935,3.529,3.529,0,0,1,.532-.047q2.923,0,5.848,0c.04,0,.079,0,.119,0,.869.019,1.27.306,1.277.914.007.641-.321.866-1.266.866h-3.1" fill="#112250"/>
    <path id="Path_1637" data-name="Path 1637" d="M33.957,47.46,35.6,47.5a2.034,2.034,0,0,0-.233,1.187q.017,1.364,0,2.727a2.251,2.251,0,0,0,.247,1.3l-1.445.01c-.139-.006-.278-.013-.417-.017a.7.7,0,0,1-.787-.812c.016-.975-.005-1.95-.011-2.925.007-.138.019-.275.02-.413.011-.914.081-.995.982-1.1" fill="#e56c14"/>
    <path id="Path_1638" data-name="Path 1638" d="M12.184,7.956A15.761,15.761,0,0,1,9.9,7.982L9.769,7.9a15.974,15.974,0,0,1-.041-2.714.641.641,0,0,1,.734-.67c.651.017,1.3.019,1.954.027a1.142,1.142,0,0,0-.243.76c.02.883.01,1.767.011,2.651" fill="#e56c14"/>
    <path id="Path_1639" data-name="Path 1639" d="M18.055,2.245a.929.929,0,0,1-.948.984.947.947,0,0,1-.981-.965A.932.932,0,0,1,17.1,1.3a.849.849,0,0,1,.959.943" fill="#112250"/>
    <path id="Path_1640" data-name="Path 1640" d="M9.769,7.9l.136.079-.122.009A.066.066,0,0,1,9.769,7.9" fill="#f77f12"/>
    <path id="Path_1641" data-name="Path 1641" d="M35.616,52.715a2.243,2.243,0,0,1-.248-1.3q.018-1.364,0-2.727A2.055,2.055,0,0,1,35.6,47.5l.612-.052c.495.017.991.05,1.486.049q4.288-.007,8.576-.026c1.048.194,1.048.194,1.048,1.307,0,.995,0,1.99,0,2.985,0,.706-.124.875-.8.9-.369.015-.411.166-.408.47.007.855-.012,1.71-.02,2.565a14.384,14.384,0,0,1-.074-2.608c-.009-.347-.093-.5-.471-.494-2.867.012-5.733.006-8.6.006-.139,0-.282-.011-.381.117l-.951-.005M44.7,51.169a1.093,1.093,0,0,0,1.069-1.108,1.1,1.1,0,0,0-1.148-1.045,1.066,1.066,0,0,0-1.005,1.1A.965.965,0,0,0,44.7,51.169" fill="#f77f12"/>
    <path id="Path_1642" data-name="Path 1642" d="M40.159,15.689A1.848,1.848,0,0,0,39.9,16.82q.012,5.79,0,11.579a1.077,1.077,0,0,0,.262.88c-.655.006-1.31.008-1.965.018-.471.007-.69-.214-.69-.687q0-6.111,0-12.221a.643.643,0,0,1,.74-.72c.635,0,1.271.013,1.906.02" fill="#a70d22"/>
    <path id="Path_1643" data-name="Path 1643" d="M40.04,9.552c-.253.343-.071.737-.128,1.1a.988.988,0,0,0,.125,1.652,2.232,2.232,0,0,0,.112,1.906c-.656.007-1.313.011-1.97.021a.571.571,0,0,1-.664-.647q0-3.495,0-6.99a.591.591,0,0,1,.669-.657c.656-.007,1.312.013,1.968.021-.435.6-.16,1.292-.238,1.939-.542.688-.508,1.134.128,1.652" fill="#f77f12"/>
    <path id="Path_1644" data-name="Path 1644" d="M43.714,22.5c0-.895-.013-1.791,0-2.686.015-.747.4-.991,1.045-.63q2.363,1.329,4.695,2.712c.6.355.6.842.007,1.2q-2.356,1.4-4.748,2.738c-.576.323-.98.076-1-.585-.022-.915-.005-1.831-.005-2.746Z" fill="#fefffe"/>
    <path id="Path_1645" data-name="Path 1645" d="M40.037,12.307a.989.989,0,0,1-.125-1.653,4.984,4.984,0,0,1,1.476-.126h9.6c.159,0,.319-.01.477,0a1.088,1.088,0,0,1,.987.95.926.926,0,0,1-1.026.838q-5.19,0-10.379,0c-.338,0-.676-.008-1.014-.013" fill="#d45c1b"/>
    <path id="Path_1646" data-name="Path 1646" d="M40.04,9.552c-.636-.518-.67-.964-.128-1.652a3,3,0,0,1,.819-.129q3.969.01,7.939,0a2.507,2.507,0,0,1,.358.009.9.9,0,0,1,.8,1.009.83.83,0,0,1-.894.773q-4.446,0-8.894-.014" fill="#d45c1b"/>
    <path id="Path_1647" data-name="Path 1647" d="M55.13,6.686c0,.318.016.636,0,.953a.588.588,0,0,1-1.168.051,4.961,4.961,0,0,1-.028-.772.928.928,0,0,0-.272-.852.494.494,0,0,1-.04-.659c.235-.385.628-.269.973-.265a.491.491,0,0,1,.519.474c.03.354.007.713.007,1.07h.013" fill="#e9f2fa"/>
    <path id="Path_1648" data-name="Path 1648" d="M31.089,39.09c-.623-.874-2.129-.7-2.894.5a1.469,1.469,0,0,0-.306,1.179c.136.467-.07.486-.428.485-2.562-.007-5.125,0-7.688,0H12.681a.53.53,0,0,1-.506-.613q0-5.23,0-10.46c0-.318.13-.431.429-.41.159.012.319,0,.478,0H32.625V40.372c-.644-.352-.915-1.029-1.536-1.282M19.078,31.314c-1.531,0-3.061,0-4.591,0-.662,0-1.082.333-1.1.841-.017.562.385.944,1.066.946q4.622.015,9.242,0a.927.927,0,0,0,1.029-.916c-.013-.529-.418-.871-1.058-.873-1.53,0-3.061,0-4.591,0m-.038,4.777h3.106c.537,0,1.076.021,1.612-.008a.935.935,0,0,0,.967-.929.9.9,0,0,0-.955-.854c-3.145-.006-6.29,0-9.436-.006a.876.876,0,0,0-.8.421.779.779,0,0,0-.026.846,1.019,1.019,0,0,0,.994.529H19.04m9.368-3.94a.867.867,0,0,0-.719,1.367,14.47,14.47,0,0,0,.941,1.308.466.466,0,0,1,.006.679c-.327.4-.628.823-.915,1.253A.89.89,0,1,0,29.163,37.8c.521-.678,1.018-1.375,1.514-2.072a.905.905,0,0,0,0-1.115c-.494-.7-1.007-1.384-1.513-2.074a.847.847,0,0,0-.76-.389M16.6,39.07c.794,0,1.588.015,2.382-.006a.907.907,0,0,0,.925-.619.9.9,0,0,0-.2-.941,1.142,1.142,0,0,0-.88-.29c-1.449-.016-2.9-.021-4.347,0a1.011,1.011,0,0,0-1.1.944,1.048,1.048,0,0,0,1.129.911c.7.01,1.389,0,2.084,0" fill="#e9f2fa"/>
    <path id="Path_1649" data-name="Path 1649" d="M12.183,27.716a1.7,1.7,0,0,1-.577-1.431c.011-1.69.014-3.38,0-5.069a1.519,1.519,0,0,1,.739-1.456c.277-.019.554-.056.831-.056q8.747,0,17.492,0c1.185,0,1.573.387,1.575,1.568q0,2.538,0,5.075c0,1.1-.417,1.519-1.515,1.52q-8.807,0-17.611,0a2.435,2.435,0,0,1-.932-.153m16.55-3.086c.4,0,.8.016,1.192.01a.887.887,0,0,0,.973-.824.977.977,0,0,0-.952-.959c-.416-.025-.834,0-1.252,0a1.641,1.641,0,0,0-2.666,0c-2.006,0-4.011-.009-6.015,0-.691,0-1.154.417-1.127.966.025.5.447.822,1.1.823q3.007,0,6.014,0a1.608,1.608,0,0,0,2.73-.015m-11.3,1.433c.418-.043.485-.335.484-.679q0-1.605,0-3.209c0-.3-.041-.555-.374-.653a21.6,21.6,0,0,0-3.8-.086c-.333,0-.505.314-.5.7.017,1.1.019,2.191,0,3.286-.008.452.221.717.615.723a29.957,29.957,0,0,0,3.57-.079" fill="#284d91"/>
    <path id="Path_1650" data-name="Path 1650" d="M21.958,18.314A4.447,4.447,0,1,1,26.4,13.868a4.457,4.457,0,0,1-4.441,4.446m-2.005-1.458a3.525,3.525,0,0,0,3.951,0,4.877,4.877,0,0,0,1.133-1.208,3.617,3.617,0,0,0-.815-4.519,3.518,3.518,0,0,0-5.555,1.31,3.454,3.454,0,0,0,1.286,4.414" fill="#e56c14"/>
    <path id="Path_1651" data-name="Path 1651" d="M44.7,51.169a.965.965,0,0,1-1.084-1.057,1.066,1.066,0,0,1,1.005-1.1,1.1,1.1,0,0,1,1.148,1.045A1.093,1.093,0,0,1,44.7,51.169" fill="#d45c1b"/>
    <path id="Path_1652" data-name="Path 1652" d="M19.078,31.314c1.53,0,3.061,0,4.591,0,.64,0,1.046.345,1.058.873A.926.926,0,0,1,23.7,33.1q-4.621.01-9.242,0c-.681,0-1.083-.385-1.066-.947.015-.508.435-.838,1.1-.84,1.53,0,3.061,0,4.591,0" fill="#4ab5ce"/>
    <path id="Path_1653" data-name="Path 1653" d="M19.04,36.09q-2.27,0-4.539,0a1.018,1.018,0,0,1-.994-.528.777.777,0,0,1,.026-.846.877.877,0,0,1,.8-.422c3.145.007,6.291,0,9.436.007a.9.9,0,0,1,.955.853.935.935,0,0,1-.967.929c-.536.03-1.075.008-1.612.008H19.04" fill="#4ab5ce"/>
    <path id="Path_1654" data-name="Path 1654" d="M28.407,32.151a.85.85,0,0,1,.761.389c.505.691,1.019,1.375,1.513,2.074a.905.905,0,0,1,0,1.115c-.5.7-.993,1.394-1.514,2.072a.89.89,0,1,1-1.441-1.043c.286-.43.588-.853.914-1.253a.465.465,0,0,0-.006-.679,14.657,14.657,0,0,1-.94-1.308.867.867,0,0,1,.718-1.367" fill="#f77f12"/>
    <path id="Path_1655" data-name="Path 1655" d="M16.6,39.071c-.695,0-1.389.008-2.084,0a1.05,1.05,0,0,1-1.129-.912,1.012,1.012,0,0,1,1.1-.944c1.449-.021,2.9-.015,4.347,0a1.142,1.142,0,0,1,.88.29.9.9,0,0,1,.2.941.907.907,0,0,1-.925.619c-.794.022-1.588.006-2.382.007" fill="#4ab5ce"/>
    <path id="Path_1656" data-name="Path 1656" d="M17.545,21.522c.334.1.376.358.375.653q-.006,1.6,0,3.209c0,.344-.067.636-.485.679-.654,0-1.309-.01-1.963,0-.441.007-.666-.177-.663-.633.005-1.13.009-2.261,0-3.392,0-.387.161-.529.537-.522.734.015,1.468,0,2.2.006" fill="#f77f12"/>
    <path id="Path_1657" data-name="Path 1657" d="M26,24.645q-3.007,0-6.015,0c-.656,0-1.077-.322-1.1-.823-.027-.549.436-.964,1.126-.966,2-.007,4.01,0,6.015,0A1.814,1.814,0,0,0,26,24.645" fill="#112250"/>
    <path id="Path_1658" data-name="Path 1658" d="M26,24.645a1.814,1.814,0,0,1,.024-1.79,1.642,1.642,0,0,1,2.667,0,1.838,1.838,0,0,1,.038,1.776A1.606,1.606,0,0,1,26,24.645" fill="#f77f12"/>
    <path id="Path_1659" data-name="Path 1659" d="M17.545,21.522c-.734,0-1.468.009-2.2-.006-.376-.007-.541.135-.537.522.011,1.131.007,2.262,0,3.392,0,.456.222.64.663.633.654-.01,1.309,0,1.963,0a29.94,29.94,0,0,1-3.569.079c-.395-.006-.624-.271-.616-.723.019-1.1.017-2.191,0-3.286-.006-.383.166-.693.5-.7a21.589,21.589,0,0,1,3.8.086" fill="#e56c14"/>
    <path id="Path_1660" data-name="Path 1660" d="M28.732,24.629a1.84,1.84,0,0,0-.038-1.777c.418,0,.836-.02,1.252,0a.978.978,0,0,1,.952.959.887.887,0,0,1-.973.825c-.4.006-.8-.007-1.193-.011" fill="#112250"/>
    <path id="Path_1661" data-name="Path 1661" d="M19.953,16.856a3.454,3.454,0,0,1-1.286-4.414,3.518,3.518,0,0,1,5.555-1.31,3.617,3.617,0,0,1,.815,4.519A4.877,4.877,0,0,1,23.9,16.859c0-.357,0-.715,0-1.073,0-.762-.1-.861-.849-.893-.156-.007-.358.1-.467-.121,1.185-1.037,1.418-2.008.7-2.876a1.754,1.754,0,0,0-2.455-.246,1.687,1.687,0,0,0-.642,1.1,1.929,1.929,0,0,0,1.128,2.009.6.6,0,0,1-.513.133c-.747.027-.85.13-.853.887,0,.358,0,.715,0,1.073" fill="#f77f12"/>
    <path id="Path_1662" data-name="Path 1662" d="M19.953,16.856c0-.358,0-.715,0-1.073,0-.757.106-.86.853-.887a.6.6,0,0,0,.513-.133,1.929,1.929,0,0,1-1.128-2.009,1.687,1.687,0,0,1,.642-1.1,1.754,1.754,0,0,1,2.455.246c.72.868.487,1.839-.7,2.876.109.218.311.114.467.121.744.032.845.131.849.893,0,.358,0,.716,0,1.073a3.525,3.525,0,0,1-3.951,0" fill="#fefffe"/>
  </g>
</svg>
