<svg xmlns="http://www.w3.org/2000/svg" xmlns:xlink="http://www.w3.org/1999/xlink" width="289.66" height="313.071" viewBox="0 0 289.66 313.071">
  <defs>
    <clipPath id="clip-path">
      <rect id="Rectangle_235" data-name="Rectangle 235" width="289.66" height="222.833" fill="none"/>
    </clipPath>
  </defs>
  <g id="Group_1638" data-name="Group 1638" transform="translate(0 32)">
    <ellipse id="Ellipse_34" data-name="Ellipse 34" cx="88" cy="89" rx="88" ry="89" transform="translate(50.83 27)" fill="#fff"/>
    <g id="Group_1637" data-name="Group 1637" transform="translate(0 -32)" clip-path="url(#clip-path)">
      <path id="Path_2159" data-name="Path 2159" d="M94.02,195.739c-5.037,1.225-10.091,2.393-15.1,3.709a2.76,2.76,0,0,1-3.492-1.238c-7.382-10.589-10.92-22.5-12.252-35.175a99.334,99.334,0,0,1,1.866-31.658c.459-2.111,1.16-3.1,3.578-3.189,5.884-.219,11.756-.8,17.655-.764a1.821,1.821,0,0,0,2.015-1.174c2.594-6.546,6.8-12.144,10.606-17.982.663-1.018,1.582-1.934,1.635-3.269h-.046a.848.848,0,0,0,.624-1.058,1.744,1.744,0,0,0,.562-1.305,1.518,1.518,0,0,0,.591-1.652c-.611-4.464-.861-8.958-1.027-13.452-.245-6.645-2.5-12.942-3.257-19.489-.455-3.928-.819-7.875.48-11.756a6.565,6.565,0,0,1,3.81-4.126c12.062-5.324,22.921-1.97,29.984,9.219,4.912,7.782,6.8,16.407,7.331,25.434.152,2.558.241,5.12.448,7.672a11.508,11.508,0,0,0,.649,2.942c1.126,3.112,1.328,3.145,4.563,2.246,8.466-2.354,17.044-4.5,25.832-4.617,11.359-.149,20.767,11.72,15.678,23.326-.779,1.778-.727,2.5,1.046,3.545,9.873,5.813,11.309,18.144,3.106,26.084a2.1,2.1,0,0,0-.421,2.991,16.188,16.188,0,0,1-2.9,19.308,3.937,3.937,0,0,0-1.27,3.894c1.61,8.217-5.062,17.059-13.226,17.614-4.9.334-9.771.326-14.66.247a6.364,6.364,0,0,0-3.162.531c-11.081,5.685-22.857,6.324-34.957,4.883-5.487-.653-10.789-2.149-16.2-3.129a3.707,3.707,0,0,0-3.481-.738c-2.18.779-4.528,1.029-6.6,2.126M104.65,57.291a.9.9,0,0,0-.989.558c-.86.634-.845,1.578-.9,2.5a29.482,29.482,0,0,0,.75,8.321c2.139,9.224,3.141,18.583,4.056,28,.578,5.927-1.291,10.593-4.466,15.144-.931,1.334-1.793,2.716-2.72,4.054-3.455,4.985-6.609,10.134-8.262,16.03-.353,1.259-1.108,1.056-1.925,1.038-5.984-.127-11.955.166-17.93.43-1.68.075-2.293.692-2.549,2.239a103.015,103.015,0,0,0-1.551,15.022c-.2,11.407,1.2,22.526,5.644,33.133a50.043,50.043,0,0,0,4.251,8.487c.571.957,1.193,1.509,2.428,1.187,5.979-1.557,12.059-2.786,17.8-5.134a6.905,6.905,0,0,1,5.086-.171,87.434,87.434,0,0,0,30.394,4.436,44.6,44.6,0,0,0,12.133-2.091c-4.9-2.025-7.238-5.614-8.581-10.006-.161-3.244-.365-6.489,1.257-9.5a.85.85,0,0,0-.335-1.2c-3.928-5.934-4.683-12.029-.864-18.315.43-.708.2-1.081-.253-1.6-4.42-5.06-5.124-10.737-2.755-16.908a32.149,32.149,0,0,1,2.283-3.485c.779-.922.828-1.4-.19-2.178a14.17,14.17,0,0,1-4.863-7.189c-1.685-5.293-.429-10.047,2.508-14.525,2.872-2.593,2.854-2.586,1.593-5.97a11.75,11.75,0,0,1-.8-2.891c-.5-5.165-.779-10.354-1.394-15.505a38.177,38.177,0,0,0-7.631-19.4c-5.395-6.906-13.935-8.652-21.357-4.466Zm50.374,130.036c1.461.145,2.92.357,4.385.423,5.078.224,10.157.357,15.175-.707a10.734,10.734,0,0,0,7.229-12.615l-2.549.982a141.511,141.511,0,0,1-27.029.158c-3.042-.438-6.171-.45-8.983-1.981-.947-.516-1.125.229-1.366.951a9.6,9.6,0,0,0,7.151,12.261c1.961.363,3.989.361,5.987.526m.491-16.739a77.8,77.8,0,0,0,14.562.493,35.658,35.658,0,0,0,8.221-.823c7.456-2.074,11.324-10.419,7.865-16.836-1-1.847-2.156-2.728-4.166-1.481a173.389,173.389,0,0,1-26.558,2.67.275.275,0,0,0-.41.028l-1,.094c-3.745-.526-7.618.3-11.281-1.1-.992-.377-1.164.529-1.487,1.073a10.294,10.294,0,0,0,5.964,15.028,27.363,27.363,0,0,0,8.287.849m15.7-70.474a92.4,92.4,0,0,0-21.463,3.679,41.311,41.311,0,0,0-7.576,2.118,9.486,9.486,0,0,0-6.22,8.024,9.964,9.964,0,0,0,4.052,9.789c.968.721,1.987,1.507,3.376,1.155,3.434-.87,6.874-1.72,10.312-2.577,8.177-1.17,16.352-2.353,24.6-2.951,1.424.38,2.326-.27,3.058-1.436a10.56,10.56,0,0,0,.473-11.2,11.906,11.906,0,0,0-10.61-6.6M157.38,149.435c9.448-.207,18.818-1.014,27.946-3.666a10.545,10.545,0,0,0,5.573-12.053,12.274,12.274,0,0,0-11.188-9.212c-2.321-.09-4.623.293-6.927.347a92.473,92.473,0,0,0-17.266,2.545,41.841,41.841,0,0,0-11.264,2.553c-4.273,1.618-6.443,5.6-6.1,10.437.33,4.637,2.83,7.76,7.452,8.875,3.881.935,7.842.44,11.773.174" transform="translate(19.966 15.835)" fill="#431710"/>
      <path id="Path_2160" data-name="Path 2160" d="M141.8,44.6a.148.148,0,0,1,.105.2c.1,1.509.576,2.727,2.284,3.016l-.02-.007.432.5.011.014c.208,1.5.677,2.81,2.368,3.222l-.016-.005.419.5.451.615c1.039,3.542,3.58,6.07,5.943,8.7.541.6,1.251.67,1.569-.356a.245.245,0,0,1,.239-.183c.633.057,1.062-.164,1.143-.849l.013-.013.468-.388.063-.045a.875.875,0,0,0,.814-.58l-.036.005a8.539,8.539,0,0,0,5.693-4.5l.062-.049c2.23-.005,3.335-1.427,4.11-3.264l.036-.026A6.122,6.122,0,0,0,169.336,51c2.382-.757,2.9-.452,3.262,1.971a3.387,3.387,0,0,0,.26,1.11c2.2,4.075,2.763,8.7,4.263,13.008.7,2,1.6,2.6,3.293,2.086,4.462-1.349,8.876-2.867,13.307-4.323,2.1-.691,4.207-1.4,6.8-2.255-1.025,2-1.724,3.45-2.508,4.855-.6,1.073-1.484,2.028-1.1,3.409l-1.842,3.572a8.664,8.664,0,0,0-1.416,2.749l-.541.9a2.08,2.08,0,0,0-.818,1.465,15.545,15.545,0,0,0-2.058,3.611,22.922,22.922,0,0,0-2.515,4.312l-8.574,14.924a7.663,7.663,0,0,1-3.518-.909c-1.92-.884-3.65-2.291-5.917-2.277l-.012.025c-.69-1.85-2.548-1.581-3.927-2.23-8.02-3.767-16.607-5.511-25.22-7.131-4.323-.814-4.28-.675-4.349-4.978-.075-4.813.9-9.531,1.214-14.312.347-5.177,1.448-10.315,1.594-15.538a19.078,19.078,0,0,1,.644-4.551,10.126,10.126,0,0,0-.133-6.361q.026-.461.054-.922l1.2.008.076.094c.009.653.154,1.207.944,1.291m29.885,18.861c-.434-1.53-.808-3.078-1.325-4.58-.3-.874-.083-2.076-1.317-2.467-3.789,2.937-7.589,5.86-11.363,8.815-3.972,3.111-3.961,3.125-6.932-.8-.934-1.234-1.859-2.474-2.792-3.708-1.462-1.936-2.927-3.87-4.721-6.241-.137,1.912-.229,3.211-.322,4.509-.3,2.689-.632,5.374-.9,8.065-.563,5.622-1.089,11.246-1.642,16.867-.1.989-.121,1.886,1.2,2.064a144.576,144.576,0,0,1,17.415,3.927A162.32,162.32,0,0,1,174.1,95.958a.693.693,0,0,0,.756.371c1.275,1.758,1.8.439,2.38-.588q6.9-12.218,13.787-24.447c.228-.406.74-.814.394-1.416-4.866,1.6-9.683,3.153-14.473,4.787-1.218.415-1.756.287-2.123-1.088-.733-2.743-1.7-5.421-2.575-8.127l-.566-1.993" transform="translate(43.404 13.768)" fill="#431710"/>
      <path id="Path_2161" data-name="Path 2161" d="M57.38,86.874c.794-2.345,1.635-4.675,2.364-7.038.4-1.3.877-1.4,1.917-.553,6.077,4.921,12.194,9.793,18.286,14.694.384.31,1.076.555.8,1.215-.193.464-.786.393-1.245.447-7.764.915-15.531,1.816-23.291,2.771-1.705.21-2.486.038-1.725-2,.476-1.269,1.192-2.542,1.089-4a15.582,15.582,0,0,0,1.8-5.545" transform="translate(17.272 25.093)" fill="#431710"/>
      <path id="Path_2162" data-name="Path 2162" d="M171.842,153.136l18.814-4.257c-1.743,6.058-3.4,11.819-5.058,17.579-.2.688-.5,1.071-1.325.67-7.439-3.609-14.891-7.193-22.923-11.066,2.858-1.513,5.521-1.646,8.026-2.263l2.467-.663" transform="translate(51.42 47.446)" fill="#f7da0f"/>
      <path id="Path_2163" data-name="Path 2163" d="M42.252,160.811l23.9-7.733c-3.533,5.7-6.706,10.83-9.881,15.955a.935.935,0,0,1-1.54.3c-4.014-2.761-8.044-5.5-12.476-8.524" transform="translate(13.465 48.784)" fill="#f7da0f"/>
      <path id="Path_2164" data-name="Path 2164" d="M84.419,93.135,69.153,82.956c3.816-2.38,7.371-4.621,10.954-6.814.81-.5,1.11.14,1.238.8.989,5.164,1.964,10.332,3.074,16.188" transform="translate(22.038 24.209)" fill="#f7da0f"/>
      <path id="Path_2165" data-name="Path 2165" d="M174.208,148.479l-9.516,1.668a15.077,15.077,0,0,1,3-3.695c2.535-2.81,5.161-5.538,7.725-8.324.667-.725,1.195-1.1,2.049-.177,2.131,2.293,4.333,4.52,6.513,6.769.959.988,1.038,1.671-.57,1.907a16.811,16.811,0,0,0-1.784.462c-1.331-.266-2.516.4-3.778.587l-1.727.3c-.765-.323-1.261.384-1.912.5" transform="translate(52.485 43.79)" fill="#431710"/>
      <path id="Path_2166" data-name="Path 2166" d="M164.174,160.848c2.636,1.6,5.25,3.237,7.919,4.779,1.342.774,1.291,1.237-.053,1.949-2.793,1.484-5.549,3.04-8.275,4.643-1.28.753-1.751.285-2.1-.959-.7-2.523-1.5-5.019-2.254-7.526-.169-2.07-1.613-3.874-1.257-6.053l-.017.024c2.254.58,3.869,2.387,6.033,3.142" transform="translate(50.385 50.251)" fill="#431710"/>
      <path id="Path_2167" data-name="Path 2167" d="M63.694,150.965c-5.02,1.147-10.038,2.3-15.062,3.43-.756.169-1.224-.121-1-1.007.038-.15.09-.3.136-.444.724-2.347.485-5.672,2.3-6.811,1.778-1.118,4.391,1.072,6.641,1.8,2.343.754,4.647,1.627,6.968,2.449l.024.588" transform="translate(15.161 46.471)" fill="#4f1511"/>
      <path id="Path_2168" data-name="Path 2168" d="M139.844,43.9a10.12,10.12,0,0,1,.133,6.363,19.122,19.122,0,0,0-.642,4.549c-.148,5.223-1.249,10.362-1.594,15.538-.32,4.78-1.291,9.5-1.215,14.312.067,4.3.025,4.166,4.348,4.978,8.612,1.621,17.2,3.364,25.22,7.131,1.379.649,3.237.38,3.928,2.23-6.214-2.367-12.334-5-18.865-6.452a135.144,135.144,0,0,0-13.942-2.486c-1.8-.207-2.167-.94-2-2.541.864-8.085,1.677-16.175,2.492-24.265.567-5.623,1.1-11.25,1.669-16.873a5.24,5.24,0,0,1,.463-2.484" transform="translate(43.08 13.991)" fill="#4f1511"/>
      <path id="Path_2169" data-name="Path 2169" d="M189.234,69.643c-.38-1.381.5-2.335,1.1-3.409.786-1.406,1.483-2.859,2.508-4.855-2.593.86-4.693,1.564-6.8,2.255-4.431,1.456-8.843,2.974-13.307,4.323-1.688.51-2.6-.087-3.293-2.087-1.5-4.311-2.062-8.931-4.263-13.006a3.454,3.454,0,0,1-.26-1.11c-.359-2.424-.881-2.728-3.262-1.971a6.122,6.122,0,0,1-1.383.113c3.841-4.018,3.973-4.013,5.583,1.141q2.253,7.2,4.329,14.465c.472,1.654,1.026,2.21,2.905,1.547,6.281-2.215,12.645-4.2,18.982-6.251.625-.2,1.236-.708,2.086-.233-1.192,3.174-3.5,5.788-4.564,9.005l-.367.075" transform="translate(51.078 14.982)" fill="#4f1511"/>
      <path id="Path_2170" data-name="Path 2170" d="M77.018,96.558,70.4,103.543c-.653.69-1.182.646-1.56-.266-.766-1.853-1.524-3.709-2.3-5.558-.328-.783-.106-1.163.756-1.162,3.136,0,6.272,0,9.719,0" transform="translate(21.161 30.771)" fill="#f7da0f"/>
      <path id="Path_2171" data-name="Path 2171" d="M152.535,58.718c-.318,1.027-1.029.959-1.569.356-2.363-2.632-4.9-5.16-5.943-8.7,2.054,1.991,3.467,4.486,5.262,6.68.6.727.944,1.867,2.251,1.664" transform="translate(46.217 16.053)" fill="#4f1511"/>
      <path id="Path_2172" data-name="Path 2172" d="M161.611,85.667c2.266-.013,4,1.4,5.914,2.277a7.661,7.661,0,0,0,3.518.91c-.185,1.077-.936,1.22-1.709.815-2.569-1.346-5.334-2.312-7.724-4" transform="translate(51.503 27.301)" fill="#4f1511"/>
      <path id="Path_2173" data-name="Path 2173" d="M158.463,51.729a8.539,8.539,0,0,1-5.693,4.5,23.88,23.88,0,0,1,5.693-4.5" transform="translate(48.686 16.485)" fill="#4f1511"/>
      <path id="Path_2174" data-name="Path 2174" d="M161.244,49.218c-.775,1.837-1.88,3.258-4.11,3.264a13.81,13.81,0,0,1,4.11-3.264" transform="translate(50.076 15.685)" fill="#4f1511"/>
      <path id="Path_2175" data-name="Path 2175" d="M142.809,47.429c-1.708-.289-2.186-1.506-2.284-3.015a6.958,6.958,0,0,1,2.284,3.015" transform="translate(44.783 14.154)" fill="#4f1511"/>
      <path id="Path_2176" data-name="Path 2176" d="M144.946,50.309c-1.692-.411-2.16-1.721-2.368-3.222a8.831,8.831,0,0,1,2.368,3.222" transform="translate(45.438 15.006)" fill="#4f1511"/>
      <path id="Path_2177" data-name="Path 2177" d="M139.233,42.146a.352.352,0,0,0,.239.153q.251.625.5,1.249l-1.2-.008a1.151,1.151,0,0,1,.462-1.394" transform="translate(44.207 13.431)" fill="#4f1511"/>
      <path id="Path_2178" data-name="Path 2178" d="M140.673,44.57c-.789-.083-.934-.637-.944-1.29a1.629,1.629,0,0,1,.944,1.29" transform="translate(44.53 13.793)" fill="#4f1511"/>
      <path id="Path_2179" data-name="Path 2179" d="M152.043,55.919c-.082.686-.509.906-1.143.851a1.552,1.552,0,0,1,1.143-.851" transform="translate(48.09 17.821)" fill="#4f1511"/>
      <path id="Path_2180" data-name="Path 2180" d="M152.994,55.14a.876.876,0,0,1-.814.582.9.9,0,0,1,.814-.582" transform="translate(48.498 17.572)" fill="#4f1511"/>
      <path id="Path_2181" data-name="Path 2181" d="M144.781,50.028l-.418-.5.418.5" transform="translate(46.007 15.784)" fill="#4f1511"/>
      <path id="Path_2182" data-name="Path 2182" d="M142.675,47.2q-.216-.251-.433-.5.218.251.433.5" transform="translate(45.331 14.881)" fill="#4f1511"/>
      <path id="Path_2183" data-name="Path 2183" d="M152.245,55.615l-.468.388.468-.388" transform="translate(48.369 17.724)" fill="#4f1511"/>
      <path id="Path_2184" data-name="Path 2184" d="M132.782,103.726c-2.937,4.48-4.193,9.233-2.508,14.525a14.16,14.16,0,0,0,4.862,7.189c1.019.781.969,1.257.191,2.178a32.1,32.1,0,0,0-2.284,3.485c-1.249-.314-1.313-1.636-2.031-2.416-2.09-2.268-3.208-2.26-5.2.1-2.421,2.875-3.765,6.392-5.794,9.5-3.824,5.866-7.82,11.532-13.99,15.257a23.847,23.847,0,0,0-5.169,3.525c-1.727,1.788-1.621,2.487.742,3.43a24.1,24.1,0,0,0,5.875,1.319c7.977,1.042,15.959,2,23.632,4.647,1.87.644,3.7,1.662,5.807,1.456a.85.85,0,0,1,.334,1.2c-1.621,3.016-1.418,6.261-1.255,9.505-1.461.157-2.918.356-4.382.464-6.109.447-12.22-.024-18.331-.034-.764,0-1.526-.232-2.293-.289-1.494-.109-1.39-.728-.716-1.774.873-1.356,2.04-3.075.907-4.423-1.048-1.248-2.731.073-4.084.468-6.835,2-13.614,4.178-20.6,5.644-4.692.984-9.344,2.15-14.015,3.235-4.448-10.608-5.848-21.725-5.644-33.133a103.034,103.034,0,0,1,1.549-15.022c.256-1.546.869-2.164,2.549-2.238,5.976-.264,11.947-.558,17.93-.43.819.017,1.572.22,1.925-1.039,1.652-5.895,4.807-11.045,8.262-16.029.927-1.338,1.789-2.72,2.72-4.055,3.177-4.551,5.044-9.216,4.468-15.144-.915-9.415-1.917-18.774-4.058-28a29.525,29.525,0,0,1-.749-8.321c.051-.926.037-1.87.9-2.5a1.211,1.211,0,0,0,.99-.558l-.131.037c1.4.042,2.8.032,4.185.136,6.754.506,12.158,3.109,15.323,9.514a44.118,44.118,0,0,1,3.944,13.275c1.274,8.626,1.845,17.417,6.138,25.31" transform="translate(21.294 17.672)" fill="#fcc29e"/>
      <path id="Path_2185" data-name="Path 2185" d="M71.114,153.746c4.671-1.085,9.323-2.251,14.015-3.235,6.984-1.466,13.763-3.647,20.6-5.644,1.353-.4,3.036-1.716,4.084-.468,1.133,1.348-.034,3.069-.907,4.423-.674,1.046-.778,1.664.716,1.774.767.057,1.53.287,2.293.289,6.111.012,12.222.481,18.331.034,1.464-.108,2.921-.307,4.382-.464,1.341,4.393,3.679,7.979,8.579,10.006a44.648,44.648,0,0,1-12.132,2.09,87.4,87.4,0,0,1-30.394-4.436,6.915,6.915,0,0,0-5.087.171c-5.739,2.347-11.819,3.578-17.8,5.135-1.236.322-1.858-.231-2.428-1.188a49.851,49.851,0,0,1-4.251-8.487" transform="translate(22.663 45.851)" fill="#e1883f"/>
      <path id="Path_2186" data-name="Path 2186" d="M163.733,127.691c-9.128,2.652-18.5,3.459-27.946,3.666-.2-.82-.922-1.218-1.424-1.793a15.023,15.023,0,0,1-3.8-12.406c.394-2.972,2.364-5.178,3.367-7.84a92.474,92.474,0,0,1,17.266-2.546c2.3-.053,4.606-.435,6.927-.346.051.742.676.947,1.172,1.311,6.245,4.571,9.2,10.27,4.846,18.174a3.657,3.657,0,0,0-.4,1.78" transform="translate(41.558 33.912)" fill="#fcc29e"/>
      <path id="Path_2187" data-name="Path 2187" d="M128.975,150.635c-2.106.206-3.938-.812-5.808-1.456-7.673-2.641-15.654-3.6-23.632-4.647a24.1,24.1,0,0,1-5.875-1.319c-2.363-.943-2.47-1.64-.742-3.429a23.886,23.886,0,0,1,5.169-3.526c6.17-3.725,10.166-9.392,13.991-15.256,2.028-3.111,3.372-6.628,5.793-9.5,1.991-2.364,3.109-2.372,5.2-.1.717.779.782,2.1,2.031,2.416-2.368,6.173-1.664,11.85,2.756,16.908.451.517.683.89.253,1.6-3.819,6.285-3.065,12.38.864,18.314" transform="translate(29.236 34.964)" fill="#e1883f"/>
      <path id="Path_2188" data-name="Path 2188" d="M129.265,91.606a92.4,92.4,0,0,1,21.463-3.679c1.009.695,1.989,1.433,3.03,2.076,3.815,2.349,5.52,5.7,5.556,10.215.018,2.509-1.407,4.555-1.507,6.947-8.246.6-16.42,1.782-24.6,2.951-3.911-3.053-6.637-6.662-6.222-12.016.187-2.42,1.5-4.337,2.277-6.493" transform="translate(40.456 28.021)" fill="#fcc29e"/>
      <path id="Path_2189" data-name="Path 2189" d="M133.86,129.9a173.425,173.425,0,0,0,26.558-2.67c2.984,5.225,3.228,10.279-.8,15.16-.915,1.108-2.384,1.694-2.9,3.158a35.721,35.721,0,0,1-8.219.822,77.81,77.81,0,0,1-14.562-.493,2.168,2.168,0,0,0-.517-1.486c-4.261-4.524-3.574-9.381-.967-14.367l1-.095.41-.028" transform="translate(41.544 40.546)" fill="#fcc29e"/>
      <path id="Path_2190" data-name="Path 2190" d="M130.709,145.186a141.5,141.5,0,0,0,27.028-.158,13.741,13.741,0,0,1-2.244,8.7c-.723,1.084-2.151,1.531-2.434,2.933-5.02,1.064-10.1.931-15.175.707-1.465-.066-2.924-.278-4.385-.423-2.5-3.546-4.2-7.283-2.789-11.757" transform="translate(41.492 46.218)" fill="#fcc29e"/>
      <path id="Path_2191" data-name="Path 2191" d="M137.28,108.616c-1,2.661-2.974,4.867-3.368,7.841a15.022,15.022,0,0,0,3.806,12.4c.5.575,1.229.973,1.423,1.793-3.93.265-7.892.761-11.773-.174-4.622-1.114-7.121-4.238-7.451-8.875-.344-4.838,1.825-8.821,6.1-10.439a41.9,41.9,0,0,1,11.266-2.552" transform="translate(38.204 34.614)" fill="#e1883f"/>
      <path id="Path_2192" data-name="Path 2192" d="M123.992,104.261c-4.294-7.892-4.865-16.684-6.138-25.31a44.119,44.119,0,0,0-3.944-13.275c-3.165-6.4-8.569-9.008-15.323-9.514-1.39-.1-2.789-.094-4.186-.136,7.422-4.187,15.961-2.44,21.357,4.465a38.164,38.164,0,0,1,7.63,19.4c.615,5.151.9,10.341,1.394,15.506a11.77,11.77,0,0,0,.8,2.891c1.261,3.384,1.278,3.377-1.593,5.968" transform="translate(30.084 17.137)" fill="#f9f5f3"/>
      <path id="Path_2193" data-name="Path 2193" d="M132.064,90.717c-.774,2.156-2.09,4.073-2.277,6.493-.415,5.354,2.31,8.963,6.222,12.016-3.438.857-6.878,1.706-10.312,2.577-1.389.352-2.408-.434-3.376-1.155a9.964,9.964,0,0,1-4.052-9.789,9.486,9.486,0,0,1,6.22-8.024,41.31,41.31,0,0,1,7.576-2.118" transform="translate(37.657 28.91)" fill="#e1883f"/>
      <path id="Path_2194" data-name="Path 2194" d="M135.371,129.635c-2.607,4.986-3.3,9.843.967,14.367a2.168,2.168,0,0,1,.516,1.487,27.41,27.41,0,0,1-8.287-.851,10.294,10.294,0,0,1-5.964-15.028c.323-.545.5-1.451,1.487-1.073,3.663,1.391,7.538.571,11.281,1.1" transform="translate(38.627 40.935)" fill="#e1883f"/>
      <path id="Path_2195" data-name="Path 2195" d="M133.2,145.668c-1.412,4.474.286,8.211,2.789,11.757-2-.165-4.026-.163-5.987-.526a9.6,9.6,0,0,1-7.151-12.261c.24-.721.418-1.466,1.366-.951,2.811,1.531,5.941,1.543,8.983,1.981" transform="translate(39.004 45.737)" fill="#e1883f"/>
      <path id="Path_2196" data-name="Path 2196" d="M157.036,127.688a3.657,3.657,0,0,1,.4-1.78c4.357-7.9,1.4-13.6-4.846-18.174-.5-.364-1.121-.568-1.172-1.311a12.271,12.271,0,0,1,11.188,9.211,10.546,10.546,0,0,1-5.573,12.054" transform="translate(48.256 33.916)" fill="#f5ede8"/>
      <path id="Path_2197" data-name="Path 2197" d="M152.06,107.164c.1-2.392,1.526-4.437,1.506-6.947-.034-4.51-1.739-7.866-5.554-10.215-1.042-.641-2.023-1.381-3.03-2.076a11.908,11.908,0,0,1,10.61,6.6,10.56,10.56,0,0,1-.473,11.2c-.732,1.166-1.634,1.816-3.058,1.436" transform="translate(46.203 28.021)" fill="#f5ede8"/>
      <path id="Path_2198" data-name="Path 2198" d="M150.349,145.687c.51-1.464,1.979-2.051,2.895-3.158,4.033-4.88,3.789-9.934.8-15.158,2.01-1.249,3.17-.368,4.166,1.481,3.459,6.417-.409,14.76-7.865,16.836" transform="translate(47.914 40.406)" fill="#f5ede8"/>
      <path id="Path_2199" data-name="Path 2199" d="M147.533,156.9c.284-1.4,1.712-1.849,2.434-2.931a13.743,13.743,0,0,0,2.244-8.7l2.55-.984a10.735,10.735,0,0,1-7.229,12.615" transform="translate(47.017 45.981)" fill="#f5ede8"/>
      <path id="Path_2200" data-name="Path 2200" d="M91.34,91.889a.975.975,0,0,1,.622-1.056.846.846,0,0,1-.622,1.056" transform="translate(29.106 28.947)" fill="#e40c34"/>
      <path id="Path_2201" data-name="Path 2201" d="M94.739,55.455a1.211,1.211,0,0,1-.99.558.9.9,0,0,1,.99-.558" transform="translate(29.877 17.671)" fill="#f9f5f3"/>
      <path id="Path_2202" data-name="Path 2202" d="M133.113,129.274l-.41.028a.275.275,0,0,1,.41-.028" transform="translate(42.291 41.173)" fill="#f4926d"/>
      <path id="Path_2203" data-name="Path 2203" d="M172.483,93.235a162.435,162.435,0,0,0-15.127-6.053l1.072-4.407c2.392-1.708,4.755-3.456,7.188-5.1a1.73,1.73,0,0,0,.633-2.374c-.931-2.62-1.826-5.254-2.735-7.882.89-2.992,1.782-5.983,2.743-9.214A7.762,7.762,0,0,0,162.939,60c-3.177,2.324-6.384,4.615-9.444,7.088-1.589,1.283-2.4.837-3.568-.562-2.865-3.431-5.333-7.2-8.637-10.263l.32-4.509c1.795,2.371,3.26,4.306,4.722,6.241.932,1.234,1.858,2.474,2.792,3.708,2.97,3.927,2.96,3.913,6.932.8,3.774-2.955,7.575-5.877,11.361-8.813,1.567,2.487.869,5.585,2.194,8.136l.069,1.08c-.149.451-.289.9.177,1.267.138.346.276.691.414,1.036a1.028,1.028,0,0,0,.232,1.253q.083.781.167,1.563a6.837,6.837,0,0,0,.764,3.553q.093.783.185,1.569c.022,1.1-.038,2.4,1.652,1.933,1.837-.5,3.8-.585,5.5-1.548l1.1-.2c.872.258,1.961-.9,2.569.076.549.88-.546,1.654-.877,2.483-.622,1.561-1.733,2.9-2.124,4.575q-.279.548-.557,1.1a1.2,1.2,0,0,0-.732,1.257l-.249.645a8.392,8.392,0,0,0-2.086,4l-.5.861a5.12,5.12,0,0,0-1.431,2.85q-.461.882-.923,1.767l-.481.289" transform="translate(45.027 16.492)" fill="#f7da0f"/>
      <path id="Path_2204" data-name="Path 2204" d="M159.053,81.686l-1.072,4.406a144.378,144.378,0,0,0-17.415-3.926c-1.317-.179-1.294-1.075-1.2-2.064.551-5.622,1.079-11.247,1.642-16.867.269-2.691.6-5.378.9-8.065,3.3,3.059,5.772,6.831,8.637,10.263,1.168,1.4,1.979,1.845,3.568.56,3.061-2.471,6.268-4.763,9.446-7.088a7.767,7.767,0,0,1,3.318-1.792c-.963,3.231-1.853,6.222-2.743,9.212-2.554,1.182-4.5,3.251-6.857,4.706a1.975,1.975,0,0,0-.876,2.734c.931,2.623,1.77,5.277,2.647,7.92" transform="translate(44.403 17.582)" fill="#e58213"/>
      <path id="Path_2205" data-name="Path 2205" d="M171.979,78.909q.279-.548.555-1.1c2.2-1.838,2.815-4.578,3.95-7.015.332-.715-.2-1.153-.947-1.18-1.009-.038-2.015-.024-2.569,1.06l-1.1.2c-1.207-.841-2.218.125-3.274.409-1.466.394-2.822.626-3.882-.794l-.186-1.568a2.7,2.7,0,0,0-.764-3.554q-.083-.781-.167-1.561c.51-.526.472-.952-.232-1.254q-.208-.518-.411-1.035c.65-.237.554-.828.632-1.336l.137-.112c.872,2.706,1.842,5.384,2.575,8.127.367,1.377.9,1.5,2.123,1.089,4.789-1.635,9.607-3.186,14.473-4.788.344.6-.166,1.01-.394,1.416q-6.872,12.236-13.788,24.448c-.58,1.027-1.1,2.345-2.378.588-.091-.22-.183-.439-.274-.659l.923-1.766a2.7,2.7,0,0,0,1.431-2.851l.5-.86a5.263,5.263,0,0,0,2.086-4l.248-.645c.563-.232,1.361-.331.733-1.258" transform="translate(51.931 19.144)" fill="#f5ede8"/>
      <path id="Path_2206" data-name="Path 2206" d="M163.3,61.356c-1.327-2.552-.628-5.649-2.194-8.136,1.236.389,1.019,1.59,1.32,2.465.516,1.5.89,3.051,1.321,4.576.484.618-.153.787-.447,1.1" transform="translate(51.341 16.96)" fill="#fcc29e"/>
      <path id="Path_2207" data-name="Path 2207" d="M162.767,59.655c.294-.309.931-.477.447-1.1.191.669.38,1.332.568,2l-.136.112-.811.067Z" transform="translate(51.872 18.662)" fill="#f5ede8"/>
      <path id="Path_2208" data-name="Path 2208" d="M165.425,82.99l.273.659a.693.693,0,0,1-.754-.371l.481-.289" transform="translate(52.565 26.448)" fill="#fcc29e"/>
      <path id="Path_2209" data-name="Path 2209" d="M158.218,157.736l-.3-.041c.013-.061.026-.123.041-.185l.243.249Z" transform="translate(50.326 50.197)" fill="#431710"/>
      <path id="Path_2210" data-name="Path 2210" d="M154.979,78.99c-.877-2.643-1.716-5.3-2.647-7.92a1.975,1.975,0,0,1,.876-2.734c2.359-1.457,4.3-3.525,6.857-4.706.909,2.628,1.8,5.262,2.735,7.882a1.731,1.731,0,0,1-.634,2.374c-2.432,1.648-4.8,3.4-7.187,5.1" transform="translate(48.477 20.278)" fill="#431710"/>
      <path id="Path_2211" data-name="Path 2211" d="M170.653,68.375c.554-1.084,1.56-1.1,2.569-1.062.745.028,1.279.465.945,1.182-1.133,2.437-1.753,5.176-3.948,7.015.393-1.675,1.5-3.015,2.126-4.576.331-.831,1.425-1.6.877-2.483-.608-.972-1.7.182-2.569-.077" transform="translate(54.246 21.449)" fill="#fcc29e"/>
      <path id="Path_2212" data-name="Path 2212" d="M164.289,67.974c1.062,1.42,2.416,1.187,3.882.794,1.058-.284,2.069-1.25,3.274-.409-1.708.963-3.667,1.046-5.5,1.548-1.692.463-1.631-.829-1.652-1.933" transform="translate(52.357 21.662)" fill="#fcc29e"/>
      <path id="Path_2213" data-name="Path 2213" d="M163.575,64.09a2.7,2.7,0,0,1,.763,3.554,6.859,6.859,0,0,1-.763-3.554" transform="translate(52.121 20.425)" fill="#fcc29e"/>
      <path id="Path_2214" data-name="Path 2214" d="M169.558,75.8a5.258,5.258,0,0,1-2.086,4,8.386,8.386,0,0,1,2.086-4" transform="translate(53.371 24.156)" fill="#fcc29e"/>
      <path id="Path_2215" data-name="Path 2215" d="M167.44,79.489a2.7,2.7,0,0,1-1.431,2.851,5.12,5.12,0,0,1,1.431-2.851" transform="translate(52.905 25.332)" fill="#fcc29e"/>
      <path id="Path_2216" data-name="Path 2216" d="M169.978,74.357c.628.927-.17,1.026-.733,1.258a1.2,1.2,0,0,1,.733-1.258" transform="translate(53.933 23.697)" fill="#fcc29e"/>
      <path id="Path_2217" data-name="Path 2217" d="M162.854,60.224l.811-.067c-.078.508.018,1.1-.633,1.336-.467-.367-.328-.816-.178-1.269" transform="translate(51.854 19.171)" fill="#fcc29e"/>
      <path id="Path_2218" data-name="Path 2218" d="M163.295,61.955c.7.3.742.729.232,1.254a1.03,1.03,0,0,1-.232-1.254" transform="translate(52.002 19.744)" fill="#fcc29e"/>
      <path id="Path_2219" data-name="Path 2219" d="M29.877,114.882A13.706,13.706,0,1,1,16.17,101.176a13.706,13.706,0,0,1,13.706,13.706" transform="translate(0.786 32.243)" fill="#dd8740"/>
      <path id="Path_2220" data-name="Path 2220" d="M29.877,114.882A13.706,13.706,0,1,1,16.17,101.176,13.706,13.706,0,0,1,29.877,114.882Z" transform="translate(0.786 32.243)" fill="none" stroke="#f3cca9" stroke-width="4.93"/>
      <path id="Path_2221" data-name="Path 2221" d="M223.2,101.2a11.682,11.682,0,1,1-11.682-11.682A11.683,11.683,0,0,1,223.2,101.2" transform="translate(63.686 28.527)" fill="#dd8740"/>
      <path id="Path_2222" data-name="Path 2222" d="M223.2,101.2a11.682,11.682,0,1,1-11.682-11.682A11.683,11.683,0,0,1,223.2,101.2Z" transform="translate(63.686 28.527)" fill="none" stroke="#f3cca9" stroke-width="4.202"/>
      <path id="Path_2223" data-name="Path 2223" d="M132.834,11.762a9.969,9.969,0,1,1-9.969-9.969,9.97,9.97,0,0,1,9.969,9.969" transform="translate(35.979 0.571)" fill="#dd8740"/>
      <path id="Path_2224" data-name="Path 2224" d="M132.834,11.762a9.969,9.969,0,1,1-9.969-9.969A9.97,9.97,0,0,1,132.834,11.762Z" transform="translate(35.979 0.571)" fill="none" stroke="#f3cca9" stroke-width="3.586"/>
      <line id="Line_53" data-name="Line 53" x2="17.85" y2="7.809" transform="translate(48.992 35.243)" fill="none" stroke="#f3cca9" stroke-width="3.586"/>
      <line id="Line_54" data-name="Line 54" x1="8.925" y2="17.292" transform="translate(52.898 30.223)" fill="none" stroke="#f3cca9" stroke-width="3.586"/>
      <line id="Line_55" data-name="Line 55" x2="17.85" y2="7.809" transform="translate(233.32 33.849)" fill="none" stroke="#f3cca9" stroke-width="3.586"/>
      <line id="Line_56" data-name="Line 56" x1="8.925" y2="17.292" transform="translate(237.225 28.828)" fill="none" stroke="#f3cca9" stroke-width="3.586"/>
    </g>
    <rect id="Rectangle_16" data-name="Rectangle 16" width="152" height="10" rx="5" transform="translate(72.83 241)" fill="#989898" opacity="0.316"/>
  </g>
</svg>
