<svg xmlns="http://www.w3.org/2000/svg" xmlns:xlink="http://www.w3.org/1999/xlink" width="27.377" height="34.837" viewBox="0 0 27.377 34.837">
  <defs>
    <clipPath id="clip-path">
      <rect id="Rectangle_253" data-name="Rectangle 253" width="27.377" height="34.837" transform="translate(0 0)" fill="none"/>
    </clipPath>
  </defs>
  <g id="Group_1667" data-name="Group 1667" transform="translate(0 0)">
    <g id="Group_1666" data-name="Group 1666" clip-path="url(#clip-path)">
      <path id="Path_3229" data-name="Path 3229" d="M4.978,19.9q0-5.536,0-11.074A3.713,3.713,0,0,1,8.845,4.975H23.494a3.71,3.71,0,0,1,3.868,3.886c0,7.357-.023,14.714.015,22.071a3.869,3.869,0,0,1-3.921,3.9q-7.284-.073-14.571,0a3.87,3.87,0,0,1-3.924-3.943c.06-3.664.017-7.33.017-11m19.9,0V8.948a1.3,1.3,0,0,0-1.467-1.486H8.919A1.288,1.288,0,0,0,7.465,8.919V30.866A1.3,1.3,0,0,0,8.95,32.334H23.361c1.046,0,1.514-.469,1.514-1.517V19.9" fill="#050606"/>
      <path id="Path_3230" data-name="Path 3230" d="M0,16.57q0-5.149,0-10.3A6.2,6.2,0,0,1,6.269,0q6.8,0,13.6,0a1.257,1.257,0,0,1,1.267,1.03,1.277,1.277,0,0,1-.887,1.415,1.752,1.752,0,0,1-.539.04q-6.665,0-13.329,0a3.729,3.729,0,0,0-3.77,2.849,4.554,4.554,0,0,0-.123,1.153q0,10.395,0,20.79a1.231,1.231,0,0,1-.874,1.271,1.24,1.24,0,0,1-1.377-.458A1.314,1.314,0,0,1,0,27.256Q.007,21.913,0,16.57" fill="#050606"/>
    </g>
  </g>
</svg>
