<svg xmlns="http://www.w3.org/2000/svg" xmlns:xlink="http://www.w3.org/1999/xlink" width="279.658" height="286.071" viewBox="0 0 279.658 286.071">
  <defs>
    <clipPath id="clip-path">
      <rect id="Rectangle_15" data-name="Rectangle 15" width="279.658" height="225.739" fill="none"/>
    </clipPath>
    <clipPath id="clip-path-2">
      <rect id="Rectangle_216" data-name="Rectangle 216" width="171.093" height="172.971" fill="none"/>
    </clipPath>
  </defs>
  <g id="Group_25" data-name="Group 25" transform="translate(0 -3)">
    <g id="Group_24" data-name="Group 24" transform="translate(0 3)" clip-path="url(#clip-path)">
      <path id="Path_162" data-name="Path 162" d="M23.252,111.57a10.394,10.394,0,1,1-10.394-10.394A10.394,10.394,0,0,1,23.252,111.57" fill="#f5f5f5"/>
      <path id="Path_163" data-name="Path 163" d="M23.252,111.57a10.394,10.394,0,1,1-10.394-10.394A10.394,10.394,0,0,1,23.252,111.57Z" fill="none" stroke="#f3cca9" stroke-width="4.93"/>
      <path id="Path_164" data-name="Path 164" d="M277.557,98.373a8.859,8.859,0,1,1-8.859-8.859,8.859,8.859,0,0,1,8.859,8.859" fill="#f5f5f5"/>
      <path id="Path_165" data-name="Path 165" d="M277.557,98.373a8.859,8.859,0,1,1-8.859-8.859A8.859,8.859,0,0,1,277.557,98.373Z" fill="none" stroke="#f3cca9" stroke-width="4.202"/>
      <path id="Path_166" data-name="Path 166" d="M128.016,9.353a7.56,7.56,0,1,1-7.56-7.56,7.56,7.56,0,0,1,7.56,7.56" fill="#f5f5f5"/>
      <path id="Path_167" data-name="Path 167" d="M128.016,9.353a7.56,7.56,0,1,1-7.56-7.56A7.56,7.56,0,0,1,128.016,9.353Z" fill="none" stroke="#f3cca9" stroke-width="3.586"/>
      <line id="Line_14" data-name="Line 14" x2="13.536" y2="5.922" transform="translate(37.152 26.726)" fill="none" stroke="#f3cca9" stroke-width="3.586"/>
      <line id="Line_15" data-name="Line 15" x1="6.768" y2="13.113" transform="translate(40.114 22.919)" fill="none" stroke="#f3cca9" stroke-width="3.586"/>
      <line id="Line_16" data-name="Line 16" x2="13.536" y2="5.922" transform="translate(216.934 25.669)" fill="none" stroke="#f3cca9" stroke-width="3.586"/>
      <line id="Line_17" data-name="Line 17" x1="6.768" y2="13.113" transform="translate(219.895 21.862)" fill="none" stroke="#f3cca9" stroke-width="3.586"/>
    </g>
    <g id="Group_1586" data-name="Group 1586" transform="translate(73 50)">
      <rect id="Rectangle_217" data-name="Rectangle 217" width="113" height="157" transform="translate(18 3)" fill="#e79f54"/>
      <g id="Group_1585" data-name="Group 1585" transform="translate(-5 -4)" clip-path="url(#clip-path-2)">
        <path id="Path_2113" data-name="Path 2113" d="M126.753.018c1.044.536,2.247.651,3.258,1.3,2.811,1.8,4.606,4.318,4.634,7.667.095,11.646.053,23.294.038,34.94A3.247,3.247,0,0,1,131.6,47.3a3.342,3.342,0,0,1-3.249-3.575c-.024-6.035-.008-12.071-.008-18.106q0-7.622,0-15.246c-.006-2.8-1.175-3.995-3.933-3.995q-57.014-.007-114.026,0c-2.862,0-4.007,1.171-4.007,4.083q0,70.914,0,141.826c0,2.859,1.176,4.016,4.072,4.016q56.934,0,113.867,0c2.866,0,4.023-1.171,4.025-4.063.007-7.305-.007-14.612.008-21.917.006-2.669,1.884-4.292,4.1-3.587a2.914,2.914,0,0,1,2.227,2.93c.022,8.153.106,16.307-.057,24.457-.086,4.359-4.2,8.212-8.6,8.5-.686.045-1.376.032-2.063.033H10.881c-5.721,0-8.344-1.752-10.538-7.024-.05-.118-.214-.189-.325-.283V7.324c.532-.217.464-.767.624-1.175A9.7,9.7,0,0,1,5.852.736C6.348.508,7,.6,7.323.018Z" transform="translate(4.688 3.75)" fill="#070808" stroke="#000" stroke-width="1.5"/>
        <path id="Path_2115" data-name="Path 2115" d="M168.9,55.447a14.1,14.1,0,0,1-2.125,7.463q-19.609,33.966-39.223,67.927a6.766,6.766,0,0,1-1.887,2.1q-9.516,6.982-19.007,14a9.21,9.21,0,0,1-1.05.706c-2.327,1.268-4.87-.176-4.7-2.828.234-3.687.7-7.36,1.1-11.034.465-4.252,1.026-8.495,1.427-12.752a9.989,9.989,0,0,1,1.323-4.17Q120.941,88.883,137.106,60.9c2.585-4.472,4.917-9.1,7.87-13.346A13.191,13.191,0,0,1,158.139,42.5c5.614,1.311,9.581,5.328,10.486,10.559a9.643,9.643,0,0,1,.277,2.389m-13.748,14.79c.01-.5-.49-.572-.809-.759-3.238-1.883-6.518-3.7-9.714-5.647-1.083-.661-1.522-.654-2.21.544q-15.205,26.492-30.544,52.909c-.549.946-.672,1.4.465,2.013,3.249,1.752,6.428,3.635,9.595,5.534.956.573,1.409.585,2.037-.51q15.284-26.629,30.666-53.2c.158-.274.318-.547.513-.882m-.569-21.564a6.226,6.226,0,0,0-4.729,3.023c-1.054,1.636-1.974,3.358-2.991,5.019-.333.544-.387.856.263,1.224q5.294,2.994,10.539,6.078c.571.335.912.36,1.256-.274.979-1.8,2.136-3.526,2.977-5.39,2.071-4.584-1.275-9.653-7.315-9.679m-46.606,89.379,10.582-7.819c-2.786-1.621-5.355-3.067-7.87-4.6-1.063-.649-1.375-.443-1.487.765-.35,3.78-.787,7.551-1.226,11.655" transform="translate(-1.577 1.13)" fill="#070808"/>
        <path id="Path_2116" data-name="Path 2116" d="M99.1,47.516A29.222,29.222,0,1,1,69.869,18.307,29.3,29.3,0,0,1,99.1,47.516M51.554,60.964a25.655,25.655,0,0,1,3.781-4.2,20.76,20.76,0,0,1,4.748-3.132c.59-.281.633-.592.279-1.095-1.949-2.766-2.1-5.921-1.879-9.124A11.439,11.439,0,0,1,73.406,33.336c8.751,2.867,9.509,13.255,6.215,18.839-.488.828-.564,1.2.37,1.646a20.113,20.113,0,0,1,7.584,6.347c.526.712.79.785,1.3-.022A22.175,22.175,0,0,0,92.2,42.893C89.517,30.822,78.973,23.46,66.706,24.953,49.867,27,41.249,47.187,51.554,60.964m18.211,9.47A23.8,23.8,0,0,0,82.836,66.3c.578-.4.834-.63.372-1.317a15.877,15.877,0,0,0-26.63-.038c-.418.62-.328.9.309,1.336a24.033,24.033,0,0,0,12.877,4.151M75,45.158l-.047,0c0-.37.019-.74,0-1.108A5.021,5.021,0,0,0,70.4,39.218a4.922,4.922,0,0,0-5.453,3.97,9.29,9.29,0,0,0,.048,4.236,5.033,5.033,0,0,0,4.929,3.91A5.118,5.118,0,0,0,74.85,47.2,15.242,15.242,0,0,0,75,45.158" transform="translate(2.165 2.615)" fill="#070808"/>
        <path id="Path_2117" data-name="Path 2117" d="M64.346,91.46c7.355,0,14.709-.014,22.064.008,2.739.007,4.433,2.3,3.338,4.5a3.413,3.413,0,0,1-3.4,1.858c-3.81-.028-7.619-.009-11.429-.009H43.014c-.423,0-.849.025-1.269-.012a3.165,3.165,0,0,1,.061-6.329c.685-.05,1.375-.012,2.063-.012H64.346" transform="translate(2.29 -1.927)" fill="#070808"/>
        <path id="Path_2118" data-name="Path 2118" d="M64.515,110.427q10.952,0,21.906.006c1.926,0,3.188.9,3.551,2.511a3.015,3.015,0,0,1-1.5,3.37,3.984,3.984,0,0,1-2.292.474c-3.756-.013-7.514-.006-11.27-.006H43.322c-.37,0-.741.007-1.11,0-2.119-.055-3.606-1.395-3.577-3.217a3.308,3.308,0,0,1,3.5-3.134c.37-.012.741,0,1.11,0H64.515" transform="translate(2.29 -3.106)" fill="#070808"/>
        <path id="Path_2119" data-name="Path 2119" d="M64.346,129.393c7.355,0,14.709-.014,22.064.007,2.739.008,4.432,2.3,3.337,4.5a3.415,3.415,0,0,1-3.4,1.857c-3.916-.028-7.831-.009-11.746-.009H43.013c-.423,0-.849.025-1.269-.012a3.164,3.164,0,0,1,.063-6.328c.79-.054,1.587-.013,2.38-.013H64.346" transform="translate(2.29 -4.283)" fill="#070808"/>
        <path id="Path_2120" data-name="Path 2120" d="M80.076,154.714c-2.644,0-5.288.015-7.933,0-2.228-.016-3.754-1.368-3.707-3.238.046-1.821,1.524-3.1,3.679-3.106q8.092-.025,16.182,0c2.137.008,3.617,1.333,3.626,3.157s-1.472,3.164-3.6,3.184c-2.75.026-5.5.007-8.25.007" transform="translate(0.44 -5.461)" fill="#070808"/>
        <path id="Path_2121" data-name="Path 2121" d="M30.454,94.62A3.178,3.178,0,0,1,27.4,97.811a3.172,3.172,0,1,1-.038-6.344,3.18,3.18,0,0,1,3.091,3.153" transform="translate(3.189 -1.929)" fill="#070808"/>
        <path id="Path_2122" data-name="Path 2122" d="M30.454,113.668a3.185,3.185,0,0,1-3.135,3.107,3.17,3.17,0,1,1,.126-6.338,3.175,3.175,0,0,1,3.01,3.231" transform="translate(3.189 -3.107)" fill="#070808"/>
        <path id="Path_2123" data-name="Path 2123" d="M30.454,132.511a3.175,3.175,0,0,1-3.013,3.228,3.17,3.17,0,1,1-.12-6.338,3.183,3.183,0,0,1,3.133,3.11" transform="translate(3.189 -4.284)" fill="#070808"/>
        <path id="Path_2124" data-name="Path 2124" d="M155.854,71.64c-.2.335-.355.608-.513.882q-15.349,26.592-30.666,53.2c-.628,1.1-1.081,1.083-2.037.51-3.167-1.9-6.347-3.782-9.6-5.534-1.137-.613-1.013-1.066-.464-2.013Q127.9,92.259,143.121,65.778c.687-1.2,1.125-1.205,2.21-.544,3.2,1.951,6.476,3.764,9.713,5.647.32.186.82.258.81.759" transform="translate(-2.276 -0.272)" fill="#fff"/>
        <path id="Path_2125" data-name="Path 2125" d="M157.612,49.1c6.04.026,9.385,5.095,7.315,9.678-.841,1.865-2,3.586-2.977,5.39-.344.634-.685.609-1.257.275q-5.248-3.075-10.538-6.079c-.65-.368-.6-.679-.263-1.223,1.017-1.661,1.937-3.383,2.991-5.02a6.223,6.223,0,0,1,4.729-3.022" transform="translate(-4.604 0.702)" fill="#e94d50"/>
        <path id="Path_2126" data-name="Path 2126" d="M108.447,143.551c.439-4.1.876-7.876,1.226-11.655.112-1.208.424-1.414,1.487-.765,2.515,1.534,5.083,2.981,7.87,4.6l-10.582,7.819" transform="translate(-2.045 -4.369)" fill="#94d1f0"/>
        <path id="Path_2127" data-name="Path 2127" d="M51.979,61.391c-10.3-13.777-1.685-33.962,15.154-36.011C79.4,23.887,89.943,31.249,92.625,43.32A22.184,22.184,0,0,1,89.3,60.573c-.514.807-.778.733-1.3.021a20.112,20.112,0,0,0-7.584-6.346c-.933-.444-.858-.819-.37-1.646,3.294-5.583,2.534-15.971-6.215-18.839A11.44,11.44,0,0,0,58.908,43.84c-.225,3.2-.069,6.358,1.879,9.123.355.5.311.814-.279,1.1a20.709,20.709,0,0,0-4.748,3.132,25.73,25.73,0,0,0-3.782,4.2" transform="translate(1.738 2.187)" fill="#fff"/>
        <path id="Path_2128" data-name="Path 2128" d="M70.8,73.044a24.024,24.024,0,0,1-12.877-4.15c-.637-.437-.727-.715-.309-1.337a15.878,15.878,0,0,1,26.63.038c.461.687.205.918-.372,1.316A23.786,23.786,0,0,1,70.8,73.044" transform="translate(1.127 0.004)" fill="#94d1f0"/>
        <path id="Path_2129" data-name="Path 2129" d="M76.595,46.541a15.242,15.242,0,0,1-.151,2.046,5.118,5.118,0,0,1-4.929,4.131,5.033,5.033,0,0,1-4.929-3.91,9.29,9.29,0,0,1-.048-4.236,4.922,4.922,0,0,1,5.453-3.97,5.021,5.021,0,0,1,4.553,4.829c.023.368,0,.738,0,1.108l.047,0" transform="translate(0.571 1.231)" fill="#f8bd9a"/>
      </g>
    </g>
    <rect id="Rectangle_16" data-name="Rectangle 16" width="152" height="10" rx="5" transform="translate(68 249)" fill="#989898" opacity="0.793"/>
  </g>
</svg>
