<svg xmlns="http://www.w3.org/2000/svg" xmlns:xlink="http://www.w3.org/1999/xlink" width="77.722" height="81.616" viewBox="0 0 77.722 81.616">
  <defs>
    <clipPath id="clip-path">
      <rect id="Rectangle_243" data-name="Rectangle 243" width="77.722" height="81.616" transform="translate(0 0)" fill="none"/>
    </clipPath>
  </defs>
  <g id="Creator" transform="translate(0 0)">
    <g id="Group_1655" data-name="Group 1655" clip-path="url(#clip-path)">
      <path id="Path_2230" data-name="Path 2230" d="M53.561,10.219c1.19-.127,1.372.016,1.859,1.11a19.494,19.494,0,0,1,1.519,7.8c.012.849.057,1.7-.008,2.545-.2,2.576.487,5.1.36,7.676a4.007,4.007,0,0,1-2.92,3.97c-.051.014-.1.059-.148.051-1.4-.248-1.648.7-2.049,1.742A17.038,17.038,0,0,1,44.8,43.86c-.7.412-1.083.824-.957,1.657.067.441,0,.9.042,1.348.1.971.348,1.19,1.32,1.173a3.669,3.669,0,0,1,1.164.217q5.208,1.627,10.412,3.273a2.258,2.258,0,0,0,1.38.019,15.344,15.344,0,1,1,6.862,29.866c-.343.063-.74-.117-1.032.2h-3.66c-1.056-.459-2.245-.462-3.29-.961a4.479,4.479,0,0,1-.66-.257,6.729,6.729,0,0,0-4.167-.867q-24.523.025-49.047.009a5.751,5.751,0,0,1-1.108-.051A2.474,2.474,0,0,1,.014,77.011C0,73.408-.028,69.8.073,66.2a13.28,13.28,0,0,1,1.415-5.239c.334-.712.838-.89,1.714-.669a1.412,1.412,0,0,1,.386,1.894,12.382,12.382,0,0,0-1.166,5.06c-.022,3.074.006,6.148-.027,9.222-.006.6.226.688.742.68,1.695-.027,3.393-.042,5.087.006.624.018.733-.187.728-.759-.028-3.233-.015-6.466-.013-9.7,0-1.04.454-1.635,1.22-1.618.746.017,1.168.582,1.169,1.583,0,3.207.022,6.414-.016,9.62-.008.681.135.877.855.876q19.28-.039,38.558-.019h.615c-.026-.125-.021-.184-.048-.217-.186-.224-.381-.44-.569-.662a15.033,15.033,0,0,1-3.64-11.075,15.421,15.421,0,0,1,3.87-9.176,19.3,19.3,0,0,1,3.324-2.754c-1.216-.379-2.223-.684-3.224-1.01a.659.659,0,0,0-.785.147c-.781.821-1.579,1.628-2.37,2.441q-2.743,2.708-5.49,5.413a2.76,2.76,0,0,1-4.211.1c-.618-.542-1.256-1.064-1.841-1.639-.47-.462-.842-.567-1.348-.029s-1.108.986-1.66,1.481c-1.69,1.515-3.018,1.486-4.618-.11q-3.745-3.737-7.481-7.481a.924.924,0,0,0-1.106-.28c-1.8.6-3.62,1.149-5.439,1.695-2.84.854-5.676,1.7-7.945,3.765-.516.47-1.081.266-1.614-.036-.518-.968-.431-1.324.385-2.05,2.236-1.989,4.974-2.927,7.764-3.78,3.882-1.186,7.754-2.4,11.63-3.611a2.709,2.709,0,0,1,1.4-.217c.732.167.959-.3,1.077-.825a12.644,12.644,0,0,0,.086-2.537c.009-.376-.325-.454-.563-.591a17.177,17.177,0,0,1-7.55-8.505c-.533-1.3-.932-2.265-2.644-2.434-1.637-.161-2.646-1.894-2.659-3.76a23.7,23.7,0,0,1,.255-4.263,23.619,23.619,0,0,0,.068-4.284,21.851,21.851,0,0,1,1.389-9.183c2.794-6.419,7.634-10.34,14.567-11.3A39.058,39.058,0,0,1,41.829.479a17.575,17.575,0,0,1,9.95,5.337,1.3,1.3,0,0,1,.067,1.8c-.5.27-1.015.5-1.548.079-.229-.18-.443-.379-.653-.58a15.23,15.23,0,0,0-8.5-4.29,44.2,44.2,0,0,0-10.074-.129A16.037,16.037,0,0,0,17.5,14c-.791,2.734-.6,5.508-.635,8.28,0,.232-.2.655.33.623.415-.026.8,0,.84-.655a15.464,15.464,0,0,1,.866-4.017,1.639,1.639,0,0,1,1.267-1.17,16.479,16.479,0,0,1,6.621-.1,60.975,60.975,0,0,1,7.561,2.057,31.959,31.959,0,0,0,7.577,1.623,16.462,16.462,0,0,0,8.853-1.685c1.118-.595,1.9-.212,2.174,1.019a20.466,20.466,0,0,1,.374,2.427c.053.541.451.418.752.489.333.079.394-.121.4-.405.009-3.517.233-7.061-1.344-10.372a1.4,1.4,0,0,1,.433-1.892m-33.2,16.76A23.123,23.123,0,0,0,20.6,31.6,15.305,15.305,0,0,0,37.112,43.918a15.015,15.015,0,0,0,12.535-8.99c1.952-4.084,1.263-8.456,1.244-12.748,0-.449-.246-.471-.618-.331a21.742,21.742,0,0,1-13.107.443c-2.718-.666-5.353-1.614-8.052-2.339a18.509,18.509,0,0,0-7.368-.767.922.922,0,0,0-.882.794,25.053,25.053,0,0,0-.506,7M49.425,66.288a12.927,12.927,0,1,0,12.911-12.95,12.991,12.991,0,0,0-12.911,12.95m-19.46-20.8a3.805,3.805,0,0,0-.044.426,5.188,5.188,0,0,1-.862,3.388c-.219.29-.029.408.164.562q3.044,2.421,6.079,4.85a.471.471,0,0,0,.693.03q3.059-2.465,6.132-4.911c.138-.11.362-.21.192-.433a5.828,5.828,0,0,1-.913-3.915,17.787,17.787,0,0,1-11.441,0M23.487,51.38q3.6,3.607,7.22,7.235c.222.223.422.286.679.057.786-.7,1.58-1.385,2.394-2.1-1.941-1.549-3.919-2.946-5.674-4.582-1.463-1.365-2.866-1.788-4.619-.613m14.074,5.193c.746.658,1.479,1.266,2.163,1.924.432.415.708.334,1.1-.068,2.21-2.243,4.449-4.459,6.672-6.689.133-.133.359-.224.325-.487-.711-.223-1.418-.436-2.118-.667a.764.764,0,0,0-.8.12c-2.428,1.951-4.866,3.89-7.343,5.867m17.3-28.43h-.055c0-.529.014-1.059,0-1.588a1.267,1.267,0,0,0-.674-1.1c-.422-.245-.718-.318-.708.373.022,1.456.046,2.914-.071,4.37-.02.257-.213.646.1.779.332.145.665-.117.921-.344a1.133,1.133,0,0,0,.414-.826c.019-.555.054-1.109.082-1.664M17.9,28.265c0-.811.021-1.5-.011-2.188-.012-.259.2-.66-.162-.763-.342-.1-.641.18-.879.439a1.144,1.144,0,0,0-.3.716,21.762,21.762,0,0,0,.011,3.329,1.3,1.3,0,0,0,.875,1.121c.4.17.644.175.588-.4-.077-.789-.087-1.585-.12-2.257" fill="#0b0b0a"/>
      <path id="Path_2231" data-name="Path 2231" d="M50.953,56.009a15.424,15.424,0,0,0-3.87,9.176A15.03,15.03,0,0,0,50.722,76.26c.188.223.384.439.57.663.027.032.022.092.048.217h-.616q-19.278,0-38.557.018c-.721,0-.863-.194-.855-.876.037-3.206.018-6.413.015-9.619,0-1-.423-1.566-1.168-1.583-.767-.018-1.22.577-1.22,1.617,0,3.234-.015,6.467.012,9.7.005.572-.1.777-.727.759-1.7-.049-3.392-.034-5.088-.007-.515.008-.747-.078-.741-.679.033-3.074.005-6.149.026-9.223a12.391,12.391,0,0,1,1.167-5.06A1.413,1.413,0,0,0,3.2,60.293a13.468,13.468,0,0,1,1.943-2.576c.532.3,1.1.505,1.614.036,2.268-2.065,5.105-2.912,7.945-3.765,1.818-.547,3.638-1.093,5.439-1.695a.922.922,0,0,1,1.1.28q3.728,3.753,7.481,7.48c1.6,1.6,2.929,1.626,4.618.111.553-.5,1.154-.944,1.661-1.482s.877-.432,1.347.029c.586.576,1.223,1.1,1.841,1.639a2.761,2.761,0,0,0,4.212-.1q2.754-2.7,5.49-5.414c.184.269.505.254.764.368a12.421,12.421,0,0,1,2.291.808" fill="#38aed0"/>
      <path id="Path_2232" data-name="Path 2232" d="M53.561,10.22a1.4,1.4,0,0,0-.433,1.892c1.576,3.311,1.353,6.855,1.344,10.372,0,.283-.062.483-.4.4-.3-.071-.7.053-.753-.488a20.232,20.232,0,0,0-.374-2.427c-.274-1.231-1.055-1.615-2.173-1.02a16.462,16.462,0,0,1-8.853,1.686,32.058,32.058,0,0,1-7.577-1.623,61.023,61.023,0,0,0-7.561-2.057,16.46,16.46,0,0,0-6.621.1,1.637,1.637,0,0,0-1.267,1.17,15.414,15.414,0,0,0-.866,4.017c-.039.656-.425.629-.841.654-.527.032-.332-.391-.329-.622C16.9,19.5,16.7,16.732,17.5,14a16.038,16.038,0,0,1,13.577-11.3,44.2,44.2,0,0,1,10.074.13,15.22,15.22,0,0,1,8.5,4.289c.211.2.425.4.653.58.534.418,1.045.192,1.549-.078a21.53,21.53,0,0,1,1.715,2.606" fill="#f78b43"/>
      <path id="Path_2233" data-name="Path 2233" d="M20.358,26.979a25.053,25.053,0,0,1,.506-7,.92.92,0,0,1,.883-.793,18.487,18.487,0,0,1,7.367.766c2.7.725,5.334,1.674,8.052,2.339a21.742,21.742,0,0,0,13.107-.443c.373-.139.616-.118.618.332.02,4.292.708,8.663-1.244,12.747a15.013,15.013,0,0,1-12.535,8.99A15.306,15.306,0,0,1,20.6,31.6a23.123,23.123,0,0,1-.243-4.621" fill="#fdd58d"/>
      <path id="Path_2234" data-name="Path 2234" d="M29.965,45.493a17.787,17.787,0,0,0,11.441,0,5.834,5.834,0,0,0,.913,3.915c.17.223-.054.323-.191.433q-3.067,2.455-6.133,4.911a.471.471,0,0,1-.693-.03q-3.033-2.433-6.079-4.85c-.193-.154-.383-.271-.164-.562a5.189,5.189,0,0,0,.863-3.388,3.556,3.556,0,0,1,.043-.426" fill="#fdd58d"/>
      <path id="Path_2235" data-name="Path 2235" d="M23.486,51.381c1.754-1.175,3.156-.752,4.619.613,1.755,1.636,3.733,3.033,5.675,4.582-.815.712-1.608,1.4-2.394,2.1-.258.228-.458.165-.679-.057q-3.612-3.625-7.221-7.235" fill="#0483af"/>
      <path id="Path_2236" data-name="Path 2236" d="M37.561,56.573c2.477-1.976,4.915-3.916,7.344-5.867a.762.762,0,0,1,.8-.119c.7.23,1.407.444,2.118.667.034.262-.192.353-.325.486-2.223,2.231-4.462,4.446-6.672,6.69-.4.4-.67.482-1.1.067-.685-.658-1.418-1.265-2.164-1.924" fill="#0483af"/>
      <path id="Path_2237" data-name="Path 2237" d="M50.953,56.009a12.421,12.421,0,0,0-2.291-.808c-.259-.114-.58-.1-.764-.368.791-.812,1.588-1.619,2.369-2.441a.662.662,0,0,1,.786-.146c1,.326,2.008.631,3.224,1.01a19.258,19.258,0,0,0-3.324,2.753" fill="#0483af"/>
      <path id="Path_2238" data-name="Path 2238" d="M54.861,28.144c-.029.554-.064,1.109-.082,1.664a1.139,1.139,0,0,1-.415.826c-.256.226-.589.489-.921.344-.307-.134-.115-.522-.094-.78.116-1.456.092-2.913.07-4.369-.009-.692.287-.618.708-.374a1.271,1.271,0,0,1,.675,1.1c.018.529,0,1.058,0,1.588h.055" fill="#fdd58d"/>
      <path id="Path_2239" data-name="Path 2239" d="M17.9,28.265c.033.672.043,1.468.12,2.257.056.572-.192.567-.588.4a1.3,1.3,0,0,1-.875-1.121,21.762,21.762,0,0,1-.011-3.329,1.144,1.144,0,0,1,.3-.716c.238-.259.537-.538.879-.439.358.1.15.5.162.763.032.687.011,1.377.011,2.188" fill="#fdd58d"/>
      <path id="Path_2240" data-name="Path 2240" d="M56.4,73.533A2.112,2.112,0,0,1,56,73.295a.9.9,0,0,1-.3-.615c0-.064-.007-.127-.007-.191q0-6.465,0-12.932a.99.99,0,0,1,.343-.831.926.926,0,0,1,.608-.21c.763,0,3.264,0,4.027,0q2.558,0,5.117,0a.26.26,0,0,1,.214.091q1.227,1.341,2.462,2.676a.245.245,0,0,1,.072.181q0,5.541,0,11.084a.908.908,0,0,1-.726.963c-.006,0-.009.015-.014.023Zm.064-7.507v6.48c0,.215.032.248.245.248h10.8c.213,0,.245-.033.245-.248q0-5.226,0-10.453c0-.11-.026-.138-.136-.137-.606.006-1.212,0-1.818,0a.4.4,0,0,1-.451-.447c0-.67,0-1.339,0-2.009,0-.127-.023-.171-.163-.17-2.238.005-6.216,0-8.454,0-.25,0-.273.024-.273.279v6.451M66.132,59.9c0,.416,0,.79,0,1.163,0,.048.016.072.067.071h1.069L66.132,59.9" fill="#080908"/>
      <path id="Path_2241" data-name="Path 2241" d="M62.867,64.57h3.165c.235,0,.351.071.384.232a.273.273,0,0,1-.225.343.923.923,0,0,1-.174.016H57.962a1,1,0,0,1-.189-.016.285.285,0,0,1,0-.558,1.158,1.158,0,0,1,.2-.016h4.89" fill="#161515"/>
      <path id="Path_2242" data-name="Path 2242" d="M62.859,66.459h3.2c.206,0,.321.069.358.208a.283.283,0,0,1-.207.36.626.626,0,0,1-.172.019h-8.1c-.25,0-.388-.107-.386-.3a.28.28,0,0,1,.247-.281,1.446,1.446,0,0,1,.174-.007h4.893" fill="#080908"/>
      <path id="Path_2243" data-name="Path 2243" d="M62.843,63.21H57.937a.787.787,0,0,1-.146,0,.274.274,0,0,1-.241-.24.28.28,0,0,1,.179-.315.482.482,0,0,1,.173-.026h8.16a.48.48,0,0,1,.173.024.289.289,0,0,1-.064.558,1.186,1.186,0,0,1-.146,0H62.843" fill="#080908"/>
      <path id="Path_2244" data-name="Path 2244" d="M62.851,68.372h3.225c.2,0,.31.079.34.232a.276.276,0,0,1-.189.333.433.433,0,0,1-.129.019H57.879a.312.312,0,0,1-.323-.2.293.293,0,0,1,.243-.378.892.892,0,0,1,.146,0h4.906" fill="#080908"/>
    </g>
  </g>
</svg>
