<svg xmlns="http://www.w3.org/2000/svg" xmlns:xlink="http://www.w3.org/1999/xlink" width="57.6" height="57.616" viewBox="0 0 57.6 57.616">
  <defs>
    <clipPath id="clip-path">
      <rect id="Rectangle_47" data-name="Rectangle 47" width="57.6" height="57.616" transform="translate(0 0)" fill="none"/>
    </clipPath>
  </defs>
  <g id="Group_1369" data-name="Group 1369" transform="translate(0 0)">
    <g id="Group_1368" data-name="Group 1368" clip-path="url(#clip-path)">
      <path id="Path_1663" data-name="Path 1663" d="M22.325,6.516q10.794,0,21.588.013c.539,0,.669-.109.711-.668A6.506,6.506,0,1,1,52.4,12.877c-.344.071-.382.2-.382.489q.009,8.7,0,17.41a.81.81,0,0,0,.365.663,14.693,14.693,0,0,1,5,8.765A14.852,14.852,0,1,1,28.1,45.211c-.022-.134-.063-.264-.082-.4-.166-1.148-.165-1.149-1.339-1.149q-13.028,0-26.056.014c-.517,0-.62-.128-.62-.627Q.024,25.09,0,7.129c0-.5.107-.628.621-.627q10.851.03,21.7.014m27.782,23.32c.031-.052.047-.066.047-.08q.006-8.243.014-16.483c0-.269-.081-.342-.35-.391a5.3,5.3,0,0,1-2.225-.913c-.338-.251-.5-.146-.745.106q-2.466,2.5-4.966,4.965a.664.664,0,0,0-.2.793,2.77,2.77,0,0,1-3.937,3.226,2.441,2.441,0,0,1-1.451-2.706c.319-1.01-.229-1.4-.756-1.924-.205-.2-.425-.4-.613-.618a.489.489,0,0,0-.647-.145,2.2,2.2,0,0,1-1.644,0,.548.548,0,0,0-.694.176q-1.979,2-3.981,3.98a.662.662,0,0,0-.209.791,2.728,2.728,0,0,1-1.223,3.152,2.793,2.793,0,0,1-3.851-3.787,2.729,2.729,0,0,1,3.186-1.26.66.66,0,0,0,.788-.218q1.954-1.986,3.942-3.937a.664.664,0,0,0,.2-.8,2.77,2.77,0,0,1,3.941-3.222,2.45,2.45,0,0,1,1.449,2.708c-.326,1.012.238,1.393.759,1.923.19.192.39.376.57.578a.527.527,0,0,0,.69.185,2.15,2.15,0,0,1,1.643,0,.546.546,0,0,0,.693-.178c1.676-1.689,3.353-3.377,5.051-5.044.269-.265.238-.426.051-.706a4.476,4.476,0,0,1-.57-1.127c-.134-.438-.364-.521-.79-.521q-20.893.02-41.787,0c-.5,0-.629.106-.628.621q.027,16.105,0,32.212c0,.5.11.627.622.626q12.189-.029,24.376-.014c1.014,0,1.013,0,1.148-1.03.018-.134.052-.265.083-.4.071-.3.024-.467-.352-.437-.423.033-.852-.016-1.275.015-.35.025-.455-.069-.453-.439q.024-5.136,0-10.273c0-.351.075-.455.442-.45q2.32.035,4.643,0c.406-.007.517.095.507.5-.031,1.169-.011,2.339-.011,3.575a14.927,14.927,0,0,1,18.518-3.038m-8.315,1.843H41.8a11.481,11.481,0,0,1,.009-1.217c.057-.527-.111-.745-.648-.614-.075.018-.155.01-.231.022A13.017,13.017,0,0,0,30.84,47.935c.15.369.272.468.646.229.747-.477,1.518-.921,2.3-1.334.373-.2.449-.354.284-.777a9.28,9.28,0,0,1,6.2-12.284c.505-.141,1.244.032,1.471-.432a4.108,4.108,0,0,0,.048-1.658m.957,24.066A13.271,13.271,0,0,0,53.24,50.37c.2-.269.174-.4-.122-.564q-1.192-.654-2.356-1.363c-.339-.208-.532-.236-.832.128A9.246,9.246,0,0,1,35.47,48.5c-.223-.271-.361-.3-.648-.122-.774.473-1.556.938-2.36,1.356-.434.225-.416.411-.144.762a13.074,13.074,0,0,0,10.431,5.249M43.662,31.7c0,.445.024.892-.008,1.334-.024.348.1.5.44.517a5.973,5.973,0,0,1,1.408.312,9.271,9.271,0,0,1,5.9,12.179c-.135.358-.167.553.227.757.8.418,1.585.883,2.358,1.358.331.2.47.157.628-.2a12.421,12.421,0,0,0,1.1-4.765,12.749,12.749,0,0,0-4.846-10.56,12.446,12.446,0,0,0-6.751-2.8c-.347-.036-.491.035-.465.417.033.481.008.966.008,1.45M35.3,42.722a7.43,7.43,0,1,0,7.471-7.416A7.467,7.467,0,0,0,35.3,42.722M55.733,6.532A4.642,4.642,0,0,0,46.45,6.47a4.642,4.642,0,1,0,9.283.062M27.874,34.37c0,1.1,0,2.2,0,3.3,0,.166-.1.429.229.416.227-.009.451.084.613-.255a8.313,8.313,0,0,0,1.018-4.762,7.853,7.853,0,0,1-.007-1.041c0-1.388,0-1.375-1.376-1.374-.366,0-.5.083-.49.475.027,1.08.009,2.161.009,3.241m5.581-20.43a.924.924,0,1,0-.932-.915.95.95,0,0,0,.932.915m6.487,4.63a.924.924,0,1,0-.906.943.951.951,0,0,0,.906-.943m-14.83,1.881a.924.924,0,1,0,.9.948.951.951,0,0,0-.9-.948" fill="#080908"/>
      <path id="Path_1664" data-name="Path 1664" d="M50.107,29.837a14.928,14.928,0,0,0-18.518,3.037c0-1.235-.02-2.405.01-3.575.011-.41-.1-.511-.507-.5-1.547.026-3.095.023-4.643,0-.366,0-.443.1-.441.451q.02,5.136,0,10.272c0,.371.1.465.453.44.424-.031.853.018,1.276-.016.376-.029.423.139.352.437a3.832,3.832,0,0,0-.083.4c-.135,1.03-.134,1.03-1.148,1.03q-12.187,0-24.376.013c-.512,0-.623-.121-.622-.625q.024-16.105,0-32.211c0-.515.125-.622.627-.622q20.894.024,41.788,0c.426,0,.656.083.79.52a4.433,4.433,0,0,0,.57,1.128c.187.28.218.44-.052.7-1.7,1.669-3.375,3.357-5.05,5.046a.548.548,0,0,1-.693.178,2.146,2.146,0,0,0-1.643,0,.527.527,0,0,1-.69-.186c-.18-.2-.38-.385-.57-.578-.521-.529-1.085-.91-.759-1.922a2.451,2.451,0,0,0-1.45-2.708,2.77,2.77,0,0,0-3.941,3.221.666.666,0,0,1-.2.8Q28.6,16.512,26.645,18.5a.657.657,0,0,1-.788.22,2.73,2.73,0,0,0-3.186,1.259,2.793,2.793,0,0,0,3.851,3.787,2.728,2.728,0,0,0,1.224-3.151.663.663,0,0,1,.208-.792q2.01-1.971,3.982-3.979a.547.547,0,0,1,.693-.177,2.195,2.195,0,0,0,1.644,0,.491.491,0,0,1,.648.146c.188.22.408.412.613.618.527.527,1.075.914.755,1.924A2.443,2.443,0,0,0,37.74,21.06a2.771,2.771,0,0,0,3.938-3.227.661.661,0,0,1,.2-.792q2.5-2.465,4.967-4.965c.248-.252.406-.358.745-.106a5.3,5.3,0,0,0,2.225.912c.268.049.35.123.349.392q-.013,8.241-.014,16.482c0,.015-.015.029-.046.081M24.159,32.544c0-2.322-.012-4.642.01-6.963,0-.415-.111-.507-.511-.5q-2.319.035-4.641,0c-.372-.006-.439.108-.438.454q.016,6.99,0,13.982c0,.368.1.445.452.441,1.547-.02,3.094-.026,4.641,0,.418.007.5-.116.5-.512-.02-2.3-.009-4.6-.009-6.9M3.727,35.256c0,1.411.008,2.822-.006,4.234,0,.319.024.477.421.47,1.585-.026,3.172-.021,4.757,0,.34,0,.408-.107.407-.424q-.016-4.235,0-8.471c0-.337-.1-.41-.422-.407-1.586.014-3.172.017-4.757,0-.34-.005-.411.106-.408.424.016,1.392.007,2.784.007,4.177m7.43.977c0,1.1.012,2.2-.007,3.3-.006.324.08.422.412.42q2.379-.029,4.757,0c.324,0,.42-.081.418-.413q-.022-3.3,0-6.612c0-.323-.08-.422-.412-.418q-2.379.025-4.757,0c-.324,0-.424.081-.418.413.021,1.1.008,2.205.008,3.307m2.726-24.144H19.1c1.346,0,1.326,0,1.352-1.333.008-.433-.1-.538-.536-.536-3.693.02-7.387.012-11.08.012-1.415,0-1.4,0-1.408,1.39,0,.378.1.48.476.475,1.991-.02,3.983-.008,5.975-.008m0,3.715H19.1c1.345,0,1.325,0,1.351-1.334.008-.435-.1-.537-.536-.535-3.694.02-7.387.011-11.081.011-1.414,0-1.4,0-1.407,1.392,0,.379.1.478.476.475,1.992-.021,3.984-.009,5.976-.009m.105,1.857H8.768c-1.334,0-1.309,0-1.34,1.346-.01.462.144.522.551.521,3.694-.016,7.387-.01,11.081-.01,1.4,0,1.386,0,1.4-1.4,0-.4-.137-.463-.491-.46-1.992.015-3.984.007-5.976.007m-.044,5.572h5.163c1.343,0,1.321,0,1.348-1.336.009-.44-.111-.534-.539-.532-3.694.019-7.387.01-11.081.01-1.412,0-1.4,0-1.4,1.4,0,.384.106.475.479.472,2.011-.018,4.022-.009,6.034-.009M5.585,11.188c0-.956,0-.956-.959-.956-.9,0-.9,0-.9.9,0,.957,0,.957.959.957.9,0,.9,0,.9-.9m0,3.711c0-.953,0-.953-.963-.953-.9,0-.9,0-.9.9,0,.953,0,.953.963.953.895,0,.895,0,.895-.9m0,3.642c0-.88,0-.88-.863-.88-1,0-1,0-1,.978,0,.879,0,.879.862.879,1,0,1,0,1-.977M4.7,21.375c-.975,0-.975,0-.975.942,0,.916,0,.916.941.916.917,0,.917,0,.917-.94,0-.918,0-.918-.883-.918" fill="#e0e3e8"/>
      <path id="Path_1665" data-name="Path 1665" d="M41.792,31.68a4.127,4.127,0,0,1-.048,1.658c-.228.464-.966.291-1.471.432a9.28,9.28,0,0,0-6.2,12.284c.164.423.089.58-.285.777-.784.413-1.554.857-2.3,1.334-.374.238-.5.14-.646-.229A13.017,13.017,0,0,1,40.934,29.871c.076-.012.156,0,.23-.022.537-.132.706.086.649.614A11.22,11.22,0,0,0,41.8,31.68h-.012" fill="#b0cd6a"/>
      <path id="Path_1666" data-name="Path 1666" d="M42.749,55.745A13.075,13.075,0,0,1,32.318,50.5c-.272-.351-.29-.537.144-.763.8-.418,1.586-.883,2.36-1.356.287-.175.425-.148.648.122a9.245,9.245,0,0,0,14.46.071c.3-.364.493-.336.832-.128q1.161.709,2.356,1.364c.3.162.323.294.122.563a13.271,13.271,0,0,1-10.491,5.375" fill="#da571c"/>
      <path id="Path_1667" data-name="Path 1667" d="M43.662,31.7c0-.484.025-.969-.008-1.45-.026-.382.118-.454.465-.417a12.449,12.449,0,0,1,6.751,2.8,12.745,12.745,0,0,1,4.845,10.56,12.4,12.4,0,0,1-1.1,4.765c-.158.361-.3.407-.628.2-.773-.475-1.554-.94-2.358-1.358-.394-.2-.362-.4-.227-.757a9.271,9.271,0,0,0-5.9-12.179,5.973,5.973,0,0,0-1.408-.312c-.338-.021-.464-.169-.44-.517.032-.442.008-.889.008-1.334" fill="#e08617"/>
      <path id="Path_1668" data-name="Path 1668" d="M35.3,42.723a7.43,7.43,0,1,1,7.388,7.443A7.464,7.464,0,0,1,35.3,42.723m7.442-5.559a5.572,5.572,0,1,0,5.56,5.613,5.577,5.577,0,0,0-5.56-5.613" fill="#bec4cd"/>
      <path id="Path_1669" data-name="Path 1669" d="M55.732,6.532a4.642,4.642,0,1,1-9.283-.061,4.642,4.642,0,0,1,9.283.061" fill="#e08617"/>
      <path id="Path_1670" data-name="Path 1670" d="M27.874,34.371c0-1.08.018-2.161-.009-3.241-.01-.392.123-.475.49-.475,1.376,0,1.376-.015,1.376,1.374a8.03,8.03,0,0,0,.006,1.041,8.3,8.3,0,0,1-1.017,4.761c-.163.34-.386.247-.614.255-.327.013-.227-.249-.228-.416-.008-1.1,0-2.2,0-3.3" fill="#db571c"/>
      <path id="Path_1671" data-name="Path 1671" d="M33.455,13.941a.924.924,0,1,1,.915-.933.952.952,0,0,1-.915.933" fill="#dc8417"/>
      <path id="Path_1672" data-name="Path 1672" d="M39.941,18.571a.924.924,0,1,1-.942-.9.952.952,0,0,1,.942.9" fill="#dc8417"/>
      <path id="Path_1673" data-name="Path 1673" d="M25.112,20.451a.924.924,0,1,1-.948.9.951.951,0,0,1,.948-.9" fill="#dc8417"/>
      <path id="Path_1674" data-name="Path 1674" d="M24.159,32.543c0,2.3-.01,4.6.009,6.905,0,.4-.08.52-.5.513-1.547-.028-3.094-.023-4.641,0-.35,0-.453-.072-.452-.44q.021-6.993,0-13.984c0-.345.066-.459.438-.454q2.32.036,4.642,0c.4-.006.514.085.51.5-.022,2.321-.01,4.642-.01,6.963m-3.715-.05v4.291c0,1.319,0,1.3,1.322,1.319.43.007.549-.1.546-.54-.02-3.093-.011-6.185-.011-9.278,0-1.353,0-1.336-1.351-1.347-.4,0-.522.1-.516.51.024,1.682.01,3.363.01,5.045" fill="#050605"/>
      <path id="Path_1675" data-name="Path 1675" d="M3.727,35.255c0-1.392.009-2.785-.007-4.177,0-.317.068-.428.408-.424q2.378.029,4.757,0c.318,0,.424.07.422.409q-.021,4.235,0,8.47c0,.316-.067.427-.407.423-1.586-.018-3.172-.023-4.757,0-.4.007-.424-.152-.421-.47.014-1.412.006-2.823.006-4.235m3.715.106V33.912c0-1.426,0-1.413-1.41-1.4-.351,0-.462.088-.456.451.022,1.255.009,2.511.009,3.766,0,1.413,0,1.4,1.438,1.372.324-.007.436-.088.426-.422-.023-.771-.007-1.544-.007-2.317" fill="#050605"/>
      <path id="Path_1676" data-name="Path 1676" d="M11.157,36.232c0-1.1.013-2.2-.008-3.306-.006-.332.093-.417.418-.413q2.378.024,4.757,0c.332,0,.414.095.412.419q-.021,3.306,0,6.613c0,.331-.093.416-.417.413q-2.379-.024-4.757,0c-.332,0-.418-.094-.413-.418.02-1.1.008-2.2.008-3.307m1.857.022v.463c0,1.416,0,1.416,1.426,1.375.058,0,.116,0,.173,0,.209.016.26-.1.259-.283q0-1.563,0-3.127c0-.168-.017-.311-.239-.3-.517.022-1.121-.18-1.523.086-.288.191-.065.793-.094,1.21-.013.192,0,.386,0,.579" fill="#050605"/>
      <path id="Path_1677" data-name="Path 1677" d="M13.883,12.088c-1.992,0-3.984-.011-5.975.009-.38,0-.478-.1-.476-.476.008-1.39-.007-1.39,1.408-1.39,3.693,0,7.387.008,11.08-.011.435,0,.544.1.536.535-.026,1.333-.006,1.333-1.352,1.333H13.883" fill="#050605"/>
      <path id="Path_1678" data-name="Path 1678" d="M13.884,15.8c-1.992,0-3.984-.01-5.975.009-.379,0-.479-.1-.477-.475.008-1.391-.007-1.391,1.407-1.391,3.694,0,7.387.008,11.081-.011.433,0,.545.1.536.535-.026,1.333,0,1.333-1.351,1.333H13.884" fill="#050605"/>
      <path id="Path_1679" data-name="Path 1679" d="M13.99,17.661c1.991,0,3.983.008,5.974-.007.355,0,.494.056.491.46-.009,1.4.009,1.4-1.4,1.4-3.694,0-7.386-.006-11.081.009-.406,0-.561-.058-.55-.52.029-1.345.006-1.346,1.339-1.346Z" fill="#050605"/>
      <path id="Path_1680" data-name="Path 1680" d="M13.945,23.233c-2.011,0-4.022-.01-6.033.009-.374,0-.482-.088-.48-.472.008-1.394-.007-1.394,1.4-1.394,3.693,0,7.387.008,11.08-.011.428,0,.549.091.54.532-.027,1.336-.006,1.336-1.349,1.336H13.945" fill="#050605"/>
      <path id="Path_1681" data-name="Path 1681" d="M5.585,11.188c0,.9,0,.9-.9.9-.958,0-.958,0-.958-.957,0-.9,0-.9.9-.9.959,0,.959,0,.959.956" fill="#050605"/>
      <path id="Path_1682" data-name="Path 1682" d="M5.585,14.9c0,.905,0,.905-.895.905-.962,0-.962,0-.962-.953,0-.9,0-.9.894-.9.963,0,.963,0,.963.952" fill="#050605"/>
      <path id="Path_1683" data-name="Path 1683" d="M5.585,18.54c0,.978,0,.978-.995.978-.862,0-.862,0-.862-.879,0-.978,0-.978,1-.978.862,0,.862,0,.862.879" fill="#050605"/>
      <path id="Path_1684" data-name="Path 1684" d="M4.7,21.375c.883,0,.883,0,.883.918,0,.94,0,.94-.917.94-.941,0-.941,0-.941-.916,0-.942,0-.942.975-.942" fill="#050605"/>
      <path id="Path_1685" data-name="Path 1685" d="M42.745,37.164a5.572,5.572,0,1,1-5.584,5.53,5.571,5.571,0,0,1,5.584-5.53m3.7,5.59a3.712,3.712,0,1,0-3.7,3.694,3.758,3.758,0,0,0,3.7-3.694" fill="#0a0b0b"/>
      <path id="Path_1686" data-name="Path 1686" d="M20.444,32.493c0-1.682.014-3.363-.01-5.045-.006-.412.114-.514.516-.51,1.351.011,1.351-.006,1.351,1.347,0,3.093-.009,6.185.011,9.278,0,.439-.116.547-.546.54-1.322-.019-1.322,0-1.322-1.319V32.493" fill="#dc571c"/>
      <path id="Path_1687" data-name="Path 1687" d="M7.442,35.361c0,.773-.015,1.546.007,2.317.01.334-.1.415-.426.422-1.439.03-1.438.041-1.438-1.372,0-1.255.013-2.511-.009-3.766-.006-.363.105-.448.457-.451,1.409-.012,1.409-.025,1.409,1.4v1.449" fill="#dc571c"/>
      <path id="Path_1688" data-name="Path 1688" d="M13.014,36.254c0-.193-.011-.387,0-.579.029-.417-.194-1.019.094-1.21.4-.266,1.006-.064,1.523-.086.222-.009.239.134.239.3q0,1.563,0,3.127c0,.185-.05.3-.259.283-.057,0-.115,0-.173,0-1.426.041-1.426.041-1.426-1.375Z" fill="#dc571c"/>
    </g>
  </g>
</svg>
