<svg xmlns="http://www.w3.org/2000/svg" xmlns:xlink="http://www.w3.org/1999/xlink" width="57.99" height="57.289" viewBox="0 0 57.99 57.289">
  <defs>
    <clipPath id="clip-path">
      <rect id="Rectangle_48" data-name="Rectangle 48" width="57.99" height="57.289" transform="translate(0 0)" fill="none"/>
    </clipPath>
  </defs>
  <g id="Group_1371" data-name="Group 1371" transform="translate(0 0)">
    <g id="Group_1370" data-name="Group 1370" clip-path="url(#clip-path)">
      <path id="Path_1689" data-name="Path 1689" d="M.6,32.189.64,31.044a.623.623,0,0,0,.622-.578c.025-.363-.221-.553-.55-.645q.063-.571.125-1.143c.587.022.7-.4.781-.842a23.114,23.114,0,0,1,3.2-8.287A19.754,19.754,0,0,1,7.373,16.2c.147.37.268.677.39.983a1.243,1.243,0,0,0-.131.119,22.637,22.637,0,0,0-5.3,17.656,22.3,22.3,0,0,0,5.739,12.6,22.922,22.922,0,0,0,25.806,5.866,23.454,23.454,0,0,0,4.4-2.407.607.607,0,0,0,.233-.911c-.231-.346-.564-.305-.886-.1-.066.042-.13.089-.195.134a21.341,21.341,0,0,1-15.88,3.5,20.863,20.863,0,0,1-13.3-7.733A21.315,21.315,0,0,1,4.13,26.378,19.571,19.571,0,0,1,8.25,18.41q.263.589.527,1.18c.158.351.379.629.813.458.456-.178.454-.539.3-.93q-.362-.9-.727-1.8a21.524,21.524,0,0,1,10.878-6.31,22.169,22.169,0,0,1,2.908-.487c.38-.04.634-.241.608-.655-.024-.391-.28-.54-.647-.528a5.8,5.8,0,0,0-.59.036A23,23,0,0,0,8.667,16.16c-.426-.96-.427-.96.343-1.639.192-.169.384-.339.58-.505A23.986,23.986,0,0,1,23.983,8.29c.336-.02.535-.009.531.441q-.033,3.968,0,7.935c0,.413-.16.5-.517.5a10.358,10.358,0,0,0-2.449.364,15.069,15.069,0,0,0,1.81,29.609A14.746,14.746,0,0,0,35.8,42.8c.354-.345.533-.41.926-.071,1.9,1.64,3.8,3.271,5.745,4.849.5.407.441.6.043,1-6.119,6.159-13.508,8.74-22,6.989-9.386-1.936-15.5-7.808-18.406-16.961a19.458,19.458,0,0,1-.863-5.407c-.011-.459-.027-.941-.652-1.018m40.74,15.989a.522.522,0,0,0-.254-.5.541.541,0,0,0-.659.025c-.343.291-.671.6-.987.919a.5.5,0,0,0-.069.6.592.592,0,0,0,.514.341c.391.025,1.454-1,1.455-1.389" fill="#ea4630"/>
      <path id="Path_1690" data-name="Path 1690" d="M.6,32.189c.625.077.641.559.653,1.018a19.385,19.385,0,0,0,.863,5.407c2.9,9.153,9.019,15.025,18.406,16.961,8.487,1.751,15.876-.829,21.995-6.989.4-.4.46-.6-.043-1-1.946-1.578-3.85-3.209-5.745-4.848-.392-.34-.571-.275-.926.07a14.746,14.746,0,0,1-12.444,4.334,15.069,15.069,0,0,1-1.81-29.609A10.358,10.358,0,0,1,24,17.165c.357,0,.52-.086.517-.5q-.029-3.968,0-7.935c0-.45-.194-.461-.531-.44A23.981,23.981,0,0,0,9.59,14.016c-.2.166-.388.336-.58.505-.769.679-.769.679-.343,1.639q.247.578.493,1.156.365.9.728,1.8c.156.391.159.752-.3.931-.434.17-.655-.108-.813-.459Q8.512,19,8.25,18.41a6.2,6.2,0,0,0-.487-1.23c-.121-.306-.243-.613-.39-.983A19.754,19.754,0,0,0,4.82,19.549a23.114,23.114,0,0,0-3.2,8.287c-.078.444-.194.864-.781.842a.665.665,0,0,1-.464-.88A24.9,24.9,0,0,1,6.568,15.28a.6.6,0,0,0,.105-.766Q3.9,7.855,1.141,1.189C.776.309.983.006,1.95,0c1.244,0,2.488,0,3.731,0,.422,0,.773.107.8.584.029.536-.362.642-.794.644-.928,0-1.856.012-2.783,0-.349-.006-.4.1-.275.409Q5.133,7.643,7.618,13.659c.191.466.341.2.518.038A24.724,24.724,0,0,1,19.2,7.779a23.344,23.344,0,0,1,5.676-.69c.7,0,.834.122.835.829,0,2.862.013,5.725-.008,8.587,0,.471.1.684.6.662a18.38,18.38,0,0,1,2.2.27V1.011c0-.9.123-1.026,1.032-1A25.675,25.675,0,0,1,42.33,3.647c.5.3.622.176.752-.309.242-.91.544-1.8.8-2.711A.766.766,0,0,1,44.74,0c.809.017,1.619.008,2.428,0,.425,0,.761.125.775.606.015.5-.349.614-.758.62-.612.009-1.224.012-1.836,0a.424.424,0,0,0-.5.366c-.248.908-.514,1.813-.822,2.7-.125.361.067.485.291.646a26.311,26.311,0,0,1,6.191,6.3.754.754,0,0,1,.016,1.057c-.5.211-.793-.037-1.066-.434a24.183,24.183,0,0,0-5.121-5.406c-.817-.635-.823-.627-1.049.393A4.948,4.948,0,0,0,42.949,8c-.354,1.155-.706,2.311-1.064,3.464-.108.347-.312.61-.719.542a.546.546,0,0,1-.482-.633,2.3,2.3,0,0,1,.109-.455q.546-1.852,1.1-3.7l.27-.95c.134-.093.069-.263.138-.375.372-.6.038-.875-.459-1.163A25.006,25.006,0,0,0,30.2,1.246c-.443-.02-.508.111-.507.506q.018,7.784,0,15.568a.586.586,0,0,0,.461.666,14.833,14.833,0,0,1,8.176,6.957.8.8,0,0,0,.813.489c4.7-.014,9.392-.021,14.089.007.582,0,.675-.192.643-.7a24.956,24.956,0,0,0-1.858-8.182c-.176-.418-.311-.819.108-1.177.522-.119.777.125.973.6a25.733,25.733,0,0,1,1.988,9.707c.006.768-.145.936-.923.936h-15a20.677,20.677,0,0,1,.843,3.126c.057.339.35.179.529.179q5.537.015,11.073.008c1.106,0,2.211,0,3.316,0,.7,0,.845.14.836.826A24.864,24.864,0,0,1,50.013,46.53c-.409.5-.691.52-1.187.106-.541-.451-1.078-.905-1.7-1.431v3.139c0,1.046.03,2.094-.013,3.138-.02.471.139.566.56.532.451-.036.908-.008,1.362-.008.406,0,.712.156.729.6s-.293.627-.692.634q-1.214.022-2.427,0c-.506-.01-.715-.282-.712-.8.016-2.585,0-5.171.013-7.756a.868.868,0,0,0-.32-.76q-3.159-2.634-6.292-5.3c-.293-.248-.446-.332-.639.114a9.614,9.614,0,0,1-1.363,2.271c-.277.34-.221.513.1.782,2.169,1.8,4.319,3.629,6.477,5.445.7.588.726.795.112,1.481a24.82,24.82,0,0,1-14.988,8.262A25.133,25.133,0,0,1,.6,37.678,29.841,29.841,0,0,1,0,33.053c-.026-.451.106-.776.595-.864m38.388.019A13.878,13.878,0,1,0,25.034,46.065,13.824,13.824,0,0,0,38.986,32.208m6.95,10.408c0-1.064.008-1.97,0-2.876-.006-.428.177-.713.6-.709s.6.3.59.722c-.013.533-.005,1.066,0,1.6a5.432,5.432,0,0,0,.081,2.216c.337.665,1.171,1.069,1.762,1.617.287.266.417.231.653-.079a24.239,24.239,0,0,0,4.952-13.471c.03-.463-.144-.5-.525-.5-3.216.013-6.432.007-9.649.007H40.609c-.227,0-.478-.069-.446.335a13.918,13.918,0,0,1-.667,5.237.547.547,0,0,0,.234.69c.971.807,1.932,1.624,2.9,2.437l3.308,2.777" fill="#0e0c0b"/>
      <path id="Path_1691" data-name="Path 1691" d="M52.126,15.383c-.419.358-.284.759-.108,1.177a24.983,24.983,0,0,1,1.859,8.182c.032.506-.062.7-.644.7-4.7-.028-9.393-.021-14.089-.007a.8.8,0,0,1-.812-.489,14.836,14.836,0,0,0-8.177-6.957.586.586,0,0,1-.461-.666q.026-7.784,0-15.567c0-.4.064-.527.507-.507A25.025,25.025,0,0,1,41.837,4.731c.5.289.83.563.459,1.163-.07.112,0,.282-.139.375-.025-.274-.232-.386-.439-.51a25.918,25.918,0,0,0-3.346-1.735,32.911,32.911,0,0,0-3.4-1.151.58.58,0,0,0-.794.4c-.121.365.1.593.412.731a3.786,3.786,0,0,0,.452.131A23.966,23.966,0,0,1,38.524,5.4c1.159.539,2.249,1.2,3.363,1.82q-.548,1.851-1.1,3.7a2.229,2.229,0,0,0-.108.455.544.544,0,0,0,.482.633c.406.068.61-.2.718-.542.359-1.153.71-2.309,1.065-3.464a29.382,29.382,0,0,1,4.092,4.155,22.583,22.583,0,0,1,4.252,9.246c.174.847.257,1.7.407,2.553a.55.55,0,0,0,.667.511c.338-.054.447-.306.456-.654a8.582,8.582,0,0,0-.175-1.7A24.081,24.081,0,0,0,49.531,13.7a23.725,23.725,0,0,0-6.242-6.846c.227-1.02.233-1.028,1.049-.393a24.182,24.182,0,0,1,5.121,5.406c.273.4.565.645,1.066.434l.528.97c-.218.262-.4.532-.154.873a.607.607,0,0,0,.814.191l.413,1.047M32.168,3.538c.418.063.807-.019.822-.505s-.351-.65-.8-.676c-.272-.017-.541-.082-.813-.1a.586.586,0,0,0-.714.533c-.052.409.157.633.573.641.315.007.608.175.929.111" fill="#59b5e2"/>
      <path id="Path_1692" data-name="Path 1692" d="M13.562,0c1.3,0,2.6.008,3.9,0,.455,0,.819.137.822.624,0,.461-.36.608-.783.608q-3.956,0-7.913,0c-.42,0-.789-.138-.793-.6C8.789.149,9.147,0,9.6,0c1.319.011,2.638,0,3.957,0" fill="#0f0f0e"/>
      <path id="Path_1693" data-name="Path 1693" d="M13.479,4.368c-1.283,0-2.566-.009-3.848.005-.453,0-.83-.12-.834-.611-.005-.506.387-.605.833-.6q3.907.012,7.815,0c.446,0,.838.1.834.6s-.381.616-.833.612c-1.322-.014-2.645-.005-3.967-.005" fill="#0e0c0b"/>
      <path id="Path_1694" data-name="Path 1694" d="M53.871,0c1.1,0,2.207.007,3.311,0,.429,0,.781.134.8.586.025.507-.359.646-.8.646H50.562c-.442,0-.826-.136-.8-.644.021-.453.37-.592.8-.588,1.1.011,2.207,0,3.311,0" fill="#0f0f0e"/>
      <path id="Path_1695" data-name="Path 1695" d="M53.861,4.368c-1.083,0-2.167-.01-3.25.005-.446.006-.832-.1-.85-.6s.364-.62.813-.619q3.309.012,6.618,0c.427,0,.789.117.792.582,0,.49-.357.636-.814.631-1.1-.012-2.206,0-3.309,0" fill="#0e0c0b"/>
      <path id="Path_1696" data-name="Path 1696" d="M54.731,52c.826,0,1.652.005,2.477,0,.431,0,.769.158.782.61s-.335.634-.756.636q-2.478.007-4.955,0c-.4,0-.774-.113-.771-.61,0-.515.363-.636.805-.634.806,0,1.612,0,2.418,0" fill="#1b1a1a"/>
      <path id="Path_1697" data-name="Path 1697" d="M54.723,56.006c-.808,0-1.616,0-2.424,0-.418,0-.768-.111-.787-.593-.022-.541.361-.626.8-.625,1.616,0,3.233.006,4.849,0,.442,0,.837.1.827.608-.009.491-.389.621-.838.614-.808-.012-1.616,0-2.424,0" fill="#0f0f0e"/>
      <path id="Path_1698" data-name="Path 1698" d="M51.714,14.336a.608.608,0,0,1-.815-.191c-.243-.341-.064-.611.154-.873.34-.062.679-.1.866.282a.622.622,0,0,1-.2.782" fill="#0f0f0e"/>
      <path id="Path_1699" data-name="Path 1699" d="M.712,29.821c.329.092.574.283.55.646a.624.624,0,0,1-.623.577.581.581,0,0,1-.553-.673c.031-.379.288-.514.626-.55" fill="#0f0f0e"/>
      <path id="Path_1700" data-name="Path 1700" d="M7.763,17.181a6.259,6.259,0,0,1,.486,1.23A19.568,19.568,0,0,0,4.13,26.379,21.315,21.315,0,0,0,8.253,45.912a20.865,20.865,0,0,0,13.3,7.733,21.337,21.337,0,0,0,15.88-3.5c.065-.044.129-.091.195-.134.322-.207.655-.248.885.1a.607.607,0,0,1-.232.911,23.431,23.431,0,0,1-4.4,2.407A22.924,22.924,0,0,1,8.067,47.557a22.3,22.3,0,0,1-5.739-12.6A22.639,22.639,0,0,1,7.632,17.3a1.135,1.135,0,0,1,.131-.118" fill="#f9b9b0"/>
      <path id="Path_1701" data-name="Path 1701" d="M9.16,17.316q-.246-.578-.493-1.156a23,23,0,0,1,13.65-6.787,5.8,5.8,0,0,1,.59-.036c.366-.012.622.136.647.527.025.414-.228.615-.608.655a22.144,22.144,0,0,0-2.908.488A21.529,21.529,0,0,0,9.16,17.316" fill="#f9b9b0"/>
      <path id="Path_1702" data-name="Path 1702" d="M41.338,48.178c0,.389-1.064,1.414-1.455,1.389a.593.593,0,0,1-.515-.341.5.5,0,0,1,.069-.6c.316-.32.644-.629.987-.92a.543.543,0,0,1,.66-.025.523.523,0,0,1,.254.5" fill="#f9b9b0"/>
      <path id="Path_1703" data-name="Path 1703" d="M38.986,32.208a13.878,13.878,0,1,1-13.842-13.89,13.877,13.877,0,0,1,13.842,13.89m-4.855,3.13.962-.638a.614.614,0,0,0,.8.2,3.149,3.149,0,0,0,1.844-2.443,2.678,2.678,0,0,0-1.148-2.516,25.779,25.779,0,0,0-6.273-3.5,13.806,13.806,0,0,0-7.541-.787,22.4,22.4,0,0,0-9.06,4.254,2.716,2.716,0,0,0,0,4.555c.763.557,1.553,1.082,2.362,1.57a18.554,18.554,0,0,0,8.1,2.869,15.123,15.123,0,0,0,7.6-1.6c.353-.162.356-.487.308-.815L33.1,35.97a.6.6,0,0,0,.857.18.582.582,0,0,0,.179-.812m-9,9.315a12.532,12.532,0,0,0,1.475-.1,12.386,12.386,0,0,0,9.6-6.676,3.993,3.993,0,0,0,.353-.811.573.573,0,0,0-1.052-.453c-.13.22-.228.458-.343.687a11.249,11.249,0,0,1-18.539,2.3c-.267-.309-.595-.436-.932-.174-.359.279-.255.618.01.926.1.119.2.245.308.358a12.522,12.522,0,0,0,9.118,3.953m-10.72-18.67a.567.567,0,0,0,.341.57.492.492,0,0,0,.6-.109,3.556,3.556,0,0,0,.413-.573,11.317,11.317,0,0,1,15.023-3.448,12.53,12.53,0,0,1,2.421,1.882c.289.286.6.415.925.1s.173-.642-.091-.928c-.067-.072-.138-.142-.209-.209a12.2,12.2,0,0,0-9-3.511,12.141,12.141,0,0,0-10.2,5.693.914.914,0,0,0-.224.536m.847,11.782a3.069,3.069,0,0,0-.525-1.049.5.5,0,0,0-.673-.177.55.55,0,0,0-.328.678A2.884,2.884,0,0,0,14.3,38.3a.517.517,0,0,0,.64.138c.237-.1.35-.3.323-.672M35.506,27.009a.561.561,0,0,0,.59-.458,1.577,1.577,0,0,0-.708-1.2.554.554,0,0,0-.711.239c-.009.017-.018.035-.026.053a1.228,1.228,0,0,0,.855,1.368" fill="#f0b009"/>
      <path id="Path_1704" data-name="Path 1704" d="M45.936,42.616c-1.176-.987-2.242-1.881-3.308-2.777-.966-.812-1.927-1.63-2.9-2.436a.549.549,0,0,1-.234-.691,13.912,13.912,0,0,0,.667-5.236c-.031-.405.219-.335.446-.335q1.895,0,3.789,0c3.216,0,6.432.005,9.648-.007.381,0,.555.038.525.5A24.239,24.239,0,0,1,49.619,45.1c-.236.31-.366.345-.653.079-.591-.547-1.425-.952-1.762-1.617a5.431,5.431,0,0,1-.081-2.216c0-.532-.011-1.065,0-1.6.011-.422-.163-.718-.59-.722s-.608.281-.6.709c.011.906,0,1.812,0,2.876m6.99-6.356a.605.605,0,0,0-.515-.673.58.58,0,0,0-.664.455c-.234.709-.436,1.429-.69,2.13a20.769,20.769,0,0,1-2.382,4.6c-.256.377-.288.711.1.962s.669.025.892-.3c.044-.065.082-.135.125-.2a22.45,22.45,0,0,0,2.679-5.5c.167-.5.312-1.012.455-1.478m.6-3.372c.019-.358-.017-.695-.44-.785a.539.539,0,0,0-.7.389,7.826,7.826,0,0,0-.168,1.333.581.581,0,0,0,1.156.107c.079-.341.1-.7.148-1.044" fill="#3ea858"/>
      <path id="Path_1705" data-name="Path 1705" d="M43.289,6.855A23.725,23.725,0,0,1,49.531,13.7a24.11,24.11,0,0,1,3.118,8.416,8.591,8.591,0,0,1,.174,1.7c-.009.347-.118.6-.456.653a.55.55,0,0,1-.667-.511c-.15-.848-.233-1.7-.407-2.552a22.577,22.577,0,0,0-4.252-9.246,29.382,29.382,0,0,0-4.092-4.155,4.906,4.906,0,0,1,.34-1.15" fill="#b7ddf5"/>
      <path id="Path_1706" data-name="Path 1706" d="M41.888,7.219c-1.114-.619-2.2-1.281-3.363-1.82a23.978,23.978,0,0,0-3.483-1.261,3.6,3.6,0,0,1-.451-.132c-.316-.137-.533-.365-.413-.731a.58.58,0,0,1,.794-.4,32.848,32.848,0,0,1,3.4,1.151,25.984,25.984,0,0,1,3.346,1.735c.207.124.414.236.439.51l-.27.95" fill="#b7ddf5"/>
      <path id="Path_1707" data-name="Path 1707" d="M32.168,3.538c-.321.064-.614-.1-.929-.111-.416-.008-.625-.232-.573-.641a.586.586,0,0,1,.714-.533c.272.022.541.087.813.1.446.026.812.2.8.676s-.4.568-.822.505" fill="#b7ddf5"/>
      <path id="Path_1708" data-name="Path 1708" d="M32.081,36.487c.048.329.045.654-.308.815a15.12,15.12,0,0,1-7.6,1.6,18.571,18.571,0,0,1-8.1-2.869c-.809-.488-1.6-1.013-2.362-1.571a2.716,2.716,0,0,1,0-4.555,22.413,22.413,0,0,1,9.06-4.253,13.8,13.8,0,0,1,7.542.787,25.758,25.758,0,0,1,6.272,3.5,2.678,2.678,0,0,1,1.149,2.515A3.151,3.151,0,0,1,35.888,34.9a.613.613,0,0,1-.8-.2c-.225-.575.187-.807.562-1.077a1.594,1.594,0,0,0,.014-2.869,25.183,25.183,0,0,0-3.7-2.279,5.6,5.6,0,0,0-1.684-.679l.332.475a6.726,6.726,0,0,1,1.246,3.914,7.121,7.121,0,0,1-1.468,4.26c-.053.021-.112.053-.067.111.019.025.1,0,.149,0a4.616,4.616,0,0,0,.582-.233.755.755,0,0,1,1.025.161M30.663,32.2a5.56,5.56,0,0,0-11.119-.031A5.632,5.632,0,0,0,25.1,37.756,5.57,5.57,0,0,0,30.663,32.2M20,36.643a6.919,6.919,0,0,1-.05-8.874,2.66,2.66,0,0,0-.325.076,24.441,24.441,0,0,0-5.32,3.116,1.512,1.512,0,0,0,.032,2.479,23.746,23.746,0,0,0,2.653,1.751A18.469,18.469,0,0,0,20,36.643" fill="#0e0c0b"/>
      <path id="Path_1709" data-name="Path 1709" d="M25.134,44.653A12.521,12.521,0,0,1,16.016,40.7c-.11-.113-.205-.24-.308-.359-.265-.307-.369-.647-.01-.926.337-.262.665-.135.932.174A11.25,11.25,0,0,0,35.169,37.3c.115-.229.213-.468.343-.687a.55.55,0,0,1,.744-.284.545.545,0,0,1,.308.736,3.993,3.993,0,0,1-.353.811,12.386,12.386,0,0,1-9.6,6.676,12.118,12.118,0,0,1-1.475.1" fill="#fcdd9a"/>
      <path id="Path_1710" data-name="Path 1710" d="M14.414,25.983a.914.914,0,0,1,.224-.536,12.146,12.146,0,0,1,10.2-5.694,12.2,12.2,0,0,1,9,3.512c.071.067.142.136.209.209.264.286.43.6.091.928s-.636.189-.925-.1a12.491,12.491,0,0,0-2.421-1.882,11.317,11.317,0,0,0-15.023,3.448,3.556,3.556,0,0,1-.413.573.492.492,0,0,1-.6.109.57.57,0,0,1-.341-.57" fill="#fcdd9a"/>
      <path id="Path_1711" data-name="Path 1711" d="M15.262,37.765c.027.371-.086.568-.324.673a.518.518,0,0,1-.64-.138,2.925,2.925,0,0,1-.563-1.083.55.55,0,0,1,.329-.677.5.5,0,0,1,.673.176,3.105,3.105,0,0,1,.525,1.049" fill="#fcdd9a"/>
      <path id="Path_1712" data-name="Path 1712" d="M35.506,27.009a1.228,1.228,0,0,1-.855-1.368c.008-.018.017-.036.026-.053a.554.554,0,0,1,.711-.239,1.577,1.577,0,0,1,.708,1.2.561.561,0,0,1-.59.458" fill="#fcdd9a"/>
      <path id="Path_1713" data-name="Path 1713" d="M33.1,35.97a.592.592,0,0,1,.249-.814c.319-.2.559-.026.787.182a.582.582,0,0,1-.178.812.6.6,0,0,1-.858-.18" fill="#0f0f0e"/>
      <path id="Path_1714" data-name="Path 1714" d="M52.925,36.26c-.143.466-.288.975-.454,1.478a22.485,22.485,0,0,1-2.679,5.5c-.044.065-.081.135-.126.2-.223.323-.514.542-.891.3s-.357-.585-.1-.962a20.769,20.769,0,0,0,2.382-4.6c.255-.7.457-1.421.69-2.13a.58.58,0,0,1,.664-.455.6.6,0,0,1,.515.673" fill="#87c595"/>
      <path id="Path_1715" data-name="Path 1715" d="M53.527,32.888c-.047.348-.069.7-.148,1.044a.581.581,0,0,1-1.156-.107,7.826,7.826,0,0,1,.168-1.333.539.539,0,0,1,.7-.389c.423.09.459.427.44.785" fill="#87c595"/>
      <path id="Path_1716" data-name="Path 1716" d="M30.664,32.2A5.572,5.572,0,0,1,25.1,37.756a5.634,5.634,0,0,1-5.557-5.587,5.56,5.56,0,0,1,11.12.03m-2.711,0a2.764,2.764,0,0,0-2.187-2.78,2.5,2.5,0,0,1-1.076-.51,1.995,1.995,0,0,0-2.75,2.821,1.7,1.7,0,0,1,.352.837,2.842,2.842,0,0,0,5.661-.368m-2.786,4.887A8.58,8.58,0,0,0,26.034,37a4.884,4.884,0,0,0,3.9-5.755,4.383,4.383,0,0,0-1.361-2.5.507.507,0,0,0-.851.065c-.323.407-.027.688.22.974A3.7,3.7,0,0,1,22.719,35c-.32-.27-.688-.51-1.035-.123s-.108.693.226,1a4.891,4.891,0,0,0,3.257,1.215" fill="#59b3df"/>
      <path id="Path_1717" data-name="Path 1717" d="M30.474,36.559c-.051,0-.13.023-.149,0-.045-.058.014-.091.067-.111l.082.113" fill="#f8f8f7"/>
      <path id="Path_1718" data-name="Path 1718" d="M27.952,32.2a2.842,2.842,0,0,1-5.66.369,1.712,1.712,0,0,0-.352-.838,1.995,1.995,0,0,1,2.75-2.821,2.5,2.5,0,0,0,1.076.51,2.763,2.763,0,0,1,2.186,2.78m-1.2-.086a1.593,1.593,0,0,0-.735-1.291c-.232-.194-.375-.227-.473.155a1.979,1.979,0,0,1-1.706,1.578c-.354.055-.239.212-.155.4a1.633,1.633,0,0,0,3.069-.841m-2.372-1.552a.825.825,0,1,0-.836.814.859.859,0,0,0,.836-.814" fill="#090b0c"/>
      <path id="Path_1719" data-name="Path 1719" d="M25.167,37.086a4.891,4.891,0,0,1-3.257-1.215c-.334-.3-.564-.62-.226-1s.715-.147,1.035.123a3.7,3.7,0,0,0,5.219-5.217c-.247-.286-.543-.567-.22-.974a.507.507,0,0,1,.851-.065,4.383,4.383,0,0,1,1.361,2.5A4.884,4.884,0,0,1,26.034,37a8.58,8.58,0,0,1-.867.086" fill="#b7ddf5"/>
      <path id="Path_1720" data-name="Path 1720" d="M26.747,32.113a1.633,1.633,0,0,1-3.069.841c-.084-.187-.2-.343.155-.4a1.978,1.978,0,0,0,1.706-1.578c.1-.382.241-.348.473-.154a1.589,1.589,0,0,1,.735,1.29" fill="#3b3935"/>
      <path id="Path_1721" data-name="Path 1721" d="M24.375,30.561a.825.825,0,1,1-.813-.836.86.86,0,0,1,.813.836" fill="#f8f8f7"/>
    </g>
  </g>
</svg>
