<svg xmlns="http://www.w3.org/2000/svg" xmlns:xlink="http://www.w3.org/1999/xlink" width="62.671" height="62.681" viewBox="0 0 62.671 62.681">
  <defs>
    <clipPath id="clip-path">
      <rect id="Rectangle_42" data-name="Rectangle 42" width="62.671" height="62.681" transform="translate(0 0)" fill="none"/>
    </clipPath>
  </defs>
  <g id="Group_1359" data-name="Group 1359" transform="translate(0 0)">
    <g id="Group_1358" data-name="Group 1358" clip-path="url(#clip-path)">
      <path id="Path_1537" data-name="Path 1537" d="M62.671,20.823a16.509,16.509,0,0,0-.457,2.294,18.494,18.494,0,0,1-15.45,14.358A18.809,18.809,0,0,1,32.7,34.161c-1.291-.909-2.283-2.156-3.532-3.106A16.142,16.142,0,0,0,11.844,29a2.482,2.482,0,0,1-1.033.339A1.217,1.217,0,0,1,9.665,28.4a1.188,1.188,0,0,1,.662-1.425,17.083,17.083,0,0,1,5.112-1.732,18.864,18.864,0,0,1,17.115,5.525,15.354,15.354,0,0,0,10.058,4.4A16.222,16.222,0,0,0,60.134,20.3a16.379,16.379,0,0,0-30.8-9.105c-.113.212-.216.429-.35.695a4.384,4.384,0,0,1,.7-.07,1.222,1.222,0,0,1,1.124,1.041,1.14,1.14,0,0,1-.651,1.268c-.97.46-1.953.9-2.948,1.3a1.135,1.135,0,0,1-1.53-.614q-.672-1.4-1.265-2.833a1.227,1.227,0,0,1,.492-1.55c.545-.334,1.157-.187,1.792.452a21.072,21.072,0,0,1,2.31-3.724A18.3,18.3,0,0,1,40.882.239,18.805,18.805,0,0,1,60.993,10.933a18.157,18.157,0,0,1,1.557,5.8c.008.086.023.158.121.178Z" fill="#0a0a08"/>
      <path id="Path_1538" data-name="Path 1538" d="M16.774,62.681a6.21,6.21,0,0,0-1.746-.363A18.841,18.841,0,0,1,.368,47.536,18.634,18.634,0,0,1,1.956,35.43,1.264,1.264,0,0,1,3.4,34.585,1.242,1.242,0,0,1,4.2,36.456a16.89,16.89,0,0,0-1.4,4.075A16,16,0,0,0,7,55.122a15.541,15.541,0,0,0,13.095,5c6.152-.453,10.582-3.572,13.457-8.98.037-.071.07-.145.1-.219a.373.373,0,0,0,.007-.067c-.148-.131-.3-.013-.455,0a1.19,1.19,0,0,1-1.25-.861,1.069,1.069,0,0,1,.492-1.372c1.053-.524,2.131-1,3.225-1.431a1.176,1.176,0,0,1,1.414.782c.375.81.733,1.628,1.09,2.446a1.32,1.32,0,0,1-.374,1.829c-.558.347-1.16.192-1.786-.477a18.506,18.506,0,0,1-2.749,4.317,18.824,18.824,0,0,1-11.548,6.374c-.424.068-.884-.035-1.274.223Z" fill="#0a0a08"/>
      <path id="Path_1539" data-name="Path 1539" d="M55.819,15.444a1.1,1.1,0,0,1-.386.933,1.388,1.388,0,0,1-.333.265,2.5,2.5,0,0,0-1.5,2.993.71.71,0,0,0,.285.553c.465.329.929.661,1.378,1.012a1.23,1.23,0,0,1,.351,1.771q-1.142,2.014-2.314,4.013a1.245,1.245,0,0,1-1.758.589.259.259,0,0,1-.057-.022,2.6,2.6,0,0,0-3.444.153.647.647,0,0,0-.322.512c-.048.608-.131,1.215-.222,1.818A1.147,1.147,0,0,1,46.3,31.1q-2.477.021-4.954,0a1.181,1.181,0,0,1-1.19-1.087c-.014-.1-.011-.2-.025-.3-.087-.624.01-1.386-.32-1.831s-1.076-.6-1.583-.972a.489.489,0,0,0-.563,0c-.517.235-1.037.463-1.563.677a1.219,1.219,0,0,1-1.71-.569q-1.189-2.024-2.345-4.065a1.218,1.218,0,0,1,.371-1.762.73.73,0,0,1,.15-.106,2.538,2.538,0,0,0,1.491-3.056.622.622,0,0,0-.277-.492c-.466-.328-.929-.66-1.381-1.008a1.21,1.21,0,0,1-.376-1.717q1.179-2.1,2.4-4.172a1.234,1.234,0,0,1,1.585-.545.822.822,0,0,1,.221.1,2.6,2.6,0,0,0,3.437-.2.545.545,0,0,0,.264-.42c.063-.587.144-1.172.215-1.758a1.192,1.192,0,0,1,1.277-1.188q2.417-.015,4.832,0A1.168,1.168,0,0,1,47.5,7.707c.017.1.035.2.048.3a4.473,4.473,0,0,0,.268,1.784c.295.454,1.01.621,1.513.956a.638.638,0,0,0,.725.053c.51-.249,1.032-.475,1.56-.684a1.2,1.2,0,0,1,1.63.532c.819,1.38,1.612,2.776,2.413,4.167a1,1,0,0,1,.162.628M43.826,28.656c1.329,0,1.329,0,1.487-1.342.009-.081.034-.16.038-.241a1.427,1.427,0,0,1,1.1-1.365,5.2,5.2,0,0,0,1.9-1.085,1.671,1.671,0,0,1,2.068-.249c1.206.567,1.218.541,1.9-.634.669-1.157.689-1.187-.446-1.948a1.654,1.654,0,0,1-.785-1.931,3.835,3.835,0,0,0,.032-1.762,1.91,1.91,0,0,1,.954-2.318c.939-.6.91-.656.359-1.6-.257-.437-.437-1.072-.818-1.241-.435-.192-.953.308-1.433.509a1.471,1.471,0,0,1-1.694-.25,5.069,5.069,0,0,0-1.878-1.118A1.728,1.728,0,0,1,45.3,10.333c-.09-1.262-.113-1.261-1.37-1.261-1.448,0-1.459,0-1.582,1.427a1.564,1.564,0,0,1-1.163,1.531,4.728,4.728,0,0,0-1.795,1.017,1.761,1.761,0,0,1-2.227.266c-1.114-.556-1.134-.517-1.74.537-.726,1.262-.742,1.284.454,2.141A1.55,1.55,0,0,1,36.6,17.66a5,5,0,0,0-.049,2.005,1.864,1.864,0,0,1-.9,2.233c-1.012.642-.978.695-.375,1.735.745,1.282.752,1.3,2.129.676a1.519,1.519,0,0,1,1.8.236,5.7,5.7,0,0,0,2,1.157,1.559,1.559,0,0,1,1.14,1.547c.1,1.408.116,1.407,1.479,1.407" fill="#0a0a08"/>
      <path id="Path_1540" data-name="Path 1540" d="M18.853,56.072c-.774,0-1.549.005-2.324,0a1.231,1.231,0,0,1-1.347-1.255,1.314,1.314,0,0,1-.03-.3c.2-1.5-.805-2.115-1.917-2.672a.535.535,0,0,0-.514.014c-.518.231-1.037.463-1.562.679a1.222,1.222,0,0,1-1.72-.543Q8.249,49.968,7.1,47.925a1.219,1.219,0,0,1,.345-1.769.527.527,0,0,1,.1-.071,2.537,2.537,0,0,0,1.554-3.022.738.738,0,0,0-.307-.6c-.472-.318-.929-.66-1.379-1.01a1.2,1.2,0,0,1-.354-1.673q1.178-2.1,2.4-4.173a1.21,1.21,0,0,1,1.627-.54c.528.209,1.051.435,1.559.687a.628.628,0,0,0,.772-.08,2.559,2.559,0,0,1,.833-.5c.645-.194.783-.662.816-1.237.018-.324.07-.647.108-.97.13-1.091.472-1.4,1.578-1.4,1.468,0,2.936,0,4.4,0a1.2,1.2,0,0,1,1.4,1.189,13.959,13.959,0,0,1,.192,1.575c.016.349.108.57.455.683a1.6,1.6,0,0,1,.589.312,1.462,1.462,0,0,0,2.013.116,2.122,2.122,0,0,1,.33-.156c1.36-.6,1.7-.487,2.451.817.661,1.143,1.327,2.283,1.985,3.429.525.914.451,1.525-.47,2.064a2.482,2.482,0,0,0-1.466,2.781c.061.362.08.642.416.857a15.39,15.39,0,0,1,1.28.939,1.208,1.208,0,0,1,.369,1.676q-1.18,2.1-2.411,4.168a1.211,1.211,0,0,1-1.628.535.537.537,0,0,1-.114-.043,2.551,2.551,0,0,0-3.391.112c-.212.173-.386.266-.4.582a17.048,17.048,0,0,1-.212,1.757,1.181,1.181,0,0,1-1.3,1.1c-.8.008-1.59,0-2.386,0M11.236,37.837c-.221-.035-.274.113-.345.232-.134.228-.267.457-.395.688-.236.426-.683.873-.647,1.275.042.465.7.666,1.109.952a1.474,1.474,0,0,1,.687,1.567,5.039,5.039,0,0,0-.061,2.005,1.942,1.942,0,0,1-.981,2.367c-.913.57-.883.631-.342,1.549.268.452.407,1.14.846,1.289s.957-.33,1.439-.534a1.409,1.409,0,0,1,1.592.2A6.74,6.74,0,0,0,16.344,50.7a1.473,1.473,0,0,1,1.033,1.43c.131,1.491.137,1.491,1.649,1.491,1.191,0,1.219,0,1.3-1.2A1.793,1.793,0,0,1,21.7,50.574a4.192,4.192,0,0,0,1.678-.975,1.667,1.667,0,0,1,2.063-.273c1.226.577,1.24.547,1.908-.6.686-1.179.706-1.21-.437-1.982a1.649,1.649,0,0,1-.778-1.929,4.008,4.008,0,0,0,.022-1.822,1.848,1.848,0,0,1,.917-2.216c.976-.639.947-.684.374-1.683-.76-1.327-.768-1.345-2.161-.715a1.509,1.509,0,0,1-1.8-.251,4.734,4.734,0,0,0-1.774-1.054,1.825,1.825,0,0,1-1.387-1.9c-.063-1.141-.092-1.148-1.236-1.136-.505.005-1.155-.214-1.477.086s-.21.949-.245,1.453a1.427,1.427,0,0,1-1.03,1.365,6.269,6.269,0,0,0-2.1,1.206,1.464,1.464,0,0,1-1.8.208c-.4-.2-.818-.359-1.2-.522" fill="#0a0a08"/>
      <path id="Path_1541" data-name="Path 1541" d="M6.387,30.124a1.178,1.178,0,0,1,1.224,1.228,1.2,1.2,0,0,1-1.185,1.217A1.246,1.246,0,0,1,5.154,31.36a1.214,1.214,0,0,1,1.233-1.236" fill="#0a0a08"/>
      <path id="Path_1542" data-name="Path 1542" d="M43.827,28.656c-1.363,0-1.374,0-1.479-1.407A1.56,1.56,0,0,0,41.207,25.7a5.72,5.72,0,0,1-2-1.157,1.519,1.519,0,0,0-1.8-.236c-1.377.622-1.385.606-2.129-.676-.6-1.04-.637-1.093.374-1.735a1.863,1.863,0,0,0,.9-2.233,5.018,5.018,0,0,1,.05-2.005,1.55,1.55,0,0,0-.728-1.669c-1.2-.857-1.18-.879-.454-2.141.606-1.054.626-1.093,1.74-.537a1.761,1.761,0,0,0,2.227-.266,4.728,4.728,0,0,1,1.795-1.017A1.565,1.565,0,0,0,42.346,10.5c.123-1.428.133-1.427,1.582-1.427,1.256,0,1.28,0,1.37,1.261a1.727,1.727,0,0,0,1.314,1.751A5.065,5.065,0,0,1,48.489,13.2a1.473,1.473,0,0,0,1.695.25c.48-.2,1-.7,1.432-.509.382.169.562.8.818,1.241.552.941.581.994-.358,1.6a1.91,1.91,0,0,0-.954,2.318,3.835,3.835,0,0,1-.033,1.762,1.656,1.656,0,0,0,.786,1.931c1.135.761,1.114.791.445,1.948-.679,1.175-.691,1.2-1.9.634a1.672,1.672,0,0,0-2.068.249,5.188,5.188,0,0,1-1.9,1.085,1.426,1.426,0,0,0-1.1,1.365c0,.081-.029.16-.039.241-.157,1.342-.157,1.342-1.486,1.342m4.285-9.775a4.285,4.285,0,1,0-8.57.02,4.285,4.285,0,0,0,8.57-.02" fill="#e19611"/>
      <path id="Path_1543" data-name="Path 1543" d="M11.236,37.837c.379.164.8.318,1.2.523a1.466,1.466,0,0,0,1.8-.209,6.286,6.286,0,0,1,2.1-1.206,1.426,1.426,0,0,0,1.03-1.365c.035-.5-.068-1.161.245-1.453s.972-.08,1.477-.086c1.143-.012,1.173-.005,1.235,1.137a1.825,1.825,0,0,0,1.388,1.9,4.736,4.736,0,0,1,1.773,1.054,1.509,1.509,0,0,0,1.8.252c1.393-.631,1.4-.612,2.162.714.572,1,.6,1.044-.374,1.684a1.847,1.847,0,0,0-.917,2.215,4.022,4.022,0,0,1-.022,1.822,1.648,1.648,0,0,0,.778,1.93c1.143.772,1.122.8.437,1.981-.668,1.147-.682,1.177-1.908.6a1.668,1.668,0,0,0-2.063.273,4.206,4.206,0,0,1-1.678.976,1.792,1.792,0,0,0-1.368,1.843c-.083,1.2-.112,1.2-1.3,1.2-1.511,0-1.518,0-1.648-1.49a1.471,1.471,0,0,0-1.034-1.43,6.743,6.743,0,0,1-2.206-1.276,1.408,1.408,0,0,0-1.591-.2c-.483.2-1,.683-1.439.534s-.579-.836-.846-1.289c-.541-.918-.571-.979.342-1.549a1.943,1.943,0,0,0,.981-2.367,5.02,5.02,0,0,1,.061-2.005,1.475,1.475,0,0,0-.688-1.566c-.406-.287-1.066-.488-1.108-.953-.036-.4.41-.849.646-1.275.129-.231.262-.46.4-.688.07-.119.123-.266.345-.232m11.912,5.994A4.287,4.287,0,1,0,18.829,48.1a4.246,4.246,0,0,0,4.319-4.268" fill="#e19611"/>
      <path id="Path_1544" data-name="Path 1544" d="M48.111,18.881a4.285,4.285,0,1,1-4.29-4.293,4.2,4.2,0,0,1,4.29,4.293m-2.453-.042A1.829,1.829,0,1,0,42,18.881a1.829,1.829,0,0,0,3.657-.042" fill="#0a0a08"/>
      <path id="Path_1545" data-name="Path 1545" d="M23.148,43.832a4.286,4.286,0,1,1-8.572-.081,4.286,4.286,0,0,1,8.572.081m-2.455-.011A1.818,1.818,0,0,0,18.872,42a1.838,1.838,0,0,0-1.83,1.819,1.826,1.826,0,1,0,3.651,0" fill="#0a0a08"/>
    </g>
  </g>
</svg>
