<svg xmlns="http://www.w3.org/2000/svg" xmlns:xlink="http://www.w3.org/1999/xlink" width="61.075" height="61.056" viewBox="0 0 61.075 61.056">
  <defs>
    <clipPath id="clip-path">
      <rect id="Rectangle_45" data-name="Rectangle 45" width="61.075" height="61.056" transform="translate(0 0)" fill="none"/>
    </clipPath>
  </defs>
  <g id="Group_1365" data-name="Group 1365" transform="translate(0 0)">
    <g id="Group_1364" data-name="Group 1364" clip-path="url(#clip-path)">
      <path id="Path_1589" data-name="Path 1589" d="M48.651,0c.041.036.076.09.124.106A3.267,3.267,0,0,1,51.23,3.427q.02,11.715,0,23.429c0,.736-.195.969-.912,1.182-.769-.243-.918-.446-.918-1.3,0-5.28-.011-10.56.014-15.84,0-.564-.167-.666-.685-.661-2.68.026-5.359.014-8.039.011-.728,0-.987-.221-1.131-.932a.946.946,0,0,1,1.076-.865c2.741.011,5.482-.008,8.223.017.462,0,.559-.131.55-.566-.028-1.39-.009-2.781-.011-4.172,0-1.483-.468-1.944-1.966-1.944H5.185c-.218,0-.436.012-.654.018-.357-.007-.714-.021-1.072-.018A1.516,1.516,0,0,0,1.79,3.443c-.006,1.47.021,2.941-.014,4.411-.012.491.107.62.61.619q16.574-.024,33.146-.012c.159,0,.317-.011.476-.016a.962.962,0,0,1,.859.87c-.169.757-.406.937-1.252.937H4.77c-.238,0-.476.013-.714.019-.554-.006-1.111.02-1.662-.029-.488-.044-.62.1-.617.6.022,4.519.013,9.038.012,13.557,0,.834-.149,1.025-.954,1.242a1.372,1.372,0,0,1-.835-.6V2.5c.27-.378.366-.844.657-1.22A4.711,4.711,0,0,1,2.505,0Z" fill="#0a0a0a"/>
      <path id="Path_1590" data-name="Path 1590" d="M27.438,48.774a1.028,1.028,0,0,1-1.163.856q-11.412-.015-22.825-.01A3.216,3.216,0,0,1,.11,47.211C.095,47.167.038,47.139,0,47.1V29.216c.246-.222.452-.507.826-.532.759.145.963.386.963,1.161,0,5.165.047,10.331-.021,15.5-.03,2.264.725,2.637,2.648,2.458.238.008.475.024.712.024H26.184c.837,0,1.031.15,1.254.951" fill="#090808"/>
      <path id="Path_1591" data-name="Path 1591" d="M60.182,44.124v2.381c-.793.252-.919.417-.919,1.223q0,4.947,0,9.9c0,1.494-.148,1.644-1.614,1.644H34.939c-.516,0-1.032-.011-1.548-.018a3.894,3.894,0,0,1-.25-.967q.017-12.538.01-25.076c0-.9.1-1,.973-1l17.39-.012c.162.168.079.377.08.564.008,1.387,0,2.774.007,4.161a2.7,2.7,0,0,0,2.894,2.89c1.446,0,2.892.01,4.339-.006.328,0,.446.078.436.424-.023.871-.008,1.743-.007,2.615s.108,1.015.919,1.28M45.437,55.416H36.5c-.6,0-1.192,0-1.787.017a.878.878,0,0,0-.176,1.725,2.4,2.4,0,0,0,.645.062q10.217,0,20.433,0a2.276,2.276,0,0,0,.645-.068.813.813,0,0,0,.614-.956.8.8,0,0,0-.777-.76,5.938,5.938,0,0,0-.654-.02H45.437m-.068-3.671H35c-.7,0-1.112.323-1.127.861-.016.562.423.931,1.137.932q10.366,0,20.731,0c.741,0,1.14-.327,1.14-.912s-.381-.881-1.15-.881H45.369m-2.48-6.077h.02c0,1.111-.009,2.221,0,3.332a.874.874,0,0,0,.96.959c.594.013,1.19.013,1.784,0a3.4,3.4,0,0,0,3.116-1.927,5.1,5.1,0,0,0,.159-4.474,3.3,3.3,0,0,0-3.292-2.176c-.556,0-1.111,0-1.666,0-.768,0-1.076.3-1.082,1.075-.009,1.071,0,2.142,0,3.213m-1.684,3.477a2.6,2.6,0,0,0-.086-.382Q39.843,45.378,38.558,42a1.022,1.022,0,0,0-.987-.726,1.037,1.037,0,0,0-1.033.749Q35.25,45.4,33.972,48.784a.866.866,0,0,0,.5,1.214.8.8,0,0,0,1.137-.54c.215-1.067.864-1.269,1.787-1.129a1.119,1.119,0,0,0,.356,0c.895-.156,1.535.067,1.695,1.077a.772.772,0,0,0,.245.4A.8.8,0,0,0,40.62,50a.937.937,0,0,0,.585-.851M53.8,41.26a3.072,3.072,0,0,0-1.547.368,2.314,2.314,0,0,0-1.318,2.228,2.134,2.134,0,0,0,1.449,1.993c.7.278,1.4.559,2.085.859.315.137.635.341.594.734a.878.878,0,0,1-.756.742,2.282,2.282,0,0,1-2.179-.639.88.88,0,0,0-1.319-.05.9.9,0,0,0,.1,1.361,4.162,4.162,0,0,0,2.713,1.206,2.989,2.989,0,0,0,3.214-2.176c.28-1.211-.46-2.349-1.931-2.962-.547-.228-1.1-.45-1.648-.672-.26-.1-.563-.193-.515-.549.045-.328.29-.488.608-.573a2.258,2.258,0,0,1,1.84.456.9.9,0,0,0,1.308-.209.884.884,0,0,0-.269-1.254A4.29,4.29,0,0,0,53.8,41.26" fill="#ffc24e"/>
      <path id="Path_1592" data-name="Path 1592" d="M27.438,48.774c-.223-.8-.418-.951-1.254-.951H5.128c-.237,0-.475-.016-.712-.024a4.826,4.826,0,0,1-.372-1.422q.02-18.051.012-36.1c.238-.007.475-.02.713-.02H35.615c.845,0,1.083-.18,1.251-.937l2.7,0c.144.711.4.931,1.131.932,2.679,0,5.359.015,8.038-.011.519-.005.688.1.685.661-.024,5.28-.015,10.56-.014,15.84,0,.852.149,1.055.918,1.3,0,.076,0,.153,0,.229l-4.878-.007c-.01-.218-.027-.435-.027-.653q0-5.841,0-11.682a2.132,2.132,0,0,0-2.324-2.33q-17.493,0-34.984,0a2.07,2.07,0,0,0-2.271,2.239q-.006,9.417,0,18.834a2.056,2.056,0,0,0,1.8,2.217c.19.163.418.093.629.093q9.288.006,18.576,0a1.054,1.054,0,0,0,.582-.061l.233.013c0,1.451.011,2.9.011,4.351,0,.192.062.4-.094.57a1.2,1.2,0,0,0-1.068-.38,4.838,4.838,0,0,1-2.532-.382c-1.315-.757-2.7-1.391-4.065-2.058a1.486,1.486,0,0,0-2.267,1.383,3.672,3.672,0,0,0,0,.535c.054.406-.082.556-.514.538-.812-.035-1.627-.016-2.441-.009-.648.006-1.047.343-1.054.872a.959.959,0,0,0,1.034.92c.655.016,1.31,0,1.965,0,1,0,1,0,1.006.973A1.482,1.482,0,0,0,19.9,45.68c1.084-.521,2.18-1.024,3.224-1.619a5.219,5.219,0,0,1,3.322-.789,1.293,1.293,0,0,0,1.092-.346c.209.168.125.4.126.61.011,1.741.013,3.483.017,5.225l-.24.013M9.278,42.355c0,.416-.012.833,0,1.249a.8.8,0,0,0,.783.82.777.777,0,0,0,.928-.643A9.356,9.356,0,0,0,11,40.946a.763.763,0,0,0-.924-.642.8.8,0,0,0-.79.8c-.024.415-.005.833-.005,1.249M5.829,42.34c0,.4-.012.793,0,1.189a.876.876,0,0,0,.83.911.9.9,0,0,0,.939-.811,24.763,24.763,0,0,0,0-2.556.84.84,0,0,0-.953-.773.855.855,0,0,0-.813.91c-.013.376,0,.753,0,1.13" fill="#e1e7ec"/>
      <path id="Path_1593" data-name="Path 1593" d="M7.631,36.885a2.057,2.057,0,0,1-1.8-2.217q0-9.417,0-18.834A2.071,2.071,0,0,1,8.1,13.594H43.084a2.133,2.133,0,0,1,2.324,2.331q.009,5.841,0,11.682c0,.217.018.435.027.652-.008.574-.007,1.149-.029,1.722-.011.261.081.341.339.338,1.525-.019,3.05-.025,4.575-.035,2.578.008,5.156.056,7.733.011a2.865,2.865,0,0,1,3.018,2.985c-.074,3.212-.034,6.427-.012,9.64a1.053,1.053,0,0,1-.879,1.2c-.811-.264-.919-.414-.919-1.279s-.016-1.744.007-2.616c.01-.345-.109-.427-.437-.424-1.446.017-2.892.011-4.339.006A2.7,2.7,0,0,1,51.6,36.921c-.009-1.387,0-2.774-.006-4.161,0-.188.081-.4-.08-.565-.19-.167-.418-.082-.626-.082q-9,0-18,.011c-1.153,0-1.4.245-1.4,1.4V57.482c0,1.709.159,1.858,1.9,1.766.516.006,1.033.017,1.549.018H57.649c1.467,0,1.614-.15,1.614-1.643q0-4.948,0-9.9c0-.807.126-.972.919-1.224a1.049,1.049,0,0,1,.879,1.2c-.02,3.516-.008,7.034-.01,10.551a2.652,2.652,0,0,1-2.8,2.8H32.5a2.68,2.68,0,0,1-2.806-2.8q-.015-4.739-.019-9.476c.007-1.189.018-2.378.02-3.567,0-2.6-.008-5.194.009-7.791,0-.4-.084-.573-.516-.534-.511.045-1.027.034-1.541.048l-.232-.013a2.068,2.068,0,0,0-.292-.039q-9.747,0-19.5.006M43.56,28.242c.014-.2.039-.394.039-.591q0-5.688,0-11.375c0-.892,0-.893-.889-.893H9.959c-.217,0-.435.012-.653.018-.278-.006-.556-.017-.833-.017-.845,0-.846,0-.846.855V33.514c0,1.633,0,1.633,1.674,1.54.218.008.436.023.654.023q8.5,0,16.99,0c.238,0,.476-.017.714-.026.651.031,1.432.251,1.912-.077.385-.264.113-1.075.119-1.641a2.775,2.775,0,0,1,3.033-3.026q3.362,0,6.724,0,1.845,0,3.689,0c.246,0,.494.025.473-.345a13.346,13.346,0,0,0-.049-1.72m15.7,7.14c0-.694,0-1.388,0-2.082-.005-.842-.3-1.16-1.136-1.168-1.407-.012-2.815.008-4.223-.011-.379,0-.514.093-.506.5.025,1.428.006,2.856.011,4.284,0,.785.286,1.088,1.067,1.1,1.447.012,2.895-.01,4.343.012.387.006.463-.139.452-.485-.023-.714-.007-1.428-.007-2.142" fill="#090808"/>
      <path id="Path_1594" data-name="Path 1594" d="M27.651,36.931c.514-.014,1.029,0,1.54-.048.433-.039.519.132.517.534-.017,2.6-.007,5.194-.01,7.791,0,1.189-.013,2.378-.019,3.567l-2-.014c0-1.742-.006-3.484-.017-5.226,0-.206.083-.441-.126-.609a1.139,1.139,0,0,0,.033-1.074c.156-.169.094-.378.094-.57,0-1.45-.007-2.9-.011-4.351" fill="#b0c0cb"/>
      <path id="Path_1595" data-name="Path 1595" d="M50.322,30.284c-1.525.01-3.05.016-4.575.035-.258,0-.349-.077-.339-.338.022-.573.021-1.148.029-1.722l4.879.007.006,2.018" fill="#b8cad6"/>
      <path id="Path_1596" data-name="Path 1596" d="M39.562,9.319l-2.7,0a.962.962,0,0,0-.859-.87c-.23-.181-.5-.094-.747-.094q-15.273-.008-30.545.006c-.511,0-.689-.112-.675-.654.038-1.488.022-2.977.009-4.466A2.143,2.143,0,0,1,4.53,1.808c.218-.006.436-.018.654-.018h42.25c1.5,0,1.965.461,1.967,1.945,0,1.39-.018,2.781.01,4.171.009.435-.088.57-.55.566-2.741-.025-5.482-.006-8.223-.017a.947.947,0,0,0-1.076.865M10.3,4.488c-.118,0-.237-.006-.355,0a.926.926,0,0,0-.994.875c-.01.531.383.891,1.016.928.1.006.2,0,.3,0,.929,0,1.4-.293,1.413-.893s-.456-.917-1.377-.913m4.339,0a3.353,3.353,0,0,0-.481.033.8.8,0,0,0-.722.874c-.007.558.4.883,1.1.9,1.1.03,1.53-.2,1.576-.834.048-.676-.347-.972-1.472-.975m-8.761,0c-1.011,0-1.41.281-1.364.968.038.585.421.838,1.271.841.965,0,1.351-.229,1.393-.837.047-.676-.345-.97-1.3-.972" fill="#7bcff5"/>
      <path id="Path_1597" data-name="Path 1597" d="M4.056,10.272q0,18.052-.012,36.1A4.826,4.826,0,0,0,4.416,47.8c-1.923.178-2.678-.195-2.648-2.458.067-5.165.022-10.331.02-15.5,0-.775-.2-1.016-.962-1.16l.009-3.041c.805-.216.954-.408.954-1.241,0-4.519.01-9.038-.013-13.557,0-.505.129-.646.618-.6.55.05,1.108.023,1.662.03" fill="#b8cad6"/>
      <path id="Path_1598" data-name="Path 1598" d="M4.531,1.808A2.141,2.141,0,0,0,4.05,3.237c.012,1.489.029,2.978-.009,4.466-.014.542.164.655.675.654q15.272-.021,30.545-.006c.249,0,.517-.088.747.093-.159.006-.317.017-.476.017q-16.574,0-33.146.012c-.5,0-.622-.128-.61-.619.035-1.47.008-2.941.014-4.412A1.516,1.516,0,0,1,3.459,1.789c.358,0,.715.012,1.072.019" fill="#63bee7"/>
      <path id="Path_1599" data-name="Path 1599" d="M33.391,59.248c-1.738.092-1.9-.057-1.9-1.766V33.521c0-1.152.243-1.4,1.4-1.4q9-.009,18-.011c.208,0,.437-.085.627.082l-17.391.013c-.871,0-.972.1-.972,1q0,12.537-.01,25.075a3.868,3.868,0,0,0,.249.968" fill="#e0982d"/>
      <path id="Path_1600" data-name="Path 1600" d="M45.438,55.415H55.446a5.938,5.938,0,0,1,.654.02.8.8,0,0,1,.777.76.813.813,0,0,1-.615.956,2.269,2.269,0,0,1-.644.067q-10.217.006-20.433,0a2.349,2.349,0,0,1-.645-.063.877.877,0,0,1,.176-1.724c.6-.021,1.191-.017,1.786-.017q4.469,0,8.936,0" fill="#0d0b07"/>
      <path id="Path_1601" data-name="Path 1601" d="M45.369,51.744q5.183,0,10.365,0c.769,0,1.15.3,1.15.881s-.4.911-1.14.911q-10.365,0-20.73,0c-.714,0-1.154-.37-1.138-.932.015-.537.43-.86,1.128-.86q5.182,0,10.365,0" fill="#090808"/>
      <path id="Path_1602" data-name="Path 1602" d="M42.889,45.667c0-1.07-.006-2.141,0-3.212.006-.774.313-1.071,1.082-1.076.555,0,1.11,0,1.666,0a3.3,3.3,0,0,1,3.292,2.176,5.1,5.1,0,0,1-.159,4.474,3.4,3.4,0,0,1-3.116,1.928c-.594.016-1.19.016-1.784,0a.874.874,0,0,1-.96-.96c-.013-1.11,0-2.221,0-3.332Zm2.5-2.5c-.188.128-.673-.261-.684.285-.028,1.466-.007,2.934,0,4.4,0,.133-.014.257.181.313a2.12,2.12,0,0,0,2.329-1.021,3.283,3.283,0,0,0,.324-1.671c-.1-1.625-.736-2.3-2.147-2.307" fill="#0d0b07"/>
      <path id="Path_1603" data-name="Path 1603" d="M41.206,49.144a.938.938,0,0,1-.585.851.8.8,0,0,1-.927-.194.761.761,0,0,1-.244-.4c-.161-1.01-.8-1.234-1.695-1.078a1.125,1.125,0,0,1-.357,0c-.923-.14-1.572.063-1.787,1.129a.8.8,0,0,1-1.137.54.865.865,0,0,1-.5-1.213q1.272-3.387,2.566-6.765a1.035,1.035,0,0,1,1.033-.749,1.02,1.02,0,0,1,.987.725q1.282,3.383,2.561,6.768a2.73,2.73,0,0,1,.087.381m-4.447-2.613c.462,0,.855,0,1.248,0,.133,0,.335.009.254-.2a11.667,11.667,0,0,0-.742-1.827l-.76,2.03" fill="#0d0b07"/>
      <path id="Path_1604" data-name="Path 1604" d="M53.8,41.26a4.29,4.29,0,0,1,2.426.863.884.884,0,0,1,.269,1.254.9.9,0,0,1-1.308.209,2.258,2.258,0,0,0-1.84-.456c-.318.085-.563.245-.608.573-.048.356.255.445.515.549.55.222,1.1.444,1.648.672,1.471.613,2.211,1.751,1.931,2.962a2.989,2.989,0,0,1-3.214,2.176,4.162,4.162,0,0,1-2.713-1.206.9.9,0,0,1-.1-1.361.88.88,0,0,1,1.319.05,2.282,2.282,0,0,0,2.179.639.878.878,0,0,0,.756-.742c.041-.393-.279-.6-.594-.734-.689-.3-1.386-.581-2.085-.859a2.134,2.134,0,0,1-1.449-1.993,2.314,2.314,0,0,1,1.318-2.228A3.072,3.072,0,0,1,53.8,41.26" fill="#0d0b07"/>
      <path id="Path_1605" data-name="Path 1605" d="M27.568,41.852a1.139,1.139,0,0,1-.033,1.074,1.293,1.293,0,0,1-1.092.346,5.219,5.219,0,0,0-3.322.789c-1.043.595-2.14,1.1-3.224,1.619a1.482,1.482,0,0,1-2.262-1.432c-.01-.973-.01-.973-1.006-.973-.655,0-1.31.012-1.965,0a.959.959,0,0,1-1.034-.92c.007-.529.406-.866,1.055-.872.813-.007,1.628-.026,2.44.009.432.018.568-.132.514-.538a3.672,3.672,0,0,1,0-.535A1.486,1.486,0,0,1,19.9,39.032c1.365.667,2.75,1.3,4.065,2.058a4.84,4.84,0,0,0,2.533.382,1.2,1.2,0,0,1,1.067.38M19.433,43.9,22.5,42.358c-.978-.49-1.861-.924-2.735-1.375-.291-.15-.334-.031-.332.228.006.867,0,1.734,0,2.694" fill="#0a0a0a"/>
      <path id="Path_1606" data-name="Path 1606" d="M9.278,42.355c0-.416-.019-.834.005-1.249a.794.794,0,0,1,.79-.8.763.763,0,0,1,.924.641,9.388,9.388,0,0,1-.005,2.835.777.777,0,0,1-.928.643.8.8,0,0,1-.783-.82c-.015-.416,0-.833,0-1.249" fill="#0a0d0f"/>
      <path id="Path_1607" data-name="Path 1607" d="M5.829,42.34c0-.377-.011-.754,0-1.13a.855.855,0,0,1,.814-.91.84.84,0,0,1,.952.773,24.214,24.214,0,0,1,0,2.556.9.9,0,0,1-.939.811.878.878,0,0,1-.83-.911c-.015-.4,0-.792,0-1.189" fill="#0a0a0a"/>
      <path id="Path_1608" data-name="Path 1608" d="M7.631,36.885l19.5-.006a2.232,2.232,0,0,1,.291.039,1.054,1.054,0,0,1-.582.061q-9.288,0-18.576,0c-.211,0-.439.07-.629-.093" fill="#b0c0cb"/>
      <path id="Path_1609" data-name="Path 1609" d="M27.659,35.051c-.238.009-.476.027-.714.027H9.955c-.218,0-.436-.015-.654-.023q0-9.827.005-19.652c.218-.006.436-.018.654-.018H42.711c.887,0,.889,0,.889.893q0,5.687,0,11.374c0,.2-.025.394-.039.591q-5.621.01-11.24.021a4.75,4.75,0,0,0-4.538,3.592,17.689,17.689,0,0,0-.123,3.2M21.19,25.24c0,1.35-.007,2.7,0,4.049.01,1.52,1.123,2.153,2.463,1.407,2.37-1.321,4.734-2.651,7.108-3.964a1.571,1.571,0,0,0,.011-2.971C28.384,22.438,26,21.1,23.611,19.774a1.508,1.508,0,0,0-2.419,1.417c-.01,1.349,0,2.7,0,4.049" fill="#d34b5b"/>
      <path id="Path_1610" data-name="Path 1610" d="M27.658,35.051a17.777,17.777,0,0,1,.123-3.2,4.753,4.753,0,0,1,4.538-3.593q5.621-.012,11.24-.02a13.346,13.346,0,0,1,.05,1.72c.02.371-.228.345-.473.345q-1.845,0-3.69,0-3.361,0-6.724,0a2.776,2.776,0,0,0-3.033,3.026c0,.567.266,1.377-.119,1.641-.48.328-1.261.108-1.912.077" fill="#b4293e"/>
      <path id="Path_1611" data-name="Path 1611" d="M9.305,15.4q0,9.827,0,19.652c-1.674.092-1.674.092-1.674-1.54V16.24c0-.855,0-.857.845-.855.278,0,.555.012.833.018" fill="#b7293f"/>
      <path id="Path_1612" data-name="Path 1612" d="M59.264,35.382c0,.714-.016,1.429.006,2.142.011.346-.064.492-.452.486-1.447-.022-2.9,0-4.342-.013-.781-.007-1.065-.31-1.068-1.1,0-1.428.014-2.856-.011-4.283-.007-.4.127-.5.506-.5,1.408.018,2.816,0,4.224.011.834.007,1.131.326,1.136,1.167,0,.694,0,1.388,0,2.082m-3.731-2.118a.923.923,0,0,0-.931.513.778.778,0,0,0,.12.937c.222.242.295.389.025.672A.8.8,0,0,0,54.79,36.6a.831.831,0,0,0,1.225.022c.239-.212.37-.221.615,0a.831.831,0,0,0,1.227-.023.809.809,0,0,0,.061-1.179c-.264-.3-.214-.472.02-.736a.82.82,0,0,0,.081-.949.692.692,0,0,0-.761-.455c-.63.162-1.237.608-1.725-.02" fill="#ce4a59"/>
      <path id="Path_1613" data-name="Path 1613" d="M10.3,4.488c.921,0,1.4.312,1.377.913s-.486.895-1.415.893c-.1,0-.2,0-.3,0-.632-.038-1.025-.4-1.015-.929a.926.926,0,0,1,.994-.875c.118-.007.237,0,.355,0" fill="#0a0d0f"/>
      <path id="Path_1614" data-name="Path 1614" d="M14.634,4.484c1.125,0,1.521.3,1.472.975-.046.635-.478.864-1.576.834-.7-.019-1.1-.343-1.1-.9a.806.806,0,0,1,.721-.875,3.545,3.545,0,0,1,.482-.033" fill="#0a0d0f"/>
      <path id="Path_1615" data-name="Path 1615" d="M5.873,4.485c.955,0,1.347.3,1.3.972-.042.608-.428.84-1.393.837-.85,0-1.233-.256-1.271-.841-.046-.687.353-.971,1.364-.968" fill="#0a0d0f"/>
      <path id="Path_1616" data-name="Path 1616" d="M45.393,43.168c1.411,0,2.042.682,2.147,2.307a3.283,3.283,0,0,1-.324,1.671,2.12,2.12,0,0,1-2.329,1.021c-.195-.056-.181-.18-.181-.313,0-1.467-.025-2.935,0-4.4.011-.546.5-.157.684-.285" fill="#ffc24e"/>
      <path id="Path_1617" data-name="Path 1617" d="M36.759,46.531l.76-2.03a11.667,11.667,0,0,1,.742,1.827c.081.211-.121.2-.254.2-.393,0-.786,0-1.248,0" fill="#ffc24e"/>
      <path id="Path_1618" data-name="Path 1618" d="M19.433,43.9c0-.96,0-1.827,0-2.694,0-.259.041-.378.332-.228.874.451,1.757.885,2.735,1.375L19.433,43.9" fill="#d34b5b"/>
      <path id="Path_1619" data-name="Path 1619" d="M21.189,25.24c0-1.35-.007-2.7,0-4.049a1.508,1.508,0,0,1,2.419-1.417c2.39,1.326,4.773,2.664,7.164,3.987a1.571,1.571,0,0,1-.011,2.971c-2.374,1.313-4.739,2.643-7.109,3.964-1.34.746-2.452.113-2.463-1.407-.009-1.349,0-2.7,0-4.049m8.523.007-6.683-3.732v7.468l6.683-3.736" fill="#0a0a0a"/>
      <path id="Path_1620" data-name="Path 1620" d="M55.533,33.264c.488.628,1.095.182,1.725.02a.692.692,0,0,1,.761.455.82.82,0,0,1-.081.949c-.234.264-.284.437-.02.736a.809.809,0,0,1-.061,1.179.831.831,0,0,1-1.227.023c-.245-.223-.376-.214-.615,0A.831.831,0,0,1,54.79,36.6a.8.8,0,0,1-.043-1.216c.27-.283.2-.43-.025-.672a.778.778,0,0,1-.12-.937.923.923,0,0,1,.931-.513" fill="#0a0a0a"/>
      <path id="Path_1621" data-name="Path 1621" d="M29.712,25.247l-6.683,3.736V21.515l6.683,3.732" fill="#e1e7ec"/>
    </g>
  </g>
</svg>
