<svg id="Group_1737" data-name="Group 1737" xmlns="http://www.w3.org/2000/svg" xmlns:xlink="http://www.w3.org/1999/xlink" width="28.857" height="28.857" viewBox="0 0 28.857 28.857">
  <defs>
    <clipPath id="clip-path">
      <rect id="Rectangle_274" data-name="Rectangle 274" width="28.857" height="28.857" fill="none"/>
    </clipPath>
  </defs>
  <g id="Group_1736" data-name="Group 1736" transform="translate(0 0)" clip-path="url(#clip-path)">
    <path id="Path_3251" data-name="Path 3251" d="M28.852,6.22c-.112.1-.094.254-.135.382a3.282,3.282,0,0,1-.822,1.325Q18.25,17.571,8.608,27.22a1.632,1.632,0,0,1-.928.416q-3.293.6-6.584,1.211A.857.857,0,0,1,.023,27.773q.631-3.416,1.259-6.833a1.338,1.338,0,0,1,.41-.718q8.94-8.936,17.875-17.875c.445-.445.892-.888,1.334-1.336a3.09,3.09,0,0,1,1.75-.944c.02,0,.036-.033.055-.05h.845c.019.017.036.047.057.049a2.867,2.867,0,0,1,1.766.888c.85.845,1.695,1.7,2.544,2.542a3.183,3.183,0,0,1,.866,1.544c.014.056-.023.139.068.164ZM24.541,8.86c-.07-.059-.139-.108-.2-.167-1.389-1.387-2.781-2.772-4.161-4.168-.167-.169-.244-.159-.407,0q-8.112,8.126-16.24,16.238c-.186.186-.153.266.012.429q2.072,2.052,4.123,4.125c.183.186.272.173.449,0Q16.22,17.2,24.332,9.092c.04-.04.081-.079.119-.12.024-.026.044-.054.09-.112m1.182-1.178c.359-.355.727-.691,1.062-1.056A1.3,1.3,0,0,0,26.8,4.791q-1.33-1.4-2.73-2.729a1.3,1.3,0,0,0-1.836.027c-.326.3-.625.624-.944.929-.1.1-.088.147.005.24q2.216,2.207,4.428,4.424M6.088,26.2,2.675,22.785a.772.772,0,0,0-.033.107c-.239,1.289-.473,2.58-.719,3.868-.036.187-.006.225.185.187.68-.135,1.363-.254,2.044-.381.651-.121,1.3-.245,1.936-.364" transform="translate(0 -0.013)" fill="#030303"/>
    <path id="Path_3252" data-name="Path 3252" d="M94.146,5.193c-.091-.025-.055-.109-.068-.164a3.182,3.182,0,0,0-.866-1.544c-.849-.846-1.694-1.7-2.544-2.542A2.866,2.866,0,0,0,88.9.054c-.02,0-.038-.032-.056-.049,1.7,0,3.4,0,5.1,0,.168,0,.2.034.2.2-.008,1.663,0,3.326,0,4.99" transform="translate(-65.294 -0.001)" fill="#fcfcfc"/>
    <path id="Path_3253" data-name="Path 3253" d="M33.993,21.015c-.046.057-.066.086-.09.112-.038.041-.079.08-.119.12q-8.109,8.11-16.213,16.225c-.176.177-.265.19-.449,0Q15.073,35.4,13,33.35c-.164-.163-.2-.243-.011-.429q8.129-8.11,16.24-16.238c.163-.163.24-.173.407,0,1.38,1.4,2.772,2.781,4.16,4.168.059.059.128.109.2.167" transform="translate(-9.451 -12.168)" fill="#fefefe"/>
    <path id="Path_3254" data-name="Path 3254" d="M84.55,12.337q-2.217-2.217-4.428-4.424c-.093-.093-.105-.144-.005-.24.319-.3.618-.631.944-.929A1.3,1.3,0,0,1,82.9,6.717q1.4,1.329,2.73,2.729a1.3,1.3,0,0,1-.014,1.835c-.336.366-.7.7-1.063,1.056" transform="translate(-58.827 -4.668)" fill="#fcfcfc"/>
    <path id="Path_3255" data-name="Path 3255" d="M11.383,89.32c-.634.119-1.285.243-1.936.364-.682.127-1.364.245-2.044.381-.191.038-.221,0-.185-.187.245-1.288.48-2.579.719-3.868A.772.772,0,0,1,7.97,85.9l3.413,3.417" transform="translate(-5.295 -63.131)" fill="#fcfcfc"/>
  </g>
</svg>
