<svg xmlns="http://www.w3.org/2000/svg" width="40.073" height="38.055" viewBox="0 0 40.073 38.055">
  <path id="star" d="M36.9,13.718a1.958,1.958,0,0,0-1.693-1.335l-10.679-.957L20.309,1.67a1.977,1.977,0,0,0-3.617,0l-4.223,9.755-10.681.957A1.961,1.961,0,0,0,.1,13.718,1.923,1.923,0,0,0,.672,15.78l8.072,6.988-2.38,10.35a1.928,1.928,0,0,0,.765,2,1.975,1.975,0,0,0,2.16.093L18.5,29.781l9.208,5.434a1.98,1.98,0,0,0,2.162-.093,1.929,1.929,0,0,0,.765-2l-2.38-10.35,8.072-6.987A1.926,1.926,0,0,0,36.9,13.718Zm0,0" transform="translate(1.537 1.008)" fill="#e79f54" stroke="#000" stroke-width="3"/>
</svg>
