<svg xmlns="http://www.w3.org/2000/svg" xmlns:xlink="http://www.w3.org/1999/xlink" width="40.166" height="38.147" viewBox="0 0 40.166 38.147">
  <defs>
    <clipPath id="clip-path">
      <rect id="Rectangle_207" data-name="Rectangle 207" width="40.166" height="38.147" transform="translate(0 0)" fill="none"/>
    </clipPath>
  </defs>
  <g id="Give_Feedback" data-name="Give Feedback" transform="translate(0 0)">
    <g id="Group_1570" data-name="Group 1570" clip-path="url(#clip-path)">
      <path id="Path_2095" data-name="Path 2095" d="M16.08,35.116c1.667-1.25,3.32-2.368,4.827-3.657a5.561,5.561,0,0,1,4.139-1.384c2.614.118,5.237.033,7.856.031a3.015,3.015,0,0,0,3.228-3.237q0-6.771,0-13.543a1.179,1.179,0,0,1,.415-1.077,1.013,1.013,0,0,1,1.6.716,2.368,2.368,0,0,1,.007.292q0,6.918,0,13.836a5.04,5.04,0,0,1-3.481,4.8,5.861,5.861,0,0,1-1.851.246c-3,0-5.992,0-8.987-.006a1.122,1.122,0,0,0-.725.243c-2.42,1.827-4.85,3.64-7.273,5.464a1.1,1.1,0,0,1-1.2.214,1.053,1.053,0,0,1-.582-1.1c.009-1.477-.007-2.954.011-4.431,0-.32-.089-.391-.4-.39q-4.223.018-8.444.005A5.03,5.03,0,0,1,.171,28.385a5.2,5.2,0,0,1-.16-1.4C.011,21.046.035,15.11,0,9.175A5.126,5.126,0,0,1,5.186,4.012c5.866.028,11.732.008,17.6.009.111,0,.223-.006.334,0a1.033,1.033,0,0,1,.986,1,.994.994,0,0,1-.955,1.014c-.166.015-.334.013-.5.013H5.259A3.011,3.011,0,0,0,2.182,8.131a2.869,2.869,0,0,0-.149.9q0,9.051,0,18.1A2.965,2.965,0,0,0,5.012,30.1c3.26.012,6.521,0,9.781.005.92,0,1.286.366,1.287,1.285v3.724" fill="#080909"/>
      <path id="Path_2096" data-name="Path 2096" d="M22.084,15.08c0-.627.009-1.254,0-1.881a1.256,1.256,0,0,1,.4-.966Q28.4,6.327,34.305.417a1.026,1.026,0,0,1,1.663.017q1.88,1.872,3.753,3.752a1.038,1.038,0,0,1,.014,1.694q-5.892,5.9-11.787,11.794a1.29,1.29,0,0,1-.962.416c-1.253-.005-2.507.007-3.761-.005-.784-.007-1.132-.374-1.14-1.167-.006-.612,0-1.225,0-1.838m3.334.98c.334,0,.669-.008,1,0a.546.546,0,0,0,.441-.174Q32.177,10.564,37.5,5.25c.163-.162.184-.253.008-.424-.729-.709-1.451-1.426-2.157-2.159-.193-.2-.286-.15-.455.018q-5.283,5.3-10.579,10.582a.63.63,0,0,0-.217.506q.023.983,0,1.964c-.007.246.039.352.313.329.333-.027.669-.006,1-.006" fill="#0d0d0d"/>
      <path id="Path_2097" data-name="Path 2097" d="M19.1,24.107H7.443a4.9,4.9,0,0,1-.5-.018.964.964,0,0,1-.907-.962,1.006,1.006,0,0,1,.886-1.037,3.218,3.218,0,0,1,.417-.009H30.816c.125,0,.252-.007.376,0a1.035,1.035,0,0,1,.938,1,.991.991,0,0,1-.919,1,4.894,4.894,0,0,1-.5.018H19.1" fill="#080909"/>
      <path id="Path_2098" data-name="Path 2098" d="M12.047,12.067c-1.614,0-3.228,0-4.842,0-.71,0-1.127-.345-1.163-.924a1.006,1.006,0,0,1,1.116-1.1q3.8,0,7.6,0,1.065,0,2.129,0c.717,0,1.184.389,1.2.991.018.619-.447,1.031-1.195,1.034-1.614.006-3.228,0-4.842,0" fill="#080909"/>
      <path id="Path_2099" data-name="Path 2099" d="M12.017,18.087c-1.614,0-3.228.006-4.842,0-.7,0-1.112-.367-1.136-.952a1.006,1.006,0,0,1,1.106-1.071c1.893,0,3.785,0,5.677,0,1.406,0,2.811,0,4.216,0A1.009,1.009,0,0,1,17.472,18a1.654,1.654,0,0,1-.7.087q-2.379,0-4.758,0" fill="#080909"/>
    </g>
  </g>
</svg>
