<svg id="Group_1450" data-name="Group 1450" xmlns="http://www.w3.org/2000/svg" xmlns:xlink="http://www.w3.org/1999/xlink" width="42" height="36.398" viewBox="0 0 42 36.398">
  <defs>
    <clipPath id="clip-path">
      <rect id="Rectangle_115" data-name="Rectangle 115" width="42" height="36.398" fill="none"/>
    </clipPath>
  </defs>
  <g id="Group_1449" data-name="Group 1449" transform="translate(0 0)" clip-path="url(#clip-path)">
    <path id="Path_1896" data-name="Path 1896" d="M20.989,6.1c0-1.515.012-3.03-.006-4.546A1.4,1.4,0,0,1,21.8.141a1.4,1.4,0,0,1,1.64.325q6.227,5.755,12.462,11.5,2.745,2.534,5.491,5.072a1.413,1.413,0,0,1-.006,2.324Q32.461,27.61,23.532,35.853a1.634,1.634,0,0,1-1.017.533,1.384,1.384,0,0,1-1.524-1.419c0-3.1-.007-6.207.007-9.311,0-.358-.066-.443-.445-.426a36.039,36.039,0,0,0-6.92.837,14.673,14.673,0,0,0-7.056,3.58,18.711,18.711,0,0,0-3.511,5.17c-.151.3-.286.605-.456.891A1.4,1.4,0,0,1,0,34.985a52.912,52.912,0,0,1,.538-8.97,17.762,17.762,0,0,1,3.385-8.474,14.771,14.771,0,0,1,6.81-4.675A28.1,28.1,0,0,1,18.1,11.38c.856-.066,1.715-.129,2.572-.155.29-.009.322-.111.321-.356-.01-1.589-.006-3.177-.006-4.766m2.8,25.643a.906.906,0,0,0,.1-.062q7.2-6.64,14.4-13.274c.246-.226.111-.311-.047-.456q-7.1-6.55-14.2-13.1c-.064-.06-.107-.182-.251-.135V5.2q0,3.693,0,7.387A1.366,1.366,0,0,1,22.394,14c-1.282.018-2.563.064-3.842.161a25.712,25.712,0,0,0-7.1,1.423,11.481,11.481,0,0,0-6.773,6.049,20.34,20.34,0,0,0-1.609,6.7A4.128,4.128,0,0,0,3,29.428a15.922,15.922,0,0,1,8.493-5.687,36.73,36.73,0,0,1,11-1.338,1.356,1.356,0,0,1,1.291,1.383c.006,1.194,0,2.39,0,3.584v4.376" transform="translate(0 0)" fill="#080808"/>
  </g>
</svg>
