<svg xmlns="http://www.w3.org/2000/svg" xmlns:xlink="http://www.w3.org/1999/xlink" width="38.602" height="28.353" viewBox="0 0 38.602 28.353">
  <defs>
    <clipPath id="clip-path">
      <rect id="Rectangle_5673" data-name="Rectangle 5673" width="38.602" height="28.353" transform="translate(-2 22)" fill="none"/>
    </clipPath>
  </defs>
  <g id="Group_12958" data-name="Group 12958" transform="translate(2 -22)">
    <g id="Group_12957" data-name="Group 12957" clip-path="url(#clip-path)">
      <path id="Path_18683" data-name="Path 18683" d="M1.564,9.561,9.838,2.374A3.036,3.036,0,0,1,11.97,1.5H28.291a4.242,4.242,0,0,1,3,7.242l-7.251,7.251a.111.111,0,0,1-.189-.078V13.547A3.671,3.671,0,0,0,20,9.881L1.716,9.93A.215.215,0,0,1,1.564,9.561Z" transform="translate(0 24.15)" fill="none" stroke="#bf4e1b" stroke-linecap="round" stroke-linejoin="round" stroke-width="1.5"/>
      <path id="Path_18684" data-name="Path 18684" d="M23.971,31.077v.285c0,.533-.432.681-.966.681H1.728" transform="translate(-0.122 8.401)" fill="none" stroke="#bf4e1b" stroke-linecap="round" stroke-linejoin="round" stroke-width="1.5"/>
      <line id="Line_82" data-name="Line 82" x1="15.694" transform="translate(3.657 37.37)" fill="none" stroke="#bf4e1b" stroke-linecap="round" stroke-linejoin="round" stroke-width="1.5"/>
      <path id="Path_18685" data-name="Path 18685" d="M34.412,15.923a4.243,4.243,0,0,1,1.348,6.908l-7.251,7.252A.111.111,0,0,1,28.319,30V27.637a3.671,3.671,0,0,0-3.847-3.667l-18.286.049" transform="translate(-2.495 16.47)" fill="none" stroke="#bf4e1b" stroke-linecap="round" stroke-linejoin="round" stroke-width="1.5"/>
      <path id="Path_18686" data-name="Path 18686" d="M26.507,44.787v.285c0,.533-.432.681-.966.681H2.784" transform="translate(-0.684 1.1)" fill="none" stroke="#bf4e1b" stroke-linecap="round" stroke-linejoin="round" stroke-width="1.5"/>
      <line id="Line_83" data-name="Line 83" x1="17.174" transform="translate(4.151 43.78)" fill="none" stroke="#bf4e1b" stroke-linecap="round" stroke-linejoin="round" stroke-width="1.5"/>
    </g>
  </g>
</svg>
