<svg xmlns="http://www.w3.org/2000/svg" xmlns:xlink="http://www.w3.org/1999/xlink" width="22" height="22" viewBox="0 0 22 22">
  <defs>
    <clipPath id="clip-path">
      <rect id="Rectangle_294" data-name="Rectangle 294" width="22" height="22" fill="none"/>
    </clipPath>
  </defs>
  <g id="Linkedin" transform="translate(0 0)">
    <g id="Group_1781" data-name="Group 1781" transform="translate(0 0)" clip-path="url(#clip-path)">
      <path id="Path_3645" data-name="Path 3645" d="M10.193,0h1.591a.223.223,0,0,0,.07.037,13.314,13.314,0,0,1,1.994.346A11.011,11.011,0,0,1,17.3,1.973a11.125,11.125,0,0,1,2.272,2.118,10.488,10.488,0,0,1,1.763,3.114,11.321,11.321,0,0,1,.574,2.326A11.918,11.918,0,0,1,22,11.011a8.421,8.421,0,0,1-.056,1.146,12.4,12.4,0,0,1-.271,1.537,10.923,10.923,0,0,1-1.294,3.07,11.177,11.177,0,0,1-1.591,2A11.583,11.583,0,0,1,16.9,20.278a10.822,10.822,0,0,1-2.088,1.036,10.56,10.56,0,0,1-3.242.672,10.854,10.854,0,0,1-1.541-.028,12.39,12.39,0,0,1-1.338-.2A10.531,10.531,0,0,1,5.62,20.587a11.079,11.079,0,0,1-2.6-2.024A11.206,11.206,0,0,1,.963,15.5a11,11,0,0,1-.885-3.113C.054,12.212.1,12.021,0,11.856V10.18c.044-.3.088-.594.13-.891A10.131,10.131,0,0,1,1.141,6.106,11.009,11.009,0,0,1,3.587,2.875,10.833,10.833,0,0,1,7.236.664,9.515,9.515,0,0,1,9.473.12a1.983,1.983,0,0,0,.72-.12m1.99,9.608c0-.341-.008-.626,0-.911.006-.149-.04-.2-.192-.194q-1.128.011-2.257,0c-.157,0-.19.053-.187.2q.019.848.018,1.7,0,2.887-.021,5.775c0,.2.058.247.25.244q1.063-.017,2.127,0c.2,0,.265-.04.264-.255-.01-1.4-.005-2.791,0-4.186a1.211,1.211,0,0,1,0-.319,1.441,1.441,0,0,1,1.6-1.224,1.163,1.163,0,0,1,1.024.814A4.8,4.8,0,0,1,14.96,12.5c0,1.224,0,2.447,0,3.671,0,.178.029.246.23.242.731-.014,1.461-.01,2.192,0,.167,0,.217-.04.214-.212-.033-1.543.038-3.087-.04-4.63a4.491,4.491,0,0,0-.309-1.549,2.515,2.515,0,0,0-1.53-1.486,3.421,3.421,0,0,0-1.563-.172,2.678,2.678,0,0,0-1.32.521,4.532,4.532,0,0,0-.648.721M8.1,12.48c0-1.252,0-2.5,0-3.755,0-.157-.026-.225-.208-.222-.745.011-1.489.008-2.234,0-.148,0-.194.038-.194.191q.007,3.766,0,7.532c0,.156.053.189.2.188.738-.007,1.475-.009,2.213,0,.176,0,.229-.041.228-.223-.008-1.238,0-2.475,0-3.713M6.711,4.722a1.078,1.078,0,0,0-.43.05,1.358,1.358,0,0,0-.989,1.244,1.422,1.422,0,0,0,.717,1.24,1.69,1.69,0,0,0,1.274.1,1.328,1.328,0,0,0,.8-1.955,1.366,1.366,0,0,0-1.375-.676" transform="translate(0 0)" fill="#0069ac"/>
      <path id="Path_3646" data-name="Path 3646" d="M22.969,19.052a4.58,4.58,0,0,1,.647-.722,2.679,2.679,0,0,1,1.321-.521,3.414,3.414,0,0,1,1.562.172,2.511,2.511,0,0,1,1.53,1.486,4.489,4.489,0,0,1,.309,1.549c.078,1.543.008,3.087.041,4.63,0,.172-.048.214-.215.212-.731-.009-1.461-.012-2.192,0-.2,0-.231-.064-.23-.242.007-1.224.005-2.447,0-3.671a4.761,4.761,0,0,0-.154-1.258,1.161,1.161,0,0,0-1.024-.814,1.44,1.44,0,0,0-1.6,1.224,1.231,1.231,0,0,0,0,.319c0,1.4-.008,2.791,0,4.186,0,.214-.062.258-.263.254-.709-.013-1.419-.011-2.128,0-.191,0-.251-.042-.25-.244q.02-2.887.021-5.775,0-.848-.018-1.7c0-.144.03-.2.186-.2q1.129.012,2.257,0c.152,0,.2.045.192.194-.01.285,0,.57,0,.911" transform="translate(-10.786 -9.444)" fill="#ededed"/>
      <path id="Path_3647" data-name="Path 3647" d="M14.267,22.108c0,1.238,0,2.475,0,3.712,0,.182-.052.226-.228.223-.737-.01-1.475-.008-2.213,0-.144,0-.2-.031-.2-.187q.007-3.766,0-7.532c0-.152.046-.192.194-.19.745.007,1.49.009,2.234,0,.181,0,.208.065.208.222-.005,1.252,0,2.5,0,3.755" transform="translate(-6.172 -9.628)" fill="#ededed"/>
      <path id="Path_3648" data-name="Path 3648" d="M12.685,10.064a1.366,1.366,0,0,1,1.375.676,1.328,1.328,0,0,1-.8,1.955,1.69,1.69,0,0,1-1.274-.1,1.422,1.422,0,0,1-.717-1.24,1.358,1.358,0,0,1,.989-1.244,1.078,1.078,0,0,1,.43-.05" transform="translate(-5.973 -5.342)" fill="#ededed"/>
    </g>
  </g>
</svg>
