<svg xmlns="http://www.w3.org/2000/svg" xmlns:xlink="http://www.w3.org/1999/xlink" width="60.224" height="60.232" viewBox="0 0 60.224 60.232">
  <defs>
    <clipPath id="clip-path">
      <rect id="Rectangle_44" data-name="Rectangle 44" width="60.224" height="60.232" transform="translate(0 0)" fill="none"/>
    </clipPath>
  </defs>
  <g id="Group_1363" data-name="Group 1363" transform="translate(0 0)">
    <g id="Group_1362" data-name="Group 1362" clip-path="url(#clip-path)">
      <path id="Path_1557" data-name="Path 1557" d="M60.2,33.147q0,10.906,0,21.811A4.983,4.983,0,0,1,54.929,60.2c-14.518,0-29.036-.033-43.554.028A5.127,5.127,0,0,1,6.055,54.9c.048-.631-.162-.762-.747-.721A5.123,5.123,0,0,1,0,48.893q.086-21.81,0-43.62A5.252,5.252,0,0,1,5.294,0Q27.07.084,48.847,0a5.125,5.125,0,0,1,5.321,5.333c-.048.629.158.763.745.722a5.107,5.107,0,0,1,5.31,5.283c-.079,7.269-.026,14.539-.026,21.809m-5.014-1.87c-.372.36-.945.59-.978,1.185-.043.761,0,1.528.014,2.293-.013.249-.037.5-.037.747,0,4.45-.072,8.9.022,13.348a5.243,5.243,0,0,1-5.34,5.362c-13.346-.058-26.693-.027-40.04-.022C8,54.19,8.05,54,8.051,55c0,.063.012.125.018.187A3.011,3.011,0,0,0,11.283,58.2H54.834a3.067,3.067,0,0,0,3.357-3.389q0-6.925,0-13.85,0-5.044-.017-10.089V28.185c-1.039,1.127-2.106,2.019-2.991,3.092m0-17.232c.872.008,1.745.007,2.617.029.286.007.4-.065.4-.377-.02-.935.028-1.873-.02-2.806a2.976,2.976,0,0,0-3-2.816c-1-.053-1-.053-1,.932v4.23c0,.851,0,.851.877.825.041,0,.082-.011.123-.017m-.021,6.449c1.014.961,2.027,1.922,3.029,2.874,0-2.272-.005-4.6.007-6.924,0-.312-.105-.382-.393-.375-.873.022-1.747.019-2.621.026a2.645,2.645,0,0,1-.31-.022c-.583-.106-.754.148-.7.709a7.252,7.252,0,0,1,0,1.62,2,2,0,0,0,.995,2.092M34.836,47.2c-.7.271-1.4.535-2.09.814a1.13,1.13,0,0,1-1.336-.131,1.112,1.112,0,0,1-.145-1.33Q32.917,42.278,34.553,38a2.991,2.991,0,0,1,.71-1.082Q43.535,28.66,51.8,20.4a1.173,1.173,0,0,0,.382-.923c-.016-2.9-.023-5.808,0-8.712.005-.544-.1-.72-.694-.719q-24.379.029-48.76,0c-.547,0-.718.106-.717.695q.03,19.023.015,38.046a3.076,3.076,0,0,0,3.414,3.4H40.793c2.779,0,5.558.011,8.336-.005a2.987,2.987,0,0,0,3.035-2.945c.021-4.116,0-8.232-.007-12.347V34.252c-.243.231-.408.381-.566.539q-4.627,4.626-9.254,9.255a2.438,2.438,0,0,1-.854.611q-3.327,1.261-6.647,2.542m-7.8-39.148H46.516c1.713,0,3.425-.011,5.137.008.389.005.555-.071.532-.505-.039-.708-.01-1.419-.011-2.129a3.074,3.074,0,0,0-3.419-3.391H17.869q-6.358,0-12.718,0A3.027,3.027,0,0,0,2.032,5.159c-.005.731.038,1.465-.013,2.192-.04.569.132.715.706.714q12.155-.03,24.308-.014M50.578,27.245a10.146,10.146,0,0,1-.969-.9c-.332-.394-.538-.393-.915-.013q-5.291,5.34-10.62,10.64c-.977.977-.963.961-.013,1.951.333.346.515.366.87.008q5.6-5.646,11.241-11.259c.117-.118.228-.242.406-.431m2.753,2.9c-.079-.095-.139-.177-.21-.249a8.872,8.872,0,0,1-.744-.759c-.3-.384-.483-.319-.8.005q-5.25,5.29-10.531,10.549c-1.144,1.144-1.136,1.136.027,2.231.226.213.328.2.534-.01q5.725-5.745,11.464-11.476c.086-.086.164-.18.264-.291m1.533-1.5c.048-.042.113-.092.171-.149.8-.8,1.586-1.6,2.4-2.385.238-.231.088-.347-.065-.5-1.226-1.223-2.456-2.443-3.671-3.677-.221-.225-.356-.26-.593-.012-.737.768-1.494,1.516-2.256,2.259-.2.195-.256.322-.027.548,1.249,1.23,2.483,2.475,3.725,3.712.084.085.15.207.321.2M36.018,39.831c-.209.537-.414,1.1-.649,1.651a.452.452,0,0,0,.138.587c.587.56,1.156,1.138,1.722,1.719a.41.41,0,0,0,.531.138c.565-.244,1.148-.448,1.7-.657l-3.439-3.438m-2.127,5.55c.569-.2,1.136-.239,1.4-.627.1-.15-.447-.518-.7-.784-.022-.023-.074-.017-.158-.032-.167.444-.338.894-.545,1.443" fill="#050606"/>
      <path id="Path_1558" data-name="Path 1558" d="M52.157,36.884c.006,4.115.028,8.231.008,12.347a2.989,2.989,0,0,1-3.036,2.946c-2.778.015-5.557,0-8.335,0H5.446a3.075,3.075,0,0,1-3.414-3.4q0-19.023-.015-38.046c0-.589.169-.695.717-.695q24.379.023,48.76,0c.593,0,.7.175.693.719-.026,2.9-.019,5.808,0,8.712a1.175,1.175,0,0,1-.381.923q-8.277,8.255-16.539,16.523A3,3,0,0,0,34.553,38q-1.632,4.28-3.287,8.551a1.111,1.111,0,0,0,.144,1.33,1.13,1.13,0,0,0,1.336.131c.694-.279,1.394-.543,2.09-.814l-.695,1.981c3.047-1.174,5.993-2.311,8.941-3.442a1.876,1.876,0,0,0,.644-.479q2.412-2.412,4.826-4.823c1.2-1.189,2.4-2.368,3.605-3.552M15.089,14.069q-3.886,0-7.772,0c-.938,0-1.273.338-1.273,1.279q0,4.733,0,9.465c0,.972.328,1.291,1.326,1.291H22.788c.979,0,1.306-.33,1.306-1.312q0-4.7,0-9.4c0-.992-.321-1.32-1.3-1.321q-3.855,0-7.709,0m4.058,20.059H7.431c-1.39,0-1.363,0-1.4,1.374-.014.52.118.646.642.645q12-.029,24-.013c1.458,0,1.436,0,1.463-1.437.009-.467-.106-.584-.578-.581-4.135.021-8.27.012-12.405.012m4-2.006H34.734c1.4,0,1.372,0,1.408-1.367.013-.508-.1-.654-.634-.653q-12.028.03-24.059.014c-1.4,0-1.371,0-1.407,1.367-.014.508.1.657.633.653,4.156-.026,8.312-.014,12.468-.014m-6.07,14.041H7.425c-1.384,0-1.356,0-1.4,1.38-.016.531.134.64.648.639q9.992-.029,19.985-.013c1.452,0,1.429,0,1.457-1.443.01-.477-.123-.577-.584-.574-3.487.021-6.975.011-10.462.011m.066-8.023H7.428c-1.387,0-1.36,0-1.4,1.377-.015.525.126.643.645.642,6.661-.02,13.323-.013,19.985-.013,1.455,0,1.432,0,1.46-1.441.009-.471-.115-.58-.581-.577-3.466.022-6.933.012-10.4.012m-.092,6.017h9.648c1.416,0,1.39,0,1.425-1.413.012-.505-.142-.6-.618-.6q-9.993.022-19.985.01c-1.486,0-1.466,0-1.486,1.477-.006.45.124.542.554.54,3.487-.019,6.975-.011,10.462-.011M37.069,21.09h7.7c1.386,0,1.358,0,1.4-1.378.015-.526-.127-.644-.645-.642-5.325.022-10.65.014-15.974.014-1.455,0-1.432,0-1.46,1.44-.009.473.116.581.581.577,2.8-.024,5.6-.011,8.4-.011m3.074-4.012h6.578c1.451,0,1.427,0,1.456-1.444.01-.48-.128-.575-.586-.573-4.656.018-9.312.011-13.968.011-1.526,0-1.509,0-1.517,1.507,0,.419.121.511.521.508,2.505-.018,5.011-.009,7.516-.009m-4.954,6.017H29.552c-1.454,0-1.431,0-1.459,1.441-.009.474.117.579.582.577,3.987-.02,7.975-.012,11.963-.012,1.528,0,1.511,0,1.519-1.5,0-.412-.111-.515-.517-.511-2.15.02-4.3.009-6.451.009M29.15,15.072c-1.044,0-1.044,0-1.044,1.024,0,.982,0,.982.962.982,1.044,0,1.044,0,1.044-1.024,0-.982,0-.982-.962-.982M7.048,30.116c-1,0-1,0-1,1s0,1.005,1,1.005,1,0,1-1,0-1.005-1-1.005" fill="#efefef"/>
      <path id="Path_1559" data-name="Path 1559" d="M27.033,8.052q-12.155,0-24.307.014c-.575,0-.747-.145-.707-.714.051-.727.008-1.461.014-2.192A3.025,3.025,0,0,1,5.152,2.037q6.358-.012,12.717,0H48.755a3.074,3.074,0,0,1,3.419,3.391c0,.711-.028,1.422.011,2.13.023.434-.143.509-.531.505-1.713-.019-3.425-.008-5.137-.008H27.033M14.066,4.99c0,1.056,0,1.056,1.074,1.056.932,0,.932,0,.932-.95,0-1.056,0-1.056-1.074-1.056-.932,0-.932,0-.932.95M11.055,6.046c1.005,0,1.005,0,1.005-1s0-1.005-1-1.005-1.005,0-1.005,1,0,1.005,1,1.005m-4.018,0c1.011,0,1.011,0,1.012-.683,0-1.323,0-1.323-.746-1.323-1.26,0-1.26,0-1.26.745,0,1.261,0,1.261.994,1.261" fill="#ff9e0f"/>
      <path id="Path_1560" data-name="Path 1560" d="M58.174,30.87q.009,5.045.017,10.089,0,6.924,0,13.85A3.068,3.068,0,0,1,54.835,58.2H11.283a3.012,3.012,0,0,1-3.214-3.007q21.525,0,43.049,0a3.917,3.917,0,0,0,3.958-3.16,18.427,18.427,0,0,0,.1-3.809c.013-4.783-.005-9.567-.011-14.35.012-.043.025-.086.037-.129l2.973-2.871" fill="#d3d2d1"/>
      <path id="Path_1561" data-name="Path 1561" d="M55.164,33.871c.006,4.783.025,9.566.011,14.35a18.429,18.429,0,0,1-.1,3.809,3.917,3.917,0,0,1-3.958,3.16l-43.049,0c-.006-.063-.017-.125-.017-.187,0-1.009-.054-.814.772-.814,13.347-.005,26.694-.037,40.041.022a5.244,5.244,0,0,0,5.34-5.362c-.1-4.448-.025-8.9-.023-13.348,0-.249.025-.5.038-.748l.944-.884" fill="#b2701c"/>
      <path id="Path_1562" data-name="Path 1562" d="M52.157,36.884c-1.2,1.184-2.409,2.363-3.606,3.553q-2.418,2.4-4.825,4.822a1.877,1.877,0,0,1-.645.479c-2.947,1.131-5.893,2.268-8.94,3.442l.695-1.981q3.323-1.274,6.647-2.542a2.438,2.438,0,0,0,.854-.611q4.626-4.631,9.255-9.255c.157-.158.322-.308.565-.538Z" fill="#b2701c"/>
      <path id="Path_1563" data-name="Path 1563" d="M50.579,27.245c-.178.189-.289.313-.406.431Q44.548,33.3,38.932,38.935c-.355.358-.538.338-.87-.008-.95-.989-.965-.974.012-1.951q5.316-5.315,10.621-10.64c.376-.38.583-.381.915.013a10.019,10.019,0,0,0,.969.9" fill="#3bb19b"/>
      <path id="Path_1564" data-name="Path 1564" d="M53.332,30.144c-.1.112-.178.206-.264.292Q47.335,36.172,41.6,41.912c-.206.206-.308.223-.534.01-1.163-1.1-1.172-1.088-.028-2.232q5.27-5.27,10.531-10.548c.322-.324.509-.39.8-.006a8.736,8.736,0,0,0,.744.76c.07.072.131.154.21.248" fill="#3bb19b"/>
      <path id="Path_1565" data-name="Path 1565" d="M54.865,28.644c-.171,0-.237-.12-.322-.2-1.241-1.237-2.475-2.483-3.724-3.712-.23-.226-.173-.353.027-.549.762-.742,1.519-1.491,2.255-2.259.238-.248.372-.213.594.013,1.215,1.234,2.444,2.454,3.67,3.677.154.153.3.269.066.5-.809.784-1.6,1.589-2.4,2.385-.057.057-.122.107-.17.149" fill="#fefefe"/>
      <path id="Path_1566" data-name="Path 1566" d="M55.185,16.095c.874-.007,1.748,0,2.621-.026.288-.007.4.063.393.375-.013,2.326-.007,4.652-.007,6.924-1-.952-2.016-1.913-3.029-2.874q.012-2.2.022-4.4" fill="#d3d2d1"/>
      <path id="Path_1567" data-name="Path 1567" d="M55.184,8.075a2.977,2.977,0,0,1,3,2.817c.048.933,0,1.87.02,2.8.006.312-.112.384-.4.377-.872-.022-1.745-.021-2.617-.028V8.075" fill="#ff9e0f"/>
      <path id="Path_1568" data-name="Path 1568" d="M36.019,39.832l3.438,3.437c-.549.21-1.131.413-1.7.658a.409.409,0,0,1-.53-.139c-.566-.58-1.136-1.158-1.722-1.718a.453.453,0,0,1-.139-.588c.236-.55.441-1.114.65-1.65" fill="#d3d2d1"/>
      <path id="Path_1569" data-name="Path 1569" d="M58.174,30.87,55.2,33.741l-.018-2.464c.886-1.073,1.953-1.966,2.991-3.092Z" fill="#b2701c"/>
      <path id="Path_1570" data-name="Path 1570" d="M55.184,8.075v5.971c-.041.005-.082.015-.123.016-.877.026-.877.026-.877-.825V9.008c0-.986,0-.986,1-.933" fill="#b2701c"/>
      <path id="Path_1571" data-name="Path 1571" d="M55.185,16.095q-.01,2.2-.022,4.4a2,2,0,0,1-1-2.092,7.192,7.192,0,0,0,0-1.62c-.05-.561.121-.815.7-.709a2.678,2.678,0,0,0,.311.022" fill="#b2701c"/>
      <path id="Path_1572" data-name="Path 1572" d="M55.183,31.277l.018,2.464c-.012.043-.024.086-.037.129l-.944.884c-.009-.764-.057-1.531-.015-2.293.034-.594.607-.824.978-1.184" fill="#3bb19b"/>
      <path id="Path_1573" data-name="Path 1573" d="M33.891,45.381c.207-.549.378-1,.545-1.443.084.015.136.009.158.032.254.266.8.634.7.784-.268.388-.835.429-1.4.627" fill="#d3d2d1"/>
      <path id="Path_1574" data-name="Path 1574" d="M15.088,14.069q3.855,0,7.71,0c.974,0,1.3.328,1.3,1.32q0,4.7,0,9.4c0,.983-.328,1.312-1.306,1.312H7.369c-1,0-1.325-.319-1.326-1.29q0-4.732,0-9.465c0-.942.336-1.279,1.273-1.279q3.886,0,7.772,0M15.037,24.1c2.172,0,4.345-.014,6.517.011.451.006.547-.13.543-.558q-.031-3.478,0-6.957c0-.4-.087-.528-.51-.526q-6.518.024-13.034,0c-.423,0-.514.129-.51.526q.026,3.477,0,6.956c0,.428.091.565.543.559,2.151-.025,4.3-.011,6.454-.011" fill="#050606"/>
      <path id="Path_1575" data-name="Path 1575" d="M19.147,34.128c4.135,0,8.27.009,12.405-.012.472,0,.587.115.578.581-.027,1.437-.005,1.437-1.463,1.437q-12,0-24,.013c-.524,0-.656-.125-.642-.645.039-1.373.012-1.374,1.4-1.374Z" fill="#050606"/>
      <path id="Path_1576" data-name="Path 1576" d="M23.143,32.122c-4.156,0-8.312-.012-12.468.014-.537,0-.647-.145-.634-.653.036-1.366.011-1.367,1.408-1.367q12.03,0,24.059-.014c.537,0,.647.145.634.653-.036,1.366-.011,1.367-1.408,1.367Z" fill="#050606"/>
      <path id="Path_1577" data-name="Path 1577" d="M17.073,46.163c3.487,0,6.975.01,10.462-.01.461,0,.594.1.584.574-.028,1.441,0,1.443-1.457,1.443q-9.993,0-19.985.012c-.514,0-.664-.108-.648-.639.04-1.378.012-1.38,1.4-1.38Z" fill="#050606"/>
      <path id="Path_1578" data-name="Path 1578" d="M17.139,38.14c3.466,0,6.932.01,10.4-.012.466,0,.59.106.581.578-.028,1.44,0,1.44-1.46,1.44-6.662,0-13.324-.007-19.985.013-.519,0-.66-.117-.645-.642.04-1.376.012-1.377,1.4-1.377Z" fill="#050606"/>
      <path id="Path_1579" data-name="Path 1579" d="M17.047,44.158c-3.487,0-6.975-.008-10.462.01-.43,0-.561-.089-.554-.539.02-1.477,0-1.477,1.486-1.477q9.992,0,19.985-.011c.476,0,.63.1.618.6-.035,1.413-.01,1.414-1.425,1.414Z" fill="#050606"/>
      <path id="Path_1580" data-name="Path 1580" d="M37.069,21.09c-2.8,0-5.6-.012-8.394.012-.466,0-.591-.1-.581-.577.028-1.441.005-1.441,1.459-1.441,5.325,0,10.65.008,15.974-.013.518,0,.66.115.645.641-.039,1.377-.011,1.378-1.4,1.378Z" fill="#050606"/>
      <path id="Path_1581" data-name="Path 1581" d="M40.143,17.078c-2.506,0-5.011-.009-7.517.009-.4,0-.523-.089-.52-.508.008-1.507-.01-1.507,1.517-1.507,4.656,0,9.312.007,13.968-.011.458,0,.6.093.585.573-.029,1.444,0,1.444-1.456,1.444H40.143" fill="#050606"/>
      <path id="Path_1582" data-name="Path 1582" d="M35.189,23.1c2.15,0,4.3.011,6.451-.01.406,0,.519.1.517.512-.008,1.5.009,1.5-1.519,1.5-3.988,0-7.976-.009-11.963.012-.465,0-.591-.1-.582-.577.028-1.441,0-1.441,1.459-1.441h5.637" fill="#050606"/>
      <path id="Path_1583" data-name="Path 1583" d="M29.15,15.072c.961,0,.961,0,.961.982,0,1.024,0,1.024-1.044,1.024-.961,0-.961,0-.961-.982,0-1.024,0-1.024,1.044-1.024" fill="#050606"/>
      <path id="Path_1584" data-name="Path 1584" d="M7.048,30.116c1,0,1,0,1,1.005s0,1-1,1-1,0-1-1.005,0-1,1-1" fill="#050606"/>
      <path id="Path_1585" data-name="Path 1585" d="M14.066,4.989c0-.95,0-.95.932-.95,1.074,0,1.074,0,1.074,1.057,0,.949,0,.949-.932.949-1.074,0-1.074,0-1.074-1.056" fill="#050606"/>
      <path id="Path_1586" data-name="Path 1586" d="M11.056,6.046c-1,0-1,0-1-1.005s0-1,1.005-1,1,0,1,1.005,0,1-1.005,1" fill="#050606"/>
      <path id="Path_1587" data-name="Path 1587" d="M7.037,6.046c-1,0-1,0-.994-1.261,0-.745,0-.745,1.26-.745.747,0,.747,0,.746,1.323,0,.683,0,.683-1.012.683" fill="#050606"/>
      <path id="Path_1588" data-name="Path 1588" d="M15.037,24.1c-2.152,0-4.3-.014-6.454.011-.452.006-.547-.131-.543-.559q.031-3.477,0-6.956c0-.4.087-.528.51-.526q6.516.024,13.034,0c.423,0,.513.13.51.526q-.027,3.479,0,6.957c0,.428-.092.564-.543.558-2.172-.025-4.345-.011-6.517-.011" fill="#ff9e0f"/>
    </g>
  </g>
</svg>
