<?xml version="1.0" standalone="no"?>
<!DOCTYPE svg PUBLIC "-//W3C//DTD SVG 20010904//EN"
 "http://www.w3.org/TR/2001/REC-SVG-20010904/DTD/svg10.dtd">
<svg version="1.0" xmlns="http://www.w3.org/2000/svg"
 width="512.000000pt" height="512.000000pt" viewBox="0 0 512.000000 512.000000"
 preserveAspectRatio="xMidYMid meet">

<g transform="translate(0.000000,512.000000) scale(0.100000,-0.100000)"
fill="#000000" stroke="none">
<path d="M2315 5109 c-800 -83 -1501 -518 -1927 -1196 -487 -774 -516 -1777
-75 -2578 200 -364 487 -676 841 -913 238 -159 600 -311 876 -366 214 -43 295
-51 530 -51 236 0 333 10 532 51 880 184 1615 842 1898 1702 92 278 125 491
125 802 0 301 -32 513 -116 775 -124 390 -330 728 -622 1024 -399 404 -893
653 -1462 737 -123 18 -478 26 -600 13z m-330 -1479 c202 -55 345 -139 496
-289 155 -156 238 -301 296 -520 23 -84 26 -116 26 -261 0 -145 -3 -177 -26
-261 -58 -219 -141 -364 -296 -520 -151 -151 -296 -235 -496 -289 -103 -28
-330 -38 -442 -20 -399 64 -728 340 -866 727 -77 215 -77 511 0 726 133 375
440 641 829 722 107 22 376 14 479 -15z m1616 -64 c145 -73 271 -259 343 -509
50 -174 60 -255 60 -497 0 -242 -10 -323 -60 -497 -92 -319 -267 -525 -459
-540 -241 -19 -457 264 -542 710 -14 71 -18 144 -18 327 0 252 10 330 61 507
32 113 108 271 167 349 127 167 298 224 448 150z m740 -86 c43 -24 92 -164
123 -355 26 -156 36 -312 36 -565 0 -410 -41 -714 -116 -861 -58 -115 -124
-80 -179 94 -122 385 -109 1297 22 1597 39 89 70 113 114 90z"/>
</g>
</svg>
