<svg xmlns="http://www.w3.org/2000/svg" xmlns:xlink="http://www.w3.org/1999/xlink" width="27.754" height="32.121" viewBox="0 0 27.754 32.121">
  <defs>
    <clipPath id="clip-path">
      <rect id="Rectangle_5400" data-name="Rectangle 5400" width="27.754" height="32.121" transform="translate(-3 -2)" fill="none"/>
    </clipPath>
  </defs>
  <g id="Mentors" transform="translate(3 2)">
    <g id="Group_12309" data-name="Group 12309" transform="translate(0 0)" clip-path="url(#clip-path)">
      <path id="Path_17638" data-name="Path 17638" d="M11.276,0a10.5,10.5,0,0,1,2.061.719,4,4,0,0,1,.8.62,4.332,4.332,0,0,1,1.318,2.148,3.019,3.019,0,0,1,.152,1.018,5.83,5.83,0,0,1-.269,1.748,5.334,5.334,0,0,1-.98,1.547,5.358,5.358,0,0,1-.746.631,4.284,4.284,0,0,1-.861.471.605.605,0,0,0,.5.155c.5-.025.862.38,1.353.339.631.484,1.411.765,2,1.312a8.943,8.943,0,0,1,1.68,1.941,7.271,7.271,0,0,1,.957,2.541,9.693,9.693,0,0,1,.129,2.513.545.545,0,0,1-.528.471c-.065.006-.131,0-.2,0q-7.989,0-15.98.007c-.5,0-.7-.247-.7-.666.022-1.263-.02-.445.017-1.707a5.822,5.822,0,0,1,.557-2.206A8.4,8.4,0,0,1,3.558,11.9,7.666,7.666,0,0,1,6.529,9.589a11.456,11.456,0,0,1,1.192-.471c.264-.086.563-.091.851-.2A4.729,4.729,0,0,1,6.5,7.21a4.52,4.52,0,0,1-.774-2.1,4.35,4.35,0,0,1,.5-2.513A6.2,6.2,0,0,1,7.59.977,5.6,5.6,0,0,1,8.7.359,2.161,2.161,0,0,1,9.739.125c.081,0,.249.082.219-.121h.066c.022.081.043-.026.065,0Zm1.039,9.915c.074.562.127,1.107.219,1.647.086.5.158,1,.213,1.509.066.613.223,1.215.3,1.827a.941.941,0,0,1-.256.965,1.571,1.571,0,0,0-.266.191,8.576,8.576,0,0,1-.595.753c-.127.119-.393.259-.4.308a1.263,1.263,0,0,1-.495.66.507.507,0,0,1-.8-.036,2.957,2.957,0,0,1-.4-.469c-.233-.433-.825-.629-.865-1.186,0-.034-.093-.082-.149-.093-.251-.049-.358-.234-.483-.413-.243-.348,0-.7.01-1.04.019-.736.31-1.448.312-2.2,0-.427.2-.831.238-1.267a3.316,3.316,0,0,1,.139-1.1.069.069,0,0,0-.091-.089c-.285.1-.65.027-.866.162-.451.281-.985.351-1.439.624a9.435,9.435,0,0,0-1.229.81,6.7,6.7,0,0,0-1.817,2.388,5.463,5.463,0,0,0-.539,2.061c-.034,1.024,0-.032,0,.992,0,.191.034.271.263.264.6-.016,1.209-.017,1.812,0,.234.006.262-.078.259-.265-.008-1.107,0-.134,0-1.241a.425.425,0,0,1,.465-.457c.433-.007.616.184.617.665,0,1.035.009-.01,0,1.025,0,.214.051.274.285.273q3.937-.012,7.873,0c.238,0,.312-.043.309-.282-.017-1.1-.007-.113-.008-1.211a.452.452,0,0,1,.464-.469c.405-.011.616.2.618.645,0,1.055,0,.03,0,1.086,0,.128-.021.235.192.231.648-.015,1.3-.01,1.944,0,.171,0,.2-.063.193-.2a4.815,4.815,0,0,0-.192-1.911,6.2,6.2,0,0,0-1.443-2.85,6.993,6.993,0,0,0-2.649-1.843c-.317-.127-.631-.265-.959-.36a5.422,5.422,0,0,0-.764-.1m2.2-5.709c.084-.142-.057-.21-.076-.311a3.589,3.589,0,0,0-1.987-2.474A8.495,8.495,0,0,0,9.971.943.144.144,0,0,0,9.864,1c-.107.138-.278.138-.427.189A3.808,3.808,0,0,0,7.084,3.243,3.536,3.536,0,0,0,6.854,5.36,3.273,3.273,0,0,0,7.967,7.325a3.806,3.806,0,0,0,3.1,1,3.889,3.889,0,0,0,2.019-.806c.147-.123.278-.316.4-.406a2.655,2.655,0,0,0,.884-1.326,2.733,2.733,0,0,0,.151-1.582M10.622,16.651c.447-.28.645-.738,1.01-1.063a.812.812,0,0,0,.326-.843,14.814,14.814,0,0,1-.263-1.577c-.052-.5-.127-1-.216-1.5-.094-.518-.139-1.043-.215-1.563-.03-.2-.11-.348-.391-.3a2.675,2.675,0,0,1-.592,0c-.13-.006-.162.037-.21.156-.091.226-.008.451-.059.672-.13.556-.245,1.117-.343,1.675a5.642,5.642,0,0,0-.041.833c-.006.436-.205.838-.227,1.281-.017.316-.11.633.094.9.355.46.755.889,1.127,1.32" transform="translate(0.205 0)" fill="#bf4e1b" stroke="#bf4e1b" stroke-width="0.5"/>
      <path id="Path_17639" data-name="Path 17639" d="M9.332,0c-.022-.027-.044.08-.066,0Z" transform="translate(0.962 0)" fill="#bf4e1b" stroke="#bf4e1b" stroke-width="0.5"/>
      <path id="Path_17640" data-name="Path 17640" d="M10.815,16.52q4.037,0,8.074,0a3.025,3.025,0,0,1,1.831.538,2.286,2.286,0,0,1,.958,1.642,24.573,24.573,0,0,1,.052,3.1,2.6,2.6,0,0,1-2.388,2.6,1.942,1.942,0,0,1-.352-.02c-1.879,0-3.757,0-5.636-.005a.449.449,0,0,0-.468.271c-.228.43-.531.826-.752,1.26-.211.411-.513.767-.732,1.171a.63.63,0,0,1-.564.378c-.279,0-.412-.186-.533-.385-.514-.846-1.032-1.691-1.54-2.541a.314.314,0,0,0-.319-.151c-1.956,0-3.911-.006-5.866,0A2.66,2.66,0,0,1,.21,22.86a2.71,2.71,0,0,1-.194-1c0-1-.033-2.008,0-3.011A2.492,2.492,0,0,1,1.642,16.7a3.422,3.422,0,0,1,1.1-.179h8.074m-.018.995h0q-4.1,0-8.2,0a1.487,1.487,0,0,0-1.472,1.236c-.02,1.079-.026,2.158,0,3.236a1.339,1.339,0,0,0,.142.614,1.452,1.452,0,0,0,1.392.763c2.042-.005,4.085,0,6.127,0a.753.753,0,0,1,.709.371c.408.672.833,1.334,1.237,2.008.1.17.155.2.258.015.085-.151.2-.29.268-.446.139-.3.328-.575.461-.881.086-.2.334-.367.438-.585a.815.815,0,0,1,.826-.482q3.047,0,6.1,0a1.5,1.5,0,0,0,1.17-.483,1.544,1.544,0,0,0,.394-1.059c.014-.9.008-1.8,0-2.7a1.6,1.6,0,0,0-.046-.488,1.538,1.538,0,0,0-1.63-1.111c-2.723-.011-5.447,0-8.17,0" transform="translate(0 0.669)" fill="#bf4e1b" stroke="#bf4e1b" stroke-width="0.5"/>
    </g>
  </g>
</svg>
