<svg xmlns="http://www.w3.org/2000/svg" width="23.607" height="28.329" viewBox="0 0 23.607 28.329">
  <g id="notification_1_" data-name="notification (1)" transform="translate(-42.658)">
    <g id="Group_28418" data-name="Group 28418" transform="translate(42.657 4.131)">
      <g id="Group_28417" data-name="Group 28417">
        <path id="Path_20330" data-name="Path 20330" d="M66.182,94.43l-2.028-3.378a10.042,10.042,0,0,1-1.429-5.163V82.93a8.263,8.263,0,0,0-16.525,0v2.959a10.042,10.042,0,0,1-1.429,5.163L42.742,94.43a.59.59,0,0,0,.506.894H65.675a.59.59,0,0,0,.506-.894ZM44.29,94.143l1.491-2.485a11.212,11.212,0,0,0,1.6-5.77V82.93a7.082,7.082,0,0,1,14.165,0v2.959a11.222,11.222,0,0,0,1.6,5.77l1.492,2.485Z" transform="translate(-42.657 -74.667)" fill="#333"/>
      </g>
    </g>
    <g id="Group_28420" data-name="Group 28420" transform="translate(52.101)">
      <g id="Group_28419" data-name="Group 28419">
        <path id="Path_20331" data-name="Path 20331" d="M215.694,0a2.363,2.363,0,0,0-2.361,2.361V4.722a.59.59,0,0,0,1.18,0V2.361a1.18,1.18,0,0,1,2.361,0V4.722a.59.59,0,0,0,1.18,0V2.361A2.363,2.363,0,0,0,215.694,0Z" transform="translate(-213.333)" fill="#333"/>
      </g>
    </g>
    <g id="Group_28422" data-name="Group 28422" transform="translate(51.511 23.608)">
      <g id="Group_28421" data-name="Group 28421">
        <path id="Path_20332" data-name="Path 20332" d="M208.171,426.97a.591.591,0,0,0-1.02.6,1.771,1.771,0,1,1-3.067,0,.591.591,0,0,0-1.02-.6,2.952,2.952,0,1,0,5.106,0Z" transform="translate(-202.666 -426.68)" fill="#333"/>
      </g>
    </g>
  </g>
</svg>
