<svg xmlns="http://www.w3.org/2000/svg" xmlns:xlink="http://www.w3.org/1999/xlink" width="31.395" height="31.399" viewBox="0 0 31.395 31.399">
  <defs>
    <clipPath id="clip-path">
      <rect id="Rectangle_263" data-name="Rectangle 263" width="31.395" height="31.399" fill="none"/>
    </clipPath>
  </defs>
  <g id="Group_1717" data-name="Group 1717" transform="translate(0 0)">
    <g id="Group_1716" data-name="Group 1716" transform="translate(0 0)" clip-path="url(#clip-path)">
      <path id="Path_3239" data-name="Path 3239" d="M15.023,31.394a6.006,6.006,0,0,0-.785-.278,3.649,3.649,0,0,1-2.248-3.139c-.024-.243-.107-.266-.31-.265-1.808.007-3.615.014-5.424,0a3.656,3.656,0,0,1-3.59-3.839,10.509,10.509,0,0,1,.993-3.5c.5-1.107,1.144-2.131,1.7-3.207a6.441,6.441,0,0,0,.715-3.03c0-.776-.014-1.554.028-2.328a8.271,8.271,0,0,1,.676-2.866.414.414,0,0,0-.123-.544q-3.1-3.08-6.181-6.17A1.273,1.273,0,0,1,.058.877a1.217,1.217,0,0,1,1.9-.633A3.243,3.243,0,0,1,2.3.553Q16.477,14.735,30.66,28.915a2.99,2.99,0,0,1,.731.947v.552a1.385,1.385,0,0,1-.981.981h-.552a2.924,2.924,0,0,1-.925-.709c-.9-.913-1.826-1.81-2.717-2.735a.719.719,0,0,0-.817-.258,1.877,1.877,0,0,1-.547.024c-1.744,0-3.489.006-5.233-.006-.23,0-.283.067-.3.285a3.6,3.6,0,0,1-2.056,3.035,6.359,6.359,0,0,1-1.135.363ZM8.8,10.6a6.972,6.972,0,0,0-.219,1.113c-.107.968-.033,1.94-.059,2.909a8.248,8.248,0,0,1-.59,2.823A25.58,25.58,0,0,1,6.5,20.207a12.1,12.1,0,0,0-1.309,3.4,1.254,1.254,0,0,0,1.347,1.656q8.351,0,16.7,0c.073,0,.16.039.206-.015L8.8,10.6M15.667,28.94a1.255,1.255,0,0,0,1.186-.97c.03-.152.042-.264-.19-.26-.672.016-1.346.012-2.02,0-.177,0-.2.061-.181.211a1.245,1.245,0,0,0,1.2,1.018" transform="translate(0 0)" fill="#070807"/>
      <path id="Path_3240" data-name="Path 3240" d="M14.292,28.25a6.256,6.256,0,0,0,1.136-.364,3.6,3.6,0,0,0,2.055-3.035c.018-.218.071-.287.3-.284,1.743.011,3.488.006,5.232,0a1.923,1.923,0,0,0,.548-.023.72.72,0,0,1,.817.257c.89.926,1.812,1.822,2.717,2.735a2.915,2.915,0,0,0,.925.71Z" transform="translate(1.834 3.146)" fill="#fefefe"/>
      <path id="Path_3241" data-name="Path 3241" d="M26.952,27.936a1.388,1.388,0,0,0,.981-.981c0,.285-.006.572,0,.858,0,.107-.019.13-.125.126-.287-.01-.572,0-.859,0" transform="translate(3.459 3.46)" fill="#fefefe"/>
      <path id="Path_3242" data-name="Path 3242" d="M21.539,13.6a9.43,9.43,0,0,0-.291-3.032A6.961,6.961,0,0,0,15.6,5.519a6.676,6.676,0,0,0-4.22.6,1.342,1.342,0,0,1-1.395.015,1.213,1.213,0,0,1,.049-2.1,8.2,8.2,0,0,1,2.487-.889c.682-.129.685-.111.685-.8,0-.378,0-.756,0-1.134a1.224,1.224,0,0,1,2.449,0c.008.51.018,1.022,0,1.531-.011.228.071.3.274.328a8.855,8.855,0,0,1,3.98,1.6,9.469,9.469,0,0,1,3.975,6.381,14.9,14.9,0,0,1,.107,2.781,6.739,6.739,0,0,0,.842,3.517,1.407,1.407,0,0,1,.221,1.076,1.187,1.187,0,0,1-.977.933,1.109,1.109,0,0,1-1.221-.513A8.708,8.708,0,0,1,21.6,15.4a17.5,17.5,0,0,1-.062-1.8" transform="translate(1.206 0.001)" fill="#080808"/>
      <path id="Path_3243" data-name="Path 3243" d="M8.215,9.4,22.86,24.041c-.046.054-.133.015-.206.015q-8.351,0-16.7,0A1.255,1.255,0,0,1,4.6,22.4,12.065,12.065,0,0,1,5.913,19a25.371,25.371,0,0,0,1.433-2.76,8.2,8.2,0,0,0,.59-2.823c.027-.969-.047-1.941.06-2.909A6.972,6.972,0,0,1,8.215,9.4" transform="translate(0.585 1.206)" fill="#fefefe"/>
    </g>
  </g>
</svg>
