<svg xmlns="http://www.w3.org/2000/svg" xmlns:xlink="http://www.w3.org/1999/xlink" width="60" height="55" viewBox="0 0 60 55">
  <defs>
    <clipPath id="clip-path">
      <rect id="Rectangle_219" data-name="Rectangle 219" width="60" height="55" fill="none"/>
    </clipPath>
    <clipPath id="clip-path-2">
      <rect id="Rectangle_270" data-name="Rectangle 270" width="19.132" height="24.177" fill="none"/>
    </clipPath>
  </defs>
  <g id="outgoingChat" transform="translate(2 2)">
    <g id="Group_1588" data-name="Group 1588" transform="translate(-2 -2)" clip-path="url(#clip-path)">
      <path id="Path_1744" data-name="Path 1744" d="M2.962,50.769c-1.139-.518-1.377-1.114-.87-2.2,1.2-2.566,2.4-5.133,3.616-7.694a.629.629,0,0,0-.082-.791A23.632,23.632,0,0,1,.936,31.439a22.6,22.6,0,0,1-.807-8.87A23.092,23.092,0,0,1,5.123,10.433,26.665,26.665,0,0,1,21.293.64,28.106,28.106,0,0,1,44.45,5.685,23.414,23.414,0,0,1,53.856,20.3a22.846,22.846,0,0,1-5.722,20.423A26.974,26.974,0,0,1,31.8,49.482a28.1,28.1,0,0,1-13.024-.875,5.2,5.2,0,0,0-2.483.109c-4.121.638-8.238,1.31-12.355,1.975-.043.008-.078.053-.115.079Zm2.859-3.2a.932.932,0,0,0,.207.023q5.406-.872,10.813-1.754a5.113,5.113,0,0,1,2.635.09,21.6,21.6,0,0,0,4.646,1.005A24.141,24.141,0,0,0,35.56,45.724c9.416-3.52,14.715-9.941,15.716-19.255a19.043,19.043,0,0,0-1.857-10.325C44.934,6.671,34.263,1.348,23.162,3.093A23.691,23.691,0,0,0,6.479,13.533a19.921,19.921,0,0,0-3.438,12.3A20.857,20.857,0,0,0,5.076,33.9a20.116,20.116,0,0,0,3.419,5.064,1.717,1.717,0,0,1,.326,2.214c-.554,1.032-1.006,2.106-1.5,3.164s-1,2.137-1.5,3.223" transform="translate(2.264 2.115)" fill="#0a0909" stroke="#000" stroke-width="0.5"/>
      <g id="Group_1734" data-name="Group 1734" transform="translate(20 14.696)">
        <g id="Group_1733" data-name="Group 1733" transform="translate(0 0)" clip-path="url(#clip-path-2)">
          <path id="Path_3250" data-name="Path 3250" d="M7.651,6.53c-1.5,1.5-2.908,2.925-4.328,4.333a1.911,1.911,0,1,1-2.7-2.7q2.385-2.4,4.784-4.785C6.315,2.47,7.22,1.558,8.132.654A1.9,1.9,0,0,1,10.989.646q3.764,3.746,7.51,7.509a1.915,1.915,0,1,1-2.719,2.688C14.486,9.56,13.2,8.268,11.914,6.978a1.208,1.208,0,0,0-.429-.329v.5c0,8.379,0,6.5,0,14.882a1.942,1.942,0,0,1-1.42,2.073A1.906,1.906,0,0,1,7.655,22.38c-.009-.164,0-.329,0-.493V6.53" transform="translate(0 0)" fill="#020202"/>
        </g>
      </g>
    </g>
  </g>
</svg>
