<svg xmlns="http://www.w3.org/2000/svg" xmlns:xlink="http://www.w3.org/1999/xlink" width="35.386" height="40.494" viewBox="0 0 35.386 40.494">
  <defs>
    <clipPath id="clip-path">
      <rect id="Rectangle_5471" data-name="Rectangle 5471" width="35.386" height="40.494" transform="translate(0 0)" fill="none"/>
    </clipPath>
  </defs>
  <g id="Group_12438" data-name="Group 12438" transform="translate(0 0)">
    <g id="Group_12437" data-name="Group 12437" clip-path="url(#clip-path)">
      <path id="Path_18383" data-name="Path 18383" d="M33.4,40.494H7.037a.68.68,0,0,0-.341-.177,2.559,2.559,0,0,1-1.632-2.4c0-.825,0-1.65,0-2.475q11.972,0,23.943,0a1.2,1.2,0,0,0,1.28-1,3.385,3.385,0,0,0-.021-1.363,3.172,3.172,0,0,0,.053-.42q0-6.052,0-12.106a2.1,2.1,0,0,0-.15-.789c-.267-.665-.86-.736-1.452-.737q-11.595-.01-23.188,0c-.157,0-.315-.008-.472-.013q0-8.157,0-16.313A2.55,2.55,0,0,1,6.894.189c.112-.036.284.005.3-.189h.237c.145.138.325.076.489.076q8.431,0,16.864.006c.163,0,.344-.064.488.079q0,3.725,0,7.449a2.579,2.579,0,0,0,1.956,2.5c.244.065.493-.038.722.08.024.191.181.284.3.4q3.4,3.4,6.8,6.8c.1.1.215.19.324.284q0,10.143,0,20.286a2.467,2.467,0,0,1-.667,1.678,4.45,4.45,0,0,1-1.3.851" fill="#dbdee0"/>
      <path id="Path_18384" data-name="Path 18384" d="M5.062,34.192l-3.706-.013A1.246,1.246,0,0,1,.012,32.85C.011,28.723.025,24.6,0,20.469a1.334,1.334,0,0,1,1.436-1.448c1.209,0,2.418-.007,3.627-.011.157,0,.315.013.472.013q11.594,0,23.188,0c.592,0,1.185.072,1.453.737a2.119,2.119,0,0,1,.149.789q0,6.054,0,12.106a3.346,3.346,0,0,1-.052.42,1.258,1.258,0,0,1-1.375,1.1H5.574c-.17,0-.341.009-.512.013m15.1-4.281a.6.6,0,0,0,.724.467c.283-.045.542-.171.528-.535.037-.014.071-.03.055-.08,0-.615.019-1.23.01-1.844,0-.227.072-.289.291-.285.733.011,1.466.006,2.2,0,.348,0,.668-.087.757-.475s-.091-.623-.549-.8c-.124-.107-.274-.068-.414-.07-.757-.007-1.514-.009-2.272-.013,0-.394.014-.789-.013-1.181-.022-.306.068-.4.385-.393.853.022,1.708.015,2.561,0a.706.706,0,0,0,.692-.662c.008-.337-.222-.559-.623-.6-.045-.022-.09-.063-.135-.063q-1.741,0-3.483,0a.637.637,0,0,0-.182.063c-.287-.011-.4.2-.529.4l0,.147,0,5.773c0,.049,0,.1,0,.148M6.807,29.766a4.3,4.3,0,0,0,.058-1.353,6.444,6.444,0,0,1,1.442-.053,3.178,3.178,0,0,0,1.185-.184A2.355,2.355,0,0,0,11,25.739,2.321,2.321,0,0,0,8.7,23.358c-.15-.129-.32-.07-.485-.053h-.15a9.467,9.467,0,0,0-1.429,0h-.15c-.141-.015-.287-.078-.411.049a.573.573,0,0,0-.549.632c0,1.921,0,3.841.007,5.761a.58.58,0,0,0,.619.639c.435.007.6-.15.652-.621M12.8,23.443a.608.608,0,0,0-.482.615c0,1.893,0,3.787,0,5.681,0,.48.191.65.664.651.894,0,1.788,0,2.683,0a2.865,2.865,0,0,0,1.867-.755,3.6,3.6,0,0,0,1.178-2.6,3.281,3.281,0,0,0-3.223-3.6,1.844,1.844,0,0,0-.914-.061,7.393,7.393,0,0,0-1.777.065" fill="#e73d32"/>
      <path id="Path_18385" data-name="Path 18385" d="M25.273.161c.167,0,.246.14.345.239Q30.3,5.077,34.977,9.758c.111.111.208.234.312.351-.132.13-.3.071-.449.071q-3.446.012-6.889.013c-.229-.119-.478-.015-.722-.081a2.577,2.577,0,0,1-1.955-2.5q-.006-3.725,0-7.449" fill="#a1aab1"/>
      <path id="Path_18386" data-name="Path 18386" d="M5.062,34.192c.171,0,.341-.012.512-.012l23.321,0a1.256,1.256,0,0,0,1.374-1.1,3.4,3.4,0,0,1,.021,1.363,1.2,1.2,0,0,1-1.28,1q-11.972,0-23.943,0,0-.624-.005-1.247" fill="#bec7cf"/>
      <path id="Path_18387" data-name="Path 18387" d="M27.951,10.193q3.444,0,6.888-.013c.151,0,.318.059.45-.071.143.109.085.266.085.4q0,3.585,0,7.169c-.108-.094-.222-.183-.324-.284q-3.4-3.4-6.8-6.8c-.117-.118-.275-.211-.3-.4" fill="#bec7cf"/>
      <path id="Path_18388" data-name="Path 18388" d="M15.49,23.439a3.282,3.282,0,0,1,3.223,3.6,3.6,3.6,0,0,1-1.178,2.6,2.866,2.866,0,0,1-1.867.756c-.9-.006-1.789,0-2.683,0-.473,0-.662-.171-.664-.651-.007-1.893,0-3.787,0-5.681a.609.609,0,0,1,.482-.615l2.691,0m-1.807,1.2c-.058,0-.071.027-.031.072l.018,4.413a4.449,4.449,0,0,0,1.817.015,1.809,1.809,0,0,0,.838-.261,2.273,2.273,0,0,0,1.027-2.457,1.912,1.912,0,0,0-1.6-1.719,13.038,13.038,0,0,0-2.072-.063" fill="#fff"/>
      <path id="Path_18389" data-name="Path 18389" d="M8.7,23.359A2.322,2.322,0,0,1,11,25.739a2.357,2.357,0,0,1-1.5,2.438,3.2,3.2,0,0,1-1.185.183,6.5,6.5,0,0,0-1.442.053,5.3,5.3,0,0,0-.058,1.354c-.052.47-.217.628-.652.62a.579.579,0,0,1-.619-.638c-.011-1.92-.007-3.841-.007-5.761a.575.575,0,0,1,.549-.633c.139,0,.283.045.411-.049h.15a3.815,3.815,0,0,0,1.429,0h.15c.153.1.322.045.485.053m-.084,3.729a1.25,1.25,0,0,0,1.1-1.363A1.231,1.231,0,0,0,8.7,24.607a4.7,4.7,0,0,0-1.824.014l-.021.081a14.926,14.926,0,0,0-.052,2.05c-.005.111-.037.238.08.322a.3.3,0,0,0,.071.021,4.728,4.728,0,0,0,1.665-.007" fill="#fff"/>
      <path id="Path_18390" data-name="Path 18390" d="M24.173,26.36c.458.179.638.416.549.8s-.409.473-.757.475c-.733,0-1.466.009-2.2,0-.219,0-.3.058-.291.285.009.614-.005,1.229-.01,1.844l-.055.08c.014.364-.245.49-.528.535a.6.6,0,0,1-.724-.466c.064-.049.065-.1,0-.149l0-5.772c.063-.051.061-.1,0-.148.124-.2.242-.414.529-.4h3.8c.4.043.631.265.623.6a.706.706,0,0,1-.691.662c-.854.015-1.709.022-2.562,0-.317-.008-.407.087-.385.393.027.392.011.787.013,1.181.066.119.181.089.281.089.8,0,1.6,0,2.405-.006" fill="#fff"/>
      <path id="Path_18391" data-name="Path 18391" d="M24.489,23.439l-3.8,0a.608.608,0,0,1,.182-.063q1.741-.006,3.483,0c.045,0,.09.04.135.062" fill="#f4b0aa"/>
      <path id="Path_18392" data-name="Path 18392" d="M15.49,23.439l-2.691,0a7.393,7.393,0,0,1,1.777-.065,1.843,1.843,0,0,1,.914.061" fill="#f4b0aa"/>
      <path id="Path_18393" data-name="Path 18393" d="M24.173,26.36c-.8,0-1.6.006-2.405.006-.1,0-.215.03-.281-.089.758,0,1.515.007,2.272.013.14,0,.29-.037.414.07" fill="#f4b0aa"/>
      <path id="Path_18394" data-name="Path 18394" d="M8.068,23.306a3.81,3.81,0,0,1-1.428,0,9.454,9.454,0,0,1,1.428,0" fill="#f4b0aa"/>
      <path id="Path_18395" data-name="Path 18395" d="M6.807,29.767a5.287,5.287,0,0,1,.058-1.353,4.3,4.3,0,0,1-.058,1.353" fill="#f4b0aa"/>
      <path id="Path_18396" data-name="Path 18396" d="M8.7,23.359c-.163-.008-.332.046-.485-.053.166-.017.336-.077.485.053" fill="#f4b0aa"/>
      <path id="Path_18397" data-name="Path 18397" d="M6.489,23.306c-.128.093-.272.046-.411.049.124-.126.27-.064.411-.049" fill="#f4b0aa"/>
      <path id="Path_18398" data-name="Path 18398" d="M20.16,23.843c.063.048.065.1,0,.147l0-.147" fill="#dbdee0"/>
      <path id="Path_18399" data-name="Path 18399" d="M20.16,29.763c.063.051.063.1,0,.149,0-.05,0-.1,0-.149" fill="#dbdee0"/>
      <path id="Path_18400" data-name="Path 18400" d="M21.41,29.843l.055-.08c.017.05-.017.067-.055.08" fill="#dbdee0"/>
      <path id="Path_18401" data-name="Path 18401" d="M13.67,29.124q-.009-2.207-.017-4.412c.01-.025.02-.049.031-.073a13.025,13.025,0,0,1,2.071.063,1.912,1.912,0,0,1,1.6,1.719,2.272,2.272,0,0,1-1.026,2.457,1.816,1.816,0,0,1-.839.261l-1.817-.015" fill="#e73d32"/>
      <path id="Path_18402" data-name="Path 18402" d="M13.67,29.124l1.817.015a4.449,4.449,0,0,1-1.817-.015" fill="#f4b0aa"/>
      <path id="Path_18403" data-name="Path 18403" d="M13.683,24.639c-.01.024-.02.048-.031.072-.04-.045-.027-.068.031-.072" fill="#f4b0aa"/>
      <path id="Path_18404" data-name="Path 18404" d="M6.855,24.7l.021-.082L8.7,24.607a1.228,1.228,0,0,1,1.02,1.117,1.251,1.251,0,0,1-1.1,1.364l-1.664.007a.427.427,0,0,1-.072-.021Q6.87,25.888,6.855,24.7" fill="#e73d32"/>
      <path id="Path_18405" data-name="Path 18405" d="M6.855,24.7q.013,1.187.028,2.372c-.117-.085-.085-.211-.08-.322a15.087,15.087,0,0,1,.052-2.05" fill="#f4b0aa"/>
      <path id="Path_18406" data-name="Path 18406" d="M8.7,24.607l-1.824.014A4.7,4.7,0,0,1,8.7,24.607" fill="#f4b0aa"/>
      <path id="Path_18407" data-name="Path 18407" d="M6.954,27.095l1.665-.007a4.728,4.728,0,0,1-1.665.007" fill="#f4b0aa"/>
    </g>
  </g>
</svg>
