<svg id="Privacy" xmlns="http://www.w3.org/2000/svg" xmlns:xlink="http://www.w3.org/1999/xlink" width="32.355" height="35.064" viewBox="0 0 32.355 35.064">
  <defs>
    <clipPath id="clip-path">
      <rect id="Rectangle_220" data-name="Rectangle 220" width="32.355" height="35.064" fill="#bf4e1b"/>
    </clipPath>
  </defs>
  <g id="Group_1590" data-name="Group 1590" clip-path="url(#clip-path)">
    <path id="Path_2130" data-name="Path 2130" d="M0,13.254q0-3.2,0-6.4A1.33,1.33,0,0,1,1.43,5.4,23.213,23.213,0,0,0,12.287,2.261a25.01,25.01,0,0,0,2.9-1.852,1.4,1.4,0,0,1,1.982,0,26.952,26.952,0,0,0,9.8,4.521,19.828,19.828,0,0,0,3.959.472,1.338,1.338,0,0,1,1.422,1.459c0,4.057.015,8.114,0,12.17A16.174,16.174,0,0,1,.468,22.768,15.051,15.051,0,0,1,0,19.108V13.254m29.652.688c0-1.839,0-3.678.006-5.516,0-.276-.059-.391-.358-.416a22.62,22.62,0,0,1-3.309-.56,27.787,27.787,0,0,1-9.566-4.243.377.377,0,0,0-.51.009c-.593.4-1.189.793-1.806,1.15A27.624,27.624,0,0,1,3.039,8.011c-.307.032-.348.158-.348.424.008,3.453,0,6.906.007,10.359a14.386,14.386,0,0,0,.328,3,13.472,13.472,0,0,0,26.625-2.97c.011-1.628,0-3.257,0-4.885" transform="translate(0 0)" fill="#bf4e1b"/>
    <path id="Path_2131" data-name="Path 2131" d="M14.778,24.949a1.353,1.353,0,0,1-.928-.422Q11.187,21.861,8.524,19.2a1.343,1.343,0,1,1,1.9-1.9c1.357,1.342,2.711,2.687,4.045,4.052.273.279.41.313.707.013,2.655-2.682,5.332-5.344,8-8.017a1.376,1.376,0,0,1,1.4-.462,1.334,1.334,0,0,1,.722,2.139,2.8,2.8,0,0,1-.23.245q-4.569,4.57-9.137,9.141a1.558,1.558,0,0,1-1.149.539" transform="translate(0 0)" fill="#bf4e1b"/>
  </g>
</svg>
