<svg xmlns="http://www.w3.org/2000/svg" xmlns:xlink="http://www.w3.org/1999/xlink" width="155.022" height="253.747" viewBox="0 0 155.022 253.747">
  <defs>
    <clipPath id="clip-path">
      <rect id="Rectangle_190" data-name="Rectangle 190" width="155.022" height="253.748" fill="#fcfcfc"/>
    </clipPath>
    <clipPath id="clip-path-3">
      <rect id="Rectangle_179" data-name="Rectangle 179" width="18.678" height="25.232" fill="#fcfcfc"/>
    </clipPath>
    <clipPath id="clip-path-4">
      <rect id="Rectangle_180" data-name="Rectangle 180" width="30.344" height="40.208" fill="#fcfcfc"/>
    </clipPath>
    <clipPath id="clip-path-6">
      <rect id="Rectangle_182" data-name="Rectangle 182" width="36.311" height="48.935" fill="#fcfcfc"/>
    </clipPath>
    <clipPath id="clip-path-7">
      <rect id="Rectangle_183" data-name="Rectangle 183" width="37.659" height="51.068" fill="#fcfcfc"/>
    </clipPath>
    <clipPath id="clip-path-8">
      <rect id="Rectangle_184" data-name="Rectangle 184" width="20.275" height="27.801" fill="#fcfcfc"/>
    </clipPath>
    <clipPath id="clip-path-9">
      <rect id="Rectangle_188" data-name="Rectangle 188" width="155.022" height="115.565" fill="#fcfcfc"/>
    </clipPath>
    <clipPath id="clip-path-10">
      <path id="Path_2082" data-name="Path 2082" d="M67.5,112.018A58.716,58.716,0,0,1,84.706,114.4a40.248,40.248,0,0,1,13.337,6.77,30.562,30.562,0,0,1,8.623,10.637,31.153,31.153,0,0,1,3.063,13.9,22.779,22.779,0,0,1-2.1,9.994,33.424,33.424,0,0,1-5.238,7.857,47.669,47.669,0,0,1-6.77,6.246q-3.627,2.74-6.769,5.038a44.843,44.843,0,0,0-5.239,4.392,6.1,6.1,0,0,0-2.1,4.272v3.465H53.317v-8.221a10.917,10.917,0,0,1,1.572-5.641,27.722,27.722,0,0,1,3.989-5.158q2.417-2.5,5.158-4.916a70.675,70.675,0,0,0,5.158-5.038,28.355,28.355,0,0,0,3.989-5.44,12.532,12.532,0,0,0,1.572-6.2A13.216,13.216,0,0,0,74.028,142a10.649,10.649,0,0,0-2.135-3.666,10.89,10.89,0,0,0-3.426-2.539,10.483,10.483,0,0,0-4.594-.967,10.9,10.9,0,0,0-5.48,1.209,8.942,8.942,0,0,0-3.264,3.143,12.223,12.223,0,0,0-1.572,4.432,31.656,31.656,0,0,0-.4,5.077V150.9a15.508,15.508,0,0,0,.162,2.217H22.934q-.161-1.612-.322-3.1a28.6,28.6,0,0,1-.162-3.1,30.723,30.723,0,0,1,3.386-14.506,32.84,32.84,0,0,1,9.388-11,43.628,43.628,0,0,1,14.264-6.972A63.946,63.946,0,0,1,67.5,112.018M84.021,227.583H51.3V197.04H84.021Z" transform="translate(-22.45 -112.018)" fill="#fcfcfc"/>
    </clipPath>
    <clipPath id="clip-path-11">
      <path id="Path_2083" data-name="Path 2083" d="M111.01,152.27a33.466,33.466,0,0,1,9.813,1.356,22.976,22.976,0,0,1,7.607,3.861,17.441,17.441,0,0,1,4.917,6.067,17.765,17.765,0,0,1,1.747,7.928,12.984,12.984,0,0,1-1.2,5.7,19.112,19.112,0,0,1-2.986,4.482,27.223,27.223,0,0,1-3.861,3.561q-2.069,1.564-3.861,2.873A25.591,25.591,0,0,0,120.2,190.6a3.479,3.479,0,0,0-1.2,2.436v1.976H102.92v-4.689a6.218,6.218,0,0,1,.9-3.217,15.8,15.8,0,0,1,2.275-2.942q1.379-1.423,2.942-2.8a40.241,40.241,0,0,0,2.941-2.872,16.237,16.237,0,0,0,2.276-3.1,7.157,7.157,0,0,0,.9-3.54,7.548,7.548,0,0,0-.413-2.481,6.075,6.075,0,0,0-1.219-2.092,6.181,6.181,0,0,0-1.953-1.447,5.967,5.967,0,0,0-2.62-.553,6.218,6.218,0,0,0-3.125.69,5.1,5.1,0,0,0-1.863,1.792,6.991,6.991,0,0,0-.9,2.529,18.034,18.034,0,0,0-.231,2.9v1.264a8.86,8.86,0,0,0,.093,1.263H85.592q-.093-.918-.184-1.769a16.362,16.362,0,0,1-.093-1.77,17.537,17.537,0,0,1,1.931-8.274,18.738,18.738,0,0,1,5.355-6.273,24.887,24.887,0,0,1,8.135-3.977,36.459,36.459,0,0,1,10.273-1.378m9.422,65.911H101.771V200.761h18.662Z" transform="translate(-85.316 -152.27)" fill="#fcfcfc"/>
    </clipPath>
    <clipPath id="clip-path-12">
      <path id="Path_2084" data-name="Path 2084" d="M25.694,152.27a33.466,33.466,0,0,1,9.813,1.356,22.957,22.957,0,0,1,7.606,3.861,17.431,17.431,0,0,1,4.918,6.067,17.765,17.765,0,0,1,1.747,7.928,12.984,12.984,0,0,1-1.2,5.7,19.078,19.078,0,0,1-2.988,4.482,27.281,27.281,0,0,1-3.86,3.561q-2.069,1.564-3.861,2.873a25.488,25.488,0,0,0-2.988,2.505,3.479,3.479,0,0,0-1.2,2.436v1.976H17.6v-4.689a6.228,6.228,0,0,1,.9-3.217,15.866,15.866,0,0,1,2.276-2.942q1.379-1.423,2.942-2.8a40.487,40.487,0,0,0,2.941-2.872,16.288,16.288,0,0,0,2.276-3.1,7.157,7.157,0,0,0,.9-3.54,7.548,7.548,0,0,0-.413-2.481,6.075,6.075,0,0,0-1.219-2.092,6.208,6.208,0,0,0-1.953-1.447,5.967,5.967,0,0,0-2.62-.553,6.226,6.226,0,0,0-3.126.69,5.108,5.108,0,0,0-1.861,1.792,7.015,7.015,0,0,0-.9,2.529,18.177,18.177,0,0,0-.229,2.9v1.264a8.859,8.859,0,0,0,.093,1.263H.276q-.093-.918-.185-1.769A16.688,16.688,0,0,1,0,172.171,17.537,17.537,0,0,1,1.931,163.9a18.738,18.738,0,0,1,5.355-6.273,24.875,24.875,0,0,1,8.135-3.977,36.459,36.459,0,0,1,10.273-1.378m9.422,65.911H16.455V200.761H35.116Z" transform="translate(0 -152.27)" fill="#fcfcfc"/>
    </clipPath>
  </defs>
  <g id="Group_1532" data-name="Group 1532" opacity="0.438">
    <g id="Group_1531" data-name="Group 1531" clip-path="url(#clip-path)">
      <g id="Group_1530" data-name="Group 1530">
        <g id="Group_1529" data-name="Group 1529" clip-path="url(#clip-path)">
          <g id="Group_1504" data-name="Group 1504" transform="translate(125.071 118.639)" opacity="0.3">
            <g id="Group_1503" data-name="Group 1503">
              <g id="Group_1502" data-name="Group 1502" clip-path="url(#clip-path-3)">
                <path id="Path_2076" data-name="Path 2076" d="M112.425,96.451a12.549,12.549,0,0,1,3.519,1.2,8.619,8.619,0,0,1,2.528,1.965,6.541,6.541,0,0,1,1.379,2.586,6.663,6.663,0,0,1,.078,3.046,4.852,4.852,0,0,1-.846,2.014,7.136,7.136,0,0,1-1.42,1.438,10.274,10.274,0,0,1-1.676,1.037q-.873.427-1.627.782a9.659,9.659,0,0,0-1.279.711,1.306,1.306,0,0,0-.614.813l-.141.728-5.927-1.147.334-1.727a2.341,2.341,0,0,1,.56-1.121,5.9,5.9,0,0,1,1.047-.921c.407-.285.834-.559,1.284-.824a14.789,14.789,0,0,0,1.288-.849,6.054,6.054,0,0,0,1.06-.981,2.673,2.673,0,0,0,.582-1.24,2.791,2.791,0,0,0,.025-.944,2.256,2.256,0,0,0-.3-.857,2.3,2.3,0,0,0-.617-.674,2.243,2.243,0,0,0-.925-.39,2.324,2.324,0,0,0-1.2.032,1.908,1.908,0,0,0-.814.527,2.638,2.638,0,0,0-.511.868,6.843,6.843,0,0,0-.291,1.05c-.031.158-.06.313-.09.466a3.235,3.235,0,0,0-.055.472l-6.385-1.236c.021-.229.041-.451.059-.665a6.194,6.194,0,0,1,.091-.659,6.577,6.577,0,0,1,1.3-2.91,7.025,7.025,0,0,1,2.42-1.929,9.314,9.314,0,0,1,3.28-.886,13.693,13.693,0,0,1,3.883.225M111.2,121.407l-6.876-1.33,1.242-6.418,6.876,1.33Z" transform="translate(-101.389 -96.175)" fill="#fcfcfc"/>
              </g>
            </g>
          </g>
          <g id="Group_1507" data-name="Group 1507" transform="translate(59.998 83.423)" opacity="0.3">
            <g id="Group_1506" data-name="Group 1506">
              <g id="Group_1505" data-name="Group 1505" clip-path="url(#clip-path-4)">
                <path id="Path_2077" data-name="Path 2077" d="M64.368,67.627a20.389,20.389,0,0,1,5.977.861,14,14,0,0,1,4.623,2.381,10.624,10.624,0,0,1,2.977,3.716,10.822,10.822,0,0,1,1.036,4.838,7.905,7.905,0,0,1-.749,3.47,11.58,11.58,0,0,1-1.837,2.721,16.614,16.614,0,0,1-2.365,2.158q-1.267.946-2.364,1.737a15.56,15.56,0,0,0-1.831,1.516,2.121,2.121,0,0,0-.736,1.482l-.007,1.2-9.806-.057L59.3,90.8a3.794,3.794,0,0,1,.559-1.958,9.548,9.548,0,0,1,1.4-1.785q.846-.864,1.8-1.7a24.852,24.852,0,0,0,1.8-1.741,9.879,9.879,0,0,0,1.4-1.884,4.338,4.338,0,0,0,.559-2.154,4.58,4.58,0,0,0-.243-1.515,3.709,3.709,0,0,0-.735-1.279,3.792,3.792,0,0,0-1.185-.889,3.661,3.661,0,0,0-1.6-.345,3.793,3.793,0,0,0-1.907.41,3.108,3.108,0,0,0-1.141,1.086,4.252,4.252,0,0,0-.555,1.538,11.017,11.017,0,0,0-.15,1.764c0,.263,0,.518,0,.771a5.5,5.5,0,0,0,.052.771l-10.562-.062c-.036-.374-.07-.733-.106-1.079a9.832,9.832,0,0,1-.049-1.078,10.7,10.7,0,0,1,1.205-5.037,11.434,11.434,0,0,1,3.286-3.806A15.19,15.19,0,0,1,58.1,68.431a22.259,22.259,0,0,1,6.267-.8m5.512,40.208L58.5,107.77l.062-10.619,11.375.067Z" transform="translate(-48.637 -67.627)" fill="#fcfcfc"/>
              </g>
            </g>
          </g>
          <g id="Group_1510" data-name="Group 1510" transform="translate(59.148)" opacity="0.3">
            <g id="Group_1509" data-name="Group 1509">
              <g id="Group_1508" data-name="Group 1508" clip-path="url(#clip-path-4)">
                <path id="Path_2078" data-name="Path 2078" d="M63.68,0a20.389,20.389,0,0,1,5.977.861A13.972,13.972,0,0,1,74.28,3.242a10.63,10.63,0,0,1,2.977,3.714A10.831,10.831,0,0,1,78.293,11.8a7.9,7.9,0,0,1-.749,3.47,11.58,11.58,0,0,1-1.837,2.721,16.614,16.614,0,0,1-2.365,2.158q-1.268.946-2.364,1.737A15.561,15.561,0,0,0,69.148,23.4a2.121,2.121,0,0,0-.736,1.482l-.007,1.2L58.6,26.026l.016-2.857a3.794,3.794,0,0,1,.559-1.958,9.6,9.6,0,0,1,1.4-1.785q.846-.864,1.8-1.7a24.852,24.852,0,0,0,1.8-1.741,9.9,9.9,0,0,0,1.4-1.884,4.364,4.364,0,0,0,.559-2.154,4.613,4.613,0,0,0-.244-1.515,3.709,3.709,0,0,0-.735-1.279,3.778,3.778,0,0,0-1.185-.889,3.661,3.661,0,0,0-1.6-.345,3.793,3.793,0,0,0-1.907.41,3.117,3.117,0,0,0-1.141,1.086,4.252,4.252,0,0,0-.555,1.538,11.016,11.016,0,0,0-.15,1.764q0,.392,0,.771a5.5,5.5,0,0,0,.052.771L48.1,14.2c-.036-.374-.07-.733-.106-1.079a9.832,9.832,0,0,1-.049-1.078A10.689,10.689,0,0,1,49.155,7,11.416,11.416,0,0,1,52.44,3.2,15.166,15.166,0,0,1,57.413.8,22.259,22.259,0,0,1,63.68,0m5.512,40.208-11.375-.065.062-10.619,11.375.067Z" transform="translate(-47.949 0)" fill="#fcfcfc"/>
              </g>
            </g>
          </g>
          <g id="Group_1513" data-name="Group 1513" transform="translate(17.311 37.191)" opacity="0.3">
            <g id="Group_1512" data-name="Group 1512">
              <g id="Group_1511" data-name="Group 1511" clip-path="url(#clip-path-6)">
                <path id="Path_2079" data-name="Path 2079" d="M31.039,30.365a24.5,24.5,0,0,1,7.252.109A16.786,16.786,0,0,1,44.163,32.6a12.773,12.773,0,0,1,4.115,3.968,13.016,13.016,0,0,1,1.979,5.605,9.52,9.52,0,0,1-.359,4.248,13.945,13.945,0,0,1-1.771,3.523,19.831,19.831,0,0,1-2.487,2.933Q44.276,54.2,43.091,55.31A18.636,18.636,0,0,0,41.144,57.4a2.546,2.546,0,0,0-.651,1.878l.176,1.436L28.98,62.148l-.418-3.407a4.556,4.556,0,0,1,.364-2.418,11.517,11.517,0,0,1,1.39-2.34q.873-1.158,1.886-2.3a29.379,29.379,0,0,0,1.881-2.35,11.856,11.856,0,0,0,1.375-2.459,5.224,5.224,0,0,0,.336-2.651,5.516,5.516,0,0,0-.522-1.766A4.46,4.46,0,0,0,34.2,41.045a4.542,4.542,0,0,0-1.549-.877A4.382,4.382,0,0,0,30.7,40a4.553,4.553,0,0,0-2.209.78A3.743,3.743,0,0,0,27.3,42.25a5.118,5.118,0,0,0-.426,1.917,13.35,13.35,0,0,0,.093,2.124q.057.468.112.919a6.383,6.383,0,0,0,.18.91L14.664,49.669q-.15-.659-.292-1.269a11.965,11.965,0,0,1-.225-1.278,12.823,12.823,0,0,1,.664-6.184A13.7,13.7,0,0,1,18.142,35.9,18.211,18.211,0,0,1,23.7,32.284a26.651,26.651,0,0,1,7.341-1.919M43.776,77.416,30.216,79.084,28.659,66.426l13.559-1.668Z" transform="translate(-14.034 -30.149)" fill="#fcfcfc"/>
              </g>
            </g>
          </g>
          <g id="Group_1516" data-name="Group 1516" transform="translate(97.59 45.984)" opacity="0.3">
            <g id="Group_1515" data-name="Group 1515">
              <g id="Group_1514" data-name="Group 1514" clip-path="url(#clip-path-7)">
                <path id="Path_2080" data-name="Path 2080" d="M101.942,38.081a25.406,25.406,0,0,1,7,2.708,17.41,17.41,0,0,1,4.94,4.172,13.227,13.227,0,0,1,2.572,5.332,13.466,13.466,0,0,1-.091,6.153,9.828,9.828,0,0,1-1.874,4,14.489,14.489,0,0,1-2.983,2.787,20.633,20.633,0,0,1-3.469,1.955q-1.8.794-3.348,1.448a19.325,19.325,0,0,0-2.64,1.327,2.633,2.633,0,0,0-1.305,1.59l-.344,1.457-11.868-2.8.817-3.459a4.718,4.718,0,0,1,1.221-2.218,11.992,11.992,0,0,1,2.19-1.774q1.266-.81,2.658-1.556a30.847,30.847,0,0,0,2.669-1.607A12.352,12.352,0,0,0,100.31,55.7a5.428,5.428,0,0,0,1.277-2.455,5.73,5.73,0,0,0,.127-1.9,4.614,4.614,0,0,0-.535-1.754,4.692,4.692,0,0,0-1.189-1.409,4.537,4.537,0,0,0-1.837-.862,4.71,4.71,0,0,0-2.425-.036,3.87,3.87,0,0,0-1.685,1,5.3,5.3,0,0,0-1.1,1.709,13.7,13.7,0,0,0-.674,2.1c-.074.317-.148.628-.22.933a6.7,6.7,0,0,0-.153.949L79.112,50.951q.091-.694.173-1.338a12.574,12.574,0,0,1,.239-1.321,13.279,13.279,0,0,1,2.864-5.767,14.222,14.222,0,0,1,5.042-3.7,18.875,18.875,0,0,1,6.693-1.517,27.614,27.614,0,0,1,7.818.771M97.423,88.345,83.656,85.1l3.032-12.85,13.765,3.247Z" transform="translate(-79.112 -37.277)" fill="#fcfcfc"/>
              </g>
            </g>
          </g>
          <g id="Group_1519" data-name="Group 1519" transform="translate(13.977 107.627)" opacity="0.3">
            <g id="Group_1518" data-name="Group 1518">
              <g id="Group_1517" data-name="Group 1517" clip-path="url(#clip-path-8)">
                <path id="Path_2081" data-name="Path 2081" d="M19.721,87.769a13.822,13.822,0,0,1,4.058-.514,9.486,9.486,0,0,1,3.449.724,7.216,7.216,0,0,1,2.614,1.891,7.354,7.354,0,0,1,1.548,2.974,5.388,5.388,0,0,1,.136,2.4,7.9,7.9,0,0,1-.711,2.108,11.318,11.318,0,0,1-1.157,1.836q-.659.846-1.232,1.56a10.781,10.781,0,0,0-.923,1.32,1.439,1.439,0,0,0-.215,1.1l.212.788-6.416,1.728-.5-1.87a2.572,2.572,0,0,1,.011-1.38,6.546,6.546,0,0,1,.592-1.417q.4-.716.872-1.433t.865-1.462A6.748,6.748,0,0,0,23.5,96.64a2.949,2.949,0,0,0-.022-1.507,3.1,3.1,0,0,0-.432-.945,2.487,2.487,0,0,0-.711-.7,2.54,2.54,0,0,0-.934-.368,2.467,2.467,0,0,0-1.105.06,2.561,2.561,0,0,0-1.172.611,2.1,2.1,0,0,0-.55.915,2.879,2.879,0,0,0-.086,1.1,7.525,7.525,0,0,0,.22,1.181l.136.5a3.685,3.685,0,0,0,.173.495L12.1,99.848q-.135-.357-.263-.686a6.688,6.688,0,0,1-.227-.7,7.23,7.23,0,0,1-.118-3.507,7.75,7.75,0,0,1,1.462-3.077,10.277,10.277,0,0,1,2.817-2.46,15.019,15.019,0,0,1,3.95-1.653m10.837,25.276-7.443,2-1.87-6.949,7.442-2Z" transform="translate(-11.33 -87.248)" fill="#fcfcfc"/>
              </g>
            </g>
          </g>
          <g id="Group_1528" data-name="Group 1528" transform="translate(0 138.182)" opacity="0.319" style="mix-blend-mode: screen;isolation: isolate">
            <g id="Group_1527" data-name="Group 1527">
              <g id="Group_1526" data-name="Group 1526" clip-path="url(#clip-path-9)">
                <g id="Group_1521" data-name="Group 1521" transform="translate(27.694 0)">
                  <g id="Group_1520" data-name="Group 1520" clip-path="url(#clip-path-10)">
                    <rect id="Rectangle_185" data-name="Rectangle 185" width="131.016" height="109.137" transform="matrix(0.205, -0.979, 0.979, 0.205, -23.211, 110.698)" fill="#fcfcfc"/>
                  </g>
                </g>
                <g id="Group_1523" data-name="Group 1523" transform="translate(105.244 49.654)">
                  <g id="Group_1522" data-name="Group 1522" clip-path="url(#clip-path-11)">
                    <rect id="Rectangle_186" data-name="Rectangle 186" width="74.724" height="62.245" transform="translate(-13.238 63.135) rotate(-78.158)" fill="#fcfcfc"/>
                  </g>
                </g>
                <g id="Group_1525" data-name="Group 1525" transform="translate(0 49.654)">
                  <g id="Group_1524" data-name="Group 1524" clip-path="url(#clip-path-12)">
                    <rect id="Rectangle_187" data-name="Rectangle 187" width="74.724" height="62.245" transform="translate(-13.238 63.135) rotate(-78.158)" fill="#fcfcfc"/>
                  </g>
                </g>
              </g>
            </g>
          </g>
        </g>
      </g>
    </g>
  </g>
</svg>
