<svg xmlns="http://www.w3.org/2000/svg" xmlns:xlink="http://www.w3.org/1999/xlink" width="84" height="82.778" viewBox="0 0 84 82.778">
  <defs>
    <clipPath id="clip-path">
      <rect id="Rectangle_117" data-name="Rectangle 117" width="84" height="82.778" transform="translate(-2 -2)" fill="none"/>
    </clipPath>
  </defs>
  <g id="Group_1452" data-name="Group 1452" transform="translate(2 2)">
    <g id="Group_1451" data-name="Group 1451" transform="translate(0 0)" clip-path="url(#clip-path)">
      <path id="Path_1897" data-name="Path 1897" d="M48.468,1.272C48.716.217,48.951.013,49.995.012c6.189,0,12.377-.03,18.567.006a11.308,11.308,0,0,1,11.305,9.7c.01.059.087.108.134.16V42.219a3.072,3.072,0,0,0-.358,1.222,11.448,11.448,0,0,1-10.877,8.467c-.651.009-1.306.046-1.951,0-.569-.045-.768.1-.734.709a12.594,12.594,0,0,1-.609,4.916,11.43,11.43,0,0,1-10.538,7.653,2.514,2.514,0,0,0-2.028.958,59.816,59.816,0,0,1-13.995,12.1,2.834,2.834,0,0,1-4.464-1.693,3.268,3.268,0,0,1,.456-2.163,43.568,43.568,0,0,0,2.876-7.951c.272-1.042.114-1.24-.973-1.24q-12.575,0-25.151,0A11.438,11.438,0,0,1,.045,55.061,9.1,9.1,0,0,1,0,53.891Q0,39.244,0,24.6a11.374,11.374,0,0,1,10.93-11.3c.781-.028,1.564-.05,2.342-.01.521.027.665-.141.641-.651a12.707,12.707,0,0,1,.759-5.355A11.287,11.287,0,0,1,25.013.034C31.339-.024,37.666.012,43.994.013c.964,0,1.207.229,1.452,1.262A1.478,1.478,0,0,1,43.809,2.38q-9.3-.027-18.59-.006a8.5,8.5,0,0,0-5.033,1.61,9.321,9.321,0,0,0-3.953,8.428c.021.675.131.9.872.9,12.341-.026,24.683-.006,37.024-.031a12.7,12.7,0,0,1,5.863,1.3,11.472,11.472,0,0,1,6.1,10.6c-.013,3.877-.021,7.756.012,11.633a1.451,1.451,0,0,1-1.171,1.657c-1.027-.33-1.188-.544-1.188-1.614q0-5.935,0-11.871a9.3,9.3,0,0,0-.252-2.239,9,9,0,0,0-9.055-7.1q-20.343-.008-40.688,0c-.208,0-.415.015-.623.024-.6-.008-1.2-.026-1.795-.022A9.05,9.05,0,0,0,2.361,24.51q-.067,14.72,0,29.441a8.613,8.613,0,0,0,2.346,5.875c2.27,2.5,5.169,3.233,8.413,2.993.311.009.623.024.933.024,7.586,0,15.173.018,22.76-.017A3.57,3.57,0,0,1,39.829,64.1a3.423,3.423,0,0,1,.234,2.926c-.2.561-.307,1.152-.472,1.724a44.858,44.858,0,0,1-2.616,6.818c-.123.259-.282.525-.005.779.2.185.392.042.565-.068A52.265,52.265,0,0,0,44.2,71.418c.146-.1.3-.2.437-.315a53.078,53.078,0,0,0,6.592-6.631,4.43,4.43,0,0,1,3.551-1.643,8.085,8.085,0,0,0,1.847-.235,9.075,9.075,0,0,0,7.119-9.045c.01-3.511,0-7.024,0-10.535,0-.995.236-1.281,1.2-1.493a1.3,1.3,0,0,1,1.15,1.488c-.023,2-.012,4,0,6.007,0,.218-.148.553.309.548a13.789,13.789,0,0,0,5.152-.526,9.058,9.058,0,0,0,6.092-8.555q.015-14.518.006-29.035a8.314,8.314,0,0,0-.243-2,9.03,9.03,0,0,0-9.053-7.073Q59.23,2.366,50.1,2.38a1.468,1.468,0,0,1-1.629-1.108" transform="translate(0 0)" fill="#080908"/>
      <path id="Path_1898" data-name="Path 1898" d="M44.881.991A1.468,1.468,0,0,0,46.51,2.1q9.132-.029,18.265-.009a9.03,9.03,0,0,1,9.053,7.073,8.314,8.314,0,0,1,.243,2q-.008,14.518-.006,29.035a9.058,9.058,0,0,1-6.092,8.555q0-12.329,0-24.656A9.647,9.647,0,0,0,64.9,17.109a10.531,10.531,0,0,0-7.77-2.981c-.248,0-.529-.086-.722.171A12.7,12.7,0,0,0,50.542,13c-12.341.024-24.683.005-37.024.031-.741,0-.851-.225-.872-.9A9.321,9.321,0,0,1,16.6,3.7a8.5,8.5,0,0,1,5.033-1.61q9.3-.01,18.59.006A1.478,1.478,0,0,0,41.859.994l3.022,0" transform="translate(3.587 0.281)" fill="#ebeaea"/>
      <path id="Path_1899" data-name="Path 1899" d="M38.1,60.638a3.568,3.568,0,0,0-3.017-1.272c-7.586.035-15.172.018-22.758.017-.311,0-.623-.015-.933-.024-.166-.123-.326-.254-.5-.371a10.387,10.387,0,0,1-4.816-9.074c.019-9.55-.014-19.1.019-28.65a9.9,9.9,0,0,1,2.9-7.088c.73-.751,1.629-1.274,2.4-1.96.207-.009.415-.024.623-.024q20.343,0,40.688,0a9,9,0,0,1,9.055,7.1,9.293,9.293,0,0,1,.252,2.239q-.01,5.935,0,11.871c0,1.069.16,1.284,1.188,1.612q.008,1.525.014,3.049c-.965.212-1.2.5-1.2,1.493,0,3.511.006,7.022,0,10.535A9.074,9.074,0,0,1,54.9,59.135a8.166,8.166,0,0,1-1.847.235A4.431,4.431,0,0,0,49.5,61.012a53.176,53.176,0,0,1-6.592,6.632c-.137.114-.29.211-.436.315.463-1.728,1.121-3.4,1.508-5.149a1.688,1.688,0,0,0-1.663-2.176c-1.406-.014-2.812,0-4.217.005M31.25,37.679H33.2q9.018,0,18.034,0c.852,0,1.381-.439,1.4-1.126.024-.718-.534-1.2-1.4-1.225-.131,0-.261,0-.39,0H11.732a3.936,3.936,0,0,0-.779.023,1.118,1.118,0,0,0-.963.9,1.146,1.146,0,0,0,.457,1.239,1.645,1.645,0,0,0,1.053.193H31.25m-.01,10.782q9.993,0,19.985,0c.885,0,1.437-.48,1.415-1.194-.022-.695-.552-1.135-1.394-1.157-.131,0-.261,0-.392,0H11.742a4.359,4.359,0,0,0-.778.022,1.113,1.113,0,0,0-.954.813,1.162,1.162,0,0,0,.365,1.274,1.573,1.573,0,0,0,1.113.246H31.239m.085-7.717q-9.758,0-19.517,0a7.343,7.343,0,0,0-.858.026,1.026,1.026,0,0,0-.973.951,1.111,1.111,0,0,0,.683,1.267,2.077,2.077,0,0,0,.918.128H51a2.1,2.1,0,0,0,.843-.107,1.157,1.157,0,0,0-.3-2.251c-.259-.019-.52-.014-.781-.014H31.324M28.3,23.922c0-1.135.021-2,0-2.853a3.069,3.069,0,0,0-3.138-3.091q-2.421-.025-4.841,0a3.067,3.067,0,0,0-3.163,3.144c-.026,1.3-.019,2.6,0,3.9A3.11,3.11,0,0,0,20.49,28.32c.643.012,1.471-.286,1.878.128s.112,1.238.123,1.881a1.618,1.618,0,0,0,.811,1.5,1.5,1.5,0,0,0,1.686-.122,7.251,7.251,0,0,0,3.127-4.4,15.251,15.251,0,0,0,.185-3.376m12.972-.017c0-1.122.021-1.981,0-2.84a3.069,3.069,0,0,0-3.14-3.088q-2.421-.025-4.841,0a3.067,3.067,0,0,0-3.161,3.145c-.023,1.248-.012,2.5-.005,3.747a3.137,3.137,0,0,0,3.418,3.45c.616.009,1.41-.276,1.8.127s.118,1.189.117,1.805a1.661,1.661,0,0,0,.89,1.609,1.561,1.561,0,0,0,1.746-.244,7.247,7.247,0,0,0,3.021-4.477,18.006,18.006,0,0,0,.158-3.235M31.291,51.527c-3.333,0-6.666-.008-10,.005A1.188,1.188,0,0,0,20.009,52.7a1.262,1.262,0,0,0,1.225,1.188c.205.019.416.006.624.006q9.451,0,18.9,0a2.377,2.377,0,0,0,1.075-.132,1.112,1.112,0,0,0,.671-1.274,1.031,1.031,0,0,0-.983-.942,6.875,6.875,0,0,0-.781-.023q-4.724,0-9.45,0" transform="translate(1.726 3.459)" fill="#d46c18"/>
      <path id="Path_1900" data-name="Path 1900" d="M12.618,12.214c-.773.687-1.67,1.209-2.4,1.962a9.893,9.893,0,0,0-2.905,7.087c-.032,9.55,0,19.1-.019,28.65a10.385,10.385,0,0,0,4.817,9.074c.169.117.33.248.5.371-3.244.24-6.143-.492-8.413-2.993A8.613,8.613,0,0,1,1.847,50.49q-.052-14.72,0-29.441a9.048,9.048,0,0,1,8.976-8.857c.6,0,1.2.014,1.795.022" transform="translate(0.515 3.46)" fill="#e58c3f"/>
      <path id="Path_1901" data-name="Path 1901" d="M51.689,38.34q-.008-1.525-.014-3.049a1.449,1.449,0,0,0,1.17-1.657c-.032-3.877-.023-7.754-.01-11.631a11.471,11.471,0,0,0-6.1-10.6c.193-.257.474-.171.723-.171a10.528,10.528,0,0,1,7.77,2.981A9.643,9.643,0,0,1,58.3,21.2q0,12.329,0,24.657a13.783,13.783,0,0,1-5.152.526c-.457.005-.307-.33-.308-.549-.009-2-.021-4,0-6.007a1.3,1.3,0,0,0-1.149-1.487" transform="translate(13.263 3.183)" fill="#fefefe"/>
      <path id="Path_1902" data-name="Path 1902" d="M31.691,49.93c1.406,0,2.812-.019,4.217-.005A1.688,1.688,0,0,1,37.571,52.1c-.388,1.751-1.045,3.421-1.508,5.149a52.312,52.312,0,0,1-6.668,4.859c-.173.11-.362.252-.564.067-.277-.253-.118-.519.005-.778a44.858,44.858,0,0,0,2.616-6.818c.166-.573.276-1.163.472-1.724a3.427,3.427,0,0,0-.234-2.926" transform="translate(8.139 14.168)" fill="#e58c3f"/>
      <path id="Path_1903" data-name="Path 1903" d="M30.393,32.566H10.641a1.643,1.643,0,0,1-1.051-.193,1.146,1.146,0,0,1-.457-1.239,1.118,1.118,0,0,1,.963-.9,3.923,3.923,0,0,1,.778-.023H49.985c.131,0,.261,0,.39,0,.872.021,1.429.507,1.406,1.225-.023.687-.552,1.126-1.4,1.126q-9.016.006-18.034,0H30.393" transform="translate(2.583 8.573)" fill="#fff"/>
      <path id="Path_1904" data-name="Path 1904" d="M30.383,40.964H10.631a1.57,1.57,0,0,1-1.112-.246,1.16,1.16,0,0,1-.366-1.274,1.116,1.116,0,0,1,.954-.813,4.374,4.374,0,0,1,.779-.021H50c.13,0,.261,0,.39,0,.842.022,1.374.463,1.394,1.157.022.715-.53,1.194-1.415,1.194q-9.993.006-19.985,0" transform="translate(2.582 10.956)" fill="#fff"/>
      <path id="Path_1905" data-name="Path 1905" d="M30.466,34.431H49.9c.261,0,.521-.005.781.015a1.157,1.157,0,0,1,.3,2.251,2.12,2.12,0,0,1-.843.107H10.721a2.083,2.083,0,0,1-.919-.128,1.111,1.111,0,0,1-.683-1.266,1.027,1.027,0,0,1,.973-.951,7.357,7.357,0,0,1,.859-.026H30.466" transform="translate(2.584 9.772)" fill="#fff"/>
      <path id="Path_1906" data-name="Path 1906" d="M25.857,22.645a15.181,15.181,0,0,1-.186,3.376,7.244,7.244,0,0,1-3.126,4.4,1.5,1.5,0,0,1-1.686.122,1.617,1.617,0,0,1-.813-1.5c-.01-.643.284-1.469-.122-1.881s-1.235-.117-1.878-.128a3.11,3.11,0,0,1-3.339-3.294c-.015-1.3-.023-2.6,0-3.9A3.067,3.067,0,0,1,17.874,16.7q2.421-.023,4.841,0a3.069,3.069,0,0,1,3.138,3.091c.023.858,0,1.718,0,2.853m-6.9-3.575c-.18-.009-.361-.024-.54-.026-1.206-.006-1.349.135-1.351,1.311q0,1.4,0,2.794c0,1.51.046,1.555,1.583,1.53.1,0,.205-.018.308-.028.494.01.989.008,1.48.033A1.934,1.934,0,0,1,22.4,26.668c.008.187,0,.374,0,.747a4.032,4.032,0,0,0,.874-1.6c.461-2.03.167-4.092.193-6.139.005-.431-.4-.633-.845-.63l-3.667.026" transform="translate(4.17 4.736)" fill="#080908"/>
      <path id="Path_1907" data-name="Path 1907" d="M35.959,22.628a18.006,18.006,0,0,1-.158,3.235,7.242,7.242,0,0,1-3.02,4.477,1.562,1.562,0,0,1-1.746.244,1.66,1.66,0,0,1-.891-1.609c0-.616.275-1.406-.116-1.805s-1.186-.118-1.8-.127a3.138,3.138,0,0,1-3.419-3.45c-.006-1.249-.018-2.5.005-3.747A3.067,3.067,0,0,1,27.974,16.7q2.421-.023,4.841,0a3.068,3.068,0,0,1,3.14,3.088c.024.859,0,1.718,0,2.84m-6.9-3.559c-.18-.009-.361-.024-.54-.026-1.2-.006-1.348.137-1.349,1.312q0,1.4,0,2.792c0,1.508.048,1.555,1.582,1.53.1,0,.205-.018.308-.028.494.01.987.008,1.48.033A1.934,1.934,0,0,1,32.5,26.667c.008.187,0,.374,0,.693a3.263,3.263,0,0,0,.874-1.55c.462-2.03.171-4.092.193-6.139.005-.435-.4-.63-.846-.627l-3.667.024" transform="translate(7.039 4.736)"/>
      <path id="Path_1908" data-name="Path 1908" d="M28.212,42.829q4.726,0,9.45,0a6.875,6.875,0,0,1,.781.023,1.031,1.031,0,0,1,.983.942,1.112,1.112,0,0,1-.671,1.274,2.377,2.377,0,0,1-1.075.132h-18.9c-.208,0-.419.013-.624-.008a1.261,1.261,0,0,1-1.225-1.188,1.188,1.188,0,0,1,1.285-1.17c3.332-.013,6.664-.005,10-.006" transform="translate(4.805 12.155)" fill="#fff"/>
      <path id="Path_1909" data-name="Path 1909" d="M18.013,18.549l3.667-.026c.443,0,.85.2.845.63-.026,2.048.268,4.11-.193,6.139a4.032,4.032,0,0,1-.874,1.6c0-.374.006-.56,0-.747a1.934,1.934,0,0,0-1.963-1.985c-.492-.026-.986-.023-1.48-.033V18.549" transform="translate(5.112 5.257)" fill="#ebeaea"/>
      <path id="Path_1910" data-name="Path 1910" d="M18.431,18.549v5.581c-.1.01-.205.027-.308.028-1.537.024-1.583-.021-1.583-1.53q0-1.4,0-2.794c0-1.176.145-1.317,1.351-1.311.18,0,.361.017.54.026" transform="translate(4.694 5.257)" fill="#fefefe"/>
      <path id="Path_1911" data-name="Path 1911" d="M28.114,18.548l3.667-.024c.442,0,.851.191.846.627-.022,2.048.27,4.11-.193,6.139a3.263,3.263,0,0,1-.874,1.55c0-.32.006-.506,0-.693a1.934,1.934,0,0,0-1.964-1.984c-.493-.026-.986-.023-1.48-.033V18.548" transform="translate(7.979 5.257)" fill="#ebeaea"/>
      <path id="Path_1912" data-name="Path 1912" d="M28.532,18.549v5.581c-.1.01-.205.027-.308.028-1.534.024-1.582-.022-1.582-1.53q0-1.4,0-2.792c0-1.175.149-1.318,1.349-1.312.18,0,.361.017.54.026" transform="translate(7.561 5.257)" fill="#fefefe"/>
    </g>
  </g>
</svg>
