<svg xmlns="http://www.w3.org/2000/svg" xmlns:xlink="http://www.w3.org/1999/xlink" width="80" height="80" viewBox="0 0 80 80">
  <defs>
    <clipPath id="clip-path">
      <rect id="Rectangle_70" data-name="Rectangle 70" width="80" height="80" fill="none"/>
    </clipPath>
  </defs>
  <g id="Group_1402" data-name="Group 1402" transform="translate(0 0)">
    <g id="Group_1401" data-name="Group 1401" transform="translate(0 0)" clip-path="url(#clip-path)">
      <path id="Path_1752" data-name="Path 1752" d="M42.778,80H37c-.089-.176-.259-.142-.408-.152a37.427,37.427,0,0,1-5.234-.791A40.01,40.01,0,0,1,.422,45.783,15.983,15.983,0,0,0,0,42.972V37.035c.176-.089.14-.259.152-.408A35.759,35.759,0,0,1,2.943,25C9.724,9.684,21.492,1.259,38.185.092A37.956,37.956,0,0,1,61.721,6.45c14.968,9.6,21.981,28.62,16.332,45.51C72.843,67.543,61.87,76.72,45.669,79.582a23.359,23.359,0,0,0-2.89.419m1.448-45.053c0-1.238-.027-2.223.011-3.207.021-.575-.1-.818-.757-.807-2.705.039-5.411.03-8.117,0-.548-.006-.7.154-.694.7.142,9.111.024,18.225-.006,27.337,0,.592.164.741.742.735,2.6-.03,5.2-.009,7.806-.017,1.123,0,1.013.155,1.015-.982q.007-7.342,0-14.683a6.208,6.208,0,0,1,1.867-4.938c2.144-1.967,6.708-1.877,7.785,2.079a13.753,13.753,0,0,1,.438,3.629c.006,4.712.015,9.424-.011,14.136,0,.618.164.785.778.777q3.979-.052,7.961,0c.626.008.836-.125.833-.8-.032-5.155-.017-10.31-.018-15.465a20.114,20.114,0,0,0-.78-5.777,10.587,10.587,0,0,0-16.692-5.158,17.329,17.329,0,0,0-2.156,2.434M29.387,45.4c0-4.554-.014-9.106.017-13.659,0-.664-.2-.819-.833-.81-2.678.035-5.356.027-8.033,0-.534,0-.709.131-.709.69q.025,13.7,0,27.4c0,.562.181.69.709.685,2.653-.024,5.305-.035,7.956,0,.694.011.917-.151.911-.886-.036-4.474-.018-8.95-.018-13.424M30,22.2c.054-2.959-2.133-5.066-5.287-5.1-3.109-.029-5.362,2.025-5.4,4.917-.035,2.874,2.135,4.962,5.209,5.013,3.125.053,5.424-1.976,5.475-4.834" transform="translate(0 0)" fill="#0069ad"/>
    </g>
  </g>
</svg>
