<svg id="Refresh" xmlns="http://www.w3.org/2000/svg" xmlns:xlink="http://www.w3.org/1999/xlink" width="39.971" height="40" viewBox="0 0 39.971 40">
  <defs>
    <clipPath id="clip-path">
      <rect id="Rectangle_269" data-name="Rectangle 269" width="39.971" height="40" fill="none"/>
    </clipPath>
  </defs>
  <g id="Group_1732" data-name="Group 1732" clip-path="url(#clip-path)">
    <path id="Path_3248" data-name="Path 3248" d="M37.982,2.011c0,3.325,0,6.511,0,9.7,0,.175.031.325-.246.324-3.213-.009-6.426-.006-9.767-.006.544-.537,1.014-1,1.481-1.464.565-.561,1.121-1.131,1.694-1.684.179-.173.227-.27.007-.465a16.591,16.591,0,0,0-9.332-4.255A15.93,15.93,0,0,0,8.8,8.475a15.305,15.305,0,0,0-4.643,8.669A11.135,11.135,0,0,0,4,19.66c.011.294-.077.366-.363.361C2.556,20,1.478,20,.4,20.023c-.342.007-.4-.1-.4-.42A19.05,19.05,0,0,1,5.841,5.814,18.989,18.989,0,0,1,18.214.075a19.642,19.642,0,0,1,15.6,5.412c.309.29.453.291.743-.011,1.1-1.143,2.228-2.257,3.429-3.464" transform="translate(-0.001 0)" fill="#010101"/>
    <path id="Path_3249" data-name="Path 3249" d="M7.186,90.065v-.4c0-3.013.007-6.026-.009-9.04,0-.362.085-.459.454-.457,3.013.016,6.026.008,9.04.011a.676.676,0,0,1,.437.061c-.987.988-1.948,1.982-2.948,2.935-.331.316-.327.464.021.764a16.308,16.308,0,0,0,11.671,4.2A15.64,15.64,0,0,0,40.937,74.891a16.778,16.778,0,0,0,.221-2.374c.006-.293.1-.364.381-.36q1.616.025,3.232,0c.3,0,.4.068.387.388a19.656,19.656,0,0,1-7.5,15.322A19.4,19.4,0,0,1,24.01,92.116a19.427,19.427,0,0,1-12.759-5.506c-.23-.22-.337-.181-.536.021-1.04,1.058-2.1,2.1-3.141,3.152a2.392,2.392,0,0,0-.254.376l-.135-.093" transform="translate(-5.187 -52.151)" fill="#010101"/>
  </g>
</svg>
