<svg xmlns="http://www.w3.org/2000/svg" xmlns:xlink="http://www.w3.org/1999/xlink" width="30.876" height="35.275" viewBox="0 0 30.876 35.275">
  <defs>
    <clipPath id="clip-path">
      <rect id="Rectangle_262" data-name="Rectangle 262" width="30.876" height="35.275" transform="translate(-2 -2)" fill="none"/>
    </clipPath>
  </defs>
  <g id="Group_1715" data-name="Group 1715" transform="translate(2 2)">
    <g id="Group_1714" data-name="Group 1714" transform="translate(0 0)" clip-path="url(#clip-path)">
      <path id="Path_3235" data-name="Path 3235" d="M2.81,0H19.85a3.962,3.962,0,0,1,.422.317q3.151,3.087,6.3,6.18a.98.98,0,0,1,.308.734q0,10.335-.006,20.671a3.385,3.385,0,0,1-3.381,3.369q-10.046.007-20.089,0A3.394,3.394,0,0,1,0,27.886Q0,15.641,0,3.4A3.4,3.4,0,0,1,2.2.22,2.075,2.075,0,0,0,2.81,0M1.833,15.637q0,6.046,0,12.092a1.6,1.6,0,0,0,1.691,1.71q9.922,0,19.846,0a1.6,1.6,0,0,0,1.669-1.67q0-9.694.007-19.389c0-.212-.048-.269-.264-.267-1.282.011-2.565.006-3.847,0a2.159,2.159,0,0,1-2.3-2.288c0-1.232-.009-2.463.007-3.694,0-.261-.069-.31-.317-.31q-7.343.012-14.686.007A1.626,1.626,0,0,0,1.833,3.638v12M20.563,3.155l-.065.036c0,.872,0,1.744,0,2.615,0,.408.06.466.483.466.813,0,1.627,0,2.44,0,.069,0,.16.049.126.038L20.563,3.155" transform="translate(0 0)" fill="#060706" stroke="#000" stroke-width="0.5"/>
      <path id="Path_3236" data-name="Path 3236" d="M12.759,13.031q3.2,0,6.41,0a.915.915,0,0,1,.258,1.8,1.216,1.216,0,0,1-.331.032q-6.379,0-12.759,0a.919.919,0,1,1,.012-1.832h6.41" transform="translate(0.618 1.507)" fill="#060706"/>
      <path id="Path_3237" data-name="Path 3237" d="M12.176,19.6h5.8a.92.92,0,1,1-.007,1.832q-5.83,0-11.661,0a.917.917,0,0,1-.293-1.8,1.348,1.348,0,0,1,.361-.033q2.9,0,5.8,0" transform="translate(0.618 2.266)" fill="#060706"/>
      <path id="Path_3238" data-name="Path 3238" d="M11.5,18.148q-2.609,0-5.219,0a.9.9,0,0,1-.923-.76.917.917,0,0,1,.644-1.04,1.045,1.045,0,0,1,.331-.031q5.189,0,10.376,0a.919.919,0,1,1,.009,1.832q-2.609,0-5.219,0" transform="translate(0.618 1.886)" fill="#060706"/>
    </g>
  </g>
</svg>
