<svg xmlns="http://www.w3.org/2000/svg" width="45.653" height="54.364" viewBox="0 0 45.653 54.364">
  <g id="ringing" transform="translate(-3.182 2)">
    <g id="Group_1379" data-name="Group 1379" transform="translate(20.636 0)">
      <path id="Path_1732" data-name="Path 1732" d="M17.636,9.12a1.091,1.091,0,0,1-1.091-1.091V4.364a2.182,2.182,0,0,0-4.364,0V8.029a1.091,1.091,0,1,1-2.182,0V4.364a4.364,4.364,0,1,1,8.727,0V8.029A1.09,1.09,0,0,1,17.636,9.12Z" transform="translate(-10 0)"/>
    </g>
    <g id="Group_1380" data-name="Group 1380" transform="translate(17.364 43.636)">
      <path id="Path_1733" data-name="Path 1733" d="M16.136,28.727A7.645,7.645,0,0,1,8.5,21.091a1.091,1.091,0,0,1,2.182,0,5.455,5.455,0,1,0,10.909,0,1.091,1.091,0,0,1,2.182,0A7.645,7.645,0,0,1,16.136,28.727Z" transform="translate(-8.5 -20)"/>
    </g>
    <g id="Group_1381" data-name="Group 1381" transform="translate(3.182 6.545)">
      <path id="Path_1734" data-name="Path 1734" d="M42.364,42.273H5.273a3.273,3.273,0,0,1-2.127-5.76A15.169,15.169,0,0,0,8.545,24.9V18.273a15.273,15.273,0,1,1,30.545,0V24.9a15.152,15.152,0,0,0,5.383,11.6,3.273,3.273,0,0,1-2.11,5.775ZM23.818,5.182A13.1,13.1,0,0,0,10.727,18.273V24.9A17.333,17.333,0,0,1,4.572,38.164a1.09,1.09,0,0,0,.7,1.927H42.364a1.091,1.091,0,0,0,.709-1.92A17.347,17.347,0,0,1,36.909,24.9V18.273A13.1,13.1,0,0,0,23.818,5.182Z" transform="translate(-2 -3)"/>
    </g>
    <g id="Ellipse_44" data-name="Ellipse 44" transform="translate(14.835 -2)" fill="#e79f54" stroke="#fff" stroke-width="2">
      <circle cx="17" cy="17" r="17" stroke="none"/>
      <circle cx="17" cy="17" r="16" fill="none"/>
    </g>
  </g>
</svg>
