<svg xmlns="http://www.w3.org/2000/svg" xmlns:xlink="http://www.w3.org/1999/xlink" width="53.858" height="53.839" viewBox="0 0 53.858 53.839">
  <defs>
    <clipPath id="clip-path">
      <rect id="Rectangle_229" data-name="Rectangle 229" width="53.858" height="53.838" fill="none"/>
    </clipPath>
  </defs>
  <g id="Group_1610" data-name="Group 1610" transform="translate(0 0)">
    <g id="Group_1609" data-name="Group 1609" transform="translate(0 0)" clip-path="url(#clip-path)">
      <path id="Path_2136" data-name="Path 2136" d="M24.733,53.838a7.272,7.272,0,0,0-1.768-.286,26.676,26.676,0,0,1-21.9-19.343C-1.767,23.437,1.08,14.161,9.294,6.641A25.059,25.059,0,0,1,23.226.261a26.261,26.261,0,0,1,20.318,5.5A26.5,26.5,0,0,1,53.3,21.4a18.9,18.9,0,0,1,.456,3.214c0,.083-.013.179.1.207V29.13c-.116.027-.1.122-.106.206a20.27,20.27,0,0,1-.453,3.109,26.726,26.726,0,0,1-9.709,15.609A26.4,26.4,0,0,1,30.97,53.545a12.913,12.913,0,0,0-2.031.293ZM42.87,9.046a20.654,20.654,0,0,0-5.114-3.533A23.5,23.5,0,0,0,22.482,3.358,23.157,23.157,0,0,0,8.413,11.715,23.467,23.467,0,0,0,3.5,32.024,19.633,19.633,0,0,0,5.595,37.79a2.3,2.3,0,0,0,.107.288,23.712,23.712,0,0,0,6.325,7.614,23.489,23.489,0,0,0,19.725,4.723,22.919,22.919,0,0,0,13.34-7.847,23.49,23.49,0,0,0,5.469-19.827,22.86,22.86,0,0,0-4.728-10.595,17.789,17.789,0,0,0-2.963-3.1" transform="translate(0 0)" fill="#080908"/>
      <path id="Path_2137" data-name="Path 2137" d="M45.625,12.387a17.785,17.785,0,0,1,2.963,3.1,22.866,22.866,0,0,1,4.728,10.595A23.486,23.486,0,0,1,47.847,45.91a22.924,22.924,0,0,1-13.34,7.847,23.493,23.493,0,0,1-19.725-4.724,23.71,23.71,0,0,1-6.324-7.614,2.173,2.173,0,0,1-.107-.288,1.656,1.656,0,0,0-.067-.515,24.973,24.973,0,0,1-.761-6.357,26.976,26.976,0,0,1,.3-3.481,23.958,23.958,0,0,1,2.392-7.644,25.083,25.083,0,0,1,6.15-7.874,25.681,25.681,0,0,1,8.245-4.767,29.487,29.487,0,0,1,6.571-1.37h3.455c.927.117,1.864.186,2.78.362a26.151,26.151,0,0,1,6.43,2.067,6.7,6.7,0,0,0,1.784.837M24.779,27c.35,0,.7-.022,1.05.006.322.025.458-.072.4-.4-.024-.137-.007-.281-.029-.418a5.755,5.755,0,0,0-11.441.408c0,.312.056.429.394.416.717-.027,1.435-.02,2.152,0,.288.007.382-.077.409-.376a2.744,2.744,0,0,1,2.461-2.453,2.89,2.89,0,0,1,3.01,1.877c.113.312-.1.78.288.919A3.333,3.333,0,0,0,24.517,27h.262m18.379,0c.4,0,.806-.008,1.207,0,.206.006.286-.068.265-.274-.018-.174,0-.352-.027-.523a5.756,5.756,0,0,0-11.445.365c-.006.343.077.45.426.437.717-.027,1.435-.018,2.152,0,.271.006.35-.084.376-.354a2.746,2.746,0,0,1,2.495-2.477A2.842,2.842,0,0,1,41.6,26.135c.1.283-.1.705.252.834a2.907,2.907,0,0,0,.937.03h.368m8.909-2.7-.054,0v3.233h.054ZM25.09,51.315l.013.053h3.008c0-.018,0-.035,0-.053Z" transform="translate(-2.755 -3.341)" fill="#ffbe00"/>
      <path id="Path_2138" data-name="Path 2138" d="M44.575,10.733A6.719,6.719,0,0,1,42.791,9.9a26.185,26.185,0,0,0-6.43-2.066c-.916-.176-1.853-.245-2.781-.362-.139-.157-.326-.094-.494-.1-.77-.006-1.539-.01-2.309,0-.217,0-.457-.088-.652.094a29.532,29.532,0,0,0-6.571,1.371,25.671,25.671,0,0,0-8.245,4.767A25.062,25.062,0,0,0,9.159,21.48a23.952,23.952,0,0,0-2.392,7.644,26.976,26.976,0,0,0-.3,3.481,24.966,24.966,0,0,0,.762,6.356,1.662,1.662,0,0,1,.067.515A19.633,19.633,0,0,1,5.209,33.71,23.467,23.467,0,0,1,10.117,13.4,23.157,23.157,0,0,1,24.186,5.045,23.5,23.5,0,0,1,39.461,7.2a20.654,20.654,0,0,1,5.114,3.533" transform="translate(-1.705 -1.687)" fill="#ffdb3d"/>
      <path id="Path_2139" data-name="Path 2139" d="M33.867,51.565a16.66,16.66,0,0,0-11.879,5.6,17.128,17.128,0,0,0-1.382,1.716c-.192.271-.227.4.1.594.605.347,1.19.734,1.759,1.139.281.2.411.16.6-.118a13.061,13.061,0,0,1,4.754-4.272,13.483,13.483,0,0,1,14.352.685,12.212,12.212,0,0,1,3.6,3.552c.23.345.383.327.679.119.557-.392,1.127-.767,1.714-1.114.286-.169.3-.285.112-.554A16.773,16.773,0,0,0,38.013,51.99a18.043,18.043,0,0,0-4.145-.425" transform="translate(-7.494 -18.885)" fill="#080908"/>
      <path id="Path_2140" data-name="Path 2140" d="M28.961,34H28.7a3.329,3.329,0,0,1-1.042-.028c-.392-.139-.176-.607-.289-.919a2.889,2.889,0,0,0-3.01-1.877A2.744,2.744,0,0,0,21.9,33.632c-.027.3-.122.383-.409.376-.717-.017-1.435-.025-2.152,0-.338.013-.4-.1-.394-.416a5.755,5.755,0,0,1,11.441-.408c.023.137.006.281.029.418.057.331-.079.429-.4.4-.348-.028-.7-.006-1.05-.006" transform="translate(-6.937 -10.343)" fill="#080908"/>
      <path id="Path_2141" data-name="Path 2141" d="M57.972,34c-.122,0-.245,0-.368,0a2.908,2.908,0,0,1-.937-.03c-.348-.129-.156-.551-.252-.835a2.842,2.842,0,0,0-2.994-1.962,2.748,2.748,0,0,0-2.495,2.477c-.027.269-.106.36-.376.354-.717-.015-1.435-.023-2.152,0-.349.013-.432-.094-.426-.437a5.756,5.756,0,0,1,11.445-.365c.027.172.01.35.027.523.022.206-.059.279-.265.274-.4-.011-.8,0-1.207,0" transform="translate(-17.569 -10.341)" fill="#080908"/>
      <path id="Path_2142" data-name="Path 2142" d="M44.844,9.057c.195-.182.434-.091.652-.094.769-.011,1.539-.008,2.309,0,.167,0,.354-.061.494.1H44.844" transform="translate(-16.423 -3.275)" fill="#ffdb58"/>
      <path id="Path_2143" data-name="Path 2143" d="M77.777,33.064v3.231h-.054V33.062l.054,0" transform="translate(-28.465 -12.109)" fill="#ffbb3e"/>
      <path id="Path_2144" data-name="Path 2144" d="M35.242,75.7h3.021c0,.018,0,.035,0,.053H35.255l-.013-.053" transform="translate(-12.907 -27.723)" fill="#ffbb3e"/>
    </g>
  </g>
</svg>
