<svg xmlns="http://www.w3.org/2000/svg" xmlns:xlink="http://www.w3.org/1999/xlink" width="61.921" height="58.864" viewBox="0 0 61.921 58.864">
  <defs>
    <clipPath id="clip-path">
      <rect id="Rectangle_43" data-name="Rectangle 43" width="61.921" height="58.864" transform="translate(0 0)" fill="none"/>
    </clipPath>
  </defs>
  <g id="Group_1361" data-name="Group 1361" transform="translate(0 0)">
    <g id="Group_1360" data-name="Group 1360" clip-path="url(#clip-path)">
      <path id="Path_1546" data-name="Path 1546" d="M0,30.1a1.657,1.657,0,0,1,1.653-.843c1.49.037,2.982,0,4.473.018.4.005.523-.02.454-.509A25.046,25.046,0,0,1,8.6,14.7a1.23,1.23,0,0,1,1.677-.722,1.206,1.206,0,0,1,.573,1.679,22.608,22.608,0,0,0-1.969,7.287,24.422,24.422,0,0,0,.183,6.021c.043.278.2.291.418.3,2.006.112,2.123.222,2.1,2.241-.005.478.074.7.61.635.673-.078,1.582.282,1.964-.137.336-.368.1-1.262.105-1.923q.006-4.836,0-9.671c0-1.049.4-1.452,1.463-1.453,2.861-.005,5.722-.027,8.583.017.644.01.741-.191.73-.765-.035-1.914-.015-3.828-.012-5.742,0-.978.464-1.46,1.427-1.458q5.137.009,10.275.034c1.068.006,1.495.443,1.5,1.513,0,3.969.017,7.939-.015,11.908,0,.607.174.712.734.706,2.821-.03,5.642-.015,8.462-.013,1.175,0,1.6.421,1.6,1.6q0,6.1,0,12.21v.789c.285-.345.472-.557.642-.781a22.321,22.321,0,0,0,4.541-11.677,22.777,22.777,0,0,0-.356-6.663,1.267,1.267,0,0,1,.874-1.664c.779-.166,1.346.237,1.512,1.144,1.587,8.715-.589,16.32-6.754,22.729A1.408,1.408,0,0,0,49,44.01c.039.62.009,1.244.009,1.926,2.051-.472,4.062-.924,6.068-1.4a5.293,5.293,0,0,1,6.754,4.2,5.182,5.182,0,0,1-3.595,5.883c-3.124.876-6.279,1.645-9.428,2.429-2.2.547-4.369,1.2-6.6,1.6a13.983,13.983,0,0,1-7.689-.822q-8.934-3.485-17.854-7a2.6,2.6,0,0,0-.992-.2c-1.189.013-2.378.027-3.566-.006-.439-.013-.571.125-.514.537a2.772,2.772,0,0,1,0,.6,1.2,1.2,0,0,1-1.258,1.189c-3.022.008-6.044-.008-9.066.014A1.656,1.656,0,0,1,0,52.224ZM11.593,41.344c0,2.095.011,4.191-.009,6.286,0,.423.119.551.542.542,1.208-.027,2.417,0,3.626-.015a4.111,4.111,0,0,1,1.582.31q9,3.54,18,7.063a12.022,12.022,0,0,0,6.569.7c1.387-.24,2.735-.645,4.1-.988,3.8-.955,7.593-1.911,11.379-2.905a2.774,2.774,0,0,0,1.982-3.43,2.807,2.807,0,0,0-3.393-2.057c-3.719.847-7.442,1.676-11.151,2.564a15.806,15.806,0,0,1-7.7.136,52.564,52.564,0,0,1-5.6-2.03Q27.6,46.031,23.7,44.508a1.207,1.207,0,0,1-.819-1.669,1.237,1.237,0,0,1,1.731-.572q3.942,1.5,7.876,3.018a3.106,3.106,0,0,0,1.955.1,3.16,3.16,0,0,0,2.305-2.733,3.007,3.007,0,0,0-1.921-3.109q-5.812-2.426-11.634-4.829a1.954,1.954,0,0,0-.761-.144c-3.425,0-6.85.016-10.275-.01-.514,0-.579.185-.575.622.019,2.055.009,4.11.009,6.165m24.1-4.089a.554.554,0,0,0,.094-.445q0-11.393.013-22.787c0-.447-.152-.516-.55-.516q-3.686,0-7.373-.044c-.369-.006-.433.119-.433.444q.01,9.762,0,19.524a.516.516,0,0,0,.382.575c1.064.414,2.115.865,3.171,1.3l4.7,1.946m10.865-.174c0-2.98-.009-5.959.009-8.939,0-.42-.112-.543-.536-.539q-3.624.028-7.247,0c-.442,0-.58.1-.577.568.02,3.543.013,7.086.006,10.629a1.408,1.408,0,0,0,.206.734,5.325,5.325,0,0,1,.051,5.507,2.752,2.752,0,0,0-.222,1.868c.159.9,1.034.4,1.562.6a.237.237,0,0,0,.06,0c2.127.179,4.135-.459,6.176-.88.41-.084.526-.253.523-.675-.022-2.959-.011-5.918-.011-8.877M2.417,41.164c0,2.941.012,5.881-.011,8.822,0,.462.125.563.568.557q2.81-.039,5.619,0c.451.007.572-.109.571-.565q-.024-8.853,0-17.705c0-.46-.136-.577-.582-.571-1.873.023-3.746.027-5.619,0-.475-.007-.557.149-.554.583.018,2.96.009,5.921.009,8.882M25.03,27.136c0-1.752-.012-3.5.009-5.256.005-.394-.1-.5-.5-.5q-3.686.029-7.37,0c-.394,0-.5.1-.5.5q.024,4.895,0,9.787c0,.4.108.506.5.5,1.51-.023,3.021.017,4.531-.018a5.4,5.4,0,0,1,2.914.534c.375.214.421.059.419-.289-.011-1.752,0-3.5,0-5.256" fill="#090908"/>
      <path id="Path_1547" data-name="Path 1547" d="M33.607,0a14.914,14.914,0,0,0,2.216.347A26.708,26.708,0,0,1,40.4,1.587a1.21,1.21,0,0,1,.827,1.573,1.2,1.2,0,0,1-1.664.714A22.851,22.851,0,0,0,16.548,8.062a1.68,1.68,0,0,1-.863.518,1.174,1.174,0,0,1-1.306-.645,1.2,1.2,0,0,1,.336-1.519,25.449,25.449,0,0,1,7.374-4.6,24.721,24.721,0,0,1,6.925-1.7c.1-.009.2,0,.241-.123Z" fill="#090908"/>
      <path id="Path_1548" data-name="Path 1548" d="M54.874,4.788a1.5,1.5,0,0,1-.4.981q-4.867,5.6-9.738,11.2a1.23,1.23,0,0,1-1.845.259,1.214,1.214,0,0,1,.008-1.864q4.858-5.609,9.73-11.205a1.2,1.2,0,0,1,1.389-.446,1.264,1.264,0,0,1,.852,1.075" fill="#090908"/>
      <path id="Path_1549" data-name="Path 1549" d="M48.135,6.332a3.033,3.033,0,1,1-3.062-3.057,3.054,3.054,0,0,1,3.062,3.057m-2.984.583a.543.543,0,0,0,.542-.624.549.549,0,0,0-.587-.556.56.56,0,0,0-.606.6c.008.367.235.579.651.578" fill="#090908"/>
      <path id="Path_1550" data-name="Path 1550" d="M51.817,12.054a3.039,3.039,0,1,1-3.063,3.066,3.053,3.053,0,0,1,3.063-3.066m-.587,3c.005.419.226.641.589.639a.56.56,0,0,0,.59-.617.548.548,0,0,0-.568-.573.54.54,0,0,0-.611.551" fill="#090908"/>
      <path id="Path_1551" data-name="Path 1551" d="M12.29,9.776a1.221,1.221,0,0,1,1.217,1.23,1.267,1.267,0,0,1-1.272,1.2,1.244,1.244,0,0,1-1.179-1.219A1.2,1.2,0,0,1,12.29,9.776" fill="#090908"/>
      <path id="Path_1552" data-name="Path 1552" d="M11.593,41.344c0-2.055.011-4.11-.009-6.165,0-.437.061-.626.575-.622,3.425.026,6.85.015,10.275.01a1.933,1.933,0,0,1,.761.144q5.817,2.415,11.635,4.829a3.006,3.006,0,0,1,1.92,3.109,3.16,3.16,0,0,1-2.305,2.733,3.106,3.106,0,0,1-1.955-.1q-3.936-1.515-7.876-3.018a1.238,1.238,0,0,0-1.731.572,1.207,1.207,0,0,0,.819,1.669q3.9,1.52,7.815,3.01a52.643,52.643,0,0,0,5.6,2.03,15.806,15.806,0,0,0,7.7-.136c3.709-.888,7.433-1.717,11.152-2.564A2.806,2.806,0,0,1,59.365,48.9a2.774,2.774,0,0,1-1.981,3.43C53.6,53.329,49.8,54.285,46,55.24c-1.362.343-2.709.747-4.1.988a12.022,12.022,0,0,1-6.569-.7q-9-3.534-18-7.063a4.116,4.116,0,0,0-1.583-.31c-1.208.016-2.418-.012-3.626.014-.423.01-.546-.119-.542-.541.02-2.1.009-4.191.009-6.286" fill="#b9911d"/>
      <path id="Path_1553" data-name="Path 1553" d="M35.692,37.255,31,35.309c-1.056-.437-2.106-.889-3.171-1.3a.516.516,0,0,1-.382-.575q.01-9.762,0-19.523c0-.326.064-.45.434-.445q3.685.051,7.373.045c.4,0,.55.069.549.516q-.022,11.392-.013,22.787a.548.548,0,0,1-.094.444" fill="#ec6b7a"/>
      <path id="Path_1554" data-name="Path 1554" d="M46.557,37.081c0,2.959-.01,5.919.012,8.878,0,.421-.114.59-.523.675-2.042.42-4.05,1.059-6.176.879a.236.236,0,0,1-.06,0c-.528-.206-1.4.3-1.562-.6a2.754,2.754,0,0,1,.222-1.869,5.327,5.327,0,0,0-.052-5.507,1.406,1.406,0,0,1-.2-.733c.007-3.543.013-7.087-.007-10.63,0-.463.135-.572.578-.568q3.623.03,7.247,0c.424,0,.538.12.535.54-.017,2.979-.009,5.959-.009,8.938" fill="#ffaf45"/>
      <path id="Path_1555" data-name="Path 1555" d="M2.418,41.164c0-2.961.009-5.922-.01-8.882,0-.434.08-.59.555-.583,1.872.03,3.746.026,5.619,0,.445-.006.583.111.582.571q-.022,8.853,0,17.705c0,.457-.12.572-.571.565q-2.809-.039-5.619,0c-.444.006-.573-.095-.569-.557.024-2.941.012-5.881.012-8.822" fill="#828ea2"/>
      <path id="Path_1556" data-name="Path 1556" d="M25.03,27.136c0,1.752-.006,3.5,0,5.256,0,.348-.044.5-.419.289a5.4,5.4,0,0,0-2.914-.534c-1.51.035-3.021-.005-4.531.018-.394.006-.5-.1-.5-.5q.024-4.893,0-9.787c0-.4.107-.5.5-.5q3.684.026,7.37,0c.4,0,.5.107.5.5-.021,1.752-.009,3.5-.009,5.256" fill="#828ea2"/>
    </g>
  </g>
</svg>
