<svg xmlns="http://www.w3.org/2000/svg" xmlns:xlink="http://www.w3.org/1999/xlink" width="38.354" height="38.357" viewBox="0 0 38.354 38.357">
  <defs>
    <clipPath id="clip-path">
      <rect id="Rectangle_209" data-name="Rectangle 209" width="38.354" height="38.357" transform="translate(0 0)" fill="none"/>
    </clipPath>
  </defs>
  <g id="Share_App" data-name="Share App" transform="translate(0 0)">
    <g id="Group_1572" data-name="Group 1572" clip-path="url(#clip-path)">
      <path id="Path_2104" data-name="Path 2104" d="M38.347,34.686a1.4,1.4,0,0,0-.176.548,4.406,4.406,0,0,1-4.2,3.121q-14.811,0-29.621,0A4.381,4.381,0,0,1,0,34Q0,22.39,0,10.781A4.392,4.392,0,0,1,4.327,6.388c1.847-.023,3.694-.008,5.542-.005A1.232,1.232,0,0,1,11.191,7.6a1.206,1.206,0,0,1-1.3,1.2c-1.774.009-3.545,0-5.318,0a2,2,0,0,0-2.059,1.354,2.4,2.4,0,0,0-.119.771q0,11.44,0,22.882a2.023,2.023,0,0,0,2.159,2.147q14.623,0,29.246,0A2.024,2.024,0,0,0,35.95,33.8q0-6.573,0-13.145c0-.818.294-1.29.9-1.448s1.109.13,1.5.874Z" fill="#050606"/>
      <path id="Path_2105" data-name="Path 2105" d="M38.347,12.365a34.731,34.731,0,0,1-2.912,3.14c-2.538,2.665-5.1,5.307-7.655,7.958a1.235,1.235,0,0,1-1.468.428,1.282,1.282,0,0,1-.766-1.329c.009-1.548,0-3.1.01-4.642,0-.264-.067-.325-.328-.327a17.388,17.388,0,0,0-5.186.5,13,13,0,0,0-8.058,6.6,1.315,1.315,0,0,1-1.311.855A1.152,1.152,0,0,1,9.6,24.491a35.1,35.1,0,0,1,.127-4.6,15.238,15.238,0,0,1,3.05-7.351A15.6,15.6,0,0,1,25.167,6.39c.3,0,.4-.057.391-.379-.02-1.485.012-2.971-.018-4.455a1.466,1.466,0,0,1,.9-1.549h.674a4.371,4.371,0,0,1,.667.506q4.939,5.143,9.89,10.278a3.237,3.237,0,0,1,.677.9ZM27.972,4.2c0,.784-.018,1.456,0,2.127.073,2.294-.164,2.562-2.461,2.478-.05,0-.1,0-.15,0a12.419,12.419,0,0,0-3.3.37A13.059,13.059,0,0,0,12.48,18.45a7.881,7.881,0,0,0-.355,1.828c.174-.184.283-.3.4-.416a15.3,15.3,0,0,1,9.4-4.577,42.183,42.183,0,0,1,4.823-.1,1.181,1.181,0,0,1,1.224,1.307c.01.948,0,1.9.005,2.844,0,.119-.045.248.053.373.057-.053.113-.1.163-.153q3.543-3.681,7.092-7.356c.194-.2.118-.288-.028-.439q-2.367-2.449-4.725-4.907C29.7,5.992,28.87,5.132,27.972,4.2" fill="#080908"/>
      <path id="Path_2106" data-name="Path 2106" d="M38.347,11.691a3.257,3.257,0,0,0-.677-.9Q32.72,5.656,27.78.512a4.5,4.5,0,0,0-.667-.506Q32.6.006,38.085,0c.223,0,.269.045.268.268q-.012,5.712-.006,11.423" fill="#fefefe"/>
    </g>
  </g>
</svg>
