<svg xmlns="http://www.w3.org/2000/svg" xmlns:xlink="http://www.w3.org/1999/xlink" width="34.658" height="34.589" viewBox="0 0 34.658 34.589">
  <defs>
    <clipPath id="clip-path">
      <rect id="Rectangle_210" data-name="Rectangle 210" width="34.658" height="34.589" transform="translate(0 0)" fill="none"/>
    </clipPath>
  </defs>
  <g id="Sign_out" data-name="Sign out" transform="translate(0 0)">
    <g id="Group_1573" data-name="Group 1573" clip-path="url(#clip-path)">
      <path id="Path_2107" data-name="Path 2107" d="M17.327.062a1.435,1.435,0,0,1,.059,2.865,4.122,4.122,0,0,1-.472.024q-6.187,0-12.376,0A1.443,1.443,0,0,0,2.946,4.014a2.3,2.3,0,0,0-.045.57q0,12.747-.012,25.5A1.523,1.523,0,0,0,4.519,31.7c4.147-.02,8.3-.008,12.443-.009a2.458,2.458,0,0,1,.735.08,1.409,1.409,0,0,1,.987,1.566,1.377,1.377,0,0,1-1.338,1.233c-.71.021-1.42.012-2.13.012-3.686,0-7.372.016-11.057-.017A4.259,4.259,0,0,1,.076,31.093c-.012-.062.015-.14-.071-.17V3.726c.02-.023.056-.044.06-.069a4.314,4.314,0,0,1,4.2-3.6c.124.005.247.013.37.014q4.559,0,9.117,0c1.193,0,2.385-.007,3.578-.01" fill="#0a0909"/>
      <path id="Path_2108" data-name="Path 2108" d="M4.262.058a4.315,4.315,0,0,0-4.2,3.6c0,.025-.039.046-.06.069C0,2.553.008,1.38,0,.208,0,.038.038,0,.207,0,1.56.008,2.913,0,4.266,0a.106.106,0,0,0,0,.053" fill="#fefefe"/>
      <path id="Path_2109" data-name="Path 2109" d="M4.262.058a.106.106,0,0,1,0-.053H17.323a.364.364,0,0,0,0,.057c-1.193,0-2.386.009-3.579.009q-4.557,0-9.116,0c-.123,0-.247-.008-.37-.013" fill="#b6b3b3"/>
      <path id="Path_2110" data-name="Path 2110" d="M29.591,15.846c-.033-.134-.148-.2-.233-.279q-2.9-2.867-5.8-5.728a1.452,1.452,0,0,1-.353-1.86,1.43,1.43,0,0,1,2.1-.446,3.375,3.375,0,0,1,.353.313q4.189,4.134,8.376,8.269a1.485,1.485,0,0,1,0,2.418q-4.224,4.17-8.448,8.34a1.45,1.45,0,0,1-2.246-.009,1.4,1.4,0,0,1-.007-1.8,4.293,4.293,0,0,1,.344-.371q2.851-2.817,5.7-5.632c.076-.076.182-.132.208-.257a.615.615,0,0,0-.361-.035q-8.015,0-16.031,0a1.59,1.59,0,0,1-1.313-.478,1.362,1.362,0,0,1-.266-1.505,1.348,1.348,0,0,1,1.207-.886c.157-.012.315-.015.473-.015q7.965,0,15.929,0a.623.623,0,0,0,.363-.035" fill="#0a0909"/>
    </g>
  </g>
</svg>
