<svg id="Group_1612" data-name="Group 1612" xmlns="http://www.w3.org/2000/svg" xmlns:xlink="http://www.w3.org/1999/xlink" width="53.48" height="53.461" viewBox="0 0 53.48 53.461">
  <defs>
    <clipPath id="clip-path">
      <rect id="Rectangle_230" data-name="Rectangle 230" width="53.48" height="53.461" fill="none"/>
    </clipPath>
  </defs>
  <g id="Group_1611" data-name="Group 1611" transform="translate(0 0)" clip-path="url(#clip-path)">
    <path id="Path_2145" data-name="Path 2145" d="M24.56,53.461a7.219,7.219,0,0,0-1.756-.284A26.489,26.489,0,0,1,1.055,33.969c-2.809-10.7.018-19.907,8.175-27.375A24.879,24.879,0,0,1,23.063.259,26.077,26.077,0,0,1,43.238,5.721a26.311,26.311,0,0,1,9.686,15.526,18.752,18.752,0,0,1,.453,3.192c0,.083-.013.177.1.205v4.281c-.115.027-.1.121-.105.2a20.219,20.219,0,0,1-.449,3.087,26.536,26.536,0,0,1-9.64,15.5,26.2,26.2,0,0,1-12.532,5.452,12.889,12.889,0,0,0-2.017.292ZM42.569,8.983a20.483,20.483,0,0,0-5.078-3.508,23.326,23.326,0,0,0-15.167-2.14,22.994,22.994,0,0,0-13.97,8.3A23.3,23.3,0,0,0,3.48,31.8a19.507,19.507,0,0,0,2.076,5.726,2.273,2.273,0,0,0,.106.286,23.544,23.544,0,0,0,6.28,7.561,23.328,23.328,0,0,0,19.586,4.691,22.762,22.762,0,0,0,13.246-7.791,23.323,23.323,0,0,0,5.431-19.688,22.7,22.7,0,0,0-4.695-10.52,17.642,17.642,0,0,0-2.942-3.08" transform="translate(0 0)" fill="#080908"/>
    <path id="Path_2146" data-name="Path 2146" d="M45.446,12.473a17.688,17.688,0,0,1,2.942,3.08,22.713,22.713,0,0,1,4.7,10.52,23.326,23.326,0,0,1-5.432,19.688,22.758,22.758,0,0,1-13.246,7.791,23.327,23.327,0,0,1-19.586-4.69A23.558,23.558,0,0,1,8.539,41.3a2.22,2.22,0,0,1-.106-.287,1.631,1.631,0,0,0-.067-.511,24.8,24.8,0,0,1-.756-6.312A26.548,26.548,0,0,1,7.9,30.735a23.763,23.763,0,0,1,2.376-7.591,24.9,24.9,0,0,1,6.106-7.818,25.487,25.487,0,0,1,8.188-4.733A29.294,29.294,0,0,1,31.1,9.231h3.431c.922.116,1.851.184,2.761.359a26.014,26.014,0,0,1,6.385,2.052,6.664,6.664,0,0,0,1.771.831M29.065,45.05a17.883,17.883,0,0,0,4.117-.422,16.654,16.654,0,0,0,10.2-6.874c.187-.267.174-.382-.111-.55-.582-.343-1.149-.716-1.7-1.106-.294-.206-.446-.224-.674.118a12.111,12.111,0,0,1-3.578,3.527,13.389,13.389,0,0,1-14.251.68,12.97,12.97,0,0,1-4.72-4.242c-.189-.276-.318-.315-.6-.117-.565.4-1.146.787-1.747,1.131-.328.188-.294.321-.1.59a17.041,17.041,0,0,0,1.371,1.7,16.543,16.543,0,0,0,11.8,5.56M24.747,26.983c.348,0,.7-.021,1.042.006.32.025.454-.072.4-.4-.024-.136-.006-.279-.029-.415a5.714,5.714,0,0,0-11.36.405c0,.31.055.425.391.412.711-.027,1.425-.019,2.137,0,.285.007.38-.076.407-.374a2.725,2.725,0,0,1,2.444-2.435,2.87,2.87,0,0,1,2.988,1.863c.113.31-.1.775.287.912a3.29,3.29,0,0,0,1.035.028h.261m18.25,0c.4,0,.8-.007,1.2,0,.2.006.284-.068.262-.272-.017-.172,0-.35-.027-.52a5.715,5.715,0,0,0-11.364.363c-.007.34.076.447.422.434.712-.027,1.425-.018,2.138,0,.268.006.346-.084.373-.351a2.728,2.728,0,0,1,2.477-2.46,2.823,2.823,0,0,1,2.973,1.948c.1.282-.1.7.25.828a2.9,2.9,0,0,0,.93.03H43M51.843,24.3l-.053,0v3.211h.053ZM25.055,51.128c0,.017.009.035.014.053h2.986v-.053Z" transform="translate(-2.877 -3.49)" fill="#ffbe00"/>
    <path id="Path_2147" data-name="Path 2147" d="M44.35,10.745a6.683,6.683,0,0,1-1.771-.831,25.953,25.953,0,0,0-6.385-2.052c-.91-.175-1.84-.243-2.761-.359-.139-.156-.324-.094-.491-.1-.764-.006-1.529-.01-2.292,0-.216,0-.454-.087-.647.093a29.335,29.335,0,0,0-6.525,1.361A25.492,25.492,0,0,0,15.29,13.6a24.9,24.9,0,0,0-6.107,7.818,23.794,23.794,0,0,0-2.376,7.591,26.756,26.756,0,0,0-.293,3.457,24.749,24.749,0,0,0,.756,6.312,1.648,1.648,0,0,1,.066.511A19.507,19.507,0,0,1,5.26,33.561,23.3,23.3,0,0,1,10.134,13.4,22.994,22.994,0,0,1,24.1,5.1a23.326,23.326,0,0,1,15.167,2.14,20.483,20.483,0,0,1,5.078,3.508" transform="translate(-1.781 -1.762)" fill="#ffdb3d"/>
    <path id="Path_2148" data-name="Path 2148" d="M34.017,61.287a16.541,16.541,0,0,1-11.8-5.56,17.042,17.042,0,0,1-1.371-1.7c-.191-.269-.225-.4.1-.59.6-.345,1.182-.729,1.747-1.131.279-.2.408-.159.6.117a12.962,12.962,0,0,0,4.72,4.242,13.386,13.386,0,0,0,14.251-.68,12.107,12.107,0,0,0,3.577-3.526c.228-.342.381-.325.674-.118.553.389,1.12.762,1.7,1.106.285.168.3.282.111.55a16.655,16.655,0,0,1-10.2,6.874,17.918,17.918,0,0,1-4.117.422" transform="translate(-7.828 -19.727)" fill="#080908"/>
    <path id="Path_2149" data-name="Path 2149" d="M29.116,34.3h-.261a3.286,3.286,0,0,1-1.034-.028c-.388-.137-.175-.6-.287-.912a2.869,2.869,0,0,0-2.988-1.863A2.725,2.725,0,0,0,22.1,33.93c-.027.3-.121.381-.407.374-.712-.017-1.425-.025-2.137,0-.336.013-.395-.1-.392-.412a5.715,5.715,0,0,1,11.36-.405c.022.136,0,.279.029.415.057.329-.078.426-.4.4-.345-.027-.695-.006-1.042-.006" transform="translate(-7.246 -10.805)" fill="#080908"/>
    <path id="Path_2150" data-name="Path 2150" d="M58.472,34.3c-.122,0-.243,0-.365,0a2.87,2.87,0,0,1-.93-.03c-.345-.128-.155-.547-.25-.828a2.822,2.822,0,0,0-2.973-1.948,2.728,2.728,0,0,0-2.477,2.46c-.027.268-.105.358-.374.352-.712-.016-1.425-.024-2.137,0-.347.013-.429-.094-.423-.434a5.715,5.715,0,0,1,11.364-.362c.026.17.009.347.027.519.021.2-.059.277-.263.272-.4-.011-.8,0-1.2,0" transform="translate(-18.353 -10.802)" fill="#080908"/>
    <path id="Path_2151" data-name="Path 2151" d="M45.377,9.162c.193-.18.431-.09.647-.093.764-.012,1.529-.008,2.293,0,.166,0,.352-.061.491.1H45.377" transform="translate(-17.156 -3.421)" fill="#ffdb58"/>
    <path id="Path_2152" data-name="Path 2152" d="M78.7,33.457v3.209h-.053v-3.21l.053,0" transform="translate(-29.734 -12.648)" fill="#ffbb3e"/>
    <path id="Path_2153" data-name="Path 2153" d="M35.66,76.6h3v.053H35.674c0-.017-.009-.035-.014-.053" transform="translate(-13.482 -28.959)" fill="#ffbb3e"/>
  </g>
</svg>
