<svg xmlns="http://www.w3.org/2000/svg" xmlns:xlink="http://www.w3.org/1999/xlink" width="18.8" height="20.652" viewBox="0 0 18.8 20.652">
  <defs>
    <clipPath id="clip-path">
      <rect id="Rectangle_364" data-name="Rectangle 364" width="18.8" height="20.652" fill="#bf4e1b"/>
    </clipPath>
  </defs>
  <g id="Social_Setting" data-name="Social Setting" transform="translate(0 0)">
    <g id="Group_1887" data-name="Group 1887" transform="translate(0 0)" clip-path="url(#clip-path)">
      <path id="Path_3755" data-name="Path 3755" d="M21.756,28.559a.787.787,0,0,1-.424-.85c.013-.261,0-.524,0-.786,0-.082-.008-.157-.094-.172a2.95,2.95,0,0,1-1.4-.779.184.184,0,0,0-.245-.028c-.286.155-.557.337-.847.487a.646.646,0,1,1-.612-1.139c.276-.16.547-.33.828-.48.094-.05.118-.1.089-.194a4.614,4.614,0,0,1-.083-1.2,1.4,1.4,0,0,1,.093-.378c.024-.1.009-.128-.074-.175-.316-.178-.628-.364-.938-.553a.678.678,0,0,1-.244-.7.656.656,0,0,1,.572-.433c.331-.039.553.177.813.3.181.086.343.272.524.287s.287-.24.45-.352a2.8,2.8,0,0,1,.975-.47.211.211,0,0,0,.2-.25,8.525,8.525,0,0,1,.012-1.088.531.531,0,0,1,.53-.478c.516,0,.757.242.757.762,0,.289,0,.578,0,.867a.157.157,0,0,0,.131.185,3.089,3.089,0,0,1,1.172.6c.1.079.141.27.307.226a1.5,1.5,0,0,0,.334-.2c.191-.112.38-.226.575-.33a.861.861,0,0,1,.77.066.647.647,0,0,1-.086,1.047c-.265.165-.54.316-.815.463a.211.211,0,0,0-.13.289,2.769,2.769,0,0,1-.022,1.522c-.03.093.006.143.086.188.3.172.6.339.9.522a.606.606,0,0,1,.288.662.666.666,0,0,1-.483.513c-.261.1-.447-.066-.649-.166s-.4-.222-.591-.338a.324.324,0,0,0-.438.06,2.529,2.529,0,0,1-1.253.68c-.106.018-.091.071-.092.135,0,.249-.014.5,0,.746a.859.859,0,0,1-.482.939ZM22.8,22.341c0-.077-.049-.044-.086-.032a1.266,1.266,0,0,0-.843-.188,1.622,1.622,0,0,0-1.231.63A1.685,1.685,0,0,0,20.723,25a1.6,1.6,0,0,0,1.575.5,1.677,1.677,0,0,0,1.386-1.523,1.642,1.642,0,0,0-.88-1.635" transform="translate(-7.356 -7.907)" fill="#bf4e1b"/>
      <path id="Path_3756" data-name="Path 3756" d="M1.456,18.546a4.109,4.109,0,0,1,1.874-.863,5.845,5.845,0,0,1,.948-.076h7.016a.743.743,0,0,1,.63.284.645.645,0,0,1-.528,1.008c-2.419,0-4.839-.008-7.258,0a2.721,2.721,0,0,0-2.123.915A2.638,2.638,0,0,0,1.3,21.581c0,.767,0,1.532-.006,2.3,0,.15.034.187.185.186q3.528-.008,7.056,0a.649.649,0,0,1,.71.714.657.657,0,0,1-.585.575q-4.063,0-8.125,0a.58.58,0,0,1-.524-.521c-.006-1.2-.016-2.393,0-3.589a3.236,3.236,0,0,1,.28-1.092,4.505,4.505,0,0,1,.65-1.09.11.11,0,0,0,.111-.122,1.389,1.389,0,0,1,.28-.282.111.111,0,0,0,.123-.11" transform="translate(0 -7.281)" fill="#bf4e1b"/>
      <path id="Path_3757" data-name="Path 3757" d="M14.435,4.292a3.839,3.839,0,0,1-.208,1.424A3.293,3.293,0,0,1,13.7,6.783a4.324,4.324,0,0,1-2.363,1.654,5.815,5.815,0,0,1-1.211.194,2.671,2.671,0,0,1-.657-.093c-.169-.035-.343-.054-.514-.1A4.163,4.163,0,0,1,6.642,6.8,4.1,4.1,0,0,1,5.886,4.83,4.213,4.213,0,0,1,6.74,1.68a4.119,4.119,0,0,1,2-1.437A4,4,0,0,1,10.3.007a4.327,4.327,0,0,1,2.859,1.228,4.147,4.147,0,0,1,1.13,1.909,2.862,2.862,0,0,1,.144,1.148m-1.325.357c.021-.016.061-.038.058-.049-.074-.283.022-.569-.05-.86a3.073,3.073,0,0,0-1.3-1.933l-.046-.03c-.045-.025-.092-.047-.135-.075a2.74,2.74,0,0,0-1.512-.4,2.8,2.8,0,0,0-1.4.358,3.053,3.053,0,0,0-.975.859,2.878,2.878,0,0,0-.565,2.21,2.973,2.973,0,0,0,1.206,2A2.861,2.861,0,0,0,10.7,7.26a2.833,2.833,0,0,0,1.723-1.006.074.074,0,0,0,.082-.082,3.142,3.142,0,0,0,.459-.8.963.963,0,0,0,.113-.686l.033-.032" transform="translate(-2.42 0)" fill="#bf4e1b"/>
      <path id="Path_3758" data-name="Path 3758" d="M2.395,19.2a.111.111,0,0,1-.123.11c0-.088.025-.137.123-.11" transform="translate(-0.939 -7.938)" fill="#bf4e1b"/>
      <path id="Path_3759" data-name="Path 3759" d="M1.71,19.877A.11.11,0,0,1,1.6,20c-.026-.1.022-.128.111-.122" transform="translate(-0.658 -8.219)" fill="#bf4e1b"/>
      <path id="Path_3760" data-name="Path 3760" d="M26.281,24.576c-.036.008-.071.015-.086-.032.037-.012.083-.045.086.032" transform="translate(-10.832 -10.142)" fill="#bf4e1b"/>
      <path id="Path_3761" data-name="Path 3761" d="M17.04,10.607c-.079-.132.057-.051.081-.082a.073.073,0,0,1-.081.082" transform="translate(-7.036 -4.352)" fill="#bf4e1b"/>
      <path id="Path_3762" data-name="Path 3762" d="M15.993,3.06c-.03.012-.038-.01-.046-.03l.046.03" transform="translate(-6.594 -1.253)" fill="#bf4e1b"/>
      <path id="Path_3763" data-name="Path 3763" d="M18.17,7.958c-.006-.028,0-.039.033-.032l-.033.032" transform="translate(-7.513 -3.277)" fill="#bf4e1b"/>
    </g>
  </g>
</svg>
