<svg xmlns="http://www.w3.org/2000/svg" width="55.088" height="53.07" viewBox="0 0 55.088 53.07">
  <path id="star" d="M51.864,19.387a2.76,2.76,0,0,0-2.379-1.907L34.477,16.112,28.542,2.175a2.76,2.76,0,0,0-5.083,0L17.524,16.112,2.513,17.48A2.778,2.778,0,0,0,.944,22.332l11.345,9.983L8.944,47.1a2.773,2.773,0,0,0,2.693,3.392,2.746,2.746,0,0,0,1.417-.4L26,42.333,38.942,50.1a2.745,2.745,0,0,0,3.038-.133A2.779,2.779,0,0,0,43.054,47.1L39.709,32.315l11.345-9.981A2.78,2.78,0,0,0,51.864,19.387Zm0,0" transform="translate(1.544 1.008)" fill="#fdfdfd" stroke="#ccc" stroke-width="3"/>
</svg>
