<svg xmlns="http://www.w3.org/2000/svg" width="62.109" height="62" viewBox="0 0 62.109 62">
  <path id="Star" d="M41.688,48.037A21.5,21.5,0,0,1,11.973,18.28a11.344,11.344,0,0,1-4.2.6A10.79,10.79,0,0,1,.226,15.073a.726.726,0,0,1,.06-1.1A4.256,4.256,0,0,1,2.8,12.743c1.969-.28,2.765-1.066,3.061-3.019A4.377,4.377,0,0,1,9.731,5.859a3.031,3.031,0,0,0,3-3A4.294,4.294,0,0,1,13.773.5c.583-.648.89-.656,1.514-.059a10.573,10.573,0,0,1,3.054,11.374C28.326,6.6,37.619,7.3,45.77,15.5c5.591,5.624,8.357,16.409,2.273,26.234a11.074,11.074,0,0,1,5.288-.466A10.951,10.951,0,0,1,59.74,44.9a.746.746,0,0,1-.033,1.158,4.279,4.279,0,0,1-2.513,1.218c-1.972.279-2.756,1.064-3.043,3.031a4.424,4.424,0,0,1-3.821,3.847c-2.02.3-2.756,1.04-3.064,3.089a4.358,4.358,0,0,1-1.139,2.4.806.806,0,0,1-1.317.033c-3.328-3.18-4.5-6.948-3.123-11.413a1.112,1.112,0,0,0,0-.225M29.968,10.1A19.911,19.911,0,1,0,49.914,29.973,19.867,19.867,0,0,0,29.968,10.1M17.337,8.963a9.261,9.261,0,0,0-1.851-6.035c-.258-.334-.515-.932-.9-.813-.331.1-.314.758-.376,1.185a4.42,4.42,0,0,1-4.04,4.028,2.983,2.983,0,0,0-2.846,2.892,4.589,4.589,0,0,1-1.34,2.76,4.892,4.892,0,0,1-2.945,1.289c-.338.045-.857,0-.947.362-.073.29.378.518.641.716a8.717,8.717,0,0,0,9.584,1.076,8.431,8.431,0,0,0,5.023-7.459M42.654,51.186a9.179,9.179,0,0,0,1.729,5.725c.29.394.572,1.078,1.034.973.351-.079.329-.839.4-1.314A4.44,4.44,0,0,1,49.69,52.7c1.954-.279,2.721-1.058,3.011-3.052a4.418,4.418,0,0,1,1.326-2.614,4.69,4.69,0,0,1,2.8-1.258c.382-.048.98,0,1.078-.4.08-.32-.448-.574-.753-.8a8.7,8.7,0,0,0-9.468-.987,8.537,8.537,0,0,0-5.034,7.592" transform="translate(1.056 1)" fill="none" stroke="#000" stroke-width="2"/>
</svg>
