<svg xmlns="http://www.w3.org/2000/svg" width="21.523" height="20.746" viewBox="0 0 21.523 20.746">
  <path id="star" d="M19.933,7.754a1.061,1.061,0,0,0-.914-.733L13.251,6.5,10.97,1.139a1.061,1.061,0,0,0-1.954,0L6.735,6.5.966,7.021a1.068,1.068,0,0,0-.6,1.865l4.36,3.837L3.437,18.405a1.066,1.066,0,0,0,1.035,1.3,1.055,1.055,0,0,0,.545-.152l4.976-2.984,4.974,2.984a1.055,1.055,0,0,0,1.168-.051,1.068,1.068,0,0,0,.413-1.1l-1.286-5.683,4.36-3.836A1.069,1.069,0,0,0,19.933,7.754Zm0,0" transform="translate(0.769 0.258)" fill="none" stroke="#fdfdfd" stroke-width="1.5"/>
</svg>
