<svg id="Group_1353" data-name="Group 1353" xmlns="http://www.w3.org/2000/svg" xmlns:xlink="http://www.w3.org/1999/xlink" width="306" height="345.49" viewBox="0 0 306 345.49">
  <defs>
    <clipPath id="clip-path">
      <rect id="Rectangle_38" data-name="Rectangle 38" width="306" height="345.49" fill="none"/>
    </clipPath>
  </defs>
  <g id="Group_1352" data-name="Group 1352" clip-path="url(#clip-path)">
    <path id="Path_1454" data-name="Path 1454" d="M60.032,226.928c-2.807-3.646-6.308-6.625-9.524-9.878-11.1-11.224-18.9-24.429-24.405-39.178-5.762-15.43-7.211-31.446-5.831-47.538A105.673,105.673,0,0,1,44.616,71.2,109.83,109.83,0,0,1,87.73,38.8a103.624,103.624,0,0,1,37.887-8.126c12.545-.239,24.887.783,36.868,4.4a104.919,104.919,0,0,1,32.033,15.962A112.254,112.254,0,0,1,222.19,79.765c9.45,14.416,15.64,30.07,17.411,47.325,1.5,14.643.884,29.075-3.057,43.408-5.949,21.62-17.811,39.386-34.38,54.1-11.4,10.127-24.7,17.17-39.168,21.863-7.143,2.317-14.631,3.3-22.031,4.551l-1.828-.076c-7.8-.317-15.631.693-23.4-.667-.9-.158-1.868-.007-2.071-1.241,2.731-.059,5.474-.288,8.193-.128,2.412.142,3.1-.681,3.067-3.067-.095-6.268.083-12.538.154-18.806,17.08-.019,34.163-.317,51.231.066,8.7.194,13.139-5.679,13.108-13.037C189.2,163.4,189.3,112.738,189.3,62.077c0-8.9-3.873-12.827-12.685-12.829q-41.435-.011-82.869,0c-9.079,0-13.016,3.9-13.018,12.914q-.007,34.387-.021,68.773a8.15,8.15,0,0,1-.371,3.681c-4.4,9.557-8.7,19.161-13.089,28.72a12.978,12.978,0,0,0-1.156,5.632q.057,28.883.019,57.769l-6.079.192M72.612,82.768c-2.121-.577-4.5-.225-4.864-2.991a.743.743,0,0,0-1.456-.154c-.679,1.932-1.691,3.06-3.906,2.8-.714-.083-1.1.754-.615,1.121,1.691,1.272,1.556,2.941,1.991,4.748.456,1.9,3.759-1.766,5.509.719.333.475,1.239-.13,1.033-.735-.792-2.348.946-3.71,2.308-5.511M37.868,142.939c4.764.471,6.483,3.244,7.136,7.668.085-4.748,2.62-6.755,6.963-7.651-4.984.168-6.154-3.121-7.183-6.913-.551,4.159-1.979,6.944-6.916,6.9m162.038,18.9c2.885.087,4.05,2.012,5.225,4.2.078-3.007,2.461-3.44,4.485-4.485-2.991-.085-3.887-2.208-4.861-4.473-.336,2.92-2.206,4.041-4.849,4.759m19.062-57.327c2.785,1.229,2.627-1.754,2.8-2.492.317-1.381-1.96-1.2-2.7-2.249-.52,1.166-2.937.766-2.419,2.511.272.91-.35,3.684,2.327,2.23" transform="translate(26.996 41.802)" fill="#e7e8e8"/>
    <path id="Path_1455" data-name="Path 1455" d="M36.881,113.781l6.079-.192,8.285-.014q9.32,0,18.643-.009c1.246.047,2.494.128,3.743.137q14.147.1,28.292.182c-.069,6.27-.246,12.541-.151,18.806.035,2.388-.657,3.211-3.067,3.069-2.719-.161-5.462.066-8.195.125-16.577-.059-33.153-.234-49.728-.08-3.452.031-4.159-1-4.01-4.187.272-5.935.1-11.89.109-17.837M92.553,125.5c-.069-5.317.679-4.826-4.32-4.854-4.3-.024-4.3,0-4.3,4.547,0,4.9,0,4.9,4.376,4.9,4.242,0,4.242,0,4.242-4.592" transform="translate(50.147 154.947)" fill="#e62034"/>
    <path id="Path_1456" data-name="Path 1456" d="M136.743,105.551c-.489,1.733-1.851,2.3-2.984,2.984-2.58,1.56-3.419,3.464-1.8,6.223a10.408,10.408,0,0,1,.88,2.6,1.6,1.6,0,0,1-.74,1.773,1.44,1.44,0,0,1-1.88-.158c-.277-.2-.53-.442-.809-.638-4.523-3.19-4.523-3.187-8.947-.021-.8.575-1.5,1.629-2.686.96-1.4-.794-.849-2.052-.364-3.029,1.984-3.989,1.1-6.88-3-8.784-.9-.418-1.944-1.055-1.44-2.36.39-1.014,1.376-1.083,2.324-1.073a6.983,6.983,0,0,1,1.371.009c3.7.809,5.424-.984,6.152-4.414.26-1.229.3-3.147,2.107-3.069,1.676.069,1.922,1.906,2.085,3.173.5,3.856,2.743,4.8,6.223,4.339,1.374-.18,3.045-.366,3.509,1.49" transform="translate(153.957 131.728)" fill="#e27b14"/>
    <path id="Path_1457" data-name="Path 1457" d="M83.369,8.984A4.331,4.331,0,0,1,80.8,11.672c-3.426,1.6-3.513,3.984-2.074,6.984.513,1.066,1.563,2.4.284,3.424-1.383,1.1-2.669-.106-3.613-1.01-2.6-2.485-4.986-2.712-7.6,0-.889.924-2.163,2.092-3.594.955-1.161-.924-.3-2.237.154-3.152,1.66-3.346,1.076-5.741-2.355-7.533-1.064-.556-2.809-1.334-2.23-3.024.506-1.473,2.17-1.166,3.334-.976,3.674.6,5.764-.731,6.438-4.473.2-1.137.482-2.823,2-2.866,1.809-.052,1.981,1.8,2.14,3.033.5,3.859,2.769,4.729,6.216,4.313,1.331-.161,3.116-.537,3.471,1.636" transform="translate(81.399 0.001)" fill="#e27b14"/>
    <path id="Path_1458" data-name="Path 1458" d="M0,44.178a30.874,30.874,0,0,1,8.3-2,3.844,3.844,0,0,0,3.766-3.62,28.556,28.556,0,0,1,2.081-8.211c1.738,2.305,1.691,4.726,2.01,6.954.449,3.138,1.8,4.84,5.18,5.05,2.168.135,4.289,1,7.36,1.761-3.535,1.929-6.5,2.092-9.273,2.719-1.761.4-2.494,1.069-2.719,2.837-.272,2.14-.884,4.237-1.364,6.348-.163.724.035,1.842-1.078,1.809-1.066-.033-.91-1.177-1.076-1.889-.468-2-.868-4.012-1.227-6.032a3.457,3.457,0,0,0-3-3.152C6.173,46.09,3.166,46,0,44.178" transform="translate(0 41.403)" fill="#e27b14"/>
    <path id="Path_1459" data-name="Path 1459" d="M117.68,49.412c3.852-.884,6.71-1.605,9.6-2.175a2.636,2.636,0,0,0,2.357-2.412c.631-2.842.78-5.845,2.379-8.866,1.757,2.4,1.556,5.022,2.029,7.348.525,2.587,1.516,3.941,4.256,4.391,2.277.376,4.724.534,7.14,2.017-2.584,1.965-5.5,1.92-8.15,2.433a3.049,3.049,0,0,0-2.833,2.778c-.56,2.771-1.234,5.521-2.048,9.108-2.234-2.981-2.171-5.887-2.686-8.486-.421-2.126-1.123-3.074-3.365-3.45-2.615-.435-5.377-.726-8.68-2.686" transform="translate(160.56 49.062)" fill="#e27b14"/>
    <path id="Path_1460" data-name="Path 1460" d="M74.525,123.814l1.825.076c.655,3.043,1.534,5.8,5.644,4.93a1.508,1.508,0,0,1,1.731.837,1.34,1.34,0,0,1-.83,1.683c-2.925,1.421-3.62,3.5-2.137,6.384.3.577.553,1.331-.272,1.787a1.307,1.307,0,0,1-1.582-.26c-2.253-2.147-4.49-2.4-6.831-.125a1.294,1.294,0,0,1-1.839.227,1.255,1.255,0,0,1-.187-1.575c1.241-2.724,1.1-4.975-1.962-6.4a1.356,1.356,0,0,1-.863-1.672,1.448,1.448,0,0,1,1.688-.87c4.159.844,4.925-2.029,5.615-5.02" transform="translate(91.608 168.929)" fill="#e27b14"/>
    <path id="Path_1461" data-name="Path 1461" d="M22.9,68.887c-.218.244-.452.7-.823.887-2.535,1.3-3.492,3.1-2.022,5.8a1.348,1.348,0,0,1-.189,1.863c-.69.523-1.336.08-1.811-.4-1.932-1.97-3.83-2.215-5.826-.087-.454.485-1.071.986-1.806.537-.95-.582-.5-1.419-.2-2.123,1.007-2.327.6-4.081-1.785-5.3-.624-.319-1.506-.906-1.017-1.887.362-.726,1.218-.61,1.847-.508,2.667.433,4.045-.733,4.464-3.317.125-.768.324-1.674,1.317-1.766.851-.078,1.211.688,1.3,1.331.433,3.1,2.187,4.223,5.195,3.771.648-.1,1.426.028,1.352,1.208" transform="translate(9.941 85.37)" fill="#e27b14"/>
    <path id="Path_1462" data-name="Path 1462" d="M10.792,133.322c7.486.3,9.893-3.847,10.616-10.375.258,6.843,3.355,10.292,10.434,10.446-6.3.908-10.436,3.327-10.422,10.512-.629-6.743-3.953-10.044-10.628-10.583" transform="translate(14.724 167.746)" fill="#e27b14"/>
    <path id="Path_1463" data-name="Path 1463" d="M98.786,138.637c4.381-.452,6.708-2.364,6.854-7.025,1.047,3.79,2.171,6.987,7.029,6.944-4.185.714-6.54,2.691-6.876,7.11-.532-4.381-2.653-6.62-7.008-7.029" transform="translate(134.781 179.568)" fill="#e27b14"/>
    <path id="Path_1464" data-name="Path 1464" d="M53.358,149.6c-3.036.7-4.715-1.1-5.055-3.861-.083-.657,2.584-2.554,3.346-2.253,2.795,1.1,2.948,3.563,1.709,6.114" transform="translate(65.901 195.731)" fill="#e27b14"/>
    <path id="Path_1465" data-name="Path 1465" d="M53.329,31.142c-3.095,1.745-2.492-1.383-2.643-2.39-.184-1.232,1.7-1.631,2.492-2.584.572,1.095,3.071,1.111,2.189,2.613-.423.723,1.7,4.462-2.038,2.362" transform="translate(69.137 35.702)" fill="#7b93a4"/>
    <path id="Path_1466" data-name="Path 1466" d="M47.675,215.985,39.39,216q0-28.883-.019-57.769a12.992,12.992,0,0,1,1.156-5.632c4.393-9.559,8.691-19.161,13.089-28.718a8.157,8.157,0,0,0,.371-3.681q.043-34.387.021-68.773c0-9.011,3.939-12.914,13.018-12.917q41.435-.007,82.869,0c8.812,0,12.685,3.927,12.685,12.829,0,50.661-.1,101.325.113,151.987.031,7.358-4.41,13.229-13.108,13.035-17.068-.381-34.151-.083-51.231-.066q-14.147-.089-28.294-.182c-1.248-.009-2.494-.09-3.743-.137,10.559-15.751,7.977-43.247-7.568-53.139-1.237-.785-1.151-1.728-.731-2.937,1.244-3.563,2.4-7.157,3.58-10.744,1.915-5.831,1.913-5.831,7.928-5.928a10.044,10.044,0,0,0,9.786-7.192c.61-2.308.258-3.686-2.65-3.636-5.038.09-10.089.031-15.123-.218-2.223-.109-3.277.752-4.09,2.669-2.724,6.429-5.492,12.839-8.41,19.182a15.141,15.141,0,0,0-1.39,6.6c.052,18.452.028,36.9.026,55.352m33.5-21.369c-.421,3.407-.5,6.9-1.364,10.2-.768,2.932.2,3.161,2.693,3.154,22.36-.078,44.722-.043,67.082-.047,4.388,0,4.632-.248,4.634-4.717q.007-75.854,0-151.705c0-4.485-.229-4.717-4.625-4.717q-41.108-.007-82.216,0c-4.83,0-5,.173-5,5.067q-.007,32.682,0,65.361c0,7.1,0,7.1,7.143,6.649,2.963.1,5.925.241,8.888.3,10.654.213,10.663.215,9.391,10.949-1.09,9.207-7.171,15.253-16.473,16.376-.662.08-1.4-.038-1.757.747-.764,2.939-4.447,5.878,0,8.817a55.729,55.729,0,0,1,8.405,13.8,58.7,58.7,0,0,1,3.2,19.771" transform="translate(53.717 52.537)" fill="#040504"/>
    <path id="Path_1467" data-name="Path 1467" d="M48.51,54.817c-1.362,1.8-3.1,3.164-2.308,5.511.2.605-.7,1.211-1.036.735-1.75-2.485-5.05,1.177-5.507-.719-.437-1.806-.3-3.476-1.991-4.748-.487-.366-.1-1.2.615-1.121,2.215.255,3.225-.872,3.906-2.807a.742.742,0,0,1,1.454.156c.362,2.766,2.745,2.414,4.866,2.991" transform="translate(51.099 69.753)" fill="#e27b14"/>
    <path id="Path_1468" data-name="Path 1468" d="M27.434,82.115c4.937.047,6.365-2.738,6.916-6.9,1.026,3.792,2.2,7.081,7.183,6.913-4.346.9-6.878,2.9-6.965,7.651-.65-4.424-2.369-7.2-7.133-7.668" transform="translate(37.43 102.626)" fill="#e27b14"/>
    <path id="Path_1469" data-name="Path 1469" d="M95.967,88.873c2.643-.719,4.514-1.839,4.849-4.759.974,2.265,1.87,4.388,4.861,4.473-2.024,1.045-4.407,1.478-4.485,4.485-1.175-2.185-2.341-4.112-5.225-4.2" transform="translate(130.935 114.763)" fill="#e27b14"/>
    <path id="Path_1470" data-name="Path 1470" d="M105.413,64.617c-2.676,1.454-2.055-1.319-2.327-2.23-.518-1.745,1.9-1.345,2.419-2.511.745,1.045,3.022.868,2.7,2.249-.17.738-.012,3.722-2.8,2.492" transform="translate(140.55 81.693)" fill="#e27b14"/>
    <path id="Path_1471" data-name="Path 1471" d="M42.9,161.933c0-18.452.026-36.9-.026-55.352a15.141,15.141,0,0,1,1.39-6.6c2.918-6.341,5.686-12.753,8.41-19.182.813-1.917,1.868-2.778,4.09-2.667,5.034.248,10.082.3,15.123.215,2.908-.05,3.26,1.329,2.65,3.636a10.044,10.044,0,0,1-9.786,7.192c-6.017.1-6.013.1-7.928,5.93-1.177,3.584-2.336,7.178-3.58,10.741-.421,1.208-.506,2.152.731,2.937,15.546,9.893,18.128,37.388,7.568,53.139l-18.643.009" transform="translate(58.494 106.589)" fill="#f9b48e"/>
    <path id="Path_1472" data-name="Path 1472" d="M65.327,121.415c0,4.592,0,4.592-4.242,4.592-4.379,0-4.379,0-4.376-4.9,0-4.551,0-4.57,4.3-4.547,5,.028,4.251-.463,4.32,4.854" transform="translate(77.372 159.029)" fill="#3c3941"/>
    <path id="Path_1473" data-name="Path 1473" d="M60.572,162.843a55.764,55.764,0,0,0-8.4-13.8q0-4.4,0-8.814c.357-.787,1.092-.669,1.754-.749,9.3-1.123,15.385-7.169,16.475-16.376,1.272-10.734,1.26-10.737-9.394-10.949-2.963-.059-5.923-.2-8.885-.3.028-1.49.078-2.977.078-4.466,0-18.9.043-37.806-.047-56.707-.012-2.478.56-3.383,3.227-3.374q35.4.149,70.8.012c2.416-.007,3.414.461,3.4,3.18q-.156,56.192-.111,112.384l-68.9-.035M86.343,67.764c7.327,0,14.657-.13,21.977.066,2.736.073,2.915-1.185,2.873-3.294-.038-2.007,0-3.426-2.821-3.4q-21.978.2-43.956,0c-2.743-.026-2.882,1.234-2.859,3.32.024,2.014-.014,3.45,2.809,3.374,7.32-.2,14.65-.066,21.977-.066m-5.8,6.393c-5.372,0-10.748.158-16.111-.066-2.743-.113-2.918,1.192-2.87,3.291.045,1.984-.033,3.478,2.792,3.443q16.282-.213,32.569,0c2.712.035,2.885-1.237,2.856-3.331-.028-2,.028-3.5-2.783-3.4-5.478.2-10.968.057-16.454.059" transform="translate(71.11 64.539)" fill="#e79f54"/>
    <path id="Path_1474" data-name="Path 1474" d="M133.591,170.109q.028-56.192.111-112.384c.009-2.719-.988-3.187-3.4-3.178q-35.4.11-70.8-.012c-2.667-.012-3.239.9-3.227,3.372.09,18.9.052,37.806.047,56.707,0,1.49-.05,2.977-.078,4.466-7.148.449-7.143.449-7.143-6.646q0-32.682,0-65.361c0-4.894.17-5.067,5-5.067q41.108-.007,82.216,0c4.4,0,4.625.232,4.625,4.719q.007,75.85,0,151.706c0,4.469-.246,4.712-4.634,4.715-22.36,0-44.72-.028-67.08.047-2.49.009-3.461-.222-2.7-3.154.863-3.291.943-6.788,1.367-10.2q18.885-.025,37.771-.047,12.707-.011,25.412,0c1.364,0,2.941.241,2.873-1.9-.187-5.927.463-11.872-.364-17.785" transform="translate(66.988 57.309)" fill="#f4f5f5"/>
    <path id="Path_1475" data-name="Path 1475" d="M124.592,96.205c.828,5.913.177,11.857.364,17.785.069,2.14-1.508,1.9-2.873,1.9q-12.707.007-25.412,0-18.885.018-37.771.047A58.71,58.71,0,0,0,55.694,96.17l68.9.035" transform="translate(75.988 131.212)" fill="#a86620"/>
    <path id="Path_1476" data-name="Path 1476" d="M53.385,86.6q0,4.408,0,8.817c-4.45-2.939-.768-5.878,0-8.817" transform="translate(69.894 118.16)" fill="#c1d7dd"/>
    <path id="Path_1477" data-name="Path 1477" d="M80.9,59.783c-7.327,0-14.657-.13-21.977.066-2.823.076-2.785-1.36-2.809-3.374-.026-2.085.116-3.346,2.859-3.32q21.978.2,43.956,0c2.816-.024,2.781,1.395,2.821,3.4.043,2.109-.137,3.367-2.873,3.294-7.32-.2-14.65-.066-21.977-.066" transform="translate(76.555 72.521)" fill="#32434c"/>
    <path id="Path_1478" data-name="Path 1478" d="M75.1,58.7c5.485,0,10.975.14,16.454-.059,2.811-.1,2.755,1.393,2.783,3.4.028,2.095-.144,3.367-2.856,3.331q-16.282-.213-32.569,0c-2.825.038-2.747-1.456-2.792-3.44-.047-2.1.128-3.407,2.87-3.294,5.362.225,10.739.066,16.111.066" transform="translate(76.555 79.994)" fill="#32434c"/>
    <path id="Path_1479" data-name="Path 1479" d="M144.651,60.561a33.093,33.093,0,1,1-33.092-33.092,33.091,33.091,0,0,1,33.092,33.092" transform="translate(107.056 37.478)" fill="#349436"/>
    <path id="Path_1480" data-name="Path 1480" d="M144.651,60.561a33.093,33.093,0,1,1-33.092-33.092A33.091,33.091,0,0,1,144.651,60.561Z" transform="translate(107.056 37.478)" fill="none" stroke="#edeeef" stroke-width="3"/>
    <path id="Path_1481" data-name="Path 1481" d="M84.108,51.754,97.949,65.622l26.576-26.55-3.816-3.764L97.949,58.044,87.87,47.964Z" transform="translate(114.756 48.173)" fill="#fff"/>
  </g>
</svg>
