<svg xmlns="http://www.w3.org/2000/svg" xmlns:xlink="http://www.w3.org/1999/xlink" width="22" height="22" viewBox="0 0 22 22">
  <defs>
    <clipPath id="clip-path">
      <rect id="Rectangle_296" data-name="Rectangle 296" width="22" height="22" fill="none"/>
    </clipPath>
  </defs>
  <g id="Telegram" transform="translate(0 0)">
    <g id="Group_1783" data-name="Group 1783" transform="translate(0 0)" clip-path="url(#clip-path)">
      <path id="Path_3655" data-name="Path 3655" d="M11.868,22h-1.76a1.053,1.053,0,0,0-.5-.1c-.3-.034-.594-.089-.883-.134a7.842,7.842,0,0,1-1.84-.553A11.107,11.107,0,0,1,1.38,16.294,10.758,10.758,0,0,1,.031,11.779,9.915,9.915,0,0,1,.1,9.557a11.76,11.76,0,0,1,.687-2.64A11.329,11.329,0,0,1,3.2,3.222,11.052,11.052,0,0,1,7.422.574c.281-.1.572-.167.857-.253a8.539,8.539,0,0,1,2.053-.3C10.712,0,11.094,0,11.476,0a10.76,10.76,0,0,1,1.206.1A10.52,10.52,0,0,1,15.4.884a9.921,9.921,0,0,1,1.874,1.05,11.048,11.048,0,0,1,2.473,2.4,10.528,10.528,0,0,1,1.642,3.054,10.98,10.98,0,0,1,.5,2.081,1.908,1.908,0,0,0,.117.7v1.678c-.143.2-.089.44-.115.657a10.122,10.122,0,0,1-.679,2.579,11.019,11.019,0,0,1-8.532,6.8,4.565,4.565,0,0,0-.807.121M8.993,15.5a1.408,1.408,0,0,0,0,.193c.015.1-.058.256.035.3.124.057.257-.036.368-.119a.721.721,0,0,0,.08-.071q.591-.589,1.182-1.178a.252.252,0,0,1,.393-.029c.827.627,1.666,1.238,2.5,1.854a.674.674,0,0,0,.522.191.627.627,0,0,0,.5-.52c.105-.521.223-1.039.335-1.559.13-.6.262-1.2.387-1.808.211-1.019.412-2.04.625-3.057.158-.753.342-1.5.485-2.258.048-.256.075-.561-.2-.736a.753.753,0,0,0-.7,0Q10.3,8.717,5.089,10.733a1.914,1.914,0,0,0-.384.188c-.3.206-.295.372-.012.6a.891.891,0,0,0,.323.148c.243.073.49.134.732.211.538.17,1.071.355,1.612.515a.436.436,0,0,0,.407,0c1.067-.687,2.141-1.364,3.215-2.042q1.468-.927,2.94-1.848a.5.5,0,0,1,.279-.1c.05,0,.1,0,.132.05s-.014.1-.049.128c-.084.076-.176.143-.259.22-.352.327-.7.661-1.055.983-.383.347-.782.674-1.159,1.026s-.74.661-1.095,1.009c-.453.443-.934.857-1.407,1.279a.44.44,0,0,0-.151.313c-.041.44-.075.879-.091,1.319a.184.184,0,0,0-.033.131c0,.157-.006.315-.009.472a.257.257,0,0,0-.034.172" transform="translate(0 0)" fill="#08c"/>
      <path id="Path_3656" data-name="Path 3656" d="M14.2,22.285c.016-.441.049-.88.091-1.319a.441.441,0,0,1,.151-.314c.473-.422.954-.836,1.407-1.279.356-.348.733-.67,1.1-1.009s.776-.68,1.159-1.026c.357-.322.7-.656,1.056-.983.083-.077.175-.144.258-.22.035-.032.08-.07.049-.128s-.082-.05-.132-.051a.5.5,0,0,0-.279.1q-1.471.923-2.94,1.848c-1.074.678-2.147,1.355-3.215,2.042a.439.439,0,0,1-.408,0c-.541-.161-1.074-.345-1.612-.516-.242-.076-.489-.137-.732-.21a.893.893,0,0,1-.323-.148c-.283-.229-.288-.4.012-.6a1.86,1.86,0,0,1,.384-.187q5.21-2.016,10.421-4.028a.75.75,0,0,1,.7,0c.276.174.249.479.2.735-.143.756-.327,1.5-.485,2.258-.213,1.018-.415,2.038-.625,3.057-.125.6-.257,1.206-.387,1.809-.111.519-.229,1.038-.334,1.558a.628.628,0,0,1-.5.52.677.677,0,0,1-.522-.191c-.835-.616-1.674-1.227-2.5-1.854a.252.252,0,0,0-.393.028q-.589.591-1.182,1.178a.731.731,0,0,1-.08.071c-.11.082-.243.176-.368.118-.093-.044-.02-.2-.035-.3a1.275,1.275,0,0,1,0-.193c.057-.049.036-.113.034-.172,0-.157.006-.315.009-.472.05-.034.039-.083.034-.13" transform="translate(-5.134 -7.554)" fill="#feffff"/>
      <path id="Path_3657" data-name="Path 3657" d="M19.329,32.826c0,.06.023.124-.034.172a.252.252,0,0,1,.034-.172" transform="translate(-10.303 -17.494)" fill="#098ccf"/>
      <path id="Path_3658" data-name="Path 3658" d="M19.421,31.537c.005.048.016.1-.034.13a.183.183,0,0,1,.034-.13" transform="translate(-10.352 -16.807)" fill="#098ccf"/>
    </g>
  </g>
</svg>
