<svg xmlns="http://www.w3.org/2000/svg" xmlns:xlink="http://www.w3.org/1999/xlink" width="22" height="22" viewBox="0 0 22 22">
  <defs>
    <clipPath id="clip-path">
      <rect id="Rectangle_297" data-name="Rectangle 297" width="22" height="22" fill="none"/>
    </clipPath>
  </defs>
  <g id="Topmate" transform="translate(0 0)">
    <g id="Group_1785" data-name="Group 1785" transform="translate(0 0)" clip-path="url(#clip-path)">
      <path id="Path_3659" data-name="Path 3659" d="M11.625,0h.021c.017.058.076.061.112.061.193,0,.381.035.572.046.208.012.411.056.617.08a2.066,2.066,0,0,1,.389.084c.141.046.3.068.441.106a11.656,11.656,0,0,1,1.2.392,10.321,10.321,0,0,1,1.247.567,10.988,10.988,0,0,1,4.085,3.812,9.032,9.032,0,0,1,.645,1.184c0,.015.005.02.017.022l.09.214c0,.015.005.02.017.022l.027.063c-.016.037.016.05.036.068l.048.147c0,.015,0,.021.017.024a.041.041,0,0,0,.006.019A.094.094,0,0,0,21.247,7l.006.041c-.005.015,0,.02.017.022l.026.085c0,.014,0,.02.017.023a.047.047,0,0,0,.006.02c-.014.037.018.052.035.075s0,.037.007.055,0,.02.016.024,0,.027.005.04a1.7,1.7,0,0,0,.1.3l.027.085c0,.015,0,.022.016.025s.005.026.008.039-.013.036.013.044c0,.014,0,.028.006.042s-.01.036.015.044l.028.107c-.005.014,0,.021.016.025l.007.039a1.906,1.906,0,0,0,.1.408l.006.043a.264.264,0,0,0,.037.15c0,.014,0,.029.006.043s-.018.05.016.065l.006.043c0,.024-.018.05.016.065,0,.014,0,.028.006.043a.107.107,0,0,0,.021.106v.022a.115.115,0,0,0,.022.107V9.25a1.658,1.658,0,0,0,.06.387c0,.014.006.028.009.043,0,.044-.027.089.012.129,0,.021,0,.043.006.064-.014.147.035.292.018.44,0,.029.019.043.042.054v1.288a.556.556,0,0,0-.039.3l-.008.106c-.028.017-.015.043-.013.066,0,.05-.006.1-.008.149-.028.018-.016.043-.013.066s-.006.07-.009.106c-.022.01-.017.027-.013.045,0,.035-.005.07-.008.106-.03.019-.014.043-.009.066s-.008.042-.012.063c-.032.019-.014.043-.008.066l-.076.425c-.013,0-.02.011-.014.025-.008.058-.017.115-.025.173l-.011.043-.014.059c-.013,0-.019.012-.015.026s0,.04-.006.061c-.013,0-.02.011-.015.025s0,.041-.006.061c-.013,0-.02.011-.015.025s0,.04-.006.061c-.013,0-.02.011-.015.025l-.027.127c-.012,0-.02.009-.015.024l-.007.061c-.013,0-.02.011-.016.025s0,.027,0,.041-.021.009-.016.023l-.028.126c-.013,0-.02.01-.016.024l-.006.041c-.012,0-.02.009-.016.024l-.006.042c-.012,0-.02.008-.016.023l-.006.043a.178.178,0,0,0-.035.108.05.05,0,0,0-.006.02c-.013,0-.021.008-.017.022s0,.028-.005.042-.021.008-.016.023l-.006.041c-.012,0-.02.009-.016.024l-.048.15c-.012,0-.021.007-.017.022a3.863,3.863,0,0,1-.155.408c-.013,0-.021.006-.017.021l-.047.129c-.013,0-.021.006-.017.021l-.112.258c-.013,0-.021.006-.017.021-.025.059-.048.119-.077.176a11.037,11.037,0,0,1-6.394,5.538c-.015-.005-.02,0-.024.016l-.556.156c-.015-.006-.02,0-.024.015l-.406.092c-.015-.006-.021,0-.025.015a.58.58,0,0,0-.169.028c-.014-.006-.021,0-.025.015l-.082.007c-.018-.006-.035-.01-.044.013l-.45.072c-.018-.006-.035-.011-.044.012l-.278.029c-.017,0-.035-.008-.045.013a.47.47,0,0,0-.173.027c-.037.019-.032.031,0,.042h-.043c.019-.009.042-.025.008-.037a.26.26,0,0,0-.137,0,1.187,1.187,0,0,1-.153.015c-.056,0-.117-.018-.169.021H10.357a.749.749,0,0,0-.3-.018.138.138,0,0,0-.139-.018c-.034.013-.009.028.011.036H9.885c.024-.074-.044-.059-.07-.061-.13-.008-.258-.032-.388-.046a7.936,7.936,0,0,1-.964-.179,10,10,0,0,1-1.218-.369,11.832,11.832,0,0,1-1.157-.5,11.055,11.055,0,0,1-3.761-3.079,11.422,11.422,0,0,1-1.519-2.6,9.108,9.108,0,0,1-.325-.925,11.449,11.449,0,0,1-.367-1.6A8.1,8.1,0,0,1,.01,11.583,11.588,11.588,0,0,1,.045,10c.034-.288.068-.576.111-.862A10.33,10.33,0,0,1,.414,8,8.873,8.873,0,0,1,.764,6.978a11.055,11.055,0,0,1,2.9-4.151A11,11,0,0,1,8.745.254a11.422,11.422,0,0,1,1.4-.193c.125-.01.25-.006.372-.021a3.038,3.038,0,0,1,.689,0,3.554,3.554,0,0,0,.365,0A.053.053,0,0,0,11.625,0M10.616,5.537a1.237,1.237,0,0,0-.317.027,4.734,4.734,0,0,0-1.273.321,5.444,5.444,0,0,0-3.406,4,3.876,3.876,0,0,0-.115.814,7.279,7.279,0,0,0,.018.823,5.854,5.854,0,0,0,.119.757,5.25,5.25,0,0,0,.539,1.381,5.492,5.492,0,0,0,2.947,2.528,4.893,4.893,0,0,0,.9.24,5.572,5.572,0,0,0,.96.088c.057,0,.091-.058.144-.036a.98.98,0,0,0,.517-.017,1.233,1.233,0,0,1,.281-.039.28.28,0,0,0,.086,0,5.554,5.554,0,0,0,.647-.167,6.087,6.087,0,0,0,.617-.238,5.988,5.988,0,0,0,.783-.432,6.189,6.189,0,0,0,.756-.623,2.958,2.958,0,0,0,.236-.257c.122-.134.245-.268.361-.407.088-.1.082-.108-.03-.187q-2.145-1.517-4.292-3.032c-.069-.049-.08-.069,0-.116.359-.206.713-.418,1.07-.629L13.9,9.31c.579-.341,1.157-.684,1.737-1.022.086-.05.1-.089.044-.179a5.46,5.46,0,0,0-2.5-2.142,5.264,5.264,0,0,0-1.159-.349,7.486,7.486,0,0,0-1.181-.1,1.27,1.27,0,0,1-.222.018" transform="translate(0 0)" fill="#e7181b"/>
      <path id="Path_3660" data-name="Path 3660" d="M47.361,21.33h.059v.064a.078.078,0,0,0,0,.107v.322c-.023-.012-.045-.025-.042-.054.017-.148-.032-.293-.018-.44" transform="translate(-25.42 -11.457)" fill="#fef3f4"/>
      <path id="Path_3661" data-name="Path 3661" d="M47.4,25.48a.556.556,0,0,1,.039-.3v.3H47.4" transform="translate(-25.441 -13.525)" fill="#fef3f4"/>
      <path id="Path_3662" data-name="Path 3662" d="M25.095,47.488c.052-.039.113-.022.169-.021a1.2,1.2,0,0,0,.153-.015v.036Z" transform="translate(-13.47 -25.488)" fill="#fef3f4"/>
      <path id="Path_3663" data-name="Path 3663" d="M21.71,47.483a.748.748,0,0,1,.3.018h-.3v-.018" transform="translate(-11.653 -25.501)" fill="#fef3f4"/>
      <path id="Path_3664" data-name="Path 3664" d="M25.791,47.476V47.44a.256.256,0,0,1,.137,0c.034.012.011.028-.008.037Z" transform="translate(-13.844 -25.476)" fill="#fff"/>
      <path id="Path_3665" data-name="Path 3665" d="M21.529,47.457v.018H21.4c-.019-.008-.045-.023-.01-.036a.137.137,0,0,1,.139.018" transform="translate(-11.472 -25.475)" fill="#fff"/>
      <path id="Path_3666" data-name="Path 3666" d="M47.4,25.829h.039v.129l-.047-.023.008-.106" transform="translate(-25.437 -13.874)" fill="#fff"/>
      <path id="Path_3667" data-name="Path 3667" d="M47.369,26.057l.047.023v.043h-.061c0-.024-.015-.049.013-.066" transform="translate(-25.417 -13.996)" fill="#fef3f4"/>
      <path id="Path_3668" data-name="Path 3668" d="M47.467,21.576a.078.078,0,0,1,0-.107Z" transform="translate(-25.467 -11.532)" fill="#fff"/>
      <path id="Path_3669" data-name="Path 3669" d="M16.992,11.941a1.27,1.27,0,0,0,.222-.018,7.486,7.486,0,0,1,1.181.1,5.264,5.264,0,0,1,1.159.349,5.46,5.46,0,0,1,2.5,2.142c.057.09.043.129-.044.179-.58.338-1.159.681-1.737,1.022l-1.732,1.02c-.356.21-.711.423-1.07.629-.083.047-.072.067,0,.116q2.147,1.514,4.292,3.032c.113.079.118.084.03.187-.117.139-.239.273-.361.407a2.959,2.959,0,0,1-.236.257,6.189,6.189,0,0,1-.756.623,5.988,5.988,0,0,1-.783.432,6.087,6.087,0,0,1-.617.238,5.554,5.554,0,0,1-.647.167.28.28,0,0,1-.086,0,1.233,1.233,0,0,0-.281.039.98.98,0,0,1-.517.017c-.053-.022-.086.036-.144.036a5.572,5.572,0,0,1-.96-.088,4.892,4.892,0,0,1-.9-.24,5.492,5.492,0,0,1-2.947-2.528,5.25,5.25,0,0,1-.539-1.381,5.853,5.853,0,0,1-.119-.757,7.279,7.279,0,0,1-.018-.823A3.876,3.876,0,0,1,12,16.285a5.444,5.444,0,0,1,3.406-4,4.734,4.734,0,0,1,1.273-.321,1.237,1.237,0,0,1,.317-.027" transform="translate(-6.375 -6.404)" fill="#fef3f4"/>
      <path id="Path_3670" data-name="Path 3670" d="M47.176,19.986a.51.51,0,0,1,.06.386,1.655,1.655,0,0,1-.06-.386" transform="translate(-25.322 -10.735)" fill="#fef3f4"/>
      <path id="Path_3671" data-name="Path 3671" d="M46.671,17.574a.709.709,0,0,1,.1.408,1.933,1.933,0,0,1-.1-.408" transform="translate(-25.051 -9.44)" fill="#fef3f4"/>
      <path id="Path_3672" data-name="Path 3672" d="M46.156,15.951a.416.416,0,0,1,.1.3,1.7,1.7,0,0,1-.1-.3" transform="translate(-24.775 -8.568)" fill="#fef3f4"/>
      <path id="Path_3673" data-name="Path 3673" d="M46.9,18.548a.114.114,0,0,1,.037.15.26.26,0,0,1-.037-.15" transform="translate(-25.174 -9.963)" fill="#fef3f4"/>
      <path id="Path_3674" data-name="Path 3674" d="M47.312,20.913c.055.038.041.083.012.13-.039-.04-.016-.086-.012-.13" transform="translate(-25.39 -11.233)" fill="#fef3f4"/>
      <path id="Path_3675" data-name="Path 3675" d="M46.286,31.159c.029.049.01.083-.035.108a.178.178,0,0,1,.035-.108" transform="translate(-24.826 -16.737)" fill="#fef3f4"/>
      <path id="Path_3676" data-name="Path 3676" d="M47.079,19.429c.055.026.042.066.021.106a.107.107,0,0,1-.021-.106" transform="translate(-25.267 -10.436)" fill="#fef3f4"/>
      <path id="Path_3677" data-name="Path 3677" d="M47.124,19.707c.057.025.043.065.022.106a.114.114,0,0,1-.022-.106" transform="translate(-25.292 -10.585)" fill="#fef3f4"/>
      <path id="Path_3678" data-name="Path 3678" d="M47.231,27.216c.03.026.031.049-.009.066-.005-.023-.021-.048.009-.066" transform="translate(-25.342 -14.619)" fill="#fef3f4"/>
      <path id="Path_3679" data-name="Path 3679" d="M47.186,27.5c.029.026.03.048-.008.066-.006-.023-.024-.047.008-.066" transform="translate(-25.318 -14.768)" fill="#fef3f4"/>
      <path id="Path_3680" data-name="Path 3680" d="M47.323,26.521c.031.029.029.051-.013.066,0-.024-.015-.049.013-.066" transform="translate(-25.392 -14.245)" fill="#fef3f4"/>
      <path id="Path_3681" data-name="Path 3681" d="M46.986,18.965c.039.013.044.035.016.065-.034-.015-.019-.041-.016-.065" transform="translate(-25.217 -10.187)" fill="#fef3f4"/>
      <path id="Path_3682" data-name="Path 3682" d="M47.033,19.2c.039.013.044.035.016.065-.034-.015-.019-.041-.016-.065" transform="translate(-25.242 -10.311)" fill="#fef3f4"/>
      <path id="Path_3683" data-name="Path 3683" d="M45.786,14.931c.046.015.036.054.037.088a.093.093,0,0,1-.037-.088" transform="translate(-24.576 -8.02)" fill="#fef3f4"/>
      <path id="Path_3684" data-name="Path 3684" d="M46.016,15.534c.039.012.037.044.034.075-.017-.023-.049-.038-.034-.075" transform="translate(-24.697 -8.344)" fill="#fef3f4"/>
      <path id="Path_3685" data-name="Path 3685" d="M45.551,14.375c.036.01.038.038.037.068-.02-.018-.052-.03-.037-.068" transform="translate(-24.448 -7.721)" fill="#fef3f4"/>
      <path id="Path_3686" data-name="Path 3686" d="M46.524,17.111c.026.007.041.019.015.044-.025-.008-.02-.025-.015-.044" transform="translate(-24.971 -9.191)" fill="#fef3f4"/>
      <path id="Path_3687" data-name="Path 3687" d="M46.48,16.925c.026.008.039.02.014.044-.026-.008-.019-.026-.014-.044" transform="translate(-24.946 -9.091)" fill="#fef3f4"/>
      <path id="Path_3688" data-name="Path 3688" d="M47.278,26.892c.028.025.014.037-.013.044,0-.017-.008-.035.013-.044" transform="translate(-25.368 -14.445)" fill="#fef3f4"/>
      <path id="Path_3689" data-name="Path 3689" d="M26.572,47.349c-.008.028-.021.041-.045.012.011-.021.028-.016.045-.012" transform="translate(-14.239 -25.431)" fill="#fef3f4"/>
      <path id="Path_3690" data-name="Path 3690" d="M27.269,47.257c-.008.027-.021.039-.044.012.009-.023.027-.019.044-.012" transform="translate(-14.613 -25.381)" fill="#fef3f4"/>
      <path id="Path_3691" data-name="Path 3691" d="M28.336,47.073c-.008.026-.02.04-.044.014.009-.024.026-.02.044-.014" transform="translate(-15.186 -25.282)" fill="#fef3f4"/>
      <path id="Path_3692" data-name="Path 3692" d="M46.927,28.983c.021.021.013.034-.012.043l.012-.043" transform="translate(-25.182 -15.568)" fill="#fef3f4"/>
      <path id="Path_3693" data-name="Path 3693" d="M46.866,29.2l-.015.026c0-.014,0-.022.015-.026" transform="translate(-25.147 -15.686)" fill="#fef3f4"/>
      <path id="Path_3694" data-name="Path 3694" d="M46.82,29.39l-.015.025c0-.014,0-.022.015-.025" transform="translate(-25.122 -15.786)" fill="#fef3f4"/>
      <path id="Path_3695" data-name="Path 3695" d="M45.737,14.839l.017.024c-.013,0-.021-.009-.017-.024" transform="translate(-24.549 -7.97)" fill="#fef3f4"/>
      <path id="Path_3696" data-name="Path 3696" d="M46.726,29.761l-.016.025c0-.014,0-.022.016-.025" transform="translate(-25.072 -15.986)" fill="#fef3f4"/>
      <path id="Path_3697" data-name="Path 3697" d="M46.635,30.089l-.016.024c-.005-.015,0-.02.016-.024" transform="translate(-25.023 -16.162)" fill="#fef3f4"/>
      <path id="Path_3698" data-name="Path 3698" d="M46.587,30.271l-.016.025c0-.014,0-.021.016-.025" transform="translate(-24.997 -16.26)" fill="#fef3f4"/>
      <path id="Path_3699" data-name="Path 3699" d="M46.543,30.414l-.016.024c-.005-.015,0-.02.016-.024" transform="translate(-24.973 -16.336)" fill="#fef3f4"/>
      <path id="Path_3700" data-name="Path 3700" d="M46.449,30.737l-.016.024c0-.014,0-.021.016-.024" transform="translate(-24.923 -16.51)" fill="#fef3f4"/>
      <path id="Path_3701" data-name="Path 3701" d="M46.4,30.878l-.017.024c0-.015,0-.02.017-.024" transform="translate(-24.898 -16.586)" fill="#fef3f4"/>
      <path id="Path_3702" data-name="Path 3702" d="M46.358,31.018l-.016.023c0-.015,0-.02.016-.023" transform="translate(-24.874 -16.661)" fill="#fef3f4"/>
      <path id="Path_3703" data-name="Path 3703" d="M45.877,15.21l.017.022c-.013,0-.022-.007-.017-.022" transform="translate(-24.625 -8.17)" fill="#fef3f4"/>
      <path id="Path_3704" data-name="Path 3704" d="M46.218,31.436l-.017.023c0-.015,0-.02.017-.023" transform="translate(-24.799 -16.885)" fill="#fef3f4"/>
      <path id="Path_3705" data-name="Path 3705" d="M46.172,31.574l-.016.023c0-.014,0-.02.016-.023" transform="translate(-24.774 -16.959)" fill="#fef3f4"/>
      <path id="Path_3706" data-name="Path 3706" d="M46.125,31.712l-.016.023c0-.014,0-.02.016-.023" transform="translate(-24.749 -17.034)" fill="#fef3f4"/>
      <path id="Path_3707" data-name="Path 3707" d="M45.986,32.086l-.017.022c0-.015,0-.019.017-.022" transform="translate(-24.674 -17.234)" fill="#fef3f4"/>
      <path id="Path_3708" data-name="Path 3708" d="M45.616,33.016l-.017.021c0-.015,0-.02.017-.021" transform="translate(-24.475 -17.734)" fill="#fef3f4"/>
      <path id="Path_3709" data-name="Path 3709" d="M45.477,33.34l-.017.021c0-.015,0-.02.017-.021" transform="translate(-24.401 -17.908)" fill="#fef3f4"/>
      <path id="Path_3710" data-name="Path 3710" d="M45.2,33.943l-.017.021c0-.015,0-.02.017-.021" transform="translate(-24.251 -18.232)" fill="#fef3f4"/>
      <path id="Path_3711" data-name="Path 3711" d="M45.459,14.19l.017.022c-.013,0-.021-.007-.017-.022" transform="translate(-24.4 -7.622)" fill="#fef3f4"/>
      <path id="Path_3712" data-name="Path 3712" d="M31.188,46.332l-.024.016c0-.012.009-.021.024-.016" transform="translate(-16.728 -24.886)" fill="#fef3f4"/>
      <path id="Path_3713" data-name="Path 3713" d="M29.936,46.7l-.024.015c0-.012.008-.021.024-.015" transform="translate(-16.056 -25.086)" fill="#fef3f4"/>
      <path id="Path_3714" data-name="Path 3714" d="M29.007,46.937l-.025.015c0-.012.01-.021.025-.015" transform="translate(-15.556 -25.21)" fill="#fef3f4"/>
      <path id="Path_3715" data-name="Path 3715" d="M28.588,47.029l-.025.014c0-.012.011-.02.025-.014" transform="translate(-15.332 -25.26)" fill="#fef3f4"/>
      <path id="Path_3716" data-name="Path 3716" d="M47.006,28.555l-.014.025c-.006-.014,0-.021.014-.025" transform="translate(-25.223 -15.338)" fill="#fef3f4"/>
      <path id="Path_3717" data-name="Path 3717" d="M46.619,17.436l.016.025c-.013,0-.021-.01-.016-.025" transform="translate(-25.023 -9.365)" fill="#fef3f4"/>
      <path id="Path_3718" data-name="Path 3718" d="M46.109,15.813l.016.024c-.012,0-.02-.009-.016-.024" transform="translate(-24.749 -8.494)" fill="#fef3f4"/>
      <path id="Path_3719" data-name="Path 3719" d="M45.97,15.442l.017.023c-.013,0-.021-.008-.017-.023" transform="translate(-24.674 -8.294)" fill="#fef3f4"/>
      <path id="Path_3720" data-name="Path 3720" d="M45.227,13.68l.017.023c-.013,0-.021-.008-.017-.023" transform="translate(-24.276 -7.348)" fill="#fef3f4"/>
      <path id="Path_3721" data-name="Path 3721" d="M46.433,16.787l.016.025c-.013,0-.02-.011-.016-.025" transform="translate(-24.923 -9.017)" fill="#fef3f4"/>
      <path id="Path_3722" data-name="Path 3722" d="M46.774,29.576l-.015.025c0-.014,0-.021.015-.025" transform="translate(-25.097 -15.886)" fill="#fef3f4"/>
    </g>
  </g>
</svg>
