<svg xmlns="http://www.w3.org/2000/svg" xmlns:xlink="http://www.w3.org/1999/xlink" width="22" height="22" viewBox="0 0 22 22">
  <defs>
    <clipPath id="clip-path">
      <rect id="Rectangle_5466" data-name="Rectangle 5466" width="22" height="22" fill="none"/>
    </clipPath>
  </defs>
  <g id="Group_12420" data-name="Group 12420" transform="translate(0 0)">
    <g id="Group_12419" data-name="Group 12419" transform="translate(0 0.001)" clip-path="url(#clip-path)">
      <path id="Path_18362" data-name="Path 18362" d="M10.144,0h1.677a2.567,2.567,0,0,0,.726.12,9.4,9.4,0,0,1,2.465.638A10.984,10.984,0,0,1,22,10.872a12.032,12.032,0,0,1-.108,1.633,9.2,9.2,0,0,1-.724,2.68,10.9,10.9,0,0,1-9.451,6.779A8.534,8.534,0,0,1,9.623,21.9a11.42,11.42,0,0,1-2.59-.657A10.972,10.972,0,0,1,1.376,16.3,10.2,10.2,0,0,1,.153,12.846c-.052-.333-.071-.671-.153-1v-1.76c.1-.152.054-.33.077-.494A11.016,11.016,0,0,1,5.264,1.616,10.47,10.47,0,0,1,9.418.122,2.615,2.615,0,0,0,10.144,0m7.89,6.632a6,6,0,0,1-1.5.369,2.9,2.9,0,0,0,1.151-1.489c.015-.016.025-.034,0-.049,0,0-.02.014-.03.021a7.152,7.152,0,0,1-1.492.584.447.447,0,0,1-.466-.106,2.8,2.8,0,0,0-2.446-.706A2.9,2.9,0,0,0,10.86,8.572c.034.211,0,.25-.2.224A9.483,9.483,0,0,1,8.42,8.285,8.335,8.335,0,0,1,5.677,6.6a11.382,11.382,0,0,1-.811-.851,2.707,2.707,0,0,0-.389,1.118,2.924,2.924,0,0,0,1.065,2.6c.027.023.055.045.082.069s.056.055.034.091-.062.024-.1.019a3.536,3.536,0,0,1-.915-.265c-.062-.028-.138-.1-.193-.048-.039.038-.035.138-.021.2a4.217,4.217,0,0,0,.259.938,3.067,3.067,0,0,0,2.034,1.7,3.4,3.4,0,0,1-1.252.078,3.077,3.077,0,0,0,2.7,2.024,6.085,6.085,0,0,1-4.18,1.224A7.91,7.91,0,0,0,6.6,16.584a8.178,8.178,0,0,0,1.347.19h.778a7.457,7.457,0,0,0,1.411-.173,7.756,7.756,0,0,0,3.9-2.022,8.446,8.446,0,0,0,2.635-6.234.46.46,0,0,1,.193-.412,4.77,4.77,0,0,0,1.189-1.28l.024-.024h-.046" transform="translate(0 0)" fill="#1595d6"/>
      <path id="Path_18363" data-name="Path 18363" d="M20.017,8.569a2.914,2.914,0,0,1-1.151,1.49,6.012,6.012,0,0,0,1.5-.369.15.15,0,0,0,.022.023,4.79,4.79,0,0,1-1.189,1.28.459.459,0,0,0-.193.412,8.448,8.448,0,0,1-2.636,6.234,7.758,7.758,0,0,1-3.9,2.021,7.406,7.406,0,0,1-1.411.173,1.831,1.831,0,0,0-.778,0,8.152,8.152,0,0,1-1.346-.19,7.914,7.914,0,0,1-2.614-1.078,6.082,6.082,0,0,0,4.18-1.224,3.076,3.076,0,0,1-2.7-2.024,3.392,3.392,0,0,0,1.252-.078,3.065,3.065,0,0,1-2.034-1.7,4.253,4.253,0,0,1-.26-.938.264.264,0,0,1,.022-.2c.055-.054.13.02.193.048a3.5,3.5,0,0,0,.915.265c.034.005.076.017.1-.019s-.006-.067-.034-.091-.055-.046-.082-.069a2.926,2.926,0,0,1-1.065-2.6A2.7,2.7,0,0,1,7.2,8.8a11.137,11.137,0,0,0,.811.851,8.332,8.332,0,0,0,2.743,1.687,9.5,9.5,0,0,0,2.236.512c.206.026.238-.013.2-.224a2.9,2.9,0,0,1,2.393-3.317,2.8,2.8,0,0,1,2.446.706.448.448,0,0,0,.467.106,7.18,7.18,0,0,0,1.491-.584l.029.028" transform="translate(-2.331 -3.058)" fill="#feffff"/>
      <path id="Path_18364" data-name="Path 18364" d="M12.593,26.587a1.831,1.831,0,0,1,.778,0h-.778" transform="translate(-4.643 -9.813)" fill="#9cd9f3"/>
    </g>
  </g>
</svg>
