<svg xmlns="http://www.w3.org/2000/svg" xmlns:xlink="http://www.w3.org/1999/xlink" width="40" height="33.333" viewBox="0 0 40 33.333">
  <defs>
    <clipPath id="clip-path">
      <rect id="Rectangle_7" data-name="Rectangle 7" width="40" height="33.333" fill="#fff"/>
    </clipPath>
  </defs>
  <g id="Group_19" data-name="Group 19" clip-path="url(#clip-path)">
    <path id="Path_154" data-name="Path 154" d="M0,15.182a2.178,2.178,0,0,1,2.41-1.667H28.682c-.023-.2-.169-.279-.27-.38q-3.387-3.4-6.777-6.792-.592-.594-1.171-1.2a2.2,2.2,0,0,1-.1-3.067A12.776,12.776,0,0,1,21.909.532,2.188,2.188,0,0,1,24.745.511a4.587,4.587,0,0,1,.4.366Q32.127,7.854,39.1,14.832a2.314,2.314,0,0,1,.013,3.648q-6.991,6.992-13.983,13.983a2.293,2.293,0,0,1-3.59.009c-.406-.4-.826-.795-1.194-1.23a2.15,2.15,0,0,1,0-2.887c.115-.14.245-.269.374-.4q3.879-3.871,7.758-7.741c.105-.105.252-.184.283-.359a.87.87,0,0,0-.459-.042q-12.891,0-25.781,0A2.271,2.271,0,0,1,0,18.068Z" transform="translate(0 0)" fill="#fff"/>
  </g>
</svg>
