<svg xmlns="http://www.w3.org/2000/svg" width="12" height="12" viewBox="0 0 12 12">
  <g id="Group_1788" data-name="Group 1788" transform="translate(-152 -214)">
    <path id="Polygon_1" data-name="Polygon 1" d="M7.354.655a1,1,0,0,1,1.468.608l.254.952a1,1,0,0,0,.709.709l.952.254a1,1,0,0,1,.608,1.468L10.85,5.5a1,1,0,0,0,0,1l.494.853a1,1,0,0,1-.608,1.468l-.952.254a1,1,0,0,0-.709.709l-.254.952a1,1,0,0,1-1.468.608L6.5,10.85a1,1,0,0,0-1,0l-.853.494a1,1,0,0,1-1.468-.608l-.254-.952a1,1,0,0,0-.709-.709l-.952-.254A1,1,0,0,1,.655,7.354L1.15,6.5a1,1,0,0,0,0-1L.655,4.646a1,1,0,0,1,.608-1.468l.952-.254a1,1,0,0,0,.709-.709l.254-.952A1,1,0,0,1,4.646.655L5.5,1.15a1,1,0,0,0,1,0Z" transform="translate(152 214)" fill="#bf4e1b"/>
    <path id="Path_3723" data-name="Path 3723" d="M.185.978c.045,0,.087.037.129.079q.615.616,1.23,1.232c.041.041.061.047.107,0-.227.217.066-.157-.214.111A27.763,27.763,0,0,0,3.975.071a.222.222,0,0,1,.1-.066.166.166,0,0,1,.185.072.164.164,0,0,1-.034.207c-.175.17-.352.339-.529.508L1.749,2.648c-.124.118-.191.117-.313,0L.077,1.284a.173.173,0,0,1-.063-.2.164.164,0,0,1,.172-.1" transform="translate(155.86 218.958)" fill="#fff" stroke="#fff" stroke-width="1"/>
  </g>
</svg>
