<svg xmlns="http://www.w3.org/2000/svg" xmlns:xlink="http://www.w3.org/1999/xlink" width="30.89" height="18.023" viewBox="0 0 30.89 18.023">
  <defs>
    <clipPath id="clip-path">
      <rect id="Rectangle_259" data-name="Rectangle 259" width="30.89" height="18.023" fill="none"/>
    </clipPath>
  </defs>
  <g id="Group_1709" data-name="Group 1709" transform="translate(0 0)">
    <g id="Group_1708" data-name="Group 1708" transform="translate(0 0)" clip-path="url(#clip-path)">
      <path id="Path_3231" data-name="Path 3231" d="M30.89,9.254a28.46,28.46,0,0,1-9.968,7.568A13.337,13.337,0,0,1,14.695,18a14.453,14.453,0,0,1-4.721-1.181,25.309,25.309,0,0,1-6.515-4.152A30.225,30.225,0,0,1,.251,9.528a.655.655,0,0,1,0-1.032,29.483,29.483,0,0,1,8.659-6.8A14.879,14.879,0,0,1,14.486.041,14.95,14.95,0,0,1,20.664.9a21.367,21.367,0,0,1,8.491,5.776,25.12,25.12,0,0,1,1.735,2.1ZM15.456,16.73a12.927,12.927,0,0,0,5.114-1.181,27.955,27.955,0,0,0,8.708-6.428c.151-.157.059-.232-.03-.341a23.039,23.039,0,0,0-5.324-4.8A15.74,15.74,0,0,0,16,1.31,12.526,12.526,0,0,0,10.2,2.535a27.977,27.977,0,0,0-8.527,6.32c-.142.148-.088.222.025.338a28.755,28.755,0,0,0,7.909,6.019,13.439,13.439,0,0,0,5.847,1.519" transform="translate(0 0)" fill="#0a0a0a" stroke="#000" stroke-width="0.7"/>
      <path id="Path_3232" data-name="Path 3232" d="M19.085,8.436A5.152,5.152,0,1,1,13.934,3.29a5.16,5.16,0,0,1,5.152,5.146M13.956,4.585a3.859,3.859,0,1,0,3.837,3.873,3.891,3.891,0,0,0-3.837-3.873" transform="translate(1.519 0.569)" fill="#0a0a0a" stroke="#000" stroke-width="0.7"/>
    </g>
  </g>
</svg>
