<svg xmlns="http://www.w3.org/2000/svg" xmlns:xlink="http://www.w3.org/1999/xlink" width="26.234" height="39.883" viewBox="0 0 26.234 39.883">
  <defs>
    <clipPath id="clip-path">
      <rect id="Rectangle_66" data-name="Rectangle 66" width="26.234" height="39.883" fill="none"/>
    </clipPath>
  </defs>
  <g id="Group_1390" data-name="Group 1390" transform="translate(0 0)">
    <g id="Group_1389" data-name="Group 1389" transform="translate(0 0)" clip-path="url(#clip-path)">
      <path id="Path_1744" data-name="Path 1744" d="M6.26,35.758a1.391,1.391,0,0,1-.872-1.325,1.229,1.229,0,0,1,1.256-1.168c1.624,0,3.249-.009,4.87.005.282,0,.369-.051.365-.353q-.024-2.572,0-5.143c0-.26-.089-.323-.322-.357A12.959,12.959,0,0,1,.816,18.923,11.889,11.889,0,0,1,0,14.517a1.245,1.245,0,0,1,1.219-1.366A1.264,1.264,0,0,1,2.513,14.5a10.6,10.6,0,0,0,21.061,1.664,11.041,11.041,0,0,0,.151-1.664,1.26,1.26,0,1,1,2.508.059A13.159,13.159,0,0,1,15.907,27.221c-.416.091-.841.145-1.265.2-.2.026-.285.087-.282.313.009,1.754.013,3.507,0,5.26,0,.28.123.273.323.273,1.586-.005,3.169,0,4.753,0a1.3,1.3,0,0,1,1.39.938,1.271,1.271,0,0,1-.816,1.5c-.017.008-.021.039-.03.06Z" transform="translate(0 4.124)" fill="#080808"/>
      <path id="Path_1745" data-name="Path 1745" d="M3.877,13.339c0-1.819-.008-3.638,0-5.457A8.029,8.029,0,0,1,19.826,6.7a7.36,7.36,0,0,1,.106,1.318c-.007,3.547,0,7.094-.005,10.641A8.024,8.024,0,0,1,3.941,19.688a8.241,8.241,0,0,1-.064-1.048q0-2.65,0-5.3m2.5-.029q0,2.572,0,5.144a6.964,6.964,0,0,0,.147,1.429,5.522,5.522,0,0,0,10.906-1.31q.012-5.242,0-10.484a6.3,6.3,0,0,0-.148-1.312,5.524,5.524,0,0,0-10.9,1.349c-.005,1.727,0,3.456,0,5.184" transform="translate(1.215 -0.001)" fill="#080808"/>
    </g>
  </g>
</svg>
