<svg xmlns="http://www.w3.org/2000/svg" xmlns:xlink="http://www.w3.org/1999/xlink" width="22" height="22" viewBox="0 0 22 22">
  <defs>
    <clipPath id="clip-path">
      <rect id="Rectangle_295" data-name="Rectangle 295" width="22" height="22" fill="none"/>
    </clipPath>
  </defs>
  <g id="Whatsapp" transform="translate(0 0)">
    <g id="Group_1782" data-name="Group 1782" transform="translate(0 0)" clip-path="url(#clip-path)">
      <path id="Path_3649" data-name="Path 3649" d="M11.827,22H10.11c-.019-.055-.069-.046-.108-.044a4.471,4.471,0,0,1-1.087-.142,11.565,11.565,0,0,1-1.841-.535,10.962,10.962,0,0,1-5.329-4.361A10.82,10.82,0,0,1,.033,11.794,10.547,10.547,0,0,1,.282,8.524a11.085,11.085,0,0,1,3.371-5.7A11.6,11.6,0,0,1,5.929,1.231,10.63,10.63,0,0,1,8.737.24,12.279,12.279,0,0,1,10.894,0a11.233,11.233,0,0,1,1.27.071A10.689,10.689,0,0,1,16.5,1.47a10.433,10.433,0,0,1,1.934,1.422,11.535,11.535,0,0,1,1.122,1.2,10.838,10.838,0,0,1,1.8,3.223,10.606,10.606,0,0,1,.527,2.173,1.466,1.466,0,0,0,.118.649v1.719a.486.486,0,0,0-.083.271,7.38,7.38,0,0,1-.224,1.433,10.93,10.93,0,0,1-2.4,4.644A11.723,11.723,0,0,1,17.38,19.95a10.842,10.842,0,0,1-2.622,1.392,8.941,8.941,0,0,1-2.108.535c-.276.031-.549.082-.824.123m5.984-11.34c.015-.023,0-.04-.014-.054a5.788,5.788,0,0,0-.128-1A6.522,6.522,0,0,0,15.992,6.3a6.686,6.686,0,0,0-2.417-1.671,7.169,7.169,0,0,0-2.8-.5,5.973,5.973,0,0,0-1.457.2,6.8,6.8,0,0,0-4.464,3.68,7.055,7.055,0,0,0-.67,2.74,6.408,6.408,0,0,0,.033.808,7.017,7.017,0,0,0,.518,2.05c.075.184.218.355.17.577-.054.253-.112.506-.164.759-.173.837-.342,1.674-.515,2.511-.061.294.078.447.358.382,1.064-.247,2.128-.491,3.19-.748a.515.515,0,0,1,.382.039,6.445,6.445,0,0,0,2.755.646,6.638,6.638,0,0,0,1.93-.281,6.62,6.62,0,0,0,2.664-1.449A6.816,6.816,0,0,0,17.8,11.3a.067.067,0,0,0,.014-.1,2.745,2.745,0,0,0,0-.544" transform="translate(0 0)" fill="#3b9835"/>
      <path id="Path_3650" data-name="Path 3650" d="M22.556,15.985a6.819,6.819,0,0,1-2.287,4.749A6.624,6.624,0,0,1,17.6,22.182a6.638,6.638,0,0,1-1.93.281,6.438,6.438,0,0,1-2.755-.646.515.515,0,0,0-.382-.039c-1.061.257-2.126.5-3.19.748-.28.065-.419-.087-.358-.382.174-.837.343-1.674.515-2.511.052-.253.11-.506.164-.759.048-.223-.095-.394-.17-.577a7.017,7.017,0,0,1-.518-2.05,6.408,6.408,0,0,1-.033-.808,7.055,7.055,0,0,1,.67-2.74,6.8,6.8,0,0,1,4.464-3.68,5.973,5.973,0,0,1,1.457-.2,7.176,7.176,0,0,1,2.8.5,6.686,6.686,0,0,1,2.417,1.671,6.522,6.522,0,0,1,1.677,3.305,5.788,5.788,0,0,1,.128,1c0,.007-.006.014,0,.019a.242.242,0,0,0,.018.035,2.745,2.745,0,0,1,0,.544l-.014.1m-6.7,4.985a4.638,4.638,0,0,0,1.524-.259A5.329,5.329,0,0,0,21,14.586,5.308,5.308,0,0,0,15.782,10.3a5.237,5.237,0,0,0-4.187,1.979,5.392,5.392,0,0,0-.679,1.113,5.981,5.981,0,0,0-.482,1.907,5.6,5.6,0,0,0,.724,3.046.5.5,0,0,1,.054.349c-.126.618-.247,1.237-.39,1.85-.036.151.006.117.1.094.468-.114.942-.212,1.407-.339a1.283,1.283,0,0,1,1.05.085,4.816,4.816,0,0,0,2.476.584" transform="translate(-4.759 -4.684)" fill="#fefefe"/>
      <path id="Path_3651" data-name="Path 3651" d="M38.032,24.008l.014-.1a.067.067,0,0,1-.014.1" transform="translate(-20.235 -12.707)" fill="#a4ce90"/>
      <path id="Path_3652" data-name="Path 3652" d="M38.041,22.689a.243.243,0,0,1-.018-.035c0-.005,0-.013,0-.019.018.014.029.03.014.054" transform="translate(-20.23 -12.029)" fill="#a4ce90"/>
      <path id="Path_3653" data-name="Path 3653" d="M17.533,22.656a4.816,4.816,0,0,1-2.476-.584,1.283,1.283,0,0,0-1.05-.085c-.465.127-.938.225-1.407.339-.094.023-.135.057-.1-.094.143-.613.264-1.233.39-1.85a.5.5,0,0,0-.054-.349,5.6,5.6,0,0,1-.724-3.046,5.981,5.981,0,0,1,.482-1.907,5.389,5.389,0,0,1,.679-1.113,5.235,5.235,0,0,1,4.187-1.979,5.308,5.308,0,0,1,5.216,4.285,5.329,5.329,0,0,1-3.62,6.124,4.638,4.638,0,0,1-1.524.259M14.01,15.711a3.179,3.179,0,0,0,.558,1.747,7.442,7.442,0,0,0,1.563,1.748,6.115,6.115,0,0,0,2.112,1.266,3.057,3.057,0,0,0,1.351.142,2.022,2.022,0,0,0,1.4-1.031.5.5,0,0,0-.271-.793c-.353-.106-.715-.183-1.06-.309a.714.714,0,0,0-.919.269.607.607,0,0,1-.075.076.575.575,0,0,1-.751.073,6.4,6.4,0,0,1-.985-.725,7.691,7.691,0,0,1-1.026-1.051.542.542,0,0,1,.009-.775c.064-.084.14-.16.2-.247a.457.457,0,0,0,.1-.47c-.195-.443-.377-.892-.58-1.331a.532.532,0,0,0-.676-.213,2.006,2.006,0,0,0-.951,1.625" transform="translate(-6.438 -6.371)" fill="#3b9835"/>
      <path id="Path_3654" data-name="Path 3654" d="M16.181,18.028a2.006,2.006,0,0,1,.951-1.625.532.532,0,0,1,.676.213c.2.439.386.888.58,1.331a.457.457,0,0,1-.1.47c-.058.087-.134.163-.2.247a.542.542,0,0,0-.009.775,7.691,7.691,0,0,0,1.026,1.051,6.4,6.4,0,0,0,.985.725.575.575,0,0,0,.751-.073.607.607,0,0,0,.075-.076.714.714,0,0,1,.919-.269c.345.127.708.2,1.06.309a.5.5,0,0,1,.271.793,2.022,2.022,0,0,1-1.4,1.031,3.057,3.057,0,0,1-1.351-.142A6.115,6.115,0,0,1,18.3,21.524a7.442,7.442,0,0,1-1.563-1.748,3.179,3.179,0,0,1-.558-1.747" transform="translate(-8.609 -8.688)" fill="#fefefe"/>
    </g>
  </g>
</svg>
