<svg xmlns="http://www.w3.org/2000/svg" width="27.861" height="28" viewBox="0 0 27.861 28">
  <g id="WA_Logo" transform="translate(-1 -0.88)">
    <g id="Group_1728" data-name="Group 1728" transform="translate(1 0.88)">
      <path id="Path_3247" data-name="Path 3247" d="M24.8,4.949A13.877,13.877,0,0,0,2.968,21.688L1,28.88l7.354-1.927a13.874,13.874,0,0,0,6.629,1.689h.006A13.885,13.885,0,0,0,24.8,4.949ZM14.988,26.291h0a11.516,11.516,0,0,1-5.874-1.608l-.424-.25L4.326,25.577l1.167-4.255-.273-.435a11.525,11.525,0,1,1,9.769,5.4Zm6.327-8.631c-.348-.174-2.049-1.01-2.368-1.126s-.551-.174-.778.174-.894,1.126-1.1,1.358-.406.261-.749.087a9.487,9.487,0,0,1-2.786-1.718,10.308,10.308,0,0,1-1.927-2.4c-.2-.348-.023-.534.151-.708.157-.157.348-.406.522-.609a2.373,2.373,0,0,0,.348-.58.64.64,0,0,0-.029-.609c-.087-.174-.778-1.881-1.068-2.571-.279-.673-.569-.586-.778-.6s-.435-.012-.662-.012a1.269,1.269,0,0,0-.923.435A3.88,3.88,0,0,0,7.959,11.67a6.742,6.742,0,0,0,1.416,3.587,15.463,15.463,0,0,0,5.92,5.235,20.13,20.13,0,0,0,1.973.731,4.818,4.818,0,0,0,2.182.139,3.556,3.556,0,0,0,2.339-1.648,2.886,2.886,0,0,0,.2-1.648A2.073,2.073,0,0,0,21.315,17.66Z" transform="translate(-1 -0.88)" fill="#30b44a" fill-rule="evenodd"/>
    </g>
  </g>
</svg>
