<svg xmlns="http://www.w3.org/2000/svg" xmlns:xlink="http://www.w3.org/1999/xlink" width="22" height="22" viewBox="0 0 22 22">
  <defs>
    <clipPath id="clip-path">
      <rect id="Rectangle_5467" data-name="Rectangle 5467" width="22" height="22" fill="none"/>
    </clipPath>
  </defs>
  <g id="Group_12422" data-name="Group 12422" transform="translate(0 0)">
    <g id="Group_12421" data-name="Group 12421" transform="translate(0 0)" clip-path="url(#clip-path)">
      <path id="Path_18365" data-name="Path 18365" d="M11.819,22H10.1a.058.058,0,0,0-.064-.042,5.458,5.458,0,0,1-1.065-.131,7.131,7.131,0,0,1-1.234-.272c-.435-.168-.871-.342-1.3-.536a10.607,10.607,0,0,1-3.009-2.025A10.431,10.431,0,0,1,1.65,16.8a12.262,12.262,0,0,1-1-2.054A10.511,10.511,0,0,1,.044,12,12.864,12.864,0,0,1,.056,9.738a10.839,10.839,0,0,1,.476-2.2A10.607,10.607,0,0,1,.994,6.412a11.072,11.072,0,0,1,2.015-2.99A10.475,10.475,0,0,1,4.834,1.881,10.619,10.619,0,0,1,7.619.522,9.068,9.068,0,0,1,9.533.092,10.7,10.7,0,0,1,11.506.024c.588.056,1.171.111,1.752.222a10.356,10.356,0,0,1,3.335,1.282A10.8,10.8,0,0,1,19.55,4.094a10.692,10.692,0,0,1,1.769,3.135,10.941,10.941,0,0,1,.562,2.283,1.4,1.4,0,0,0,.12.626v1.719a3.161,3.161,0,0,0-.162.938,11.21,11.21,0,0,1-.6,2.208,10.3,10.3,0,0,1-1.279,2.317,11.122,11.122,0,0,1-1,1.241,10.673,10.673,0,0,1-2.115,1.722,12.943,12.943,0,0,1-1.723.9,9.511,9.511,0,0,1-1.989.575,8.069,8.069,0,0,0-.828.157c-.162.049-.336-.012-.486.079M14.694,6.876c-.071-.071-.161-.047-.244-.047q-3.329,0-6.658,0c-.076,0-.158-.023-.227.035a2.689,2.689,0,0,0-1.048.178A2.127,2.127,0,0,0,5.209,8.924c-.015,1.294,0,2.588.005,3.883a2.924,2.924,0,0,0,.025.483,2.232,2.232,0,0,0,2.238,1.872l7.036,0a.307.307,0,0,0,.186-.036,2.158,2.158,0,0,0,1.684-.938,2.213,2.213,0,0,0,.409-1.364c-.01-1.294.032-2.587-.025-3.882a2.2,2.2,0,0,0-1.346-1.914c-.24-.1-.491-.076-.726-.156" transform="translate(0 0)" fill="#e60019"/>
      <path id="Path_18366" data-name="Path 18366" d="M12.49,21.772A2.232,2.232,0,0,1,10.253,19.9a2.98,2.98,0,0,1-.025-.483c-.007-1.294-.02-2.588-.005-3.883a2.127,2.127,0,0,1,1.309-1.882,2.689,2.689,0,0,1,1.048-.178c.093,0,.186.007.278.007l6.85.005c.235.08.487.056.726.156a2.2,2.2,0,0,1,1.346,1.914c.057,1.294.016,2.588.025,3.881A2.212,2.212,0,0,1,21.4,20.8a2.158,2.158,0,0,1-1.684.938.236.236,0,0,0-.042-.007q-3.512,0-7.024,0c-.053,0-.116-.025-.156.037m2.034-2.415c.543-.319,1.082-.644,1.63-.955.134-.076.242-.24.355-.261.319-.061.517-.324.812-.415.1-.03.131-.133,0-.223-.111-.075-.244-.105-.346-.18-.378-.275-.8-.475-1.188-.732-.405-.268-.84-.492-1.262-.735-.079.029-.043.1-.043.146q0,1.6,0,3.209c0,.048-.037.117.043.145" transform="translate(-5.014 -6.61)" fill="#fffefe"/>
      <path id="Path_18367" data-name="Path 18367" d="M14.685,29.722c.04-.063.1-.037.156-.037q3.512,0,7.024,0a.236.236,0,0,1,.042.007.306.306,0,0,1-.186.036l-7.036,0" transform="translate(-7.208 -14.56)" fill="#ea3d44"/>
      <path id="Path_18368" data-name="Path 18368" d="M21.988,13.448l-6.85-.005c-.093,0-.186,0-.279-.007.068-.058.151-.035.227-.035q3.329,0,6.658,0c.083,0,.174-.024.244.047" transform="translate(-7.294 -6.572)" fill="#ea3d44"/>
      <path id="Path_18369" data-name="Path 18369" d="M18.678,18.152c.422.243.856.467,1.262.734.388.257.811.457,1.188.732.1.074.235.1.346.18.132.09.1.193,0,.223-.3.091-.493.354-.813.415-.113.021-.22.185-.354.261-.548.311-1.088.635-1.63.955q0-1.751,0-3.5" transform="translate(-9.168 -8.905)" fill="#e60019"/>
      <path id="Path_18370" data-name="Path 18370" d="M18.629,18.152q0,1.75,0,3.5c-.08-.029-.043-.1-.044-.145q0-1.6,0-3.209c0-.049-.036-.117.043-.146" transform="translate(-9.119 -8.905)" fill="#ea3d44"/>
    </g>
  </g>
</svg>
