<svg xmlns="http://www.w3.org/2000/svg" xmlns:xlink="http://www.w3.org/1999/xlink" width="80" height="80" viewBox="0 0 80 80">
  <defs>
    <clipPath id="clip-path">
      <rect id="Rectangle_71" data-name="Rectangle 71" width="80" height="80" fill="none"/>
    </clipPath>
  </defs>
  <g id="Group_1404" data-name="Group 1404" transform="translate(0 0)">
    <g id="Group_1403" data-name="Group 1403" transform="translate(0 0)" clip-path="url(#clip-path)">
      <path id="Path_1753" data-name="Path 1753" d="M0,43.126v-6.25c.162-.05.146-.189.156-.315a33.705,33.705,0,0,1,.456-3.478,39.092,39.092,0,0,1,15.8-25.352A38.848,38.848,0,0,1,46.9.63,38.881,38.881,0,0,1,68.25,11.738a2.144,2.144,0,0,1-.188.247q-5.622,5.63-11.246,11.258a.936.936,0,0,1-.745.355l-3.578-3.45a3.319,3.319,0,0,0-2.307-.064c-.425.128-.093.972-.176,1.486-.008.05-.02.1-.031.151-.469-.086-.706-.475-.981-.791s-.443-.685-.881-.787a7.8,7.8,0,0,0-2.529-.136c-.338.962.016,1.985-.206,2.982-.366-.119-.507-.424-.751-.6-.361-.265-.53-.8-1.1-.771l.006-.012a.3.3,0,0,0-.2-.346,3.813,3.813,0,0,0-1.779-1.572l-4.732-4.809c-.849.006-1.7.032-2.548.008a.557.557,0,0,0-.646.483c-.211.766-.454,1.523-.683,2.284l-2.653-2.513c-.156-.268-.409-.268-.676-.262-.623.01-1.25.04-1.87-.007-.661-.05-.656.174-.431.693,1.04,2.4,2.043,4.815,3.071,7.22a2.951,2.951,0,0,1,.252,1.2c-.011,3.092-.006,6.186-.006,9.278l2.634,2.656c-1.767.008-3.534.056-5.3.017a6.432,6.432,0,0,0-6.827,6.811c.1,4,.031,8.008.015,12.013a9.226,9.226,0,0,0,.589,3.658c-1.506,1.31-2.843,2.793-4.267,4.186-1.924,1.884-3.831,3.784-5.746,5.677A39.64,39.64,0,0,1,.44,45.92,14.309,14.309,0,0,0,0,43.126" transform="translate(0 0)" fill="#c60f1d"/>
      <path id="Path_1754" data-name="Path 1754" d="M32.683,35.551,30.048,32.9c.752.012,1.507-.008,2.256.05.568.043.682-.172.678-.7-.026-2.858-.007-5.716-.017-8.575a3.3,3.3,0,0,1,.24-1.283q1.442-3.562,2.855-7.137c.092-.234.263-.457.179-.738l4.731,4.81c-2.57-.615-4.478.289-4.736,3.142a36.22,36.22,0,0,0,.067,7.926,2.727,2.727,0,0,0,1.143,1.962,3.587,3.587,0,0,0,5.662-2.417,28.369,28.369,0,0,0-.157-8.683c.569-.033.739.505,1.1.771.243.18.385.486.751.6.222-1-.132-2.02.206-2.983.006,3.613-.009,7.227.03,10.84a2.051,2.051,0,0,0,2.109,2.284c.706-.022,1.141-.489,1.693-1.034-.135.69.1.881.641.836a7.908,7.908,0,0,1,1.557,0c.7.081.863-.167.859-.856-.025-3.976,0-7.954.015-11.931l3.577,3.45c.153.176.294.364.458.528q11.14,11.15,22.285,22.293c.165.164.351.305.529.458a12.009,12.009,0,0,1-.549,2.88A39.589,39.589,0,0,1,63.841,71.318a39.151,39.151,0,0,1-18.3,7.874,17.672,17.672,0,0,0-3.013.446h-.468c-.043-.409-.379-.608-.63-.859q-8.592-8.607-17.189-17.209c-.244-.244-.624-.425-.552-.876a8.694,8.694,0,0,0,4.151.843c1.794-.042,3.59-.01,5.387-.01,6.609,0,13.218-.037,19.827.015a6.433,6.433,0,0,0,6.705-6.7c-.128-4.239-.028-8.485-.03-12.728a6.759,6.759,0,0,0-.235-2.084,6.375,6.375,0,0,0-6.2-4.449c-1.743-.03-3.487,0-5.23-.007q-7.688-.011-15.376-.026" transform="translate(0.584 0.363)" fill="#aa0d23"/>
      <path id="Path_1755" data-name="Path 1755" d="M36.422,78.577a15.736,15.736,0,0,0-2.932-.456A39.915,39.915,0,0,1,11.513,66.987a.43.43,0,0,1-.065-.134c1.914-1.893,3.822-3.793,5.745-5.676,1.424-1.394,2.76-2.877,4.268-4.186a8.611,8.611,0,0,0,2.013,2.316.333.333,0,0,0,.293.208l0,0,.2.114.013,0c-.072.452.308.632.551.876q8.59,8.61,17.19,17.209c.251.251.587.45.629.859Z" transform="translate(0.282 1.424)" fill="#be0a22"/>
      <path id="Path_1756" data-name="Path 1756" d="M23.248,59.854a8.647,8.647,0,0,1-2.013-2.316,9.229,9.229,0,0,1-.589-3.658c.015-4,.084-8.011-.015-12.013a6.432,6.432,0,0,1,6.827-6.811c1.766.038,3.534-.008,5.3-.018q7.688.015,15.376.027c1.744,0,3.487-.023,5.23.006a6.376,6.376,0,0,1,6.2,4.449A6.8,6.8,0,0,1,59.8,41.6c0,4.242-.1,8.489.03,12.727a6.434,6.434,0,0,1-6.706,6.7c-6.609-.052-13.218-.014-19.827-.014-1.8,0-3.591-.033-5.387.01a8.7,8.7,0,0,1-4.15-.844l-.014,0-.2-.114,0,0-.293-.208M42.706,55.4a2.866,2.866,0,0,1,.824.556c1.619,1.115,3.2.616,3.534-1.307a34.694,34.694,0,0,0,.1-9.025c-.173-1.925-1.865-2.51-3.56-1.5-.189.112-.342.324-.667.266,0-1.369-.011-2.741.006-4.112.005-.376-.055-.577-.5-.548a14.767,14.767,0,0,1-1.717,0c-.377-.019-.482.114-.481.485q.014,7.813.006,15.624c0,.168-.079.453.138.468a9.409,9.409,0,0,0,1.869-.008c.449-.059.208-.623.447-.9m-6.334-.367c.164,1.446.165,1.414,1.505,1.453.581.016.736-.134.731-.725-.032-3.2-.015-6.4-.015-9.6,0-2.159,0-2.143-2.162-2.093-.454.011-.559.155-.553.581.023,1.482.007,2.964.009,4.447,0,1.405,0,2.809.014,4.215.005.647-.3,1.09-.931,1.109s-.665-.537-.7-1.016c-.012-.155-.013-.312-.013-.468q.006-3.395.014-6.789c0-2.194,0-2.194-2.191-2.072-.026,0-.052,0-.078,0-.329-.029-.463.108-.457.449.064,3.484-.106,6.972.128,10.453a1.625,1.625,0,0,0,1.978,1.578,3.926,3.926,0,0,0,2.723-1.522m12.662-5.1c0,1.065-.019,2.132.011,3.2a3.524,3.524,0,0,0,.246.978,3.368,3.368,0,0,0,6.612-1.1c.008-.678-.151-.96-.9-.911-1.145.077-1.148.024-1.185,1.136a2.623,2.623,0,0,1-.014.312,1.2,1.2,0,0,1-1.421,1.1,1.106,1.106,0,0,1-1.2-1.223c-.02-.779.02-1.56-.016-2.34-.022-.46.15-.564.578-.555,1.2.027,2.393-.006,3.587.017.411.007.544-.123.527-.533-.06-1.428-.075-2.859-.143-4.285a2.333,2.333,0,0,0-.735-1.59,3.618,3.618,0,0,0-5.706,1.611,15.139,15.139,0,0,0-.236,4.185m-20.2-.731V43.662c0-1.781,0-1.781,1.756-1.781,1.535,0,1.511,0,1.521-1.508,0-.514-.142-.656-.657-.652-2.367.026-4.736.049-7.1-.018-.844-.026-1.035.237-.985,1.022.069,1.081.016,1.085,1.132,1.087a5.173,5.173,0,0,0,.7,0c.692-.1.924.133.916.875-.04,3.9-.025,7.806-.012,11.71,0,.669-.292,1.545.129,1.953s1.288.067,1.955.131c.5.048.663-.115.656-.639-.03-2.211-.012-4.424-.012-6.636" transform="translate(0.509 0.875)" fill="#fffdfd"/>
      <path id="Path_1757" data-name="Path 1757" d="M66.9,11.451a36.656,36.656,0,0,1,6.241,8.005,39.351,39.351,0,0,1,5.123,14.679,40.774,40.774,0,0,1-.151,12.173,1.206,1.206,0,0,1-.122.284c-.176-.154-.364-.3-.528-.459Q66.32,34.99,55.18,23.84c-.165-.164-.306-.353-.458-.528a.933.933,0,0,0,.745-.355q5.621-5.63,11.246-11.257a2.168,2.168,0,0,0,.188-.249" transform="translate(1.35 0.286)" fill="#be0a22"/>
      <path id="Path_1758" data-name="Path 1758" d="M36.17,14.511c.083.28-.088.5-.18.737q-1.417,3.573-2.855,7.138a3.3,3.3,0,0,0-.24,1.283c.01,2.859-.008,5.716.016,8.575.005.53-.11.745-.677.7-.749-.057-1.5-.037-2.255-.05,0-3.092-.006-6.186,0-9.278a2.934,2.934,0,0,0-.251-1.2c-1.029-2.4-2.032-4.82-3.071-7.22-.225-.519-.23-.743.432-.693.619.047,1.245.017,1.868.007.268-.005.521-.005.676.262l1.651,6.034a31.267,31.267,0,0,0,1-3.521c.23-.761.473-1.518.683-2.284a.558.558,0,0,1,.647-.483c.848.024,1.7,0,2.549-.008" transform="translate(0.654 0.362)" fill="#fcf3f2"/>
      <path id="Path_1759" data-name="Path 1759" d="M51.4,19.663c-.01,3.977-.04,7.954-.014,11.931,0,.688-.163.937-.859.856a7.83,7.83,0,0,0-1.557,0c-.542.045-.778-.147-.642-.836-.55.545-.987,1.012-1.693,1.034a2.052,2.052,0,0,1-2.109-2.284c-.039-3.613-.024-7.227-.03-10.84a7.8,7.8,0,0,1,2.529.136q-.015,4.915-.027,9.83a.885.885,0,0,0,.951.994.876.876,0,0,0,.964-.977c0-2.756-.016-5.512-.027-8.269.01-.05.023-.1.031-.151.083-.515-.249-1.358.176-1.486a3.319,3.319,0,0,1,2.307.064" transform="translate(1.098 0.485)" fill="#fcf3f2"/>
      <path id="Path_1760" data-name="Path 1760" d="M42.651,21.138a28.4,28.4,0,0,1,.157,8.683,3.587,3.587,0,0,1-5.662,2.417A2.727,2.727,0,0,1,36,30.276a36.283,36.283,0,0,1-.068-7.926c.259-2.852,2.167-3.757,4.737-3.142a3.809,3.809,0,0,1,1.78,1.572l.2.346ZM40.562,25.93c0-1.092.016-2.183-.005-3.275-.018-.931-.453-1.446-1.164-1.451s-1.2.53-1.207,1.432q-.035,3.275,0,6.55c.008.9.491,1.446,1.189,1.454s1.163-.514,1.182-1.435c.024-1.092.006-2.183.006-3.275" transform="translate(0.882 0.475)" fill="#fcf3f2"/>
      <path id="Path_1761" data-name="Path 1761" d="M48.822,21.23c.01,2.756.027,5.512.027,8.268a.876.876,0,0,1-.964.977.885.885,0,0,1-.951-.993q0-4.915.027-9.83c.439.1.618.484.881.787s.511.705.981.791" transform="translate(1.158 0.491)" fill="#aa0d23"/>
      <path id="Path_1762" data-name="Path 1762" d="M32.217,17.278a31.717,31.717,0,0,1-1,3.522l-1.651-6.033,2.653,2.511" transform="translate(0.729 0.369)" fill="#ab1225"/>
      <path id="Path_1763" data-name="Path 1763" d="M42.5,21.083l-.2-.346a.3.3,0,0,1,.2.346" transform="translate(1.043 0.518)" fill="#aa0d23"/>
      <path id="Path_1764" data-name="Path 1764" d="M23.185,59.25l.293.208a.335.335,0,0,1-.293-.208" transform="translate(0.572 1.48)" fill="#aa0d23"/>
      <path id="Path_1765" data-name="Path 1765" d="M23.476,59.455l.2.114-.2-.114" transform="translate(0.579 1.485)" fill="#aa0d23"/>
      <path id="Path_1766" data-name="Path 1766" d="M42.234,55.285c-.24.278,0,.841-.447.9a9.42,9.42,0,0,1-1.87.009c-.217-.015-.138-.3-.138-.469q0-7.812-.006-15.624c0-.372.1-.5.482-.485a15.236,15.236,0,0,0,1.717,0c.445-.03.505.172.5.548-.017,1.37-.007,2.742-.007,4.112.326.057.479-.156.668-.268,1.694-1.01,3.387-.422,3.56,1.5a34.746,34.746,0,0,1-.1,9.026c-.332,1.923-1.916,2.421-3.535,1.306a2.889,2.889,0,0,0-.823-.556m2.586-5.49c0-1.168.012-2.337,0-3.505a1.067,1.067,0,0,0-1.2-1.2,1.091,1.091,0,0,0-1.173,1.232q-.014,3.35,0,6.7a1.139,1.139,0,0,0,1.21,1.288,1.111,1.111,0,0,0,1.164-1.247c.013-1.091,0-2.181,0-3.272" transform="translate(0.981 0.99)" fill="#aa0d23"/>
      <path id="Path_1767" data-name="Path 1767" d="M36.108,54.813a3.926,3.926,0,0,1-2.723,1.522,1.625,1.625,0,0,1-1.978-1.578c-.233-3.482-.065-6.969-.127-10.453-.006-.341.128-.478.456-.449.027,0,.052,0,.079,0,2.188-.122,2.191-.122,2.19,2.072q0,3.395-.013,6.789c0,.156,0,.313.012.468.036.478.073,1.035.7,1.016s.937-.462.931-1.109c-.012-1.405-.012-2.81-.014-4.215,0-1.483.013-2.965-.009-4.447-.006-.426.1-.571.554-.582,2.162-.049,2.161-.065,2.161,2.094,0,3.2-.016,6.4.015,9.6.006.59-.15.741-.731.725-1.34-.039-1.341-.007-1.505-1.453" transform="translate(0.772 1.094)" fill="#ab1225"/>
      <path id="Path_1768" data-name="Path 1768" d="M48.35,49.735a15.183,15.183,0,0,1,.237-4.185,3.617,3.617,0,0,1,5.706-1.61,2.328,2.328,0,0,1,.734,1.589c.07,1.428.084,2.858.144,4.286.016.409-.117.54-.527.533-1.2-.024-2.392.009-3.587-.017-.429-.009-.6.094-.578.555.037.779,0,1.561.016,2.34a1.106,1.106,0,0,0,1.2,1.223,1.2,1.2,0,0,0,1.421-1.1,2.869,2.869,0,0,0,.014-.312c.037-1.113.04-1.059,1.185-1.136.752-.05.911.234.9.911a3.367,3.367,0,0,1-6.611,1.1,3.533,3.533,0,0,1-.246-.978c-.032-1.065-.012-2.132-.012-3.2M51.728,48.2c1.406,0,1.406,0,1.411-1.048.005-1.085-.439-1.652-1.3-1.659-.94-.009-1.261.564-1.346,1.942-.078,1.26.833.578,1.235.765" transform="translate(1.192 1.077)" fill="#ab1225"/>
      <path id="Path_1769" data-name="Path 1769" d="M28.77,49.092c0,2.212-.017,4.425.012,6.636.007.524-.152.687-.656.639-.667-.065-1.54.274-1.955-.131s-.127-1.283-.129-1.953c-.012-3.9-.028-7.808.012-11.71.008-.742-.224-.975-.916-.875a5.173,5.173,0,0,1-.7,0c-1.116,0-1.064-.006-1.132-1.087-.05-.785.14-1.048.985-1.022,2.365.068,4.734.044,7.1.018.514,0,.66.138.657.652-.009,1.508.014,1.508-1.521,1.508-1.756,0-1.756,0-1.756,1.781v5.543" transform="translate(0.575 0.989)" fill="#ab1225"/>
      <path id="Path_1770" data-name="Path 1770" d="M40.5,25.877c0,1.092.017,2.183-.006,3.275-.019.921-.472,1.443-1.182,1.435s-1.179-.552-1.189-1.454q-.032-3.275,0-6.55c.009-.9.5-1.437,1.207-1.432s1.146.521,1.164,1.451c.022,1.092.005,2.183.005,3.275" transform="translate(0.94 0.529)" fill="#aa0d23"/>
      <path id="Path_1771" data-name="Path 1771" d="M44.756,49.662c0,1.091.01,2.181,0,3.272a1.111,1.111,0,0,1-1.164,1.247,1.139,1.139,0,0,1-1.21-1.288q-.011-3.35,0-6.7a1.091,1.091,0,0,1,1.173-1.232,1.067,1.067,0,0,1,1.2,1.2c.016,1.168,0,2.337,0,3.505" transform="translate(1.045 1.123)" fill="#fffdfd"/>
      <path id="Path_1772" data-name="Path 1772" d="M51.676,48.138c-.4-.187-1.313.5-1.235-.765.085-1.379.407-1.952,1.346-1.942.861.007,1.3.574,1.3,1.659-.005,1.048-.005,1.048-1.411,1.048" transform="translate(1.244 1.135)" fill="#fcf3f2"/>
    </g>
  </g>
</svg>
